<?xml version="1.0" encoding="utf-8"?><svg xmlns="http://www.w3.org/2000/svg" xmlns:xlink="http://www.w3.org/1999/xlink"><symbol fill="none" viewBox="0 0 34 34" id="alt_arrow_down" xmlns="http://www.w3.org/2000/svg"><path d="M26.917 12.75 17 21.25l-9.917-8.5" stroke="#161117" stroke-width="1.5" stroke-linecap="round" stroke-linejoin="round"/></symbol><symbol fill="none" viewBox="0 0 59 31" id="alx" xmlns="http://www.w3.org/2000/svg"><g fill="#262626"><path d="M21.645 19.78c0 5.976-4.845 10.822-10.822 10.822C4.845 30.602 0 25.756 0 19.779S4.845 8.957 10.823 8.957c5.977 0 10.822 4.845 10.822 10.822Zm-14.528 0a3.706 3.706 0 1 0 7.411 0 3.706 3.706 0 0 0-7.411 0Z"/><path d="M14.928 8.957h7.464v21.645h-7.464V8.957ZM26.124 3.732 33.588 0v30.602h-7.464V3.732ZM53.332 4.463a.746.746 0 0 1 1.055.02l4.138 4.305a.746.746 0 0 1-.02 1.056L41.92 25.787a.746.746 0 0 1-1.055-.02l-4.139-4.305a.746.746 0 0 1 .021-1.055L53.332 4.463Z"/><path d="M58.393 20.631a.746.746 0 0 1-.002 1.056l-4.226 4.218a.747.747 0 0 1-1.056-.002L36.86 9.62a.746.746 0 0 1 .002-1.056l4.227-4.217a.746.746 0 0 1 1.055 0l16.25 16.285Z"/></g></symbol><symbol fill="none" viewBox="0 0 59 31" id="alx_white" xmlns="http://www.w3.org/2000/svg"><path d="M21.645 19.78c0 5.976-4.845 10.822-10.822 10.822C4.845 30.602 0 25.756 0 19.779S4.845 8.957 10.823 8.957c5.977 0 10.822 4.845 10.822 10.822Zm-14.528 0a3.706 3.706 0 1 0 7.411 0 3.706 3.706 0 0 0-7.411 0Z" fill="#fff"/><path d="M14.928 8.957h7.464v21.645h-7.464V8.957ZM26.124 3.732 33.588 0v30.602h-7.464V3.732ZM53.332 4.463a.746.746 0 0 1 1.055.02l4.138 4.305a.746.746 0 0 1-.02 1.056L41.92 25.787a.746.746 0 0 1-1.055-.02l-4.139-4.305a.746.746 0 0 1 .021-1.055L53.332 4.463Z" fill="#fff"/><path d="M58.393 20.631a.746.746 0 0 1-.002 1.056l-4.226 4.218a.747.747 0 0 1-1.056-.002L36.86 9.62a.746.746 0 0 1 .002-1.056l4.227-4.217a.746.746 0 0 1 1.055 0l16.25 16.285Z" fill="#fff"/></symbol><symbol fill="none" viewBox="0 0 34 34" id="apartment_1" xmlns="http://www.w3.org/2000/svg"><g fill="#616161"><path d="M14.344 7.969h2.125A.531.531 0 0 0 17 7.437V4.25a.531.531 0 0 0-.531-.531h-2.125a.531.531 0 0 0-.531.531v3.188a.531.531 0 0 0 .53.53Zm.531-3.188h1.063v2.125h-1.063V4.781ZM18.594 7.969h2.125a.531.531 0 0 0 .531-.532V4.25a.531.531 0 0 0-.531-.531h-2.125a.531.531 0 0 0-.532.531v3.188a.531.531 0 0 0 .532.53Zm.531-3.188h1.063v2.125h-1.063V4.781ZM22.844 7.969h2.125a.531.531 0 0 0 .531-.532V4.25a.531.531 0 0 0-.531-.531h-2.125a.531.531 0 0 0-.532.531v3.188a.531.531 0 0 0 .532.53Zm.531-3.188h1.063v2.125h-1.063V4.781ZM14.344 13.281h2.125A.531.531 0 0 0 17 12.75V9.562a.531.531 0 0 0-.531-.53h-2.125a.531.531 0 0 0-.531.53v3.188a.532.532 0 0 0 .53.531Zm.531-3.187h1.063v2.125h-1.063v-2.125ZM18.594 13.281h2.125a.531.531 0 0 0 .531-.531V9.562a.531.531 0 0 0-.531-.53h-2.125a.531.531 0 0 0-.532.53v3.188a.532.532 0 0 0 .532.531Zm.531-3.187h1.063v2.125h-1.063v-2.125ZM22.844 13.281h2.125a.531.531 0 0 0 .531-.531V9.562a.531.531 0 0 0-.531-.53h-2.125a.531.531 0 0 0-.532.53v3.188a.532.532 0 0 0 .532.531Zm.531-3.187h1.063v2.125h-1.063v-2.125ZM10.094 7.969h2.125a.531.531 0 0 0 .531-.532V4.25a.531.531 0 0 0-.531-.531h-2.125a.531.531 0 0 0-.531.531v3.188a.531.531 0 0 0 .53.53Zm.531-3.188h1.063v2.125h-1.063V4.781ZM10.094 13.281h2.125a.531.531 0 0 0 .531-.531V9.562a.531.531 0 0 0-.531-.53h-2.125a.531.531 0 0 0-.531.53v3.188a.531.531 0 0 0 .53.531Zm.531-3.187h1.063v2.125h-1.063v-2.125ZM14.344 18.594h2.125a.531.531 0 0 0 .531-.532v-3.187a.532.532 0 0 0-.531-.531h-2.125a.531.531 0 0 0-.531.531v3.188a.532.532 0 0 0 .53.53Zm.531-3.188h1.063v2.125h-1.063v-2.125ZM10.094 18.594h2.125a.531.531 0 0 0 .531-.532v-3.187a.532.532 0 0 0-.531-.531h-2.125a.531.531 0 0 0-.531.531v3.188a.531.531 0 0 0 .53.53Zm.531-3.188h1.063v2.125h-1.063v-2.125ZM18.594 18.594h2.125a.531.531 0 0 0 .531-.532v-3.187a.532.532 0 0 0-.531-.531h-2.125a.531.531 0 0 0-.532.531v3.188a.532.532 0 0 0 .532.53Zm.531-3.188h1.063v2.125h-1.063v-2.125ZM22.844 18.594h2.125a.531.531 0 0 0 .531-.532v-3.187a.532.532 0 0 0-.531-.531h-2.125a.531.531 0 0 0-.532.531v3.188a.532.532 0 0 0 .532.53Zm.531-3.188h1.063v2.125h-1.063v-2.125ZM14.344 23.906h2.125a.531.531 0 0 0 .531-.531v-3.188a.532.532 0 0 0-.531-.53h-2.125a.531.531 0 0 0-.531.53v3.188a.532.532 0 0 0 .53.531Zm.531-3.187h1.063v2.125h-1.063v-2.125ZM10.094 23.906h2.125a.531.531 0 0 0 .531-.531v-3.188a.532.532 0 0 0-.531-.53h-2.125a.531.531 0 0 0-.531.53v3.188a.531.531 0 0 0 .53.531Zm.531-3.187h1.063v2.125h-1.063v-2.125ZM18.594 23.906h2.125a.531.531 0 0 0 .531-.531v-3.188a.532.532 0 0 0-.531-.53h-2.125a.531.531 0 0 0-.532.53v3.188a.532.532 0 0 0 .532.531Zm.531-3.187h1.063v2.125h-1.063v-2.125ZM22.844 23.906h2.125a.531.531 0 0 0 .531-.531v-3.188a.532.532 0 0 0-.531-.53h-2.125a.531.531 0 0 0-.532.53v3.188a.532.532 0 0 0 .532.531Zm.531-3.187h1.063v2.125h-1.063v-2.125Z"/><path d="M32.406 20.719h-4.781V2.125a.53.53 0 0 0-.531-.531H7.969a.531.531 0 0 0-.531.531v19.063a2.954 2.954 0 0 0-4.418 3.36 2.953 2.953 0 0 0 1.002 5.733c.449-.002.89-.109 1.29-.311v1.905a.531.531 0 0 0 1.063 0V29.97c.332.164.693.263 1.063.292v1.613a.531.531 0 0 0 .53.531h23.376a.531.531 0 0 0 .531-.531v-7.969h.531a.531.531 0 0 0 .532-.531V21.25a.531.531 0 0 0-.532-.531ZM5.844 27.094a.531.531 0 0 0-.531.531v1.063c-.345.338-.808.529-1.29.53a1.89 1.89 0 0 1-.198-3.771.532.532 0 0 0 .4-.8 1.865 1.865 0 0 1-.276-.969 1.897 1.897 0 0 1 3.795 0 1.866 1.866 0 0 1-.276.968.531.531 0 0 0 .4.8 1.89 1.89 0 0 1-.2 3.773 1.853 1.853 0 0 1-1.293-.532v-1.062a.532.532 0 0 0-.531-.531Zm14.343 4.25h-5.312V26.03h5.313v5.313Zm6.375 0H21.25V25.5a.531.531 0 0 0-.531-.531h-6.375a.532.532 0 0 0-.531.531v5.844H8.5V30.16a2.951 2.951 0 0 0 .168-5.612 2.895 2.895 0 0 0-.168-2.166V2.656h18.063v28.688Zm4.25 0h-3.187v-7.438h3.188v7.438Zm1.063-8.5h-4.25V21.78h4.25v1.063Z"/></g></symbol><symbol fill="none" viewBox="0 0 34 34" id="arrow_left" xmlns="http://www.w3.org/2000/svg"><path d="M28.333 17H5.667m0 0 8.5-8.5m-8.5 8.5 8.5 8.5" stroke="#1C274C" stroke-width="1.5" stroke-linecap="round" stroke-linejoin="round"/></symbol><symbol fill="none" viewBox="0 0 34 34" id="arrow_right" xmlns="http://www.w3.org/2000/svg"><path d="M5.667 17h22.666m0 0-8.5-8.5m8.5 8.5-8.5 8.5" stroke="#34967C" stroke-width="1.5" stroke-linecap="round" stroke-linejoin="round"/></symbol><symbol fill="none" viewBox="0 0 34 34" id="barn_1" xmlns="http://www.w3.org/2000/svg"><g fill="#616161" clip-path="url(#aya)"><path d="M27.486 0a6.522 6.522 0 0 0-6.516 6.514v2.894s-4.637-2.45-4.72-2.496c-.633-.35-.808-.35-1.442 0-.082.045-9.04 4.778-9.04 4.778-.76.4-.867.515-1.188 1.048-.052.088-4.363 6.922-4.363 6.922-.21.334-.27.728-.168 1.11.107.403.387.749.768.95a1.624 1.624 0 0 0 1.874-.255v4.32a.498.498 0 0 0 .996 0V19.97l3.297-5.225c.155-.248.221-.35.299-.42.088-.078.243-.163.575-.339l7.504-3.96c.053-.03.099-.054.14-.076l.027-.016.029.016.14.076s7.849 4.144 7.945 4.204c.058.036.1.066.133.095.078.07.144.172.299.42l3.297 5.225v10.672h-5.64v-6.928h.84a.923.923 0 0 0 .92-.922V21.37a.923.923 0 0 0-.92-.922h-5.653a.498.498 0 0 0 0 .996h5.578v1.274H8.564v-1.274h6.056a.498.498 0 0 0 0-.996H8.49a.923.923 0 0 0-.922.922v1.423c0 .508.413.922.921.922h.839v6.928H3.687v-2.56a.498.498 0 0 0-.996 0v5.082c0 .46.374.835.835.835h29.61a.864.864 0 0 0 .864-.863V6.514A6.521 6.521 0 0 0 27.486 0ZM9.328 33.004H3.687V31.64h5.64v1.364Zm10.61-9.29L15.53 27.69l-4.408-3.974h8.817Zm-9.614.622 4.463 4.023-4.463 4.023v-8.046Zm.798 8.668 4.408-3.974 4.409 3.974h-8.817Zm9.615-.622-4.463-4.023 4.463-4.023v8.046Zm6.635.622h-5.64V31.64h5.64v1.364ZM30.92 19.8a1.454 1.454 0 0 0-.077-.14l-3.45-5.464h5.61v5.604H30.92ZM21.966 6.514a5.525 5.525 0 0 1 5.52-5.518 5.524 5.524 0 0 1 5.518 5.518V6.6H21.966v-.086Zm0 1.082h11.038V13.2h-6.239s-.234-.375-.286-.462c-.321-.534-.428-.649-1.187-1.048l-3.326-1.757V7.596Zm6.325 11.965-3.372-5.344c-.319-.509-.433-.652-.882-.909-.034-.02-7.964-4.21-8-4.23-.34-.186-.522-.221-.802-.105l-.008.003c-.04.017-7.834 4.13-7.834 4.13-.78.412-.861.485-1.253 1.111l-3.372 5.344-.002.003-.684 1.083c-.157.25-.523.338-.8.192a.532.532 0 0 1-.271-.325.397.397 0 0 1 .048-.322s4.32-6.848 4.375-6.94c.229-.38.229-.38.798-.68 0 0 9.243-4.89 9.297-4.915.055.025 9.298 4.915 9.298 4.915.57.3.57.3.798.68.055.092.12.2.203.331l4.173 6.608a.4.4 0 0 1 .047.323.532.532 0 0 1-.27.325c-.28.148-.64.062-.802-.192l-.683-1.083-.002-.003Zm4.713 13.443h-4.636v-5.605h4.636v5.605Zm-4.636-6.602v-4.94c.486.468 1.246.59 1.875.258.372-.197.647-.532.76-.923h2v5.605h-4.635Z"/><path d="M18.943 15.796a3.418 3.418 0 0 0-3.414-3.414 3.417 3.417 0 0 0-3.412 3.414 3.417 3.417 0 0 0 3.412 3.414 3.418 3.418 0 0 0 3.414-3.414Zm-5.83 0a2.42 2.42 0 0 1 2.416-2.418 2.42 2.42 0 0 1 2.418 2.418 2.42 2.42 0 0 1-2.418 2.418 2.42 2.42 0 0 1-2.415-2.418Z"/></g><defs><clipPath id="aya"><path fill="#fff" d="M0 0h34v34H0z"/></clipPath></defs></symbol><symbol fill="none" viewBox="0 0 34 34" id="bathtub_1" xmlns="http://www.w3.org/2000/svg"><g clip-path="url(#aca)" fill="#131212"><path d="M1.33 22.956v2.74c0 3.166 2.327 5.799 5.36 6.278V34h1.993v-1.948h16.635V34h1.992v-2.026c3.034-.48 5.36-3.112 5.36-6.279v-2.74H1.33ZM3.322 16.976V5.482a3.494 3.494 0 0 1 3.49-3.49 3.494 3.494 0 0 1 3.464 3.07A4.659 4.659 0 0 0 6.647 9.6v1.329h9.303V9.598a4.659 4.659 0 0 0-3.674-4.547A5.489 5.489 0 0 0 6.812 0 5.488 5.488 0 0 0 1.33 5.482v11.494H.001v3.988h34v-3.988H3.321Z"/></g><defs><clipPath id="aca"><path fill="#fff" d="M0 0h34v34H0z"/></clipPath></defs></symbol><symbol fill="none" viewBox="0 0 34 34" id="bed_1" xmlns="http://www.w3.org/2000/svg"><path d="M28.688 15.32a5.275 5.275 0 0 0-2.125-.445H7.438a5.32 5.32 0 0 0-5.313 5.313v7.437a1.062 1.062 0 1 0 2.125 0v-.531a.538.538 0 0 1 .531-.531H29.22a.538.538 0 0 1 .531.531v.531a1.062 1.062 0 1 0 2.125 0v-7.437a5.318 5.318 0 0 0-3.188-4.868ZM24.969 5.313H9.03A3.719 3.719 0 0 0 5.312 9.03v4.782a.265.265 0 0 0 .34.255 6.344 6.344 0 0 1 1.785-.255h.281a.266.266 0 0 0 .266-.236 2.125 2.125 0 0 1 2.11-1.89h3.718a2.126 2.126 0 0 1 2.112 1.89.266.266 0 0 0 .266.236h1.624a.266.266 0 0 0 .266-.236 2.126 2.126 0 0 1 2.107-1.89h3.72a2.125 2.125 0 0 1 2.11 1.89.266.266 0 0 0 .267.236h.278a6.34 6.34 0 0 1 1.786.255.266.266 0 0 0 .34-.255V9.03a3.719 3.719 0 0 0-3.72-3.718Z" fill="#131212"/></symbol><symbol fill="none" viewBox="0 0 34 34" id="bell_1" xmlns="http://www.w3.org/2000/svg"><path d="M18.463 9.954a.531.531 0 0 1 .614-.433c2.613.46 5.005 1.761 6.812 3.704a.53.53 0 1 1-.778.723 11.134 11.134 0 0 0-6.216-3.38.53.53 0 0 1-.432-.614Zm13.18 17.721v.578a2.152 2.152 0 0 1-2.149 2.15H4.506a2.152 2.152 0 0 1-2.15-2.15v-.578a2.152 2.152 0 0 1 2.15-2.15h7.384v-3.514H3.27a.53.53 0 0 1-.532-.53 14.277 14.277 0 0 1 13.73-14.25V5.844h-2.655a.531.531 0 1 1 0-1.063h6.374a.531.531 0 0 1 0 1.063h-2.656V7.23a14.277 14.277 0 0 1 13.731 14.25.531.531 0 0 1-.531.53h-8.623v3.515h7.384a2.15 2.15 0 0 1 2.151 2.149ZM3.811 20.949H30.19a13.2 13.2 0 0 0-26.378 0Zm9.143 4.577h8.091V22.01h-8.09v3.515Zm17.627 2.149a1.088 1.088 0 0 0-1.087-1.087H4.506a1.088 1.088 0 0 0-1.087 1.087v.578a1.088 1.088 0 0 0 1.087 1.087h24.988a1.088 1.088 0 0 0 1.087-1.087v-.578ZM7.245 6.171l.008.013.899 1.317a.531.531 0 0 0 .88-.598L6.933 3.83a.531.531 0 1 0-.878.599L7.245 6.17Zm-1.88 4.905a.531.531 0 0 0 .283-.982L4.3 9.244l-.012-.008-1.786-1.124a.531.531 0 1 0-.566.899l3.145 1.986c.085.053.184.08.285.08Zm20.046-3.343a.531.531 0 0 0 .44-.232l.898-1.317.008-.013 1.187-1.742a.532.532 0 0 0-.878-.6l-2.097 3.074a.53.53 0 0 0 .438.83h.004Zm6.821.544a.531.531 0 0 0-.733-.165l-1.785 1.126-.012.007-1.35.849a.533.533 0 1 0 .567.903l3.145-1.984a.531.531 0 0 0 .166-.736h.002Z" fill="#000"/></symbol><symbol fill="none" viewBox="0 0 34 34" id="broom_1" xmlns="http://www.w3.org/2000/svg"><g clip-path="url(#afa)" fill="#000"><path d="M16.317 16.843c-.12.042-.24.091-.355.148a3.896 3.896 0 0 0-1.826 2.075c-.55 1.282-3.098 5.585-12.813 7.058a1.124 1.124 0 0 0-.775.48c-.175.26-.233.58-.158.884a5.533 5.533 0 0 0 1.133 2.13.562.562 0 0 0 .14.164 9.446 9.446 0 0 0 3.658 2.423c.015.006.029.013.044.018.66.26 1.336.476 2.024.646 1.217.3 2.458.492 3.709.574a.544.544 0 0 0 .067.01c.007 0 .013-.005.018-.005.33.02.663.033 1.004.033 2.158 0 4.54-.436 6.451-1.86.92.627 2.097.743 3.121.306a4.711 4.711 0 0 0 6.797.236 3.623 3.623 0 1 0 2.434-6.789 4.254 4.254 0 0 0-7-1.926 3.121 3.121 0 0 0-2.048-.348 22.513 22.513 0 0 0-.293-2.654A4.692 4.692 0 0 0 20.12 17.7l2.973-15.377a1.922 1.922 0 0 0-.29-1.454 1.947 1.947 0 0 0-3.535.71l-2.952 15.265Zm7.418 7.766c.237.18.573.143.765-.084a3.14 3.14 0 0 1 5.482 1.43.557.557 0 0 0 .47.446 2.508 2.508 0 1 1-1.703 4.596.557.557 0 0 0-.725.108 3.598 3.598 0 0 1-5.662-.209.557.557 0 0 0-.743-.147 2.163 2.163 0 1 1-1.755-3.913.557.557 0 0 0 .398-.528 2.174 2.174 0 0 1 2.163-2.14c.474-.002.934.154 1.31.441Zm-4.561 1.297a3.304 3.304 0 0 0-1.97 3.006c0 .692.222 1.367.632 1.925a9.025 9.025 0 0 1-4.566 1.495 12.027 12.027 0 0 0 2.533-2.244.558.558 0 0 0-.857-.714 11.998 11.998 0 0 1-3.898 2.954 20.165 20.165 0 0 1-3.388-.542c-.1-.026-.19-.056-.286-.08 2.978-1.018 6.39-2.773 8.416-5.755a.557.557 0 0 0-.922-.627c-2.19 3.227-6.229 4.918-9.302 5.778a9.226 9.226 0 0 1-2.364-1.372 21.008 21.008 0 0 0 6.262-1.93.557.557 0 1 0-.533-.978c-2.037 1.112-4.942 1.677-6.68 1.933a4.218 4.218 0 0 1-.769-1.528c8.566-1.299 11.928-4.802 13.163-6.759.21.203.44.385.687.544a4.977 4.977 0 0 0 2.73.756c.064 0 .126 0 .19-.003a8.815 8.815 0 0 0 2.409-.378c.096.694.155 1.392.175 2.091a3.289 3.289 0 0 0-1.662 2.428Zm1.288-5.635a7.464 7.464 0 0 1-2.246.38 3.902 3.902 0 0 1-2.275-.574 3.145 3.145 0 0 1-.74-.648 2.787 2.787 0 0 1 1.255-1.438 2.46 2.46 0 0 1 2.007-.025 3.4 3.4 0 0 1 2 2.305ZM20.363 1.79a.836.836 0 0 1 .972-.662.847.847 0 0 1 .542.36.82.82 0 0 1 .123.62l-2.89 14.938c-.084-.04-.167-.085-.252-.119a4.042 4.042 0 0 0-1.37-.267l2.875-14.87Z"/><path d="M26.203 25.963a.91.91 0 0 1 1.59.414.557.557 0 0 0 1.095-.21 2.025 2.025 0 0 0-3.537-.923.558.558 0 0 0 .852.72ZM29.262 19.23a1.95 1.95 0 1 0 3.902 0 1.95 1.95 0 0 0-3.902 0Zm2.787 0a.836.836 0 1 1-1.672 0 .836.836 0 0 1 1.672 0ZM27.59 17.279a1.672 1.672 0 1 0 0-3.345 1.672 1.672 0 0 0 0 3.345Zm0-2.23a.557.557 0 1 1 0 1.115.557.557 0 0 1 0-1.115ZM4.18 12.82c.308 0 .558-.25.558-.558v-1.114a.557.557 0 0 0-1.115 0v1.114c0 .308.25.558.557.558ZM4.738 15.607v-1.115a.557.557 0 0 0-1.115 0v1.115a.557.557 0 0 0 1.115 0ZM1.95 13.934h1.116a.557.557 0 0 0 0-1.114H1.95a.557.557 0 1 0 0 1.114ZM5.295 13.934H6.41a.557.557 0 0 0 0-1.114H5.295a.557.557 0 1 0 0 1.114ZM6.294 19.95l-.836.836a.557.557 0 1 0 .789.788l.836-.836a.557.557 0 0 0-.789-.788ZM9.59 17.442a.557.557 0 0 0-.787 0l-.836.836a.557.557 0 1 0 .788.788l.836-.836a.557.557 0 0 0 0-.788ZM8.755 19.95a.557.557 0 0 0-.788.788l.836.837a.557.557 0 0 0 .788-.789l-.836-.836ZM7.083 18.278l-.836-.836a.557.557 0 0 0-.789.788l.837.836a.557.557 0 0 0 .788-.788ZM6.87 5.614l9.476 1.672a.557.557 0 0 0 .194-1.097L7.064 4.516a.557.557 0 0 0-.194 1.098ZM15.788 10.073a.558.558 0 0 0 .194-1.097L9.941 7.908a.558.558 0 1 0-.194 1.098l6.041 1.066ZM7.474 10.876a.557.557 0 0 0 .452.646l7.305 1.29a.557.557 0 1 0 .193-1.098L8.12 10.422a.558.558 0 0 0-.646.453Z"/></g><defs><clipPath id="afa"><path fill="#fff" d="M0 0h34v34H0z"/></clipPath></defs></symbol><symbol fill="none" viewBox="0 0 34 34" id="cabin_1" xmlns="http://www.w3.org/2000/svg"><g fill="#616161" clip-path="url(#aza)"><path d="M33.987 16.259a2.262 2.262 0 0 0-.849-1.538l-3.105-2.298V6.8H25.5v2.268l-8.466-6.265L.885 14.167c-.48.369-.788.903-.866 1.503-.078.601.082 1.196.451 1.676.763.99 2.188 1.176 3.156.431l.341-.236v1.358a1.98 1.98 0 0 0-1.133 1.785 1.98 1.98 0 0 0 1.133 1.784v2.098a1.98 1.98 0 0 0-1.133 1.784 1.98 1.98 0 0 0 1.133 1.785v2.097a1.98 1.98 0 0 0-1.133 1.785c0 1.093.89 1.983 1.983 1.983h24.366c1.094 0 1.984-.89 1.984-1.983a1.98 1.98 0 0 0-1.7-1.955v-1.757a1.98 1.98 0 0 0 1.7-1.955 1.98 1.98 0 0 0-1.7-1.954v-1.758a1.98 1.98 0 0 0 1.7-1.954 1.98 1.98 0 0 0-1.7-1.955v-1.08l.854.622a2.266 2.266 0 0 0 3.666-2.013Zm-7.354-8.325H28.9v3.65l-2.267-1.677V7.934Zm-13.6 20.4v1.7H5.1v-1.7h7.934ZM5.1 24.367v-1.7h7.934v1.7H5.1ZM4.817 25.5h8.217v1.7H4.817a.851.851 0 0 1 0-1.7Zm8.217 7.367H4.817a.851.851 0 0 1 0-1.7h8.217v1.7Zm6.8 0h-5.667v-10.2h5.667v10.2Zm1.133-8.5v-1.7h7.366v1.7h-7.366Zm0 5.666v-1.7h7.366v1.7h-7.366Zm9.066 1.984c0 .468-.381.85-.85.85h-8.216v-1.7h8.216c.469 0 .85.381.85.85Zm0-5.667c0 .469-.381.85-.85.85h-8.216v-1.7h8.216c.469 0 .85.382.85.85Zm0-5.666c0 .468-.381.85-.85.85H4.817a.851.851 0 0 1 0-1.7h24.366c.469 0 .85.381.85.85ZM19.267 18.7h-1.7V17h1.7v1.7Zm0-2.833h-1.7v-1.7h1.7v1.7Zm-2.833 0h-1.7v-1.7h1.7v1.7ZM14.734 17h1.7v1.7h-1.7V17Zm7.933 0h5.666v1.7H20.4v-5.666h-6.8V18.7H5.1V17h6.234a.566.566 0 1 0 0-1.133H6.38l2.452-1.7H11.9v-1.133h-1.432l2.452-1.7h7.893l1.357.99.973.71H22.1v1.133h2.595l2.33 1.7h-4.359a.566.566 0 1 0 0 1.133Zm-8.113-6.8 2.413-1.672L19.26 10.2h-4.706Zm18.06 7.011a1.135 1.135 0 0 1-1.593.17l-1.587-1.158-.485-.356h-.003l-2.329-1.7h.001l-5.436-3.966-4.2-3.064-4.417 3.064-5.722 3.966h.002l-2.487 1.724-.004.001-.2.141-1.196.83a1.135 1.135 0 0 1-1.402-1.784L17.017 4.201l8.483 6.277 1.245.921 5.7 4.219c.236.19.384.46.415.761.032.3-.055.596-.245.832Z"/><path d="M15.3 28.334a.567.567 0 1 0 0-1.134.567.567 0 0 0 0 1.134ZM26.633 6.234a.596.596 0 0 0 .403-.164.596.596 0 0 0 .164-.403.595.595 0 0 0-.164-.402.593.593 0 0 0-.805 0 .592.592 0 0 0-.164.402c0 .148.061.295.164.403a.597.597 0 0 0 .402.164ZM28.9 6.234a.566.566 0 0 0 .567-.567V3.401a.566.566 0 1 0-1.134 0v2.266c0 .313.254.567.567.567ZM28.9 2.267a.566.566 0 0 0 .567-.566V.567a.566.566 0 1 0-1.134 0v1.134c0 .312.254.566.567.566ZM26.633 4.534a.566.566 0 0 0 .567-.567V2.834a.566.566 0 1 0-1.133 0v1.133c0 .313.253.567.566.567ZM26.633 1.7a.566.566 0 0 0 .567-.566V.567a.566.566 0 1 0-1.133 0v.567c0 .313.253.567.566.567Z"/></g><defs><clipPath id="aza"><path fill="#fff" d="M0 0h34v34H0z"/></clipPath></defs></symbol><symbol fill="none" viewBox="0 0 34 34" id="case_minimalistic" xmlns="http://www.w3.org/2000/svg"><path d="M19.833 8.5h-5.666c-1.921 0-3.497 0-4.804.077-2.329.138-3.807.52-4.87 1.583-1.66 1.66-1.66 4.33-1.66 9.673s0 8.014 1.66 9.674c1.66 1.66 4.331 1.66 9.674 1.66h5.666c5.343 0 8.014 0 9.674-1.66 1.66-1.66 1.66-4.331 1.66-9.674 0-5.342 0-8.013-1.66-9.673-1.063-1.063-2.541-1.445-4.87-1.583C23.33 8.5 21.754 8.5 19.833 8.5Z" stroke="#fff" stroke-width="1.5"/><path d="M9.363 8.577c1.167-.03 2.196-.85 2.593-1.947a6.5 6.5 0 0 0 .05-.146l.036-.109c.06-.18.09-.269.122-.348a2.833 2.833 0 0 1 2.457-1.772c.086-.005.18-.005.37-.005h4.02c.188 0 .283 0 .369.005a2.833 2.833 0 0 1 2.457 1.772c.032.079.062.169.122.348l.036.109a6.5 6.5 0 0 0 .05.146c.397 1.098 1.426 1.918 2.592 1.947" stroke="#fff" stroke-width="1.5"/><path d="M30.688 12.353c-4.264 2.771-6.396 4.157-8.644 4.856a17 17 0 0 1-10.088 0c-2.247-.699-4.38-2.085-8.643-4.856M11.333 15.583v2.834M22.667 15.583v2.834" stroke="#fff" stroke-width="1.5" stroke-linecap="round"/></symbol><symbol fill="none" viewBox="0 0 34 34" id="castle_tower_1" xmlns="http://www.w3.org/2000/svg"><g fill="#616161"><path d="M27.625 29.75h-1.594l-1.03-18.063h.499a1.594 1.594 0 0 0 .834-2.948l1.732-2.603a.531.531 0 0 0 .09-.292V.53A.531.531 0 0 0 27.625 0h-2.656a.531.531 0 0 0-.532.531v1.594h-2.125V.531a.531.531 0 0 0-.53-.531h-3.188a.531.531 0 0 0-.532.531v1.594h-2.125V.531a.531.531 0 0 0-.53-.531h-3.188a.531.531 0 0 0-.531.531v1.594H9.562V.531A.531.531 0 0 0 9.033 0H6.374a.531.531 0 0 0-.531.531v5.313c-.001.103.029.205.085.292L7.66 8.739a1.594 1.594 0 0 0 .839 2.948H9L7.994 29.75h-1.62a2.656 2.656 0 0 0-2.656 2.656v1.063A.531.531 0 0 0 4.25 34h25.5a.532.532 0 0 0 .531-.531v-1.063a2.656 2.656 0 0 0-2.656-2.656ZM8.5 1.062v1.594a.531.531 0 0 0 .531.531h3.188a.531.531 0 0 0 .531-.53V1.061h2.125v1.594a.531.531 0 0 0 .531.531h3.188a.531.531 0 0 0 .531-.53V1.061h2.125v1.594a.531.531 0 0 0 .531.531h3.188a.531.531 0 0 0 .531-.53V1.061h1.594v4.25H6.906v-4.25H8.5Zm18.132 5.313L25.213 8.5H8.787L7.368 6.375h19.264ZM7.969 10.094a.531.531 0 0 1 .531-.531h17a.531.531 0 0 1 0 1.062h-17a.531.531 0 0 1-.531-.531Zm1.86 5.844h3.983a.532.532 0 0 0 0-1.063H9.887l.207-3.188h13.865l.473 8.5h-4.244a.532.532 0 0 0 0 1.063h4.25l.329 5.844H21.78a.531.531 0 1 0 0 1.062h3.07l.086 1.594h-4.75v-2.125a3.187 3.187 0 1 0-6.375 0v2.125H9.064l.765-13.813Zm9.296 13.812h-4.25v-2.125a2.125 2.125 0 0 1 4.25 0v2.125Zm10.094 3.188H4.78v-.532a1.594 1.594 0 0 1 1.594-1.593h21.25a1.594 1.594 0 0 1 1.594 1.593v.532Z"/><path d="M11.156 22.313h3.188a.531.531 0 0 0 .531-.532v-1.593a2.125 2.125 0 0 0-4.25 0v1.593a.531.531 0 0 0 .531.532Zm.531-2.125a1.062 1.062 0 1 1 2.126 0v1.062h-2.126v-1.063ZM19.656 17h3.188a.531.531 0 0 0 .531-.531v-1.594a2.125 2.125 0 0 0-4.25 0v1.594a.531.531 0 0 0 .531.531Zm.532-2.125a1.062 1.062 0 1 1 2.125 0v1.063h-2.125v-1.063ZM18.594 20.188H17.53a.531.531 0 0 0 0 1.062h1.063a.531.531 0 0 0 0-1.063ZM13.813 23.906h4.25a.532.532 0 1 0 0-1.062h-4.25a.532.532 0 1 0 0 1.062ZM19.125 23.375a.532.532 0 0 0 .531.531h1.063a.531.531 0 1 0 0-1.062h-1.063a.531.531 0 0 0-.531.531ZM20.188 18.063h-4.25a.532.532 0 0 0 0 1.062h4.25a.532.532 0 0 0 0-1.063ZM22.844 18.063H21.78a.531.531 0 0 0 0 1.062h1.063a.531.531 0 0 0 0-1.063ZM15.406 15.938h1.063a.531.531 0 0 0 0-1.063h-1.063a.531.531 0 0 0 0 1.063ZM12.219 27.094h-1.063a.531.531 0 1 0 0 1.062h1.063a.531.531 0 1 0 0-1.062ZM13.813 12.75H12.75a.532.532 0 0 0 0 1.063h1.063a.532.532 0 0 0 0-1.063Z"/></g></symbol><symbol fill="none" viewBox="0 0 34 34" id="chef_1" xmlns="http://www.w3.org/2000/svg"><g clip-path="url(#aga)" fill="#000"><path d="M9.273 16.227a.772.772 0 1 0-1.546 0c0 2.03 2.238 4.816 2.493 5.127a.774.774 0 0 0 1.196-.98c-.829-1.01-2.143-3.028-2.143-4.147ZM25.5 15.455a.772.772 0 0 0-.773.772c0 1.115-1.314 3.135-2.143 4.147a.773.773 0 0 0 1.195.98c.256-.311 2.494-3.098 2.494-5.127a.772.772 0 0 0-.773-.772ZM17 15.455a.772.772 0 0 0-.773.772v4.637a.772.772 0 1 0 1.546 0v-4.637a.772.772 0 0 0-.773-.772Z"/><path d="M25.5 3.09c-.468 0-.958.063-1.466.157A9.249 9.249 0 0 0 17 0a9.249 9.249 0 0 0-7.034 3.247A8.1 8.1 0 0 0 8.5 3.091c-4.687 0-8.5 3.813-8.5 8.5a8.497 8.497 0 0 0 4.654 7.575L4.64 30.843c0 .843.327 1.636.923 2.232a3.13 3.13 0 0 0 2.23.925h18.419a3.156 3.156 0 0 0 3.153-3.153V19.154A8.499 8.499 0 0 0 34 11.591c0-4.687-3.813-8.5-8.5-8.5Zm2.318 27.757a1.61 1.61 0 0 1-1.607 1.608H7.792c-.43 0-.833-.168-1.137-.472a1.597 1.597 0 0 1-.47-1.138l.004-3.027h21.63v3.03Zm.479-12.895a.758.758 0 0 0-.352.292.762.762 0 0 0-.127.44v7.589H6.191l.01-7.579a.774.774 0 0 0-.48-.733 6.953 6.953 0 0 1-4.176-6.37A6.962 6.962 0 0 1 8.5 4.636c.15 0 .308.018.463.03a9.205 9.205 0 0 0-1.236 4.607.772.772 0 1 0 1.546 0c0-4.26 3.466-7.728 7.727-7.728 4.26 0 7.727 3.467 7.727 7.728a.772.772 0 1 0 1.546 0 9.206 9.206 0 0 0-1.236-4.606c.155-.013.313-.03.463-.03a6.962 6.962 0 0 1 6.955 6.954 6.956 6.956 0 0 1-4.158 6.36Z"/></g><defs><clipPath id="aga"><path fill="#fff" d="M0 0h34v34H0z"/></clipPath></defs></symbol><symbol fill="none" viewBox="0 0 34 34" id="cottage_1" xmlns="http://www.w3.org/2000/svg"><path d="M26.248 22.387H7.788a.398.398 0 0 1-.399-.398V10.037c0-.22.179-.398.399-.398h18.461c.22 0 .398.178.398.398v11.952c0 .22-.178.398-.399.398Zm-18.062-.796H25.85V10.435H8.186V21.59Z" fill="#616161"/><path d="M27.644 10.435h-5.213a.398.398 0 0 1-.311-.15l-3.918-4.91a.398.398 0 0 1 .311-.645h4.67c.112 0 .219.047.294.13l4.461 4.91a.397.397 0 0 1-.294.665Zm-5.022-.796h4.123l-3.738-4.114H19.34l3.282 4.114Zm-11.017.796H6.392a.398.398 0 0 1-.296-.666l4.462-4.91a.398.398 0 0 1 .294-.13h4.67a.399.399 0 0 1 .31.646l-3.916 4.91a.395.395 0 0 1-.311.15ZM7.29 9.639h4.123l3.281-4.114H11.03L7.291 9.639Z" fill="#616161"/><path d="M22.431 10.435H11.605a.399.399 0 0 1-.311-.646l5.413-6.784a.398.398 0 0 1 .622 0l5.413 6.784a.398.398 0 0 1-.311.646Zm-9.999-.796h9.172L17.018 3.89 12.432 9.64Z" fill="#616161"/><path d="M17.018 9.03c-.927 0-1.68-.753-1.68-1.68 0-.926.754-1.68 1.68-1.68.927 0 1.68.755 1.68 1.68 0 .927-.753 1.68-1.68 1.68Zm0-2.564a.885.885 0 0 0 0 1.768.885.885 0 0 0 0-1.768ZM27.67 24.03H6.366a.398.398 0 0 1-.398-.399V21.99c0-.22.178-.398.398-.398H27.67c.22 0 .398.179.398.398v1.642c0 .22-.178.398-.398.398Zm-20.906-.797h20.507v-.846H6.764v.846Z" fill="#616161"/><path d="M19.027 22.387h-4.019a.398.398 0 0 1-.398-.398v-5.397c0-.773.63-1.402 1.403-1.402h2.01c.773 0 1.403.628 1.403 1.402v5.398c-.001.22-.179.398-.4.398Zm-3.62-.796h3.222v-4.999a.607.607 0 0 0-.607-.606h-2.01a.608.608 0 0 0-.606.606v5ZM13.292 19.142H9.136a.398.398 0 0 1-.398-.398v-3.363c0-.22.179-.398.398-.398h4.156c.22 0 .398.178.398.398v3.363c0 .22-.178.398-.398.398Zm-3.757-.796h3.359V15.78h-3.36v2.567Z" fill="#616161"/><path d="M11.214 19.142a.398.398 0 0 1-.398-.398v-3.363a.398.398 0 0 1 .796 0v3.363c0 .22-.178.398-.398.398ZM24.855 19.26h-4.156a.398.398 0 0 1-.398-.398V15.5c0-.22.179-.398.398-.398h4.156c.22 0 .398.178.398.398v3.363c0 .22-.179.398-.398.398Zm-3.758-.796h3.36v-2.567h-3.36v2.567Z" fill="#616161"/><path d="M22.777 19.26a.398.398 0 0 1-.398-.398V15.5a.398.398 0 0 1 .796 0v3.363c0 .22-.178.398-.398.398ZM13.292 17.668H9.136a.398.398 0 0 1 0-.796h4.156a.398.398 0 0 1 0 .796Z" fill="#616161"/><path d="M24.855 17.787h-4.156a.398.398 0 0 1 0-.797h4.156a.398.398 0 0 1 0 .797ZM30.633 24.03H3.403a.398.398 0 0 1 0-.797h27.23a.398.398 0 0 1 0 .796ZM13.829 26.993c-1.284 0-2.433-.24-3.56-.474-2.074-.432-4.033-.84-6.745.221a.398.398 0 0 1-.29-.741c2.932-1.147 5.1-.696 7.197-.26 1.994.416 3.877.808 6.461-.057 2.788-.934 4.867-.501 6.877-.083 2.074.432 4.032.84 6.744-.221a.397.397 0 1 1 .29.741c-2.933 1.147-5.1.696-7.197.26-1.995-.416-3.878-.808-6.462.057-1.223.41-2.311.557-3.315.557ZM13.829 29.12c-1.284 0-2.433-.239-3.56-.474-2.074-.432-4.033-.84-6.745.222a.398.398 0 1 1-.29-.741c2.932-1.147 5.1-.696 7.197-.26 1.994.416 3.877.808 6.461-.058 2.788-.933 4.867-.5 6.877-.082 2.074.432 4.032.84 6.744-.222a.398.398 0 1 1 .29.742c-2.933 1.147-5.1.696-7.197.26-1.995-.416-3.878-.808-6.462.057-1.223.41-2.311.556-3.315.556ZM13.829 31.247c-1.284 0-2.433-.239-3.56-.474-2.074-.431-4.033-.84-6.745.222a.398.398 0 0 1-.29-.741c2.932-1.147 5.1-.696 7.197-.26 1.994.416 3.877.808 6.461-.057 2.788-.934 4.867-.502 6.877-.083 2.074.432 4.032.84 6.744-.22a.397.397 0 1 1 .29.74c-2.933 1.148-5.1.697-7.197.26-1.995-.416-3.878-.807-6.462.058-1.223.409-2.311.555-3.315.555ZM30.026 22.442a2.318 2.318 0 0 1-2.315-2.316c0-.615.248-1.206.678-1.637a1.729 1.729 0 0 1 1.61-2.351 1.729 1.729 0 0 1 1.626 2.311 2.32 2.32 0 0 1 .718 1.677 2.319 2.319 0 0 1-2.317 2.316ZM30 16.934a.932.932 0 0 0-.783 1.436.398.398 0 0 1-.096.535c-.39.29-.614.735-.614 1.22 0 .839.682 1.52 1.52 1.52a1.522 1.522 0 0 0 .877-2.761.397.397 0 0 1-.11-.533.931.931 0 0 0-.794-1.417Z" fill="#616161"/><path d="M30.026 24.03a.398.398 0 0 1-.398-.399v-4.34a.398.398 0 0 1 .796 0v4.34c0 .22-.177.398-.398.398Z" fill="#616161"/><path d="M30.027 20.52a.398.398 0 0 1-.274-.686l.733-.697a.398.398 0 0 1 .549.577l-.733.697a.395.395 0 0 1-.275.11Z" fill="#616161"/><path d="M30.026 21.36a.397.397 0 0 1-.274-.11l-.733-.697a.398.398 0 1 1 .549-.577l.733.698a.398.398 0 0 1-.275.686ZM4.01 22.442a2.318 2.318 0 0 1-2.316-2.316c0-.615.249-1.206.678-1.637a1.729 1.729 0 0 1 1.61-2.351 1.729 1.729 0 0 1 1.626 2.311 2.32 2.32 0 0 1 .718 1.677 2.32 2.32 0 0 1-2.316 2.316Zm-.028-5.508A.932.932 0 0 0 3.2 18.37a.398.398 0 0 1-.097.535c-.39.29-.614.735-.614 1.22 0 .839.682 1.52 1.52 1.52a1.522 1.522 0 0 0 .877-2.761.397.397 0 0 1-.109-.533.931.931 0 0 0-.795-1.417Z" fill="#616161"/><path d="M4.01 24.03a.398.398 0 0 1-.399-.399v-4.34a.398.398 0 0 1 .797 0v4.34c-.001.22-.179.398-.398.398Z" fill="#616161"/><path d="M4.01 20.52a.398.398 0 0 1-.274-.686l.732-.697a.398.398 0 0 1 .55.577l-.734.697a.395.395 0 0 1-.274.11Z" fill="#616161"/><path d="M4.009 21.36a.397.397 0 0 1-.275-.11l-.733-.697a.398.398 0 1 1 .549-.577l.733.698a.398.398 0 0 1-.274.686Z" fill="#616161"/></symbol><symbol fill="none" viewBox="0 0 34 34" id="credit_card_1" xmlns="http://www.w3.org/2000/svg"><g clip-path="url(#aha)" fill="#747474"><path d="M33.396 6.43a2.537 2.537 0 0 0-1.738-.896L7.715 3.535a2.537 2.537 0 0 0-1.861.595 2.537 2.537 0 0 0-.895 1.73l-.482 4.519H2.554A2.557 2.557 0 0 0 0 12.932V27.92a2.556 2.556 0 0 0 2.554 2.554H26.58a2.557 2.557 0 0 0 2.554-2.554V25.49l.852.071a2.557 2.557 0 0 0 2.757-2.332l1.248-14.936a2.537 2.537 0 0 0-.595-1.862ZM2.554 11.707H26.58c.676 0 1.226.55 1.226 1.225v1.366H1.328v-1.366c0-.675.55-1.225 1.226-1.225Zm-1.226 3.92h26.478v2.754H1.328v-2.755ZM26.58 29.145H2.554c-.676 0-1.226-.55-1.226-1.226v-8.21h26.478v8.21c0 .676-.55 1.226-1.226 1.226ZM32.667 8.18 31.42 23.117a1.227 1.227 0 0 1-1.323 1.12l-.963-.08V12.931a2.557 2.557 0 0 0-2.554-2.553H5.813l.467-4.386.002-.015a1.227 1.227 0 0 1 1.323-1.12l23.943 2c.326.027.622.18.834.43.211.25.313.567.285.893Z"/><path d="M25.027 21.684h-6.39a.664.664 0 0 0-.665.664v4.17c0 .366.297.663.664.663h6.391a.664.664 0 0 0 .664-.664v-4.17a.664.664 0 0 0-.664-.663Zm-.664 4.17H19.3v-2.842h5.063v2.841Z"/></g><defs><clipPath id="aha"><path fill="#fff" d="M0 0h34v34H0z"/></clipPath></defs></symbol><symbol fill="none" viewBox="0 0 34 34" id="date" xmlns="http://www.w3.org/2000/svg"><path d="M31.167 19.833V17c0-1.189 0-2.245-.019-3.188H2.852c-.019.943-.019 2-.019 3.188v2.833c0 5.343 0 8.014 1.66 9.674 1.66 1.66 4.331 1.66 9.674 1.66h5.666c5.343 0 8.014 0 9.674-1.66 1.66-1.66 1.66-4.331 1.66-9.674ZM10.98 3.542a1.062 1.062 0 1 0-2.126 0v2.237c-2.039.163-3.378.564-4.361 1.547-.983.984-1.384 2.322-1.547 4.362h28.108c-.163-2.04-.564-3.378-1.547-4.362-.984-.983-2.322-1.384-4.361-1.547V3.542a1.062 1.062 0 1 0-2.125 0v2.143c-.943-.018-2-.018-3.188-.018h-5.666c-1.189 0-2.245 0-3.188.018V3.542Z" fill="#747474"/></symbol><symbol fill="none" viewBox="0 0 34 34" id="discount" xmlns="http://www.w3.org/2000/svg"><path fill-rule="evenodd" clip-rule="evenodd" d="m16.583.224-4.577 5.493H4.563a.624.624 0 0 0-.615.727l.901 5.408-4.704 5.645a.624.624 0 0 0 .09.887l4.614 3.692v6.533c0 .344.28.624.624.624h6.533l3.603 4.503c.25.312.724.312.974 0l3.602-4.503h7.556c.344 0 .624-.28.624-.624v-6.533l4.615-3.692a.624.624 0 0 0 .09-.887l-4.705-5.645V6.34a.624.624 0 0 0-.624-.624h-6.533L17.582.277a.624.624 0 0 0-.999-.053Zm3.602 11.627L9.961 24.121l.799.665 10.224-12.269-.799-.666Zm-4.09 0a2.045 2.045 0 1 1-4.089 0 2.045 2.045 0 0 1 4.09 0Zm4.09 14.314a2.045 2.045 0 1 0 0-4.09 2.045 2.045 0 0 0 0 4.09Z" fill="#fff"/></symbol><symbol fill="none" viewBox="0 0 34 34" id="farm_1" xmlns="http://www.w3.org/2000/svg"><g clip-path="url(#bda)" fill="#616161"><path d="m7.323 31.3-.426-.974a70.516 70.516 0 0 1 13.177-4.282c.214-.047.43-.088.645-.133V21.25h-.532a.531.531 0 0 1-.375-.907l4.25-4.25a.532.532 0 0 1 .751 0l4.25 4.25a.531.531 0 0 1-.375.907h-.532v3.516a71.427 71.427 0 0 1 5.3-.328l.025 1.062a69.44 69.44 0 0 0-13.18 1.581A69.499 69.499 0 0 0 7.323 31.3Zm16.583-5.98c.354-.056.708-.114 1.063-.166v-1.779h-1.063v1.946Zm-2.125.373c.354-.068.708-.13 1.063-.193v-2.656a.532.532 0 0 1 .531-.532H25.5a.53.53 0 0 1 .531.532v2.168c.354-.046.708-.09 1.063-.131V21.25H21.78v4.443Zm5.624-5.506-2.968-2.967-2.967 2.968h5.935ZM11.258 32.374l-.366-.998a70.533 70.533 0 0 1 9.182-2.676c4.4-.962 8.88-1.5 13.382-1.606l.025 1.062a69.447 69.447 0 0 0-13.18 1.582 69.532 69.532 0 0 0-9.043 2.636ZM16.084 33.517l-.293-1.022a70.507 70.507 0 0 1 17.665-2.685l.025 1.062a69.44 69.44 0 0 0-17.398 2.645ZM4.781 7.886V4.781h-.53a.531.531 0 0 1-.347-.934L7.623.659a.53.53 0 0 1 .692 0l3.718 3.188a.532.532 0 0 1-.345.934h-.532v4.126c1.827.353 3.641.753 5.442 1.203 1.703.428 3.253.857 4.652 1.274V9.51a1.91 1.91 0 0 1-1.594-2.073c0-.83.579-4.887 2.125-4.887 1.547 0 2.125 4.057 2.125 4.887a1.91 1.91 0 0 1-1.593 2.073v2.195c1.42.44 2.664.858 3.718 1.235v-1.836a1.91 1.91 0 0 1-1.593-2.074c0-.829.578-4.886 2.125-4.886 1.546 0 2.125 4.057 2.125 4.886a1.91 1.91 0 0 1-1.594 2.074v2.225c1.204.451 2.093.82 2.64 1.058a71.736 71.736 0 0 1 3.44 1.605l-.474.951a70.855 70.855 0 0 0-3.39-1.582 86.048 86.048 0 0 0-12.97-4.222A99.781 99.781 0 0 0 .486 8.498L.576 7.44c1.402.118 2.804.267 4.205.446Zm22.844 1.145c0-1.2-.634-3.428-1.062-3.797-.429.369-1.063 2.596-1.063 3.797 0 .735.328 1.063 1.063 1.063.735 0 1.062-.328 1.062-1.063Zm-4.781-1.593c0-1.201-.634-3.429-1.063-3.798-.428.37-1.062 2.597-1.062 3.798 0 .734.327 1.062 1.062 1.062.735 0 1.063-.328 1.063-1.062Zm-15.406.825c.354.055.708.108 1.062.167V6.906H7.438v1.357ZM5.844 8.03c.177.025.354.047.531.073V6.375a.531.531 0 0 1 .531-.531h2.125a.531.531 0 0 1 .532.531v2.24c.177.03.354.062.53.094V4.78h-4.25v3.25ZM10.25 3.72 7.97 1.762 5.686 3.72h4.566ZM16.598 13.153c1.052.263 2.13.553 3.204.86l-.292 1.022A99.781 99.781 0 0 0 .487 11.54l.089-1.059c5.404.458 10.762 1.351 16.022 2.67ZM16.598 15.954l.534.135-.264 1.03-.529-.135A99.781 99.781 0 0 0 .487 14.342l.089-1.059c5.404.458 10.762 1.351 16.022 2.67ZM14.996 18.608l-.242 1.034A99.779 99.779 0 0 0 .487 17.384l.089-1.058a100.77 100.77 0 0 1 14.42 2.282Z"/></g><defs><clipPath id="bda"><path fill="#fff" transform="matrix(-1 0 0 1 34 0)" d="M0 0h34v34H0z"/></clipPath></defs></symbol><symbol fill="none" viewBox="0 0 34 34" id="farm_1_1" xmlns="http://www.w3.org/2000/svg"><g clip-path="url(#bca)" fill="#616161"><path d="m7.323 31.3-.426-.974a70.516 70.516 0 0 1 13.177-4.282c.214-.047.43-.088.645-.133V21.25h-.532a.531.531 0 0 1-.375-.907l4.25-4.25a.532.532 0 0 1 .751 0l4.25 4.25a.531.531 0 0 1-.375.907h-.532v3.516a71.427 71.427 0 0 1 5.3-.328l.025 1.062a69.44 69.44 0 0 0-13.18 1.581A69.499 69.499 0 0 0 7.323 31.3Zm16.583-5.98c.354-.056.708-.114 1.063-.166v-1.779h-1.063v1.946Zm-2.125.373c.354-.068.708-.13 1.063-.193v-2.656a.532.532 0 0 1 .531-.532H25.5a.53.53 0 0 1 .531.532v2.168c.354-.046.708-.09 1.063-.131V21.25H21.78v4.443Zm5.624-5.506-2.968-2.967-2.967 2.968h5.935ZM11.258 32.374l-.366-.998a70.533 70.533 0 0 1 9.182-2.676c4.4-.962 8.88-1.5 13.382-1.606l.025 1.062a69.447 69.447 0 0 0-13.18 1.582 69.532 69.532 0 0 0-9.043 2.636ZM16.084 33.517l-.293-1.022a70.507 70.507 0 0 1 17.665-2.685l.025 1.062a69.44 69.44 0 0 0-17.398 2.645ZM4.781 7.886V4.781h-.53a.531.531 0 0 1-.347-.934L7.623.659a.53.53 0 0 1 .692 0l3.718 3.188a.532.532 0 0 1-.345.934h-.532v4.126c1.827.353 3.641.753 5.442 1.203 1.703.428 3.253.857 4.652 1.274V9.51a1.91 1.91 0 0 1-1.594-2.073c0-.83.579-4.887 2.125-4.887 1.547 0 2.125 4.057 2.125 4.887a1.91 1.91 0 0 1-1.593 2.073v2.195c1.42.44 2.664.858 3.718 1.235v-1.836a1.91 1.91 0 0 1-1.593-2.074c0-.829.578-4.886 2.125-4.886 1.546 0 2.125 4.057 2.125 4.886a1.91 1.91 0 0 1-1.594 2.074v2.225c1.204.451 2.093.82 2.64 1.058a71.736 71.736 0 0 1 3.44 1.605l-.474.951a70.855 70.855 0 0 0-3.39-1.582 86.048 86.048 0 0 0-12.97-4.222A99.781 99.781 0 0 0 .486 8.498L.576 7.44c1.402.118 2.804.267 4.205.446Zm22.844 1.145c0-1.2-.634-3.428-1.062-3.797-.429.369-1.063 2.596-1.063 3.797 0 .735.328 1.063 1.063 1.063.735 0 1.062-.328 1.062-1.063Zm-4.781-1.593c0-1.201-.634-3.429-1.063-3.798-.428.37-1.062 2.597-1.062 3.798 0 .734.327 1.062 1.062 1.062.735 0 1.063-.328 1.063-1.062Zm-15.406.825c.354.055.708.108 1.062.167V6.906H7.438v1.357ZM5.844 8.03c.177.025.354.047.531.073V6.375a.531.531 0 0 1 .531-.531h2.125a.531.531 0 0 1 .532.531v2.24c.177.03.354.062.53.094V4.78h-4.25v3.25ZM10.25 3.72 7.97 1.762 5.686 3.72h4.566ZM16.598 13.153c1.052.263 2.13.553 3.204.86l-.292 1.022A99.781 99.781 0 0 0 .487 11.54l.089-1.059c5.404.458 10.762 1.351 16.022 2.67ZM16.598 15.954l.534.135-.264 1.03-.529-.135A99.781 99.781 0 0 0 .487 14.342l.089-1.059c5.404.458 10.762 1.351 16.022 2.67ZM14.996 18.608l-.242 1.034A99.779 99.779 0 0 0 .487 17.384l.089-1.058a100.77 100.77 0 0 1 14.42 2.282Z"/></g><defs><clipPath id="bca"><path fill="#fff" transform="matrix(-1 0 0 1 34 0)" d="M0 0h34v34H0z"/></clipPath></defs></symbol><symbol fill="none" viewBox="0 0 34 34" id="fav" xmlns="http://www.w3.org/2000/svg"><path d="m12.696 26.79.464-.589-.464.59ZM17 7.793l-.54.52a.75.75 0 0 0 1.08 0l-.54-.52Zm4.304 18.997.465.59-.465-.59Zm-8.144-.589c-2.129-1.678-4.511-3.356-6.398-5.48-1.86-2.096-3.179-4.566-3.179-7.777h-1.5c0 3.679 1.53 6.489 3.558 8.772 2.002 2.255 4.55 4.055 6.59 5.663l.93-1.178ZM3.583 12.944c0-3.164 1.789-5.833 4.255-6.96 2.419-1.106 5.626-.784 8.622 2.329l1.08-1.04C14.161 3.76 10.285 3.215 7.214 4.618c-3.023 1.382-5.13 4.6-5.13 8.325h1.5Zm8.649 14.435c.728.575 1.49 1.17 2.258 1.62.767.448 1.611.793 2.51.793v-1.5c-.518 0-1.09-.201-1.753-.589-.663-.387-1.345-.916-2.087-1.502l-.928 1.178Zm9.537 0c2.04-1.608 4.588-3.408 6.59-5.663 2.028-2.283 3.558-5.093 3.558-8.772h-1.5c0 3.21-1.318 5.68-3.18 7.777-1.886 2.124-4.268 3.802-6.397 5.48l.928 1.178Zm10.148-14.435c0-3.725-2.108-6.943-5.131-8.325-3.071-1.403-6.947-.858-10.326 2.653l1.08 1.04c2.996-3.112 6.203-3.434 8.622-2.329 2.466 1.128 4.255 3.797 4.255 6.961h1.5ZM20.84 26.201c-.742.586-1.424 1.115-2.087 1.502-.663.388-1.235.589-1.753.589v1.5c.899 0 1.743-.345 2.51-.794.768-.448 1.53-1.044 2.258-1.619l-.928-1.178Z" fill="#161117"/></symbol><symbol fill="none" viewBox="0 0 34 34" id="filter" xmlns="http://www.w3.org/2000/svg"><path d="M26.917 4.25H7.083c-2.003 0-3.005 0-3.627.584-.623.584-.623 1.524-.623 3.403v.978c0 1.47 0 2.205.368 2.815.368.609 1.04.987 2.384 1.744l4.126 2.323c.902.507 1.353.761 1.675 1.041.673.584 1.087 1.27 1.274 2.11.09.404.09.877.09 1.822v3.782c0 1.288 0 1.933.357 2.435s.99.75 2.258 1.245c2.662 1.04 3.993 1.561 4.939.97.946-.593.946-1.945.946-4.65V21.07c0-.945 0-1.418.09-1.822.188-.84.601-1.526 1.274-2.11.322-.28.773-.534 1.675-1.041l4.127-2.323c1.343-.757 2.015-1.135 2.383-1.744.368-.61.368-1.345.368-2.815v-.978c0-1.88 0-2.82-.623-3.403-.622-.584-1.624-.584-3.627-.584ZM6.653 14.261 20.82 4.344" stroke="#5F5F5F" stroke-width="1.5"/></symbol><symbol fill="none" viewBox="0 0 34 34" id="home_1" xmlns="http://www.w3.org/2000/svg"><g fill="#616161"><path d="M31.343 27.692v-.067A2.127 2.127 0 0 0 29.22 25.5v-9.828l1.912-1.434a.53.53 0 0 0-.005-.854l-4.564-3.335V4.25a.531.531 0 0 0 .532-.531V1.594a.53.53 0 0 0-.532-.532H21.25a.531.531 0 0 0-.531.532v2.125a.531.531 0 0 0 .531.531v1.917L17.313 3.29a.531.531 0 0 0-.626 0L2.874 13.384a.531.531 0 0 0-.005.854l1.912 1.434V25.5a2.127 2.127 0 0 0-2.124 2.192 2.125 2.125 0 0 0 .53 4.183h27.625a2.125 2.125 0 0 0 .53-4.183ZM21.78 2.125h4.25v1.063h-4.25V2.125Zm.532 4.781V4.25H25.5v5.022l-3.238-2.366h.05ZM17 4.376l12.92 9.442-1.237.928-11.37-8.27a.531.531 0 0 0-.625 0l-11.37 8.27-1.238-.928L17 4.377ZM2.125 29.75a1.064 1.064 0 0 1 1.047-1.063c.028.004.055.008.083.01a.532.532 0 0 0 .533-.712 1.045 1.045 0 0 1-.07-.36 1.064 1.064 0 0 1 1.063-1.063v4.25H3.187a1.064 1.064 0 0 1-1.062-1.062Zm22.844 1.063h-6.375V19.124h6.375v11.688Zm1.062 0v-12.22a.531.531 0 0 0-.531-.53h-7.438a.532.532 0 0 0-.53.53v12.22H5.843V15.677L17 7.563l11.156 8.114v15.136h-2.125Zm4.782 0h-1.594v-4.25a1.064 1.064 0 0 1 1.062 1.062 1.043 1.043 0 0 1-.069.36.532.532 0 0 0 .615.703h.001a1.062 1.062 0 1 1-.015 2.125Z"/><path d="M14.875 18.063H8.5a.531.531 0 0 0-.531.53v7.438a.531.531 0 0 0 .531.532h6.375a.532.532 0 0 0 .531-.532v-7.437a.531.531 0 0 0-.531-.532Zm-.531 3.718h-2.125v-2.656h2.125v2.656Zm-3.188-2.656v2.656H9.031v-2.656h2.125Zm-2.125 3.719h2.125V25.5H9.031v-2.656ZM12.22 25.5v-2.656h2.125V25.5h-2.125ZM20.678 24.64a.531.531 0 1 0-.981-.406.531.531 0 0 0 .981.407Z"/></g></symbol><symbol fill="none" viewBox="0 0 34 34" id="hot_tub_1" xmlns="http://www.w3.org/2000/svg"><g clip-path="url(#ala)" fill="#000"><path d="M17 14.344c-4.777 0-13.813.666-13.813 3.187 0 2.522 9.036 3.188 13.813 3.188 4.777 0 13.813-.666 13.813-3.188 0-2.521-9.035-3.187-13.813-3.187Zm0 5.312c-8.412 0-12.75-1.487-12.75-2.125 0-.637 4.338-2.125 12.75-2.125 8.412 0 12.75 1.488 12.75 2.125 0 .638-4.338 2.125-12.75 2.125Z"/><path d="M17 12.219c-7.984 0-16.469 1.86-16.469 5.312v10.625C.531 31.61 9.016 33.47 17 33.47c7.984 0 16.469-1.86 16.469-5.313V17.531c0-3.45-8.485-5.312-16.469-5.312ZM1.594 28.156V19.51c.64.523 1.357.945 2.125 1.253v9.46c-1.367-.647-2.125-1.37-2.125-2.066Zm27.625-6.987v9.496c-.696.254-1.406.47-2.125.647v-9.535c.757-.18 1.47-.383 2.125-.608ZM26.03 31.556c-.666.142-1.374.268-2.125.377v-9.562a39.524 39.524 0 0 0 2.125-.362v9.547Zm-3.187.517c-.68.08-1.389.148-2.125.202v-9.563a49.454 49.454 0 0 0 2.125-.2v9.56Zm-3.188.265c-.688.036-1.397.057-2.125.063v-9.563c.708-.007 1.419-.029 2.125-.065v9.565Zm-3.187.063a52.31 52.31 0 0 1-2.125-.063v-9.564c.706.037 1.417.059 2.125.066v9.56Zm-3.188-.128a45.112 45.112 0 0 1-2.125-.202v-9.562c.697.081 1.407.148 2.125.2v9.564Zm-3.187-.341c-.751-.11-1.46-.236-2.125-.377V22.01c.682.137 1.393.258 2.125.362v9.56Zm-3.188-.62a20.53 20.53 0 0 1-2.125-.647v-9.496c.656.225 1.368.428 2.125.608v9.535Zm23.375-1.09v-9.46a8.184 8.184 0 0 0 2.125-1.253v8.647c0 .696-.758 1.419-2.125 2.067ZM17 21.783c-9.08 0-15.406-2.24-15.406-4.25 0-2.011 6.327-4.25 15.406-4.25 9.08 0 15.406 2.239 15.406 4.25 0 2.01-6.327 4.25-15.406 4.25ZM10.074 4.725l.846-.564-.59-.884-.846.564a2.209 2.209 0 0 0-.336 3.4l.61.61a1.147 1.147 0 0 1-.175 1.767l-.847.564.59.884.846-.564a2.208 2.208 0 0 0 .337-3.4l-.61-.611a1.147 1.147 0 0 1 .175-1.766ZM16.98 2.069l.846-.565-.59-.884-.845.565a2.209 2.209 0 0 0-.337 3.4l.61.61a1.146 1.146 0 0 1-.175 1.766l-.846.565.59.884.845-.565a2.21 2.21 0 0 0 .337-3.4l-.61-.61a1.147 1.147 0 0 1 .175-1.766ZM24.417 4.725l.847-.564-.59-.884-.846.564a2.209 2.209 0 0 0-.337 3.4l.61.61a1.146 1.146 0 0 1-.175 1.767l-.846.564.59.884.846-.564a2.21 2.21 0 0 0 .336-3.4l-.61-.611a1.147 1.147 0 0 1 .175-1.766Z"/></g><defs><clipPath id="ala"><path fill="#fff" d="M0 0h34v34H0z"/></clipPath></defs></symbol><symbol fill="none" viewBox="0 0 34 34" id="island_1_1" xmlns="http://www.w3.org/2000/svg"><g fill="#616161"><path d="M31.344 22.76h-3.251a23.123 23.123 0 0 0-3.528-5.457.531.531 0 0 0-.797.701 21.905 21.905 0 0 1 3.14 4.756H18.77c-2.36-.461-3.144-1.503-3.146-1.503a3.414 3.414 0 0 0-3.748-1.74c-.845-1.07-1.75-1.59-2.696-1.542-1.213.06-2.086 1.055-2.465 1.58a3.792 3.792 0 0 0-.709-.022c.754-1.625 2.41-4.838 4.273-6.198 1.864-1.238 3.513 1.038 4.608 3.29a9.197 9.197 0 0 0 3.358 3.973c.65.417 3.233 1.787 3.429.66a.531.531 0 0 0-.446-.604 7.142 7.142 0 0 1-4.524-2.99c.99-1.685 2.782-3.315 4.824-1.817.407.24.976 1.18 1.523.623a.532.532 0 0 0-.036-.75c-1.508-1.651-3.986-2.111-5.683-.51-.462.442-.878.93-1.24 1.457a8.91 8.91 0 0 1-.236-.478c-1.448-2.983-3.535-5.406-6.204-3.712-2.552 1.864-4.612 6.56-5 7.482-1.283.717-1.592 2.655-1.506 2.801h-.49a.531.531 0 0 0 0 1.063h28.688a.531.531 0 0 0 0-1.063Zm-27.174 0c.13-1 .786-2.554 2.69-2.104a.534.534 0 0 0 .568-.256c.008-.013.772-1.315 1.808-1.364.655-.037 1.321.443 2.007 1.407a.531.531 0 0 0 .637.183c.068-.029 1.692-.677 2.852 1.208.292.372.651.687 1.06.926H4.17ZM27.934 25.876H6.067a.531.531 0 0 0 0 1.062h21.868a.531.531 0 0 0 0-1.062ZM24.526 28.991H9.475a.531.531 0 0 0 0 1.063h15.05a.531.531 0 0 0 0-1.063ZM24.525 11.23c3.28-.105 3.278-4.859 0-4.963-3.279.104-3.278 4.859 0 4.962Zm0-3.9a1.419 1.419 0 0 1 0 2.837 1.42 1.42 0 0 1 0-2.837ZM24.525 5.524a.523.523 0 0 0 0-1.046.523.523 0 0 0 0 1.046ZM22.246 6.469a.523.523 0 0 0-.74-.74.523.523 0 0 0 .74.74Z"/><path d="M20.778 9.271a.523.523 0 0 0 0-1.046.523.523 0 0 0 0 1.046ZM22.246 11.768a.523.523 0 0 0-.74-.74.523.523 0 0 0 .74.74ZM24.002 12.495a.523.523 0 0 0 1.046 0 .523.523 0 0 0-1.046 0ZM26.805 11.028a.523.523 0 0 0 .74.74.523.523 0 0 0-.74-.74ZM28.273 9.271a.523.523 0 0 0 0-1.046.523.523 0 0 0 0 1.046ZM27.545 6.469a.523.523 0 0 0-.74-.74.524.524 0 0 0 .74.74Z"/></g></symbol><symbol fill="none" viewBox="0 0 34 34" id="key_chain_1" xmlns="http://www.w3.org/2000/svg"><g fill="#616161" clip-path="url(#bga)"><path fill-rule="evenodd" clip-rule="evenodd" d="m19.023 20.849-7.292 9.778a.567.567 0 1 0 .907.68l7.293-9.781a.567.567 0 0 0-.907-.68l-.001.003Z"/><path d="m1.237 23.538 3.025 1.01a.938.938 0 0 0 .815-.081l10.347-6.2c.131.373.29.736.474 1.085l-1.813 2.431a.976.976 0 0 0-.18.716l.149 1.05-1.125.333a.969.969 0 0 0-.699.943c.011.237.04.473.088.705l.044.284-1.133.334a.974.974 0 0 0-.681 1.07l.123.868-1.09.324a1.749 1.749 0 0 0-1.213 2.064l.623 2.763c.094.442.482.76.934.763.025 0 .051 0 .077-.003l3.18-.218a.955.955 0 0 0 .727-.388l7.443-9.979a7.92 7.92 0 0 0 9-10.5 7.074 7.074 0 1 0-10.126-9.367 7.907 7.907 0 0 0-7.964 8.69L9.648 13.8a.977.977 0 0 0-.428.59l-.259 1.025-1.166-.12a.97.97 0 0 0-1.01.605 4.67 4.67 0 0 0-.187.699l-.064.271-1.166-.118a.97.97 0 0 0-1.053.725l-.214.85-1.129-.113a1.714 1.714 0 0 0-1.076.235c-.446.26-.752.706-.837 1.215L.586 22.45a.95.95 0 0 0 .65 1.088ZM28.762 19.1a6.755 6.755 0 0 1-7.504 3.128.567.567 0 0 0-.594.21l-7.617 10.215-2.98.204-.596-2.628a.63.63 0 0 1 .108-.51.623.623 0 0 1 .321-.222l1.226-.364a.963.963 0 0 0 .683-1.07l-.123-.867 1.134-.335a.963.963 0 0 0 .683-1.071l-.067-.438c-.026-.165-.051-.318-.065-.42l1.144-.338a.963.963 0 0 0 .68-1.07l-.16-1.121 1.99-2.67a.567.567 0 0 0 .034-.628 6.8 6.8 0 1 1 11.853-6.66 5.876 5.876 0 0 1-2.077.557 2.26 2.26 0 1 0-.416 1.72c.128-.178.23-.372.3-.58a7.026 7.026 0 0 0 2.638-.655 6.788 6.788 0 0 1-.595 5.613Zm-4.873-6.611a1.123 1.123 0 0 1 1.779.498 5.844 5.844 0 0 1-1.778-.498Zm1.565 1.616a1.126 1.126 0 0 1-1.968-.552c.625.28 1.288.465 1.968.552Zm.904-12.97a5.94 5.94 0 0 1 3.525 10.728 7.8 7.8 0 0 0-1.55-2.015 8.76 8.76 0 0 0-.522-.44 7.86 7.86 0 0 0-5.3-5.515c-.335-.1-.675-.179-1.02-.235a5.92 5.92 0 0 1 4.867-2.523ZM2.182 19.85a.61.61 0 0 1 .297-.43.595.595 0 0 1 .377-.084l1.275.13a.951.951 0 0 0 1.034-.726l.214-.85 1.178.121a.978.978 0 0 0 1.04-.736l.1-.42c.04-.165.075-.32.102-.423l1.186.122a.96.96 0 0 0 1.037-.726l.28-1.104 2.855-1.707a.567.567 0 0 0 .27-.567 6.794 6.794 0 0 1 12.8-4.023 7.829 7.829 0 0 0-4.03-.69 7.933 7.933 0 0 0-7.083 9.393L4.561 23.454l-2.83-.946.451-2.657Z"/><path fill-rule="evenodd" clip-rule="evenodd" d="M13.761 16.62a.567.567 0 0 0-.581-.972l-9.063 5.433a.567.567 0 1 0 .582.972l9.063-5.433Z"/></g><defs><clipPath id="bga"><path fill="#fff" d="M0 0h34v34H0z"/></clipPath></defs></symbol><symbol fill="none" viewBox="0 0 34 34" id="living_room_1" xmlns="http://www.w3.org/2000/svg"><g fill="#616161"><path d="M15.603 29.219h-.925a1.934 1.934 0 0 1-1.928-1.929v-5.705a1.934 1.934 0 0 1 1.928-1.929h.925a1.968 1.968 0 0 1 1.52.74c.266.338.41.758.408 1.189v5.705a1.934 1.934 0 0 1-1.928 1.929Zm-.925-8.5a.864.864 0 0 0-.866.866v5.705a.866.866 0 0 0 .866.866h.925a.866.866 0 0 0 .866-.866v-5.705a.866.866 0 0 0-.659-.84.957.957 0 0 0-.207 0l-.925-.026ZM30.478 29.219h-.925a1.934 1.934 0 0 1-1.928-1.929v-5.705a1.918 1.918 0 0 1 1.466-1.87c.151-.038.307-.058.462-.059h.925a1.935 1.935 0 0 1 1.928 1.929v5.705a1.934 1.934 0 0 1-1.928 1.929Zm-.925-8.5a.956.956 0 0 0-.207 0 .866.866 0 0 0-.659.866v5.705a.866.866 0 0 0 .866.866h.925a.866.866 0 0 0 .866-.866v-5.705a.865.865 0 0 0-.866-.866h-.925ZM11.688 26.563H1.594v-6.375h10.094v6.375ZM2.655 25.5h7.969v-4.25H2.656v4.25Z"/><path d="M10.625 25.5h1.063v3.719h-1.063V25.5ZM1.594 25.5h1.062v3.719H1.594V25.5ZM27.094 29.219h-9.032a1.594 1.594 0 0 1-1.593-1.594v-3.188h12.218v3.188a1.594 1.594 0 0 1-1.593 1.594ZM17.53 25.5v2.125a.532.532 0 0 0 .532.531h9.03a.531.531 0 0 0 .532-.531V25.5H17.531Z"/><path d="M28.688 25.5h-12.22v-1.594a2.656 2.656 0 0 1 2.657-2.656h6.906a2.656 2.656 0 0 1 2.657 2.656V25.5ZM17.53 24.437h10.094v-.53a1.594 1.594 0 0 0-1.594-1.595h-6.906a1.594 1.594 0 0 0-1.594 1.594v.532Z"/><path d="M28.688 23.906h-1.063a1.594 1.594 0 0 0-1.594-1.593h-6.906a1.594 1.594 0 0 0-1.594 1.593H16.47v-2.321a.866.866 0 0 0-.659-.84l-.404-.095v-4.181a3.719 3.719 0 0 1 3.719-3.719h6.906a3.719 3.719 0 0 1 3.719 3.719v4.18l-.404.096a.866.866 0 0 0-.659.84v2.321Zm-9.563-2.656h6.906c.575 0 1.134.186 1.594.531v-.196a1.912 1.912 0 0 1 1.063-1.722V16.47a2.656 2.656 0 0 0-2.657-2.657h-6.906a2.657 2.657 0 0 0-2.656 2.657v3.394a1.913 1.913 0 0 1 1.062 1.722v.196a2.657 2.657 0 0 1 1.594-.531ZM5.313 22.844h2.656v1.062H5.312v-1.062ZM8.367 21.25H4.914l-1.37-4.781h6.194l-1.37 4.781Zm-2.656-1.063h1.86l.754-2.656H4.957l.754 2.657Z"/><path d="M6.64 17.531a2.083 2.083 0 0 1-.403-.042 4.303 4.303 0 0 1-3.58-4.208v-.53h.53a4.218 4.218 0 0 1 2.71.966l.196.154v.25c-.003.646.188 1.28.548 1.817a3.24 3.24 0 0 0 .568-1.812v-.25l.197-.154a4.218 4.218 0 0 1 2.688-.972h.531v.531a4.282 4.282 0 0 1-3.644 4.25 1.71 1.71 0 0 1-.34 0Zm1.62-3.16a4.25 4.25 0 0 1-.53 1.81A3.187 3.187 0 0 0 9.54 13.84c-.461.08-.899.264-1.28.537v-.006Zm-4.51-.532a3.268 3.268 0 0 0 1.812 2.343 4.298 4.298 0 0 1-.531-1.812 3.119 3.119 0 0 0-1.28-.526v-.005Z"/><path d="m6.64 17.483-.377-.372a4.298 4.298 0 0 1 0-6.067l.378-.371.377.372a4.25 4.25 0 0 1 1.254 3.033v.027a4.25 4.25 0 0 1-.978 2.698 5.588 5.588 0 0 1-.276.308l-.377.372Zm0-5.238a3.24 3.24 0 0 0 0 3.666 3.24 3.24 0 0 0 0-3.666ZM12.75 10.625h1.063v12.75H12.75v-12.75Z"/><path d="M17.584 11.688H8.978L9.61 4.78h7.342l.632 6.907Zm-7.437-1.063h6.269l-.43-4.781h-5.409l-.43 4.781Z"/></g></symbol><symbol fill="none" viewBox="0 0 34 34" id="lock" xmlns="http://www.w3.org/2000/svg"><path fill-rule="evenodd" clip-rule="evenodd" d="M7.436 14.244v-2.91a9.563 9.563 0 0 1 19.125 0v2.91c1.58.118 2.608.416 3.36 1.168 1.244 1.244 1.244 3.248 1.244 7.255s0 6.01-1.244 7.255c-1.245 1.245-3.249 1.245-7.256 1.245H11.332c-4.007 0-6.01 0-7.255-1.245s-1.245-3.248-1.245-7.255 0-6.01 1.245-7.255c.752-.752 1.78-1.05 3.36-1.168Zm2.125-2.91a7.438 7.438 0 0 1 14.875 0v2.838c-.542-.005-1.131-.005-1.77-.005H11.331c-.64 0-1.228 0-1.77.005v-2.838Z" fill="#161117"/></symbol><symbol fill="none" viewBox="0 0 34 34" id="magnifer" xmlns="http://www.w3.org/2000/svg"><circle cx="16.292" cy="16.292" r="13.458" stroke="#fff" stroke-width="1.25"/><path d="m26.208 26.208 4.959 4.959" stroke="#fff" stroke-width="1.25" stroke-linecap="round"/></symbol><symbol fill="none" viewBox="0 0 34 34" id="mansion_1" xmlns="http://www.w3.org/2000/svg"><g clip-path="url(#bia)" fill="#616161"><path d="M32.938 9.031a.531.531 0 0 0 .53-.531V6.375a.531.531 0 0 0-.53-.531h-.904L24.201.62a.534.534 0 0 0-.295-.089H10.094a.534.534 0 0 0-.295.09L1.966 5.843h-.903a.531.531 0 0 0-.532.531V8.5a.531.531 0 0 0 .531.531h.532v12.512A2.12 2.12 0 0 0 .53 23.375a1.594 1.594 0 0 0 1.594 1.594h4.25a1.594 1.594 0 0 0 1.594-1.594c0-.18-.024-.358-.07-.531H8.5v1.593a.531.531 0 0 0 .531.532h2.125a.531.531 0 0 0 .531-.532v-1.593h1.872l-1.806 4.52C4.43 28.165.53 30.61.53 32.938a.531.531 0 0 0 .531.532h6.375a.531.531 0 0 0 .532-.532c0-1.109 3.435-2.656 9.031-2.656s9.031 1.547 9.031 2.657a.532.532 0 0 0 .532.53h6.375a.532.532 0 0 0 .53-.53c0-2.328-3.898-4.774-11.219-5.573l-1.808-4.521h1.872v1.593a.532.532 0 0 0 .53.532h2.126a.531.531 0 0 0 .531-.532v-1.593h.601c-.046.173-.07.352-.07.531a1.594 1.594 0 0 0 1.594 1.594h4.25a1.594 1.594 0 0 0 1.594-1.594 2.12 2.12 0 0 0-1.063-1.832V9.03h.532Zm-.532-1.062h-8.712l-1.449-1.063h10.161V7.97ZM9.563 11.156v-1.062h14.874v1.062H9.563ZM17 4.377l6.346 4.654h-2.457l-3.58-2.557a.531.531 0 0 0-.618 0l-3.58 2.557h-2.457L17 4.377Zm2.06 4.654h-4.12L17 7.56l2.06 1.472Zm-8.807-7.437h13.494l6.375 4.25h-9.326L17.314 3.29a.531.531 0 0 0-.628 0l-3.482 2.554H3.878l6.375-4.25Zm-8.66 5.312h10.162L10.306 7.97H1.594V6.906Zm4.782 17h-4.25a.531.531 0 0 1-.531-.531 1.062 1.062 0 0 1 1.046-1.063c.014 0 .07.009.084.01a.517.517 0 0 0 .458-.213.531.531 0 0 0 .074-.5.946.946 0 0 1 .06-.832 1.112 1.112 0 0 1 .713-.566c.258-.057.527-.012.752.125a.531.531 0 0 0 .535 0c.229-.14.504-.183.765-.12a1.09 1.09 0 0 1 .808.831 1.05 1.05 0 0 1-.258.91.531.531 0 0 0 0 .71c.177.194.275.446.275.708a.531.531 0 0 1-.531.531Zm1.516-2.125c.082-.303.096-.62.04-.93a2.152 2.152 0 0 0-1.61-1.673 2.058 2.058 0 0 0-1.274.106 2.067 2.067 0 0 0-1.244-.112c-.448.105-.85.352-1.147.705V9.03h6.201l-.14.103a.531.531 0 0 0-.217.428v12.22h-.609Zm1.671 2.125V12.22h1.063v11.687H9.562Zm10.626-2.125h-1.063v-4.25a2.125 2.125 0 0 0-4.25 0v4.25h-1.063v-4.25a3.188 3.188 0 0 1 6.376 0v4.25Zm-2.125 0h-2.125v-4.25a1.063 1.063 0 0 1 2.124 0v4.25Zm14.23 10.625h-5.287c-.7-2.072-5.485-3.187-10.006-3.187s-9.305 1.115-10.006 3.187H1.707c.888-2.107 6.92-4.25 15.293-4.25 8.372 0 14.405 2.143 15.293 4.25ZM21.06 27.253a50.197 50.197 0 0 0-4.06-.16c-1.445 0-2.796.058-4.06.16l1.763-4.41h4.594l1.763 4.41Zm.19-5.472v-4.25a4.25 4.25 0 0 0-8.5 0v4.25h-1.063V12.22h10.626v9.562H21.25Zm2.125 2.125V12.22h1.063v11.687h-1.063Zm8.5 0h-4.25a.532.532 0 0 1-.531-.531c0-.262.1-.514.276-.707a.531.531 0 0 0 0-.71 1.05 1.05 0 0 1-.257-.91 1.09 1.09 0 0 1 .808-.833 1.03 1.03 0 0 1 .767.121.531.531 0 0 0 .534 0 1.02 1.02 0 0 1 .75-.125 1.112 1.112 0 0 1 .712.567.946.946 0 0 1 .062.832.53.53 0 0 0 .531.712c.014 0 .053-.007.068-.009a1.063 1.063 0 0 1 1.063 1.063.53.53 0 0 1-.533.53Zm-.531-4.03a2.134 2.134 0 0 0-1.147-.703 2.06 2.06 0 0 0-1.244.111 2.054 2.054 0 0 0-1.275-.106 2.153 2.153 0 0 0-1.61 1.674c-.055.309-.042.626.04.93H25.5V9.561a.531.531 0 0 0-.217-.428l-.14-.103h6.2v10.846Z"/><path d="M5.313 10.094a1.594 1.594 0 0 0-1.594 1.594v3.187a.531.531 0 0 0 .531.531h2.125a.531.531 0 0 0 .531-.531v-3.188a1.594 1.594 0 0 0-1.593-1.593Zm.53 4.25H4.782v-2.656a.531.531 0 0 1 1.063 0v2.656ZM27.625 15.406h2.125a.532.532 0 0 0 .531-.531v-3.188a1.594 1.594 0 0 0-3.187 0v3.188a.532.532 0 0 0 .531.531Zm.531-3.719a.532.532 0 0 1 1.063 0v2.657h-1.063v-2.656Z"/></g><defs><clipPath id="bia"><path fill="#fff" d="M0 0h34v34H0z"/></clipPath></defs></symbol><symbol fill="none" viewBox="0 0 35 35" id="map_point" xmlns="http://www.w3.org/2000/svg"><path fill-rule="evenodd" clip-rule="evenodd" d="M17.5 2.917c-6.443 0-11.667 5.837-11.667 12.396 0 6.507 3.724 13.58 9.534 16.295a5.031 5.031 0 0 0 4.267 0c5.81-2.715 9.533-9.788 9.533-16.296 0-6.558-5.224-12.395-11.667-12.395Zm0 14.583a2.917 2.917 0 1 0 0-5.833 2.917 2.917 0 0 0 0 5.833Z" fill="#161117"/></symbol><symbol fill="none" viewBox="0 0 34 34" id="mountain_1" xmlns="http://www.w3.org/2000/svg"><g clip-path="url(#ama)"><path d="M33.139 18.34H28.64l-3.212-3.529a.862.862 0 0 0-1.175-.093l-1.992 1.59-5.258-8.303a.862.862 0 0 0-1.455 0l-4.49 7.09-1.682-2.463a.862.862 0 0 0-1.423 0l-3.9 5.707H.862a.861.861 0 1 0 0 1.723h2.014l-.686 1.003a.861.861 0 1 0 1.423.973l.332-.487 4.72-6.905 1.39 2.035-3.083 4.87-2.23 3.523a.861.861 0 1 0 1.456.921l.41-.647 9.668-15.272 7.855 12.408.196.31a.862.862 0 0 0 1.455-.922l-2.594-4.099 1.51-1.205 5.174 5.682.602.663a.859.859 0 0 0 1.218.057.862.862 0 0 0 .057-1.217l-1.54-1.69h2.93a.862.862 0 1 0 0-1.724Z" fill="#000"/></g><defs><clipPath id="ama"><path fill="#fff" d="M0 0h34v34H0z"/></clipPath></defs></symbol><symbol fill="none" viewBox="0 0 34 34" id="palm_tree_1" xmlns="http://www.w3.org/2000/svg"><g fill="#616161" clip-path="url(#bja)"><path d="M22.97 8.698c-.397 0-.823.073-1.163.192-.718-1.658-1.969-2.79-3.721-3.368-2.412-.793-4.235-.451-5.4.03 1.751-1.864 3.966-1.811 5.308-1.543a.864.864 0 0 0 .876-.34.867.867 0 0 0 .059-.94c-.506-.916-1.415-2.095-2.872-2.512-1.148-.33-2.416-.116-3.77.636-1.642.913-2.477 2.382-2.414 4.25.002.073.007.146.012.219-.547-.424-1.275-.82-2.238-1.07a.498.498 0 1 0-.25.964c1.21.314 1.968.89 2.424 1.393-1.702-.216-3.444.38-5.196 1.78-1.603 1.283-2.858 2.982-3.552 4.034-.258-2.12.107-3.835 1.087-5.103.764-.988 1.644-1.328 1.65-1.33a.498.498 0 0 0 .157-.843l-.063-.056c.501-.067.988-.103 1.45-.106a.498.498 0 1 0-.008-.996c-.554.004-1.139.05-1.74.138a.916.916 0 0 0-.754.654.92.92 0 0 0 .017.578 5.59 5.59 0 0 0-1.456 1.3C.564 7.73-.347 9.683.133 12.898a.864.864 0 0 0 .866.743c.295 0 .57-.148.735-.406.607-.956 1.872-2.756 3.514-4.068 1.354-1.083 2.684-1.617 3.97-1.6-.671.36-1.499.886-2.336 1.627-1.759 1.556-3.892 4.394-4.061 9.072a.871.871 0 0 0 .873.905.871.871 0 0 0 .465-.134c.676-.426 1.915-1.374 3.109-3.154a.866.866 0 0 0 .565.301.866.866 0 0 0 .736-.27c.205-.218.492-.548.807-.977-.313 4.694-.316 11.997 1.719 18.643a.498.498 0 1 0 .952-.292 35.641 35.641 0 0 1-.654-2.456h.537a.498.498 0 0 0 0-.996h-.752a46.967 46.967 0 0 1-.743-5.244h1.005a.498.498 0 1 0 0-.996h-1.083a58.38 58.38 0 0 1-.101-1.992h.656a.498.498 0 1 0 0-.996h-.682a68.656 68.656 0 0 1 .298-7.613c.126-.273.247-.56.356-.862.177.49.381.941.599 1.354a72.8 72.8 0 0 0 .28 4.199h-.515a.498.498 0 1 0 0 .996h.618a62.236 62.236 0 0 0 1.286 7.512H11.93a.498.498 0 1 0 0 .996h1.468c.676 2.632 1.436 4.777 2.128 6.436a.498.498 0 1 0 .92-.383c-1.515-3.635-3.366-9.647-3.883-18.084.239.307.46.56.643.755.19.203.459.302.736.27a.865.865 0 0 0 .566-.3c.434.647.908 1.235 1.415 1.756-.247 1.093-.236 2.15-.185 2.829a.794.794 0 0 0 .796.737.794.794 0 0 0 .68-.383c.7-1.153 2.425-3.5 5.31-4.453-.18.137-.363.286-.547.448-1.415 1.253-3.13 3.534-3.267 7.293a.795.795 0 0 0 1.222.703c.532-.335 1.496-1.07 2.435-2.438a.799.799 0 0 0 1.095-.063c.093-.1.2-.22.315-.358-.06.898-.14 1.785-.24 2.651a.498.498 0 0 0 .99.114 57.97 57.97 0 0 0 .332-4.383c.134-.254.261-.527.377-.818.056.141.115.279.176.412.126 1.286.256 3.147.248 5.305h-.153a.498.498 0 1 0 0 .996h.14c-.008.34-.02.684-.035 1.034h-.441a.498.498 0 1 0 0 .997h.385a38.366 38.366 0 0 1-.661 5.072.498.498 0 1 0 .976.198c.881-4.336.868-8.725.687-11.74.172.217.326.392.446.52a.799.799 0 0 0 1.094.063c.94 1.367 1.904 2.103 2.436 2.438a.795.795 0 0 0 1.221-.703c-.136-3.759-1.852-6.04-3.267-7.293a9.9 9.9 0 0 0-1.504-1.096c.87.092 1.764.502 2.674 1.23 1.295 1.036 2.294 2.458 2.775 3.214a.79.79 0 0 0 .839.352.789.789 0 0 0 .621-.66c.387-2.596-.352-4.176-1.04-5.045a4.547 4.547 0 0 0-1.21-1.073.935.935 0 0 0-.038-.36.913.913 0 0 0-.766-.647c-1.808-.231-3.103.044-4.015.476.169-1.148-.191-2.214-1.063-3.118-.873-.908-1.813-1.377-2.792-1.394Zm-.494 3.191c.746.403 1.462 1.077 1.896 2.198a5.351 5.351 0 0 0-1.9-.678c.033-.521.034-1.029.004-1.52Zm.476-2.195c.704.012 1.408.379 2.092 1.089 1.184 1.229.86 2.563.422 3.423-.824-2.781-3.018-3.577-4.33-3.802.468-.375 1.095-.72 1.816-.71Zm-5.178-3.225c1.485.489 2.54 1.453 3.14 2.867-.306.2-.57.424-.788.633a.79.79 0 0 0-.2.837c.104.296.362.5.674.53.253.025.54.071.844.15.062.587.074 1.207.035 1.85-.077.001-.155.003-.235.007-1.354-2.198-4.24-5.695-9.134-6.354.983-.668 2.863-1.442 5.664-.52Zm-5.003-4.745c.791-.44 1.531-.66 2.211-.66.277 0 .544.037.8.11 1.018.292 1.713 1.104 2.144 1.81-1.601-.262-4.828-.277-6.92 3.145-.286-1.223-.352-3.229 1.765-4.405ZM7.955 15.11l-.247-.427a.498.498 0 0 0-.43-.249h-.001a.498.498 0 0 0-.43.246c-1.102 1.87-2.3 2.89-3.02 3.383.172-3.346 1.411-6.068 3.683-8.095a11.212 11.212 0 0 1 2.812-1.832 9.654 9.654 0 0 0 .06 1.952c-.372 2.471-1.741 4.26-2.427 5.022Zm6.973-.43a.497.497 0 0 0-.86.003l-.248.427c-.953-1.055-2.784-3.567-2.495-7.032.78.337 2.247 1.102 3.601 2.532a.498.498 0 0 0 .723-.685 12.112 12.112 0 0 0-1.697-1.485c3.08 1.048 5.078 3.34 6.198 5.038-.195.04-.396.087-.603.146a5.258 5.258 0 0 0-1.323.567 11.93 11.93 0 0 0-1.161-2.44.498.498 0 0 0-.844.528c.492.786.885 1.648 1.17 2.562-.509.5-.87 1.089-1.123 1.703a12.291 12.291 0 0 1-1.338-1.864Zm1.775 5.095c-.028-1.836.434-4.44 3.114-5.192a6.387 6.387 0 0 1 1.73-.254c1.109 0 1.919.345 2.455.694-3.826.457-6.194 3.129-7.299 4.752Zm6.213 1.655-.126-.218a.498.498 0 0 0-.43-.248h-.001a.498.498 0 0 0-.43.245c-.784 1.332-1.629 2.115-2.202 2.539.176-2.535 1.144-4.605 2.879-6.155a8.835 8.835 0 0 1 2.188-1.434c.159 2.537-1.124 4.405-1.878 5.271Zm7.823 2.318c-.573-.424-1.418-1.207-2.203-2.54a.498.498 0 0 0-.86.004l-.126.218c-.56-.647-1.533-1.999-1.813-3.827.058-.44.08-.903.056-1.389.52.248 1.272.675 2.035 1.35 1.755 1.553 2.733 3.632 2.91 6.184Zm2.233-4.575c-1.161-1.705-3.488-4.473-6.345-4.473-.09 0-.18.002-.271.008.661-.612 1.926-1.267 4.225-1.003a.497.497 0 0 0 .25.734c.026.01 2.478.952 2.141 4.734Z"/><path d="M24.245 29.52h-.502c.184-.856.347-1.73.488-2.62a.498.498 0 1 0-.984-.156 43.704 43.704 0 0 1-1.535 6.538.498.498 0 1 0 .949.306c.118-.37.232-.743.342-1.122h1.042a.498.498 0 1 0 0-.997h-.767c.082-.314.162-.632.239-.953h.728a.498.498 0 1 0 0-.996Z"/></g><defs><clipPath id="bja"><path fill="#fff" d="M0 0h34v34H0z"/></clipPath></defs></symbol><symbol fill="none" viewBox="0 0 34 34" id="pan_1" xmlns="http://www.w3.org/2000/svg"><path d="M19.205 6.25c.18-.344.275-.726.279-1.115a2.502 2.502 0 0 0-5.004 0c.004.389.1.77.28 1.115-5.976.3-11.437 1.83-11.437 4.496a.715.715 0 0 0 .787.715h25.816c.395 0 .715-.32.715-.715 0-2.666-5.44-4.195-11.436-4.496Zm-2.187-2.18a1.058 1.058 0 1 1 0 2.116 1.058 1.058 0 0 1 0-2.116ZM5.26 10.06c1.323-1.187 5.625-2.445 11.758-2.445v.03c6.132 0 10.435 1.257 11.757 2.415H5.26ZM6.611 14.906a.715.715 0 0 0-.714.714v7.684a.715.715 0 0 0 1.43 0V15.62a.715.715 0 0 0-.716-.715Z" fill="#000"/><path d="M33.285 15.099h-2.644v-2.044a.715.715 0 0 0-.715-.715H4.11a.715.715 0 0 0-.715.715v2.044H.715a.715.715 0 0 0 0 1.43h2.687v10.549c0 3.166 2.266 4.288 4.396 4.288h18.511c3.167 0 4.289-2.215 4.289-4.288v-10.55h2.687a.715.715 0 0 0 0-1.43Zm-4.074 11.979c0 1.308-.5 2.859-2.859 2.859H7.77c-1.108 0-2.966-.372-2.966-2.86V13.77h24.408v13.309Z" fill="#000"/></symbol><symbol fill="none" viewBox="0 0 34 34" id="people_1" xmlns="http://www.w3.org/2000/svg"><path d="M32.583 26.916a1.417 1.417 0 0 1-1.417 1.417h-17a1.417 1.417 0 0 1-1.416-1.417 8.5 8.5 0 0 1 8.5-8.5h2.833a8.5 8.5 0 0 1 8.5 8.5Zm-9.917-21.25a5.666 5.666 0 1 0 0 11.333 5.666 5.666 0 0 0 0-11.333Zm-12.75 0a5.667 5.667 0 1 0 0 11.333 5.667 5.667 0 0 0 0-11.333Zm0 21.25a11.247 11.247 0 0 1 3.33-8.004 7.691 7.691 0 0 0-2.706-.496H9.293a7.89 7.89 0 0 0-7.877 7.877v.623a1.417 1.417 0 0 0 1.417 1.417h7.338a4.248 4.248 0 0 1-.255-1.417Z" fill="#131212"/></symbol><symbol fill="none" viewBox="0 0 34 34" id="pool_1" xmlns="http://www.w3.org/2000/svg"><g clip-path="url(#apa)" fill="#000"><path d="M32.866 32.114a1.89 1.89 0 0 1-1.345.558 1.89 1.89 0 0 1-1.346-.558 3.235 3.235 0 0 0-4.569 0 1.89 1.89 0 0 1-1.346.558 1.89 1.89 0 0 1-1.345-.558 3.235 3.235 0 0 0-4.57 0 1.89 1.89 0 0 1-1.345.558 1.89 1.89 0 0 1-1.346-.558 3.235 3.235 0 0 0-4.569 0 1.89 1.89 0 0 1-1.345.558 1.89 1.89 0 0 1-1.346-.558 3.235 3.235 0 0 0-4.57 0 1.89 1.89 0 0 1-1.345.558 1.89 1.89 0 0 1-1.345-.558.664.664 0 0 0-.94.94A3.21 3.21 0 0 0 2.48 34a3.21 3.21 0 0 0 2.285-.946 1.905 1.905 0 0 1 2.69 0A3.21 3.21 0 0 0 9.74 34a3.21 3.21 0 0 0 2.284-.946 1.905 1.905 0 0 1 2.691 0A3.21 3.21 0 0 0 17 34a3.21 3.21 0 0 0 2.285-.946 1.905 1.905 0 0 1 2.69 0A3.21 3.21 0 0 0 24.26 34a3.21 3.21 0 0 0 2.285-.946 1.905 1.905 0 0 1 2.691 0 3.21 3.21 0 0 0 2.285.946 3.21 3.21 0 0 0 2.285-.946.664.664 0 0 0-.94-.94ZM32.867 26.765c-.36.36-.838.558-1.346.558a1.89 1.89 0 0 1-1.346-.558 3.235 3.235 0 0 0-4.569 0c-.36.36-.837.558-1.345.558a1.89 1.89 0 0 1-1.346-.558 3.235 3.235 0 0 0-4.57 0 1.905 1.905 0 0 1-2.69 0 3.235 3.235 0 0 0-4.57 0 1.89 1.89 0 0 1-1.345.558 1.89 1.89 0 0 1-1.346-.558 3.235 3.235 0 0 0-4.57 0 1.89 1.89 0 0 1-1.345.558 1.89 1.89 0 0 1-1.345-.558.664.664 0 0 0-.94.94 3.235 3.235 0 0 0 4.57 0 1.905 1.905 0 0 1 2.691 0 3.235 3.235 0 0 0 4.57 0 1.905 1.905 0 0 1 2.69 0 3.235 3.235 0 0 0 4.57 0 1.905 1.905 0 0 1 2.69 0 3.22 3.22 0 0 0 2.286.944c.827 0 1.654-.315 2.284-.945a1.905 1.905 0 0 1 2.691 0 3.235 3.235 0 0 0 4.57 0 .664.664 0 0 0-.94-.939ZM.664 6.906h10.714v14.252c-.102.08-.2.165-.293.258a1.89 1.89 0 0 1-1.345.557 1.89 1.89 0 0 1-1.346-.557 3.235 3.235 0 0 0-4.57 0 1.89 1.89 0 0 1-1.345.557 1.89 1.89 0 0 1-1.345-.557.664.664 0 0 0-.94.939 3.235 3.235 0 0 0 4.57 0 1.905 1.905 0 0 1 2.691 0 3.235 3.235 0 0 0 4.57 0 1.905 1.905 0 0 1 2.69 0 3.235 3.235 0 0 0 4.57 0 1.905 1.905 0 0 1 2.69 0 3.22 3.22 0 0 0 2.285.945c.828 0 1.655-.315 2.285-.945a1.905 1.905 0 0 1 2.691 0 3.234 3.234 0 0 0 4.57 0 .664.664 0 1 0-.94-.94 1.89 1.89 0 0 1-1.345.558 1.89 1.89 0 0 1-1.346-.557 3.245 3.245 0 0 0-.292-.258V6.906h3.453a.664.664 0 0 0 0-1.328h-3.488A6.25 6.25 0 0 0 23.64 0a6.251 6.251 0 0 0-6.207 5.578h-2.107A6.251 6.251 0 0 0 9.12 0a6.25 6.25 0 0 0-6.207 5.578H.664a.664.664 0 0 0 0 1.328Zm6.298-1.328A2.262 2.262 0 0 1 9.12 3.984c1.014 0 1.874.672 2.158 1.594H6.962Zm18.936 1.328v1.86H15.362v-1.86h10.536Zm0 4.516H15.362v-1.328h10.536v1.328ZM15.362 12.75h10.536v1.86H15.362v-1.86Zm6.12-7.172a2.262 2.262 0 0 1 2.159-1.594c1.014 0 1.874.672 2.158 1.594h-4.316Zm2.778 16.395a1.89 1.89 0 0 1-1.345-.557 3.235 3.235 0 0 0-4.57 0 1.905 1.905 0 0 1-2.69 0 3.246 3.246 0 0 0-.293-.258v-2.564h2.28a.664.664 0 0 0 0-1.328h-2.28v-1.328h10.536v1.328h-2.28a.664.664 0 0 0 0 1.328h2.28v2.564c-.1.08-.199.165-.292.258a1.89 1.89 0 0 1-1.346.557Zm-.62-20.645a4.92 4.92 0 0 1 4.915 4.914V20.54a3.254 3.254 0 0 0-1.328 0V6.242a3.59 3.59 0 0 0-3.586-3.586c-1.75 0-3.211 1.261-3.524 2.922h-1.344a4.92 4.92 0 0 1 4.868-4.25Zm-14.52 0a4.92 4.92 0 0 1 4.914 4.914V20.54a3.254 3.254 0 0 0-1.328 0V6.242A3.59 3.59 0 0 0 9.12 2.656c-1.75 0-3.211 1.261-3.523 2.922H4.252a4.92 4.92 0 0 1 4.868-4.25Z"/><path d="M20.63 17.266a.67.67 0 0 0-.47.194.668.668 0 0 0 0 .94.671.671 0 0 0 .47.194.669.669 0 0 0 .664-.664.67.67 0 0 0-.194-.47.67.67 0 0 0-.47-.194Z"/></g><defs><clipPath id="apa"><path fill="#fff" d="M0 0h34v34H0z"/></clipPath></defs></symbol><symbol fill="none" viewBox="0 0 35 35" id="profile_1" xmlns="http://www.w3.org/2000/svg"><g clip-path="url(#aqa)"><path fill-rule="evenodd" clip-rule="evenodd" d="M17.353 19.487a6.264 6.264 0 0 0 6.256-6.257 6.264 6.264 0 0 0-6.256-6.257 6.266 6.266 0 0 0-6.26 6.257c0 3.45 2.81 6.257 6.26 6.257ZM17.5 1.436c8.857 0 16.065 7.206 16.065 16.064 0 4.198-1.62 8.024-4.267 10.889a13.246 13.246 0 0 0-4.487-5.586 13.096 13.096 0 0 0-7.465-2.46c-2.643.04-5.186.867-7.356 2.391a13.271 13.271 0 0 0-4.49 5.433A15.998 15.998 0 0 1 1.435 17.5c0-8.858 7.208-16.064 16.064-16.064Zm11.843 4.221A16.638 16.638 0 0 1 34.25 17.5a16.64 16.64 0 0 1-4.906 11.843A16.636 16.636 0 0 1 17.5 34.248a16.64 16.64 0 0 1-11.843-4.905A16.637 16.637 0 0 1 .751 17.5 16.64 16.64 0 0 1 5.656 5.657 16.646 16.646 0 0 1 17.5.752c4.475 0 8.68 1.742 11.843 4.905Z" fill="#161117"/></g><defs><clipPath id="aqa"><path fill="#fff" d="M0 0h35v35H0z"/></clipPath></defs></symbol><symbol fill="none" viewBox="0 0 35 35" id="profile_2" xmlns="http://www.w3.org/2000/svg"><g clip-path="url(#ara)"><path fill-rule="evenodd" clip-rule="evenodd" d="M17.353 19.487a6.264 6.264 0 0 0 6.256-6.257 6.264 6.264 0 0 0-6.256-6.257 6.266 6.266 0 0 0-6.26 6.257c0 3.45 2.81 6.257 6.26 6.257ZM17.5 1.436c8.857 0 16.065 7.206 16.065 16.064 0 4.198-1.62 8.024-4.267 10.889a13.246 13.246 0 0 0-4.487-5.586 13.096 13.096 0 0 0-7.465-2.46c-2.643.04-5.186.867-7.356 2.391a13.271 13.271 0 0 0-4.49 5.433A15.998 15.998 0 0 1 1.435 17.5c0-8.858 7.208-16.064 16.064-16.064Zm11.843 4.221A16.638 16.638 0 0 1 34.25 17.5a16.64 16.64 0 0 1-4.906 11.843A16.636 16.636 0 0 1 17.5 34.248a16.64 16.64 0 0 1-11.843-4.905A16.637 16.637 0 0 1 .751 17.5 16.64 16.64 0 0 1 5.656 5.657 16.646 16.646 0 0 1 17.5.752c4.475 0 8.68 1.742 11.843 4.905Z" fill="#fff"/></g><defs><clipPath id="ara"><path fill="#fff" d="M0 0h35v35H0z"/></clipPath></defs></symbol><symbol fill="none" viewBox="0 0 34 34" id="shaker_1" xmlns="http://www.w3.org/2000/svg"><path d="M27.883.608a2.206 2.206 0 0 0-3.115.075l-3.462 3.634a8.843 8.843 0 0 0-7.29 2.211l-.018-.016a.63.63 0 0 0-.89.022l-.995 1.045a1.693 1.693 0 0 0-.47 1.217.443.443 0 0 1-.123.317l-.008.01a53.365 53.365 0 0 0-6.454 8.273L1.67 22.757a2.21 2.21 0 0 0 .343 2.773l6.337 6.037a2.21 2.21 0 0 0 2.787.208l5.19-3.645a53.36 53.36 0 0 0 7.95-6.848l.008-.008a.449.449 0 0 1 .312-.138c.452-.01.882-.2 1.193-.529l.995-1.045a.63.63 0 0 0-.021-.89l-.017-.016a8.843 8.843 0 0 0 1.854-7.39l3.461-3.634a2.206 2.206 0 0 0-.075-3.116L27.883.608Zm-1.542.65a.93.93 0 0 1 .674.261l4.103 3.909c.377.36.392.957.033 1.335l-.218.229-5.47-5.212.217-.228a.938.938 0 0 1 .66-.293Zm3.29 7.1-5.471-5.21.434-.456 5.47 5.211-.434.456Zm-1.738 1.824-5.47-5.21.868-.913 5.471 5.212-.869.911Zm-3.015 9.557a.442.442 0 0 1-.312.138c-.452.01-.881.2-1.192.528l-.008.008a52.1 52.1 0 0 1-7.763 6.686l-5.19 3.645a.947.947 0 0 1-1.194-.089l-6.338-6.037a.947.947 0 0 1-.146-1.188l3.388-5.36a52.1 52.1 0 0 1 6.3-8.079l.009-.008c.313-.327.482-.765.47-1.217a.442.442 0 0 1 .122-.318l.562-.59L25.439 19.15l-.561.59Zm.955-1.954-4.168-3.97L14.93 7.4a7.588 7.588 0 0 1 6.307-1.818l6.107 5.816a7.588 7.588 0 0 1-1.51 6.388Z" fill="#000"/><path d="M18.988 6.518a8.874 8.874 0 0 0-1.947.954.63.63 0 1 0 .689 1.055 7.612 7.612 0 0 1 1.67-.819.63.63 0 0 0-.412-1.19ZM9.994 15.748a.63.63 0 0 0-.881.13 53.522 53.522 0 0 0-2.23 3.256.63.63 0 1 0 1.064.672 52.173 52.173 0 0 1 2.178-3.178.63.63 0 0 0-.131-.88ZM11.982 13.289a.63.63 0 0 0-.887.077c-.137.163-.273.327-.408.492a.63.63 0 1 0 .975.798c.131-.161.264-.321.397-.48a.63.63 0 0 0-.077-.887ZM11.977 4.863c.172 0 .337-.07.455-.195l.075-.079a3.646 3.646 0 0 1 2.569-1.137.63.63 0 0 0-.031-1.26 4.897 4.897 0 0 0-3.45 1.528l-.074.079a.63.63 0 0 0 .456 1.064ZM14.3.614A.631.631 0 0 0 13.655 0a4.897 4.897 0 0 0-3.449 1.528l-.074.078a.63.63 0 0 0 .911.869l.075-.078a3.646 3.646 0 0 1 2.568-1.138.63.63 0 0 0 .614-.645ZM19.686 29.205a.63.63 0 0 0-.888.068l-.07.082a3.645 3.645 0 0 1-2.506 1.27.63.63 0 1 0 .096 1.255 4.897 4.897 0 0 0 3.366-1.705l.07-.082a.63.63 0 0 0-.068-.888ZM17.144 33.418a.63.63 0 0 0 .676.58 4.896 4.896 0 0 0 3.365-1.705l.07-.082a.63.63 0 1 0-.955-.82l-.07.082a3.646 3.646 0 0 1-2.506 1.27.63.63 0 0 0-.58.675Z" fill="#000"/></symbol><symbol fill="none" viewBox="0 0 34 37" id="share" xmlns="http://www.w3.org/2000/svg"><path d="M1 18.667v15.2a1.8 1.8 0 0 0 1.8 1.8h28.36a1.8 1.8 0 0 0 1.8-1.8v-15.2m-15.64 7.48V1.667m0 0-6.12 8.16m6.12-8.16 6.12 8.16" stroke="#161117" stroke-width="2" stroke-linecap="round"/></symbol><symbol fill="none" viewBox="0 0 37 35" id="star_2" xmlns="http://www.w3.org/2000/svg"><path d="M17.104 2.603c.54-1.085 2.083-1.1 2.645-.027l4.435 8.475 10.41 1.912a1.142 1.142 0 0 1 .581 1.952l-6.96 6.616 1.304 11.278c.107.92-.869 1.578-1.682 1.133l-9.436-5.156-9.387 5.13a1.142 1.142 0 0 1-1.68-1.158l1.534-11.227-7.176-6.604a1.142 1.142 0 0 1 .572-1.965l10.634-1.911 4.206-8.448Z" fill="#FAC02B"/></symbol><symbol fill="none" viewBox="0 0 34 34" id="sunrise_1" xmlns="http://www.w3.org/2000/svg"><path d="M28.983 14.453a.664.664 0 0 0 .867.36l1.815-.752a.664.664 0 1 0-.508-1.227l-1.815.752a.664.664 0 0 0-.36.867ZM33.336 20.062h-6.132C26.861 14.732 22.416 10.5 17 10.5s-9.861 4.232-10.204 9.562H.664a.664.664 0 0 0 0 1.328h13.348a.664.664 0 0 0 0-1.328H8.126c.341-4.598 4.19-8.234 8.874-8.234 4.683 0 8.533 3.636 8.874 8.234h-5.886a.664.664 0 0 0 0 1.328h13.348a.664.664 0 0 0 0-1.328ZM17 8.91a.664.664 0 0 0 .664-.665v-6.27a.664.664 0 0 0-1.328 0v6.27c0 .367.297.664.664.664ZM21.963 8.744a.662.662 0 0 0 .868-.36l.752-1.815a.664.664 0 1 0-1.227-.508l-.752 1.815c-.14.339.02.727.36.868ZM25.825 12.565c.17 0 .34-.065.47-.195l4.497-4.497a.664.664 0 0 0-.939-.94l-4.497 4.498a.664.664 0 0 0 .47 1.134ZM11.169 8.384a.664.664 0 0 0 1.227-.508l-.752-1.815a.664.664 0 0 0-1.227.508l.752 1.815ZM2.335 15.37l1.815.752a.66.66 0 0 0 .867-.36.664.664 0 0 0-.359-.867l-1.815-.751a.664.664 0 0 0-.508 1.226ZM7.705 12.37a.662.662 0 0 0 .94 0c.258-.259.258-.68 0-.939L4.146 6.934a.664.664 0 0 0-.94.939l4.498 4.497ZM28.199 24.952a2.619 2.619 0 0 1-1.864.772 2.619 2.619 0 0 1-1.864-.772 3.97 3.97 0 0 0-5.607 0 2.619 2.619 0 0 1-1.864.772 2.619 2.619 0 0 1-1.864-.772 3.97 3.97 0 0 0-5.607 0 2.619 2.619 0 0 1-1.864.772 2.619 2.619 0 0 1-1.864-.772.664.664 0 0 0-.939.939 3.939 3.939 0 0 0 2.803 1.161 3.939 3.939 0 0 0 2.804-1.161 2.64 2.64 0 0 1 3.728 0A3.939 3.939 0 0 0 17 27.052a3.939 3.939 0 0 0 2.803-1.161 2.64 2.64 0 0 1 3.729 0 3.939 3.939 0 0 0 2.803 1.161 3.939 3.939 0 0 0 2.803-1.161.664.664 0 0 0-.939-.94ZM23.532 30.59a2.619 2.619 0 0 1-1.864.773 2.619 2.619 0 0 1-1.865-.772A3.939 3.939 0 0 0 17 29.43a3.939 3.939 0 0 0-2.803 1.16 2.619 2.619 0 0 1-1.864.773 2.619 2.619 0 0 1-1.864-.772.664.664 0 0 0-.94.94 3.97 3.97 0 0 0 5.607 0A2.619 2.619 0 0 1 17 30.757c.704 0 1.366.274 1.864.772a3.952 3.952 0 0 0 2.803 1.16c1.016 0 2.03-.387 2.804-1.16a.664.664 0 0 0-.94-.94Z" fill="#000"/><path d="M17.47 21.196a.67.67 0 0 0 .194-.47.669.669 0 0 0-.664-.664.667.667 0 0 0-.664.664.669.669 0 0 0 .664.664.669.669 0 0 0 .47-.194Z" fill="#000"/></symbol><symbol fill="none" viewBox="0 0 34 34" id="swimming_pool_1" xmlns="http://www.w3.org/2000/svg"><g fill="#616161" clip-path="url(#bka)"><path d="M33.78 21.718a.5.5 0 0 0-.692.132c-.042.061-1.045 1.498-2.888 1.498-1.842 0-2.845-1.437-2.886-1.496-.184-.29-.645-.29-.829 0-.01.015-1.025 1.496-2.884 1.496-1.558 0-2.516-1.027-2.799-1.38v-7.733h12.699a.499.499 0 1 0 0-.998h-4.013V9.6c0-3.3-2.653-6.01-5.913-6.041a5.927 5.927 0 0 0-4.259 1.73 5.975 5.975 0 0 0-1.284 1.875c-.922-2.1-2.997-3.582-5.402-3.605h-.06a5.929 5.929 0 0 0-4.2 1.73 5.93 5.93 0 0 0-1.77 4.24v3.708H.536a.499.499 0 1 0 0 .998h6.062v1.97a.499.499 0 1 0 .998 0V9.53c0-1.335.524-2.59 1.476-3.532a4.925 4.925 0 0 1 3.547-1.441c2.715.026 4.925 2.288 4.925 5.043v3.637h-1.262V9.53a3.73 3.73 0 0 0-3.71-3.712c-.964 0-1.877.376-2.577 1.065A3.817 3.817 0 0 0 8.86 9.587V22.98a3.902 3.902 0 0 1-1.262-1.018v-3.76a.499.499 0 1 0-.998 0v3.765c-.284.354-1.242 1.38-2.8 1.38-1.842 0-2.845-1.436-2.886-1.495a.499.499 0 0 0-.828.557c.053.079 1.33 1.937 3.715 1.937 1.63 0 2.743-.869 3.3-1.443.558.575 1.67 1.443 3.3 1.443 1.631 0 2.742-.868 3.3-1.443.557.575 1.67 1.443 3.3 1.443s2.743-.869 3.3-1.443c.558.575 1.67 1.443 3.301 1.443 1.63 0 2.742-.868 3.299-1.443.557.575 1.67 1.443 3.3 1.443 2.385 0 3.662-1.858 3.715-1.937a.498.498 0 0 0-.135-.69ZM9.857 17.703h7.688V19.1H9.857v-1.397Zm7.688-.998H9.857v-2.47h7.688v2.47Zm-6.849-9.11a2.662 2.662 0 0 1 1.922-.779 2.727 2.727 0 0 1 2.667 2.714v3.707H9.857v-3.65c0-.742.306-1.468.839-1.993Zm3.417 14.257c-.183-.29-.642-.29-.827-.001-.042.06-1.043 1.497-2.885 1.497-.19 0-.372-.016-.544-.044v-3.206h7.688v3.206a3.439 3.439 0 0 1-.545.044c-1.842 0-2.846-1.437-2.887-1.496Zm4.43 1.128V9.53c0-1.335.524-2.59 1.475-3.532a4.925 4.925 0 0 1 3.547-1.441c2.716.026 4.925 2.288 4.925 5.043v3.637h-1.262v-1.11a.499.499 0 1 0-.998 0v1.11h-5.428v-3.65c0-.742.306-1.468.84-1.993a2.66 2.66 0 0 1 1.922-.778A2.727 2.727 0 0 1 26.23 9.53v.601a.499.499 0 0 0 .998 0V9.53a3.73 3.73 0 0 0-3.71-3.712c-.964 0-1.876.376-2.576 1.065a3.817 3.817 0 0 0-1.138 2.704V21.96c-.17.214-.597.685-1.261 1.02ZM13.702 29.444c-1.843 0-2.846-1.437-2.887-1.496-.183-.29-.642-.29-.827-.002-.042.061-1.045 1.498-2.888 1.498-1.842 0-2.846-1.437-2.886-1.496a.499.499 0 0 0-.829.557c.054.079 1.33 1.937 3.715 1.937 1.63 0 2.743-.869 3.3-1.443.559.574 1.671 1.443 3.302 1.443a.499.499 0 1 0 0-.998ZM30.48 27.814a.5.5 0 0 0-.693.133c-.042.06-1.043 1.497-2.885 1.497-1.843 0-2.846-1.437-2.887-1.496-.183-.29-.645-.29-.828 0-.01.015-1.027 1.496-2.887 1.496-1.842 0-2.845-1.437-2.886-1.496-.184-.29-.643-.29-.828-.001a3.885 3.885 0 0 1-1.15 1.022.499.499 0 1 0 .504.862 5.014 5.014 0 0 0 1.06-.833c.557.575 1.67 1.444 3.3 1.444 1.631 0 2.744-.869 3.301-1.443.558.574 1.67 1.443 3.3 1.443 2.386 0 3.66-1.859 3.713-1.938a.498.498 0 0 0-.135-.69Z"/></g><defs><clipPath id="bka"><path fill="#fff" d="M0 0h34v34H0z"/></clipPath></defs></symbol><symbol fill="none" viewBox="0 0 34 34" id="tent_1" xmlns="http://www.w3.org/2000/svg"><g fill="#616161"><path d="M32.273 25.606a.476.476 0 0 0-.557.372l-.107.584c-1.54-1.673-5.95-6.746-8.393-12.67a.514.514 0 0 0-.425-.292h-8.713l-.239-.319v-1.275c.425.425.93.797 1.461 1.063a.485.485 0 0 0 .637-.213c.107-.239.027-.531-.212-.637a5.216 5.216 0 0 1-1.886-1.674V9.483c.319.292.664.531 1.036.717.239.106.505 0 .61-.212.107-.24.027-.505-.212-.611a3.567 3.567 0 0 1-1.434-1.302V6.933c.186.16.399.265.611.372a.484.484 0 0 0 .638-.213.485.485 0 0 0-.213-.637c-.69-.372-.956-.85-1.09-1.01a.472.472 0 0 0-.77 0c-.08.08-.371.638-1.088 1.01-.24.106-.32.398-.213.637.106.213.372.319.611.213.213-.107.425-.24.61-.372v1.142a3.97 3.97 0 0 1-1.434 1.302c-.239.106-.345.398-.212.61.133.213.399.346.611.213a4.518 4.518 0 0 0 1.036-.717v1.062a4.77 4.77 0 0 1-1.886 1.674.454.454 0 0 0-.213.61c.107.213.399.32.611.213a5.718 5.718 0 0 0 1.461-1.062v1.275l-.239.318h-1.46a.44.44 0 0 0-.426.293 36.896 36.896 0 0 1-1.567 3.267 6.549 6.549 0 0 1-1.355-1.488V14.37c.425.425.93.797 1.461 1.063.24.106.505.026.638-.213.106-.239.026-.53-.213-.637a5.214 5.214 0 0 1-1.886-1.674v-1.062c.32.292.665.531 1.036.717.24.106.505.027.638-.212.106-.24.026-.532-.213-.638A3.701 3.701 0 0 1 7.89 10.44V9.297c.186.16.398.265.611.372a.47.47 0 0 0 .61-.213c.107-.239.027-.504-.212-.61-.69-.373-.956-.85-1.089-1.01a.472.472 0 0 0-.77 0c-.08.08-.372.637-1.089 1.01a.453.453 0 0 0-.186.637c.106.212.372.292.611.212.212-.106.425-.239.61-.372v1.143c-.371.557-.85.982-1.433 1.275a.454.454 0 0 0-.213.61c.106.213.398.32.611.213a4.523 4.523 0 0 0 1.036-.717v1.062A4.77 4.77 0 0 1 5.1 14.583a.454.454 0 0 0-.213.61c.107.213.399.32.611.213a5.718 5.718 0 0 0 1.461-1.062v1.328a6.191 6.191 0 0 1-2.31 2.072c-.24.106-.346.372-.213.61.106.24.372.346.61.213h.027c.718-.345 1.355-.85 1.913-1.434v3.692c-1.434 2.045-2.949 3.958-4.595 5.738l-.133-.611a.483.483 0 0 0-.558-.372.463.463 0 0 0-.372.558l.584 2.789a.483.483 0 0 0 .558.371.483.483 0 0 0 .372-.557l-.212-1.063a52.67 52.67 0 0 0 4.276-5.18v.77l-2.231 5.393a.458.458 0 0 0 .425.637h23.773c.32 0 .558-.345.425-.637l-3.001-7.278a50.106 50.106 0 0 0 5.047 6.269l-.213 1.062a.476.476 0 0 0 .372.558.476.476 0 0 0 .558-.372l.584-2.79c.053-.212-.106-.45-.372-.504Zm-17.93 2.763-.159-.717a54.292 54.292 0 0 0 5.047-6.27l-2.895 6.987h-1.992Zm8.9-4.994 1.805 5.02h-1.806v-5.02Zm.743-.664 3.134 3.347-1.275 1.78-1.86-5.127Zm-.744-2.178v-4.117l3.055 7.41-3.055-3.293Zm-15.38-3.347c.266.292.585.558.904.797-.293.505-.585 1.01-.904 1.487v-2.284Zm3.666-2.63h10.545c-2.47 5.605-6.614 10.386-8.101 12.007l-.133-.611a.483.483 0 0 0-.558-.372.483.483 0 0 0-.372.558l.478 2.23h-7.57l5.711-13.812Zm10.784 1.86v11.953h-4.94l4.94-11.953Zm4.304 11.953.982-1.381.585 1.38h-1.567ZM23.8 5.552a.468.468 0 0 0 .106-.638.454.454 0 0 0-.345-.186c-1.913-.133-3.56 1.328-3.692 3.24-.133 1.913 1.328 3.56 3.24 3.693a3.453 3.453 0 0 0 3.135-1.594.465.465 0 0 0-.133-.637c-.106-.08-.266-.08-.372-.053-1.142.345-2.364-.266-2.71-1.408-.291-.93.027-1.886.771-2.417Zm.85 4.807c-1.195.717-2.762.346-3.48-.85-.797-1.328-.239-3.08 1.196-3.665a3.111 3.111 0 0 0 1.275 4.197c.292.132.637.265 1.009.318Z"/></g></symbol><symbol fill="none" viewBox="0 0 34 34" id="treehouse_1_1" xmlns="http://www.w3.org/2000/svg"><g fill="#616161" clip-path="url(#bma)"><path d="M1.742 17.701c.198.108.407.197.623.264a2.828 2.828 0 0 0 3.472 3.47 3.363 3.363 0 0 0 2.847 2.344c.191.543.518 1.028.95 1.409V28.9c0 1.617-.32 3.324-1.172 3.82-.104-1.142-.486-3.34-1.914-4.291a.567.567 0 1 0-.63.943 3.504 3.504 0 0 1 1.185 2.067A3.394 3.394 0 0 0 5.1 30.6c-.31 0-.56.25-.563.559a.57.57 0 0 0 .555.574 2.62 2.62 0 0 1 1.821 1.134H3.967a.567.567 0 0 0 0 1.133h29.466a.567.567 0 0 0 0-1.133H32.3V8.5A1.7 1.7 0 0 0 34 6.8v-.224c0-.335-.098-.663-.283-.943l-2.873-4.306a1.7 1.7 0 0 0-1.417-.76H15.3a.567.567 0 0 0-.47.251l-.176.263a2.799 2.799 0 0 0-3.157-.053 3.394 3.394 0 0 0-5.282.52 3.353 3.353 0 0 0-.416.933 3.955 3.955 0 0 0-4.07 6.544 2.828 2.828 0 0 0-.596 1.742c.002.421.099.837.284 1.216a3.39 3.39 0 0 0 .325 5.718Zm8.163 15.166c.56-.87.862-2.217.862-3.967v-3.03a3.374 3.374 0 0 0 2.266 0v3.03c0 1.75.301 3.097.862 3.967h-3.99ZM31.167 22.1h-6.8v-1.133h6.8V22.1Zm-7.934 8.5h-3.4v-1.7h3.4v1.7Zm0-2.833h-3.4v-1.7h3.4v1.7Zm0-2.834h-3.4v-1.7h3.4v1.7Zm-3.4 6.8h3.4v1.134h-3.4v-1.134Zm3.4-9.633h-3.4v-6.233a1.7 1.7 0 1 1 3.4 0V22.1Zm-4.533 0h-4.533v-.46c.31-.18.59-.407.83-.673H18.7V22.1Zm-2.19 10.767c.06-.487.333-.922.743-1.19a.567.567 0 0 0-.506-1.015 2.821 2.821 0 0 0-1.372 2.082c-.88-.47-1.208-2.2-1.208-3.844v-5.667H18.7v9.634h-2.19Zm7.857 0v-9.634H28.9v9.634h-4.533Zm5.666 0v-9.634h1.134v9.634h-1.134Zm1.134-13.034h-6.8v-3.966a2.833 2.833 0 1 0-5.667 0v3.966h-3.037c.132-.363.201-.746.204-1.133 0-.148-.01-.296-.03-.442a3.39 3.39 0 0 0 .702-5.383c.301-.458.462-.994.461-1.542a2.851 2.851 0 0 0-1.779-2.62c.014-.07.022-.142.033-.213h15.913v11.333ZM29.427 1.7c.19 0 .366.095.471.252l2.874 4.31a.572.572 0 0 1 .095.314V6.8a.567.567 0 0 1-.567.567H15.259a3.985 3.985 0 0 0-1.651-2.675L15.603 1.7h13.824ZM5.603 16.736a.567.567 0 0 0-.78-.184 2.448 2.448 0 0 1-2.53.159 2.267 2.267 0 0 1-1.16-1.978 2.238 2.238 0 0 1 .964-1.85c.333.298.728.518 1.157.645a.567.567 0 0 0 .321-1.087 1.763 1.763 0 0 1-1.308-1.674 1.686 1.686 0 0 1 1.285-1.644.567.567 0 0 0-.27-1.101 2.8 2.8 0 0 0-.684.276 2.829 2.829 0 0 1 3.085-4.65c.033.43.14.85.317 1.243a.567.567 0 1 0 1.035-.46 2.34 2.34 0 0 1 .13-2.264 2.263 2.263 0 0 1 3.523-.346 2.804 2.804 0 0 0-.393.899.567.567 0 0 0 1.104.258A1.668 1.668 0 0 1 13.033 1.7c.357 0 .704.114.992.325l-1.44 2.158a3.929 3.929 0 0 0-.874-.197.567.567 0 1 0-.109 1.128c.335.03.66.122.96.27a2.837 2.837 0 0 1 1.605 2.55 2.767 2.767 0 0 1-.843 1.983.567.567 0 0 0 .793.808c.285-.279.527-.6.717-.95a1.71 1.71 0 0 1 1.033 1.558c0 .316-.09.626-.26.893a3.307 3.307 0 0 0-.777-.264.567.567 0 1 0-.213 1.113 2.27 2.27 0 0 1-.454 4.495.567.567 0 0 0 0 1.133 3.42 3.42 0 0 0 .564-.052c0 .017.003.032.003.049a2.28 2.28 0 0 1-1.356 2.08 2.334 2.334 0 0 1-1.517.106.567.567 0 1 0-.305 1.091 3.386 3.386 0 0 0 1.481.072v2.574c-.786.445-1.76.39-2.49-.14a2.227 2.227 0 0 1-.83-2.363.567.567 0 0 0-1.097-.283 3.458 3.458 0 0 0-.1.758 2.247 2.247 0 0 1-1.663-2.641.567.567 0 0 0-1.113-.218c-.033.18-.052.363-.056.546a1.65 1.65 0 0 1-.584.118 1.7 1.7 0 0 1-1.7-1.7c.003-.2.043-.396.117-.58a3.897 3.897 0 0 0 1.902-.604.567.567 0 0 0 .184-.78Z"/><path d="M9.067 17.567A.567.567 0 0 0 9.633 17c0-.313.254-.567.567-.567a.567.567 0 1 0 0-1.133A1.7 1.7 0 0 0 8.5 17c0 .313.254.567.567.567ZM6.8 10.767a.567.567 0 0 0 .567-.567c0-.313.253-.567.566-.567a.567.567 0 1 0 0-1.133 1.7 1.7 0 0 0-1.7 1.7c0 .313.254.567.567.567ZM11.333 11.9c.313 0 .567.254.567.567a.567.567 0 1 0 1.133 0 1.7 1.7 0 0 0-1.7-1.7.567.567 0 1 0 0 1.133ZM26.633 14.167H28.9c.626 0 1.133-.508 1.133-1.134v-2.266c0-.626-.507-1.134-1.133-1.134h-2.267c-.626 0-1.133.508-1.133 1.134v2.266c0 .626.507 1.134 1.133 1.134Zm0-3.4H28.9v2.266h-2.267v-2.266ZM16.433 6.233h13.6a.567.567 0 0 0 0-1.133h-13.6a.567.567 0 1 0 0 1.133ZM1.7 34a.567.567 0 1 0 0-1.133H.567a.567.567 0 0 0 0 1.133H1.7Z"/></g><defs><clipPath id="bma"><path fill="#fff" d="M0 0h34v34H0z"/></clipPath></defs></symbol><symbol fill="none" viewBox="0 0 34 34" id="vacations_1" xmlns="http://www.w3.org/2000/svg"><g fill="#616161" clip-path="url(#bna)"><path d="M33.502 21.217h-20.21l-1.037-6.307a1.806 1.806 0 0 1 1.61 1.502c.111.678 1.081.43.982-.162-.397-2.418 3.186-2.845 3.558-.584.098.594 1.094.518.983-.162-.366-2.222 3.008-2.889 3.53-.716.04.8 1.153.59.979-.189a11.956 11.956 0 0 0-4.833-7.668 11.957 11.957 0 0 0-8.9-2.109l-.007.001-.016.003h-.001l-.034.005h-.002l-.01.002C3.543 5.91-.91 12.114.167 18.664c.105.638 1.169.49 1.06-.174a1.818 1.818 0 0 1 1.486-2.071c.946-.156 1.917.548 2.07 1.486.104.626 1.095.516.984-.162-.361-2.194 2.93-2.927 3.517-.766.194.714 1.107.786 1.01-.07-.08-.706.361-1.5.98-1.813l1.007 6.123H.505a.498.498 0 0 0 0 .996h11.94l.516 3.133c-1-.69-2.047-1.317-3.196-1.707-1.66-.564-3.547-.567-5.317-.01-1.77.556-3.315 1.64-4.351 3.052a.498.498 0 0 0 .802.59c.912-1.243 2.279-2.199 3.848-2.692 1.57-.494 3.237-.493 4.697.003 1.547.525 2.956 1.565 4.319 2.57 1.92 1.418 3.907 2.884 6.365 3.005.109.005.217.008.325.008 1.365 0 2.652-.412 3.763-.805a.498.498 0 1 0-.332-.939c-1.11.393-2.402.806-3.707.741-2.158-.106-3.938-1.42-5.823-2.81l-.26-.192c.002-.032 0-.064-.006-.096l-.633-3.851h20.047a.498.498 0 1 0 0-.996Zm-20.045-6.95a2.816 2.816 0 0 0-3.45.562c-.27-2.159-.39-4.173-.342-5.807.072-2.429.498-3.15.641-3.214.162.016.796.565 1.64 2.843.572 1.538 1.104 3.492 1.54 5.632l-.029-.016Zm1.022-.1c-.464-2.294-1.037-4.383-1.654-6.011-.37-.974-.74-1.744-1.103-2.292 1.14.255 2.286 1.005 3.331 2.202 1.218 1.394 2.188 3.264 2.808 5.38a2.81 2.81 0 0 0-1.689-.25 2.786 2.786 0 0 0-1.693.971Zm7.844-1.502a2.819 2.819 0 0 0-3.4.878c-.945-3.484-2.749-6.256-4.857-7.693 1.574.292 3.078.93 4.417 1.89a10.967 10.967 0 0 1 3.84 4.925ZM3.008 15.399a2.93 2.93 0 0 0-1.994.833 11.083 11.083 0 0 1 5.64-9.157c-.544.72-1.004 1.591-1.358 2.594-.215.607.725.938.939.331.624-1.768 1.596-3.065 2.758-3.73-.173.635-.278 1.482-.318 2.557-.064 1.747.062 3.92.36 6.255a2.804 2.804 0 0 0-3.537.463c-.05-1.11.006-2.19.166-3.231.098-.636-.886-.788-.984-.152a17.483 17.483 0 0 0-.164 3.681 2.791 2.791 0 0 0-1.508-.444ZM28.481 8.28a2.76 2.76 0 0 0 2.758-2.758 2.76 2.76 0 0 0-2.758-2.758 2.76 2.76 0 0 0-2.757 2.758A2.76 2.76 0 0 0 28.48 8.28Zm0-4.52c.972 0 1.762.79 1.762 1.762s-.79 1.762-1.762 1.762c-.971 0-1.762-.79-1.762-1.762 0-.971.79-1.762 1.762-1.762ZM28.481 2.178a.498.498 0 0 0 .498-.498V.501a.498.498 0 1 0-.996 0v1.18c0 .274.223.497.498.497ZM27.983 9.364v1.179a.498.498 0 0 0 .996 0v-1.18a.498.498 0 1 0-.996 0ZM31.198 3.303a.496.496 0 0 0 .352-.145l.834-.834a.498.498 0 1 0-.705-.704l-.833.833a.498.498 0 0 0 .352.85ZM25.413 7.886l-.834.834a.498.498 0 1 0 .704.704l.834-.833a.498.498 0 1 0-.704-.705ZM31.825 5.522c0 .275.223.498.498.498h1.18a.498.498 0 0 0 0-.996h-1.18a.498.498 0 0 0-.498.498ZM23.46 6.02h1.18a.498.498 0 0 0 0-.996h-1.18a.498.498 0 0 0 0 .996ZM30.846 7.886a.498.498 0 0 0 0 .705l.833.833a.496.496 0 0 0 .705 0 .498.498 0 0 0 0-.704l-.834-.834a.498.498 0 0 0-.704 0ZM25.413 3.158a.496.496 0 0 0 .704 0 .498.498 0 0 0 0-.705l-.834-.833a.498.498 0 1 0-.704.704l.834.834ZM2.281 28.263c-.64 0-.642.996 0 .996.641 0 .642-.996 0-.996ZM9.157 31.043c-.641 0-.642.996 0 .996.64 0 .642-.996 0-.996Z"/><path d="M10.89 27.276c-.642 0-.643.996 0 .996.64 0 .641-.996 0-.996ZM24.086 33c-.64 0-.642.997 0 .997.64 0 .642-.996 0-.996ZM29.991 30.232c-.64 0-.642.995 0 .995.641 0 .642-.995 0-.995ZM19.316 25.647a.498.498 0 0 0 0 .996h3.832a.498.498 0 1 0 0-.996h-3.832ZM31.239 24.108a.498.498 0 0 0-.498-.497h-8.565a.498.498 0 1 0 0 .995h8.565a.498.498 0 0 0 .498-.498ZM33.812 28.78c-1.9-1.594-4.128-2.05-6.813-1.393a.498.498 0 1 0 .237.968c2.355-.577 4.296-.188 5.936 1.188a.496.496 0 0 0 .701-.061.498.498 0 0 0-.061-.702Z"/></g><defs><clipPath id="bna"><path fill="#fff" d="M0 0h34v34H0z"/></clipPath></defs></symbol><symbol fill="none" viewBox="0 0 34 34" id="villa_1" xmlns="http://www.w3.org/2000/svg"><g fill="#616161"><path d="M30.033 15.867H28.9v-4.534a.565.565 0 0 0-.453-.555l-5.214-1.043v-1.02l1.355.414a.573.573 0 0 0 .708-.38.57.57 0 0 0-.374-.708l-2-.612a.287.287 0 0 0-.085-.04l-2.834-.85-10.2-3.116a.57.57 0 0 0-.708.374c-.09.3.08.617.374.708l1.298.402v4.828l-5.214 1.043a.565.565 0 0 0-.453.555v4.534H3.967a.568.568 0 0 0-.567.566v13.6c0 .312.255.567.567.567H30.033a.568.568 0 0 0 .567-.567v-13.6a.568.568 0 0 0-.567-.566Zm-2.266-4.069v4.069h-4.534V10.89l4.534.907ZM22.1 8.37v7.497H11.9V5.293l7.769 2.329 2.431.748ZM6.233 11.798l4.534-.907v4.976H6.233v-4.069ZM15.3 29.467V23.8h3.4v5.667h-3.4Zm14.167 0h-9.634V23.8h1.134a.568.568 0 0 0 .566-.567.568.568 0 0 0-.566-.566h-7.934a.568.568 0 0 0-.566.566c0 .312.255.567.566.567h1.134v5.667H4.533V17h24.934v12.467Z"/><path d="M26.633 19.267h-3.4a.568.568 0 0 0-.566.566v3.4c0 .312.255.567.566.567h3.4a.568.568 0 0 0 .567-.567v-3.4a.568.568 0 0 0-.567-.566Zm-.566 3.4H23.8V20.4h2.267v2.267ZM10.767 19.267h-3.4a.568.568 0 0 0-.567.566v3.4c0 .312.255.567.567.567h3.4a.568.568 0 0 0 .566-.567v-3.4a.568.568 0 0 0-.566-.566Zm-.567 3.4H7.933V20.4H10.2v2.267ZM14.167 14.167h5.666a.568.568 0 0 0 .567-.567v-3.4a.568.568 0 0 0-.567-.567h-5.666a.568.568 0 0 0-.567.567v3.4c0 .312.255.567.567.567Zm5.1-1.134h-1.7v-2.266h1.7v2.266Zm-4.534-2.266h1.7v2.266h-1.7v-2.266Z"/></g></symbol><symbol fill="none" viewBox="0 0 34 34" id="wifi_1" xmlns="http://www.w3.org/2000/svg"><path d="M16.934 30.979a2.191 2.191 0 1 0 0-4.383 2.191 2.191 0 0 0 0 4.383ZM33.643 10.284C29.28 5.6 23.368 3.022 17 3.02c-6.368 0-12.279 2.58-16.643 7.263A1.328 1.328 0 0 0 2.3 12.095C6.157 7.957 11.377 5.678 17 5.678c5.623 0 10.843 2.279 14.7 6.417a1.324 1.324 0 0 0 1.877.066c.537-.5.567-1.34.066-1.877Z" fill="#000"/><path d="M28.767 15.769C25.54 12.518 21.36 10.727 17 10.728c-4.363 0-8.542 1.79-11.767 5.04a1.328 1.328 0 0 0 1.885 1.872c2.723-2.745 6.233-4.256 9.882-4.256 3.648 0 7.157 1.511 9.881 4.256.26.261.602.392.943.392a1.328 1.328 0 0 0 .943-2.264ZM23.451 21.27c-1.727-1.712-4.204-2.776-6.463-2.776h-.098c-2.26 0-4.737 1.064-6.464 2.775a1.328 1.328 0 0 0 1.87 1.887c1.23-1.218 3.033-2.006 4.594-2.006h.097c1.561 0 3.365.788 4.595 2.006a1.328 1.328 0 0 0 1.87-1.887Z" fill="#000"/></symbol></svg>