<svg xmlns="http://www.w3.org/2000/svg" style="display: none;">
  <defs>
    <symbol id="barn 1" width="34" height="34" fill="none" viewBox="0 0 34 34">
      <g clip-path="url(#a)">
        <path fill="#616161" d="M27.486 0c-3.5928 0-6.5159 2.92221-6.5159 6.51419V9.4083s-4.6372-2.45118-4.7192-2.49641c-.6338-.34969-.8091-.34976-1.443 0-.082.04523-9.04066 4.77851-9.04066 4.77851-.75949.3995-.86627.5143-1.18721 1.048C4.5277 12.8255.217272 19.66.217272 19.66c-.21084008.3335-.2707385.7279-.1686057 1.1104.1073787.4022.3878127.7483.7687847.9493.242119.1282.503489.1892.761349.1892.41185 0 .81381-.1565 1.11197-.4441v4.3194c0 .275.22299.498.49805.498.27505 0 .49805-.223.49805-.498v-5.8133s3.2628-5.1701 3.2972-5.225c.15499-.2476.221-.3508.29856-.4195.08852-.0785.24338-.1637.57541-.3392l7.50406-3.9611c.0532-.02817.0989-.05328.139-.07519.0093-.00511.0189-.01036.0284-.01554.0095.00518.019.01043.0284.01554.0401.02198.0858.04702.1401.07579 0 0 7.8487 4.1447 7.9449 4.2042.0577.0358.1002.0661.1335.0955.0774.0687.1435.1719.2985.4196.0344.0549 3.2971 5.2249 3.2971 5.2249v10.6725h-5.6392v-6.9288h.8383c.5082 0 .9216-.4134.9216-.9216v-1.4231c0-.5081-.4134-.9216-.9216-.9216h-5.6526c-.275 0-.498.223-.498.4981 0 .275.223.498.498.498h5.5781v1.2741H8.56394v-1.2741h6.05626c.275 0 .498-.223.498-.498 0-.2751-.223-.4981-.498-.4981H8.48943c-.50814 0-.92158.4135-.92158.9216v1.4231c0 .5082.41344.9216.92158.9216h.83838v6.9288H3.6868v-2.5609c0-.275-.22299-.498-.49805-.498-.27505 0-.49804.223-.49804.498v5.0825c0 .4605.37459.835.83499.835h29.611c.4759 0 .8632-.3873.8632-.8632V6.51419C34 2.92221 31.0778 0 27.486 0ZM9.32788 33.0039H3.6868v-1.3644h5.64101l.00007 1.3644Zm10.61062-9.2893-4.4082 3.9741-4.4082-3.9741h8.8164Zm-9.6145.6215 4.4625 4.0232-4.4625 4.0231v-8.0463Zm.7982 8.6678 4.4082-3.9741 4.4081 3.9741h-8.8163Zm9.6145-.6215-4.4626-4.0231 4.4626-4.0232v8.0463Zm6.6352.6215h-5.6391v-1.3644h5.6391v1.3644Zm3.5491-13.2031c-.023-.0478-.0487-.0947-.0774-.1406l-3.4495-5.4629h5.6098v5.6035H30.921ZM21.9662 6.51419c0-3.04267 2.4762-5.518096 5.5199-5.518096 3.0424 0 5.5178 2.475356 5.5178 5.518096v.08546H21.9662v-.08546Zm0 1.08156h11.0377v5.60545h-6.2388s-.234-.3756-.2863-.4626c-.3209-.5336-.4277-.6485-1.1866-1.0477l-3.326-1.75646V7.59575Zm6.325 11.96485s-3.3386-5.2896-3.3721-5.3432c-.3187-.509-.4326-.6525-.882-.9093-.0346-.0197-7.964-4.21064-8.0007-4.23076-.3388-.18561-.5211-.22047-.8014-.10439-.0024.00099-.005.00225-.0075.00331-.0409.0172-7.8349 4.13024-7.8349 4.13024-.77875.4118-.86069.4845-1.25295 1.1109-.03354.0536-3.37211 5.3433-3.37211 5.3433-.00067.0011-.00107.0022-.00173.0032l-.68359 1.0831c-.15771.2502-.52361.3384-.79946.1922-.1368-.0721-.23587-.1908-.2718-.3254-.020985-.0787-.029618-.1982.04841-.3217 0 0 4.31886-6.848 4.37431-6.9402.22897-.3808.22897-.3808.79801-.6802 0 0 9.24331-4.89009 9.29771-4.91493.0544.02484 9.2976 4.91493 9.2976 4.91493.0002.0001.0005.0003.0008.0004.5683.299.5683.299.7973.6799.0554.0921.1206.2005.2031.3311l4.1725 6.6081c.0775.1235.0686.2436.0475.3226-.0361.135-.1349.2537-.2704.3253-.2806.1482-.6405.0614-.8014-.1923l-.6835-1.0829c-.0007-.0011-.0011-.0023-.0017-.0033Zm4.7127 13.4433H28.368v-5.6054h4.6359v5.6054Zm-4.6359-6.6015v-4.9399c.4856.4676 1.246.5893 1.8752.2573.3719-.1969.6472-.5323.7595-.9228h2.0012v5.6055H28.368v-.0001Z"/>
        <path fill="#616161" d="M18.9432 15.7962c0-1.8824-1.5315-3.4139-3.4139-3.4139-1.8813 0-3.4118 1.5315-3.4118 3.4139 0 1.8824 1.5306 3.4139 3.4118 3.4139 1.8825-.0001 3.4139-1.5315 3.4139-3.4139Zm-5.8296 0c0-1.3332 1.0837-2.4178 2.4157-2.4178 1.3332 0 2.4178 1.0846 2.4178 2.4178 0 1.3332-1.0846 2.4178-2.4178 2.4178-1.332-.0001-2.4157-1.0847-2.4157-2.4178Z"/>
      </g>
      <defs>
        <clipPath id="a">
          <path fill="#fff" d="M0 0h34v34H0z"/>
        </clipPath>
      </defs>
    </symbol>
    <symbol id="cottage 1" width="34" height="34" fill="none" viewBox="0 0 34 34">
      <path fill="#616161" d="M26.2484 22.3874H7.78751c-.21975 0-.39804-.1783-.39804-.398V10.0368c0-.21971.17829-.39801.39804-.39801H26.2491c.2198 0 .3981.1783.3981.39801v11.9526c-.0007.2197-.1783.398-.3988.398Zm-18.06284-.7961H25.8511V10.4349H8.18556v11.1564Z"/>
      <path fill="#616161" d="M27.6443 10.4349H22.431c-.1209 0-.2356-.0552-.311-.1499l-3.9176-4.90929c-.0953-.11955-.114-.28333-.0477-.42085.0664-.13752.206-.22529.3587-.22529h4.6695c.1119 0 .219.04699.2944.13061l4.4607 4.90996c.1058.11679.1334.28476.0691.42846-.0628.1437-.2052.2363-.3628.2363Zm-5.0219-.79606h4.1222l-3.7379-4.11386h-3.6668l3.2825 4.11386Zm-11.0175.79606H6.39158c-.15756 0-.29992-.0926-.36419-.237-.06358-.1437-.03662-.31235.06911-.42845l4.4615-4.90996c.0753-.08293.1824-.13061.2944-.13061h4.6694c.1527 0 .2923.08777.3587.22529.0663.13752.0477.3013-.0477.42085L11.9159 10.285c-.0753.0953-.1894.1499-.311.1499Zm-4.31357-.79606h4.12217l3.2818-4.11386h-3.666L7.29133 9.63884Z"/>
      <path fill="#616161" d="M22.431 10.4349H11.6049c-.1527 0-.2923-.0877-.3586-.2252-.0664-.1376-.0477-.30135.0476-.4209l5.4131-6.7841c.0753-.09468.19-.14996.311-.14996.1209 0 .2356.05528.3109.14996l5.4131 6.7841c.0953.11955.114.2833.0477.4209-.0664.1382-.206.2252-.3587.2252Zm-9.9989-.79606h9.1717L17.018 3.89132l-4.5859 5.74752Z"/>
      <path fill="#616161" d="M17.018 9.03069c-.9267 0-1.68-.75394-1.68-1.67995 0-.92671.754-1.67996 1.68-1.67996.9267 0 1.6799.75394 1.6799 1.67996 0 .92601-.7532 1.67995-1.6799 1.67995Zm0-2.56451c-.4872 0-.8839.39667-.8839.88386 0 .4872.3967.88387.8839.88387s.8838-.39667.8838-.88387c0-.48719-.3966-.88386-.8838-.88386ZM27.6699 24.0294H6.36604c-.21976 0-.39805-.1783-.39805-.3981v-1.6419c0-.2198.17829-.3981.39805-.3981H27.6699c.2198 0 .3981.1783.3981.3981v1.6419c0 .2198-.1783.3981-.3981.3981Zm-20.90582-.7961H27.2712v-.8459H6.76408v.8459Z"/>
      <path fill="#616161" d="M19.0269 22.3875h-4.0185c-.2198 0-.3981-.1783-.3981-.398v-5.3972c0-.7733.6289-1.4028 1.4029-1.4028h2.0096c.7733 0 1.4028.6288 1.4028 1.4028v5.3972c-.0007.2197-.1783.398-.3987.398Zm-3.6205-.7961h3.2224v-4.9991c0-.3345-.2723-.6067-.6067-.6067h-2.0096c-.3345 0-.6068.2722-.6068.6067v4.9991h.0007Zm-2.1146-2.4491H9.13648c-.21975 0-.39805-.1783-.39805-.3981v-3.3634c0-.2197.1783-.398.39805-.398h4.15532c.2198 0 .3981.1783.3981.398v3.3634c0 .2198-.1783.3981-.3981.3981Zm-3.75727-.7961h3.35927v-2.5673H9.53453v2.5673Z"/>
      <path fill="#616161" d="M11.2145 19.1423c-.2198 0-.3981-.1783-.3981-.3981v-3.3634c0-.2197.1783-.398.3981-.398.2197 0 .398.1783.398.398v3.3634c0 .2198-.1783.3981-.398.3981Zm13.6401.1181h-4.1554c-.2197 0-.398-.1783-.398-.398V15.499c0-.2198.1783-.398.398-.398h4.1554c.2197 0 .398.1782.398.398v3.3634c0 .2197-.1783.398-.398.398Zm-3.7573-.7961h3.3592V15.897h-3.3592v2.5673Z"/>
      <path fill="#616161" d="M22.7772 19.2604c-.2197 0-.398-.1783-.398-.398V15.499c0-.2198.1783-.398.398-.398.2198 0 .3981.1782.3981.398v3.3634c0 .2197-.1783.398-.3981.398Zm-9.4854-1.5921H9.13648c-.21975 0-.39805-.1783-.39805-.3981 0-.2197.1783-.398.39805-.398h4.15532c.2198 0 .3981.1783.3981.398 0 .2198-.1783.3981-.3981.3981Z"/>
      <path fill="#616161" d="M24.8546 17.7865h-4.1554c-.2197 0-.398-.1783-.398-.3981 0-.2198.1783-.398.398-.398h4.1554c.2197 0 .398.1782.398.398 0 .2198-.1783.3981-.398.3981Zm5.7786 6.2429H3.40278c-.21976 0-.39805-.1783-.39805-.3981 0-.2197.17829-.398.39805-.398H30.6332c.2197 0 .398.1783.398.398 0 .2198-.1783.3981-.398.3981Zm-16.8044 2.9632c-1.284 0-2.4326-.2391-3.5604-.4741-2.07383-.4319-4.03229-.8396-6.74399.2219-.20456.0801-.43537-.0208-.51553-.226-.08016-.2046.02073-.4354.22528-.5155 2.93216-1.1472 5.1-.6959 7.19664-.2592 1.9944.4154 3.8775.8072 6.4614-.058 2.7877-.9336 4.8664-.501 6.8767-.0823 2.0739.432 4.0323.8397 6.744-.2218.2053-.0801.4354.0207.5156.226.0801.2052-.0208.4354-.226.5155-2.9322 1.1472-5.1.6959-7.1967.2592-1.9944-.4154-3.8775-.8072-6.4614.058-1.2238.4098-2.3115.5563-3.3156.5563Zm0 2.1278c-1.284 0-2.4326-.2391-3.5604-.474-2.07383-.432-4.03229-.8397-6.74399.2218-.20456.0801-.43537-.0207-.51553-.226-.08016-.2045.02073-.4354.22528-.5155 2.93216-1.1472 5.1-.6959 7.19664-.2592 1.9944.4154 3.8775.8072 6.4614-.058 2.7877-.9336 4.8664-.501 6.8767-.0822 2.0739.4319 4.0323.8396 6.744-.2219.2053-.0801.4354.0208.5156.226.0801.2052-.0208.4354-.226.5155-2.9322 1.1472-5.1.6959-7.1967.2592-1.9944-.4154-3.8775-.8072-6.4614.058-1.2238.4098-2.3115.5563-3.3156.5563Zm0 2.1271c-1.284 0-2.4326-.2391-3.5604-.4741-2.07383-.4319-4.03229-.8396-6.74399.2219-.20456.0801-.43537-.0208-.51553-.226-.08016-.2046.02073-.4354.22528-.5155 2.93216-1.1472 5.1-.6959 7.19664-.2592 1.9944.4153 3.8775.8072 6.4614-.058 2.7877-.9337 4.8664-.5011 6.8767-.0823 2.0739.4319 4.0323.8397 6.744-.2211.2053-.0802.4354.0207.5156.226.0801.2052-.0208.4353-.226.5155-2.9322 1.1471-5.1.6959-7.1967.2591-1.9944-.4153-3.8775-.8071-6.4614.0581-1.2238.4091-2.3115.5556-3.3156.5556Zm16.1976-8.8055c-1.277 0-2.3157-1.0387-2.3157-2.3157 0-.6151.2488-1.2059.6779-1.6371-.0767-.1977-.1161-.4085-.1161-.6241 0-.9522.7747-1.7269 1.727-1.7269s1.7269.7747 1.7269 1.7269c0 .2004-.0345.3981-.1016.584.4548.434.718 1.0393.718 1.6765 0 1.2771-1.0386 2.3164-2.3164 2.3164Zm-.0269-5.5077c-.5135 0-.9309.4174-.9309.9308 0 .1797.0512.3545.1486.5045.114.1762.0719.4105-.0967.5356-.3898.2902-.6137.7353-.6137 1.2204 0 .8382.6821 1.5203 1.5203 1.5203.8383 0 1.5203-.6821 1.5203-1.5203 0-.4927-.2404-.9571-.6433-1.2418-.1714-.121-.2191-.3546-.1092-.5329.0891-.1458.1368-.3137.1368-.4858-.0014-.5134-.4188-.9308-.9322-.9308Z"/>
      <path fill="#616161" d="M30.0264 24.0294c-.2197 0-.398-.1783-.398-.398v-4.3413c0-.2197.1783-.398.398-.398.2198 0 .3981.1783.3981.398v4.3413c0 .2197-.1776.398-.3981.398Z"/>
      <path fill="#616161" d="M30.0271 20.5209c-.105 0-.21-.0415-.2881-.1237-.1514-.1596-.1452-.4112.0138-.5625l.7332-.6973c.1596-.1513.4112-.1451.5625.0138.1514.1597.1451.4112-.0138.5625l-.7332.6973c-.0774.074-.1762.1099-.2744.1099Z"/>
      <path fill="#616161" d="M30.0264 21.3599c-.0988 0-.1969-.0366-.2743-.1099l-.7332-.6972c-.159-.1514-.1659-.4036-.0139-.5626.1514-.1589.4036-.1658.5626-.0138l.7332.6973c.1589.1513.1658.4036.0138.5625-.0774.0829-.1824.1237-.2882.1237ZM4.00952 22.442c-1.27707 0-2.31573-1.0387-2.31573-2.3157 0-.6151.24878-1.2059.67792-1.6371-.0767-.1977-.11609-.4085-.11609-.6241 0-.9522.77467-1.7269 1.72695-1.7269.95227 0 1.72695.7747 1.72695 1.7269 0 .2004-.03455.3981-.10159.584.45472.434.71801 1.0393.71801 1.6765-.00069 1.2771-1.03935 2.3164-2.31642 2.3164Zm-.02764-5.5077c-.51346 0-.93086.4174-.93086.9308 0 .1797.05114.3545.14858.5045.11402.1762.07187.4105-.09675.5356-.38975.2902-.61366.7353-.61366 1.2204 0 .8382.68208 1.5203 1.52033 1.5203.83825 0 1.52032-.6821 1.52032-1.5203 0-.4927-.24048-.9571-.64337-1.2418-.17138-.121-.21907-.3546-.10919-.5329.08915-.1458.13683-.3137.13683-.4858-.00138-.5134-.41878-.9308-.93223-.9308Z"/>
      <path fill="#616161" d="M4.00953 24.0294c-.21976 0-.39805-.1783-.39805-.398v-4.3413c0-.2197.17829-.398.39805-.398s.39805.1783.39805.398v4.3413c-.00069.2197-.17829.398-.39805.398Z"/>
      <path fill="#616161" d="M4.00952 20.5209c-.10504 0-.21008-.0415-.28817-.1237-.15134-.1596-.14512-.4112.01382-.5625l.73322-.6973c.15963-.1513.41118-.1451.56252.0138.15134.1597.14512.4112-.01383.5625l-.73321.6973c-.07739.074-.17622.1099-.27435.1099Z"/>
      <path fill="#616161" d="M4.00884 21.3599c-.09882 0-.19695-.0366-.27435-.1099l-.73321-.6973c-.15894-.1513-.16585-.4035-.01382-.5625.15134-.1589.40358-.1652.56252-.0138l.73321.6973c.15894.1513.16585.4035.01382.5625-.0774.0829-.18244.1237-.28817.1237Z"/>
    </symbol>
    <symbol id="home 1" width="34" height="34" fill="none" viewBox="0 0 34 34">
      <path fill="#616161" d="M31.3425 27.6919c.0008-.0225.0012-.0448.0012-.0669-.0006-.5634-.2247-1.1035-.6231-1.5019-.3983-.3984-.9385-.6225-1.5019-.6231v-9.8281l1.9125-1.4344c.0665-.0498.1203-.1145.1572-.1889.0369-.0744.0558-.1564.0553-.2394-.0005-.083-.0205-.1648-.0583-.2387s-.0924-.1379-.1595-.1869l-4.5634-3.3349V4.25c.1409 0 .276-.05597.3756-.1556.0997-.09963.1556-.23475.1556-.37565v-2.125c0-.1409-.0559-.27602-.1556-.37565-.0996-.09963-.2347-.1556-.3756-.1556H21.25c-.1409 0-.276.05597-.3757.1556-.0996.09963-.1556.23475-.1556.37565v2.125c0 .1409.056.27602.1556.37565.0997.09963.2348.1556.3757.1556v1.91655l-3.9366-2.87672c-.091-.06648-.2007-.10231-.3134-.10231-.1127 0-.2225.03583-.3134.10231L2.87405 13.3836c-.06703.049-.12166.113-.15948.1869-.03782.0739-.05779.1557-.05831.2387-.00051.083.01844.165.05534.2394s.09072.1391.15714.1889l1.9125 1.4344V25.5c-.56339.0006-1.10352.2247-1.5019.6231-.39838.3984-.62247.9385-.6231 1.5019 0 .0221.0004.0444.0012.0669-.50118.1289-.93811.4362-1.22882.8643s-.41522.9476-.35017 1.4609c.06505.5134.31519.9854.70349 1.3275.3883.342.88808.5306 1.40555.5304H30.8125c.5175.0002 1.0172-.1884 1.4055-.5304.3883-.3421.6385-.8141.7035-1.3275.0651-.5133-.0594-1.0328-.3501-1.4609-.2907-.4281-.7277-.7354-1.2289-.8643ZM21.7812 2.125h4.25v1.0625h-4.25V2.125Zm.5313 4.78125V4.25H25.5v5.0223l-3.2378-2.36605h.0503ZM17 4.3767l12.9197 9.4414-1.2371.9277-11.3701-8.2692c-.0908-.06606-.2002-.10164-.3125-.10164-.1123 0-.2217.03558-.3125.10164L5.31734 14.7458l-1.23702-.9277L17 4.3767ZM2.12499 29.75c.0003-.279.11015-.5466.30591-.7454.19575-.1987.46174-.3126.74065-.3171h.00127c.02716.0038.05432.007.08201.0088.08803.0056.17607-.0109.25615-.0478.08009-.037.14971-.0934.20258-.164.05286-.0706.08732-.1532.10024-.2405.01293-.0873.00393-.1764-.0262-.2593-.04396-.1149-.06727-.2367-.06886-.3597.00034-.2817.11238-.5517.31157-.7509.19918-.1992.46924-.3113.75093-.3116v4.25H3.18749c-.28169-.0003-.55175-.1124-.75093-.3116-.19919-.1992-.31123-.4692-.31157-.7509Zm22.84371 1.0625h-6.375V19.125h6.375v11.6875Zm1.0625 0V18.5938c0-.1409-.0559-.2761-.1556-.3757-.0996-.0996-.2347-.1556-.3756-.1556h-7.4375c-.1409 0-.276.056-.3757.1556-.0996.0996-.1556.2348-.1556.3757v12.2187H5.84374V15.6768L17 7.56314l11.1562 8.11366v15.1357h-2.125Zm4.7813 0h-1.5938v-4.25c.2817.0003.5518.1124.751.3116.1992.1992.3112.4692.3115.7509-.0015.1231-.0248.245-.0688.36-.0301.0829-.0391.172-.0262.2593.0129.0872.0474.1699.1002.2405.0529.0706.1225.1269.2026.1639.0801.037.1681.0535.2562.0479.0276-.0018.0548-.005.082-.0088h.0012c.2818.0021.5512.116.749.3168.1978.2008.3077.4718.3056.7536-.0022.2818-.1161.5512-.3169.749-.2007.1978-.4718.3077-.7536.3056v-.0003Z"/>
      <path fill="#616161" d="M14.875 18.0625H8.5c-.1409 0-.27602.056-.37565.1556s-.1556.2348-.1556.3757v7.4374c0 .1409.05597.2761.1556.3757.09963.0996.23475.1556.37565.1556h6.375c.1409 0 .276-.056.3757-.1556.0996-.0996.1555-.2348.1555-.3757v-7.4374c0-.1409-.0559-.2761-.1555-.3757-.0997-.0996-.2348-.1556-.3757-.1556Zm-.5312 3.7187h-2.125V19.125h2.125v2.6562Zm-3.1876-2.6562v2.6562H9.03125V19.125h2.12495Zm-2.12495 3.7188h2.12495V25.5H9.03125v-2.6562ZM12.2188 25.5v-2.6562h2.125V25.5h-2.125Zm8.4595-.8592c.1123-.2711-.0164-.5819-.2875-.6941-.271-.1123-.5818.0164-.6941.2875-.1123.271.0165.5818.2875.6941.2711.1123.5819-.0165.6941-.2875Z"/>
    </symbol>
    <symbol id="vacations 1" width="34" height="34" fill="none" viewBox="0 0 34 34">
      <g clip-path="url(#vacations-1__a)">
        <path fill="#616161" d="M33.5021 21.2168H13.2914l-1.0369-6.3069c.796.0748 1.4747.6773 1.6104 1.5022.1115.6778 1.0813.4297.9826-.1621-.3978-2.4177 3.1858-2.8445 3.5573-.5843.0978.594 1.0943.5188.9828-.1616-.3654-2.2218 3.0082-2.8889 3.5304-.7162.0403.7999 1.1532.5905.9789-.1888-.5525-3.1067-2.2641-5.82473-4.8328-7.66801-2.5927-1.86054-5.7506-2.60766-8.8997-2.10885-.0029.0004-.0058.00087-.0075.00113l-.0158.00239c-.0004.00007-.001.0002-.0014.00027-.0112.00179-.0225.00325-.0337.00511-.0006.00007-.0012.00013-.0017.00026-.0033.00047-.0071.00107-.0102.00153 0 0-.0002 0-.0002.00007-.0003.00006-.0005.00006-.0008.00013C3.54344 5.9099-.908962 12.1145.167937 18.6641c.104835.6375 1.168983.4898 1.059703-.1743-.15954-.9704.51574-1.9115 1.48621-2.071.94657-.1558 1.91698.5485 2.07108 1.4862.10297.6259 1.09416.516.98275-.1616-.36085-2.1947 2.93033-2.9276 3.51771-.7667.19401.7146 1.10681.7862 1.00971-.0703-.0803-.7049.3609-1.4996.9806-1.8121l1.0066 6.1224H.504684c-.275001 0-.49794952.223-.49794952.498s.22294852.4979.49794952.4979H12.4459l.5152 3.1335c-.9998-.6905-2.0473-1.3169-3.19655-1.7073-1.65877-.5635-3.54692-.5671-5.3165-.0102-1.76978.5568-3.31515 1.6408-4.351419 3.0523-.16273.2217-.1149268.5333.106694.6961.221754.1627.533337.1149.696067-.1067.911778-1.242 2.278218-2.198 3.847488-2.6917 1.56921-.4938 3.23747-.4927 4.69733.0032 1.54649.5254 2.95569 1.5652 4.31839 2.5709 1.9208 1.4174 3.9071 2.8832 6.3651 3.0044.1091.0053.2174.0079.3255.0079 1.3651 0 2.6518-.412 3.7628-.8049.2592-.0917.3951-.3761.3034-.6354s-.3763-.3953-.6355-.3034c-1.1092.3923-2.4017.8053-3.7071.7411-2.1577-.1064-3.938-1.4202-5.8228-2.8111-.0863-.0636-.1728-.1274-.2594-.1912.0009-.0316-.0009-.0638-.0062-.0962l-.6332-3.8513h20.0469c.275 0 .4979-.2229.4979-.4979s-.2229-.4979-.4979-.4979ZM13.4575 14.267c-1.1251-.6344-2.5767-.4066-3.4507.5618-.27-2.1587-.3901-4.1727-.34164-5.80712.07197-2.42866.49764-3.14956.64084-3.2133.0001 0 .0002 0 .0003-.00006.1613.0158.7953.56494 1.6406 2.84242.571 1.53846 1.1034 3.49256 1.5395 5.63206-.0096-.0055-.0194-.0105-.0289-.0158Zm1.0213-.1c-.4638-2.2941-1.0367-4.38299-1.6539-6.01102-.3692-.97366-.74-1.74362-1.1031-2.29163 1.1403.25469 2.2863 1.00493 3.3314 2.2018 1.2174 1.39426 2.1874 3.26345 2.8077 5.38065-.5195-.2568-1.1191-.3439-1.6888-.2502-.6892.1134-1.2779.4716-1.6933.9704Zm7.8446-1.5025c-1.1814-.5388-2.6215-.17-3.401.8787-.9443-3.4846-2.748-6.25584-4.8563-7.69292 1.5742.29173 3.0781.92884 4.4174 1.88995 1.7534 1.25828 3.0714 2.96097 3.8399 4.92427ZM3.00784 15.3987c-.71366 0-1.49677.3265-1.99432.833.16579-3.842 2.34229-7.30695 5.64024-9.15667-.54362.71931-1.00393 1.59092-1.35794 2.59366-.21432.60711.72475.93871.93913.33161.62443-1.76856 1.59557-3.06509 2.75851-3.72956-.17382.63413-.27845 1.48104-.31822 2.55615-.06467 1.74671.06221 3.92051.35985 6.25501-1.12981-.7122-2.62804-.5182-3.53737.4631-.04953-1.1095.00598-2.1908.16652-3.231.09819-.6363-.88589-.7884-.98422-.152-.18291 1.1847-.23722 2.4177-.16379 3.6815-.44105-.2831-.96164-.4448-1.50839-.4448ZM28.4813 8.27969c1.5205 0 2.7576-1.23704 2.7576-2.75764 0-1.52061-1.237-2.75765-2.7576-2.75765s-2.7577 1.23704-2.7577 2.75765c0 1.5206 1.2371 2.75764 2.7577 2.75764Zm0-4.51932c.9714 0 1.7617.79028 1.7617 1.76175 0 .97146-.7903 1.76174-1.7617 1.76174-.9715 0-1.7618-.79028-1.7618-1.76174 0-.97147.7904-1.76175 1.7618-1.76175Zm0-1.58216c.275 0 .4979-.22295.4979-.49795V.501245c0-.275-.2229-.4979491-.4979-.4979491s-.498.2229491-.498.4979491V1.68026c0 .275.223.49795.498.49795Zm-.498 7.18558v1.17901c0 .275.223.498.498.498s.4979-.223.4979-.498V9.36379c0-.275-.2229-.49795-.4979-.49795s-.498.22295-.498.49795Zm3.2145-6.06033c.1274 0 .2549-.0486.3521-.14587l.8337-.8337c.1945-.19446.1945-.50976 0-.70416-.1945-.19447-.5098-.19447-.7042 0l-.8337.8337c-.1944.19446-.1944.50976 0 .70416.0972.09727.2247.14587.3521.14587Zm-5.7851 4.58299-.8337.8337c-.1945.19447-.1945.50977 0 .70417.0972.0972.2246.14586.352.14586.1274 0 .2549-.0486.3521-.14586l.8337-.8337c.1945-.19447.1945-.50977 0-.70417-.1944-.19447-.5097-.19447-.7041 0ZM31.8251 5.522c0 .275.223.49795.498.49795h1.179c.275 0 .4979-.22295.4979-.49795s-.2229-.49795-.4979-.49795h-1.179c-.275 0-.498.22295-.498.49795Zm-8.3646.49795h1.179c.275 0 .4979-.22295.4979-.49795s-.2229-.49795-.4979-.49795h-1.179c-.275 0-.498.22295-.498.49795s.223.49795.498.49795Zm7.3852 1.8665c-.1944.19447-.1944.5097 0 .70417l.8337.8337c.0972.09726.2247.14586.3521.14586s.2549-.0486.3521-.14586c.1945-.19447.1945-.5097 0-.70417l-.8337-.8337c-.1944-.19447-.5097-.19447-.7042 0Zm-5.433-4.72883c.0972.09726.2246.14587.352.14587.1274 0 .2549-.04861.3521-.14587.1945-.19447.1945-.50977 0-.70417l-.8337-.8337c-.1944-.19453-.5097-.19446-.7041 0-.1945.19447-.1945.50977 0 .70417l.8337.8337ZM2.28131 28.2632c-.64083 0-.64189.9959 0 .9959.64083 0 .64189-.9959 0-.9959Zm6.87549 2.7795c-.64083 0-.64189.9959 0 .9959.64083 0 .64189-.9959 0-.9959Z"/>
        <path fill="#616161" d="M10.8891 27.276c-.6408 0-.6419.9959 0 .9959.6408 0 .6419-.9959 0-.9959Zm13.1968 5.7247c-.6408 0-.6419.9959 0 .9959.6409 0 .6419-.9959 0-.9959Zm5.9054-2.7691c-.6408 0-.6419.9959 0 .9959.6409 0 .6419-.9959 0-.9959Zm-10.6754-4.5849c-.275 0-.4979.223-.4979.498s.2229.4979.4979.4979h3.8321c.275 0 .4979-.2229.4979-.4979s-.2229-.498-.4979-.498h-3.8321Zm11.923-1.5382c0-.275-.2229-.4979-.4979-.4979h-8.5646c-.275 0-.4979.2229-.4979.4979s.2229.498.4979.498h8.5646c.275 0 .4979-.2229.4979-.498Zm2.5729 4.6715c-1.8995-1.5941-4.1279-2.0496-6.8127-1.3926-.2671.0654-.4307.3349-.3653.602.0654.2672.3351.4308.6021.3653 2.3548-.5763 4.2964-.1876 5.9357 1.1881.0933.0783.2069.1166.3198.1166.1421 0 .2832-.0605.3817-.1779.1767-.2106.1493-.5247-.0613-.7015Z"/>
      </g>
      <defs>
        <clipPath id="vacations-1__a">
          <path fill="#fff" d="M0 0h34v34H0z"/>
        </clipPath>
      </defs>
    </symbol>
    <symbol id="apartment 1" width="34" height="34" fill="none" viewBox="0 0 34 34">
      <path fill="#616161" d="M14.3438 7.96875h2.125c.1408 0 .276-.05597.3756-.1556C16.944 7.71352 17 7.5784 17 7.4375V4.25c0-.1409-.056-.27602-.1556-.37565s-.2348-.1556-.3756-.1556h-2.125c-.1409 0-.2761.05597-.3757.1556-.0996.09963-.1556.23475-.1556.37565v3.1875c0 .1409.056.27602.1556.37565s.2348.1556.3757.1556Zm.5312-3.1875h1.0625v2.125H14.875v-2.125Zm3.7188 3.1875h2.125c.1408 0 .276-.05597.3756-.1556.0996-.09963.1556-.23475.1556-.37565V4.25c0-.1409-.056-.27602-.1556-.37565s-.2348-.1556-.3756-.1556h-2.125c-.1409 0-.2761.05597-.3757.1556-.0996.09963-.1556.23475-.1556.37565v3.1875c0 .1409.056.27602.1556.37565s.2348.1556.3757.1556Zm.5312-3.1875h1.0625v2.125H19.125v-2.125Zm3.7188 3.1875h2.125c.1408 0 .276-.05597.3756-.1556.0996-.09963.1556-.23475.1556-.37565V4.25c0-.1409-.056-.27602-.1556-.37565s-.2348-.1556-.3756-.1556h-2.125c-.1409 0-.2761.05597-.3757.1556-.0996.09963-.1556.23475-.1556.37565v3.1875c0 .1409.056.27602.1556.37565s.2348.1556.3757.1556Zm.5312-3.1875h1.0625v2.125H23.375v-2.125Zm-9.0312 8.49995h2.125c.1408 0 .276-.0559.3756-.1555.0996-.0997.1556-.2348.1556-.3757V9.5625c0-.1409-.056-.27602-.1556-.37565s-.2348-.1556-.3756-.1556h-2.125c-.1409 0-.2761.05597-.3757.1556-.0996.09963-.1556.23475-.1556.37565V12.75c0 .1409.056.276.1556.3757.0996.0996.2348.1555.3757.1555Zm.5312-3.1874h1.0625v2.125H14.875v-2.125Zm3.7188 3.1874h2.125c.1408 0 .276-.0559.3756-.1555.0996-.0997.1556-.2348.1556-.3757V9.5625c0-.1409-.056-.27602-.1556-.37565s-.2348-.1556-.3756-.1556h-2.125c-.1409 0-.2761.05597-.3757.1556-.0996.09963-.1556.23475-.1556.37565V12.75c0 .1409.056.276.1556.3757.0996.0996.2348.1555.3757.1555Zm.5312-3.1874h1.0625v2.125H19.125v-2.125Zm3.7188 3.1874h2.125c.1408 0 .276-.0559.3756-.1555.0996-.0997.1556-.2348.1556-.3757V9.5625c0-.1409-.056-.27602-.1556-.37565s-.2348-.1556-.3756-.1556h-2.125c-.1409 0-.2761.05597-.3757.1556-.0996.09963-.1556.23475-.1556.37565V12.75c0 .1409.056.276.1556.3757.0996.0996.2348.1555.3757.1555Zm.5312-3.1874h1.0625v2.125H23.375v-2.125ZM10.0938 7.96875h2.125c.1408 0 .276-.05597.3756-.1556.0996-.09963.1556-.23475.1556-.37565V4.25c0-.1409-.056-.27602-.1556-.37565s-.2348-.1556-.3756-.1556h-2.125c-.14095 0-.27607.05597-.3757.1556s-.1556.23475-.1556.37565v3.1875c0 .1409.05597.27602.1556.37565s.23475.1556.3757.1556Zm.5312-3.1875h1.0625v2.125H10.625v-2.125Zm-.5312 8.49995h2.125c.1408 0 .276-.0559.3756-.1555.0996-.0997.1556-.2348.1556-.3757V9.5625c0-.1409-.056-.27602-.1556-.37565s-.2348-.1556-.3756-.1556h-2.125c-.14095 0-.27607.05597-.3757.1556s-.1556.23475-.1556.37565V12.75c0 .1409.05597.276.1556.3757.09963.0996.23475.1555.3757.1555Zm.5312-3.1874h1.0625v2.125H10.625v-2.125Zm3.7188 8.5h2.125c.1408 0 .276-.056.3756-.1556.0996-.0997.1556-.2348.1556-.3757V14.875c0-.1409-.056-.276-.1556-.3757-.0996-.0996-.2348-.1555-.3756-.1555h-2.125c-.1409 0-.2761.0559-.3757.1555-.0996.0997-.1556.2348-.1556.3757v3.1875c0 .1409.056.276.1556.3757.0996.0996.2348.1556.3757.1556Zm.5312-3.1876h1.0625v2.125H14.875v-2.125Zm-4.7812 3.1876h2.125c.1408 0 .276-.056.3756-.1556.0996-.0997.1556-.2348.1556-.3757V14.875c0-.1409-.056-.276-.1556-.3757-.0996-.0996-.2348-.1555-.3756-.1555h-2.125c-.14095 0-.27607.0559-.3757.1555-.09963.0997-.1556.2348-.1556.3757v3.1875c0 .1409.05597.276.1556.3757.09963.0996.23475.1556.3757.1556Zm.5312-3.1876h1.0625v2.125H10.625v-2.125Zm7.9688 3.1876h2.125c.1408 0 .276-.056.3756-.1556.0996-.0997.1556-.2348.1556-.3757V14.875c0-.1409-.056-.276-.1556-.3757-.0996-.0996-.2348-.1555-.3756-.1555h-2.125c-.1409 0-.2761.0559-.3757.1555-.0996.0997-.1556.2348-.1556.3757v3.1875c0 .1409.056.276.1556.3757.0996.0996.2348.1556.3757.1556Zm.5312-3.1876h1.0625v2.125H19.125v-2.125Zm3.7188 3.1876h2.125c.1408 0 .276-.056.3756-.1556.0996-.0997.1556-.2348.1556-.3757V14.875c0-.1409-.056-.276-.1556-.3757-.0996-.0996-.2348-.1555-.3756-.1555h-2.125c-.1409 0-.2761.0559-.3757.1555-.0996.0997-.1556.2348-.1556.3757v3.1875c0 .1409.056.276.1556.3757.0996.0996.2348.1556.3757.1556Zm.5312-3.1876h1.0625v2.125H23.375v-2.125Zm-9.0312 8.5h2.125c.1408 0 .276-.0559.3756-.1555.0996-.0997.1556-.2348.1556-.3757v-3.1875c0-.1409-.056-.276-.1556-.3757-.0996-.0996-.2348-.1556-.3756-.1556h-2.125c-.1409 0-.2761.056-.3757.1556-.0996.0997-.1556.2348-.1556.3757v3.1875c0 .1409.056.276.1556.3757.0996.0996.2348.1555.3757.1555Zm.5312-3.1874h1.0625v2.125H14.875v-2.125Zm-4.7812 3.1874h2.125c.1408 0 .276-.0559.3756-.1555.0996-.0997.1556-.2348.1556-.3757v-3.1875c0-.1409-.056-.276-.1556-.3757-.0996-.0996-.2348-.1556-.3756-.1556h-2.125c-.14095 0-.27607.056-.3757.1556-.09963.0997-.1556.2348-.1556.3757v3.1875c0 .1409.05597.276.1556.3757.09963.0996.23475.1555.3757.1555Zm.5312-3.1874h1.0625v2.125H10.625v-2.125Zm7.9688 3.1874h2.125c.1408 0 .276-.0559.3756-.1555.0996-.0997.1556-.2348.1556-.3757v-3.1875c0-.1409-.056-.276-.1556-.3757-.0996-.0996-.2348-.1556-.3756-.1556h-2.125c-.1409 0-.2761.056-.3757.1556-.0996.0997-.1556.2348-.1556.3757v3.1875c0 .1409.056.276.1556.3757.0996.0996.2348.1555.3757.1555Zm.5312-3.1874h1.0625v2.125H19.125v-2.125Zm3.7188 3.1874h2.125c.1408 0 .276-.0559.3756-.1555.0996-.0997.1556-.2348.1556-.3757v-3.1875c0-.1409-.056-.276-.1556-.3757-.0996-.0996-.2348-.1556-.3756-.1556h-2.125c-.1409 0-.2761.056-.3757.1556-.0996.0997-.1556.2348-.1556.3757v3.1875c0 .1409.056.276.1556.3757.0996.0996.2348.1555.3757.1555Zm.5312-3.1874h1.0625v2.125H23.375v-2.125Z"/>
      <path fill="#616161" d="M32.4063 20.7188H27.625V2.125c0-.1409-.0559-.27602-.1556-.37565-.0996-.09963-.2347-.1556-.3756-.1556H7.96878c-.1409 0-.27603.05597-.37565.1556-.09963.09963-.1556.23475-.1556.37565v19.0634c-.4467-.2874-.96258-.449-1.49337-.4679-.53079-.0189-1.05686.1056-1.52286.3604-.466.2549-.8547.6306-1.1252 1.0877-.2705.4571-.4128.9786-.41192 1.5097.00056.2951.04624.5884.13547.8697-.65525.2349-1.20649.6936-1.55643 1.2953-.34995.6017-.476103 1.3077-.35621 1.9934.11989.6857.47812 1.307 1.01148 1.7542.53336.4473 1.20756.6918 1.90363.6903.4484-.0027.89008-.1092 1.29041-.3113v1.9051c0 .1409.05597.276.1556.3757.09962.0996.23475.1555.37565.1555.14089 0 .27602-.0559.37565-.1555.09962-.0997.1556-.2348.1556-.3757v-1.9051c.33232.1641.69297.2631 1.0625.2917v1.6134c0 .1409.05597.276.1556.3757.09962.0996.23475.1555.37565.1555H31.3438c.1409 0 .276-.0559.3756-.1555.0997-.0997.1556-.2348.1556-.3757v-7.9688h.5313c.1409 0 .276-.0559.3756-.1555.0997-.0997.1556-.2348.1556-.3757V21.25c0-.1409-.0559-.276-.1556-.3757-.0996-.0996-.2347-.1555-.3756-.1555Zm-26.56252 6.375c-.1409 0-.27603.0559-.37565.1555-.09963.0997-.1556.2348-.1556.3757v1.0625c-.34445.3385-.80747.5291-1.29041.5313-.48563.0018-.95336-.1832-1.30625-.5169-.35289-.3336-.56387-.7902-.58921-1.2752-.02534-.485.1369-.9611.45309-1.3297.31619-.3686.76209-.6014 1.24528-.6501.0886-.0095.17339-.0412.24656-.092.07318-.0509.13239-.1193.17217-.199.03979-.0798.05888-.1682.05552-.2573-.00336-.089-.02907-.1758-.07475-.2523-.17868-.2914-.27387-.6262-.27519-.968 0-.5031.19987-.9856.55564-1.3414.35578-.3558.83831-.5557 1.34145-.5557s.98568.1999 1.34145.5557c.35577.3558.55565.8383.55565 1.3414-.00132.3418-.09652.6766-.27519.968-.04569.0765-.0714.1633-.07476.2523-.00336.0891.01573.1775.05552.2573.03979.0797.09899.1481.17217.199.07317.0508.15796.0825.24657.092.48343.0487.92955.2817 1.24579.6506.31624.3689.47833.8453.45263 1.3305-.02569.4853-.2372.9419-.59063 1.2754-.35343.3334-.82166.5179-1.30754.5154-.48386-.0015-.94797-.1921-1.29306-.5313V27.625c0-.1409-.05598-.276-.1556-.3757-.09963-.0996-.23476-.1555-.37565-.1555Zm14.34372 4.25H14.875v-5.3126h5.3125v5.3126Zm6.375 0H21.25V25.5c0-.1409-.0559-.276-.1556-.3757-.0996-.0996-.2347-.1555-.3756-.1555h-6.375c-.1409 0-.276.0559-.3757.1555-.0996.0997-.1556.2348-.1556.3757v5.8438H8.50003v-1.1842c.59848-.1746 1.12631-.5342 1.50777-1.0273.3815-.4931.597-1.0943.6156-1.7175.0187-.6231-.1605-1.2362-.5118-1.7512-.35133-.515-.85672-.9056-1.4437-1.1156.08923-.2813.13491-.5746.13547-.8697-.00046-.4497-.10424-.8934-.30334-1.2967V2.65625H26.5625V31.3438Zm4.25 0H27.625v-7.4376h3.1875v7.4376Zm1.0625-8.5h-4.25v-1.0626h4.25v1.0626Z"/>
    </symbol>
    <symbol id="island (1) 1" width="34" height="34" fill="none" viewBox="0 0 34 34">
      <path fill="#616161" d="M31.3437 22.7602h-3.2509c-.9131-1.976-2.1006-3.8132-3.5275-5.4572-.0938-.1029-.2242-.1648-.3632-.1725-.139-.0076-.2755.0396-.38.1316-.1045.0919-.1687.2212-.1789.3601-.0101.1388.0347.2761.1248.3822 1.2492 1.4418 2.3047 3.0406 3.1397 4.7558h-8.1373c-2.3596-.4616-3.1445-1.5029-3.1463-1.5029-.3487-.6598-.904-1.1871-1.5808-1.5013-.6768-.3143-1.438-.3981-2.167-.2388-.8448-1.0708-1.7512-1.5901-2.69619-1.5418-1.21269.0596-2.08583 1.0542-2.46507 1.5797-.2351-.0295-.47245-.0369-.70894-.0221.75438-1.6252 2.4106-4.8384 4.2726-6.1978 1.8638-1.2379 3.5135 1.0374 4.6085 3.2907.7138 1.6195 1.8797 2.9987 3.3579 3.972.6505.4173 3.2334 1.7873 3.4287.661.0105-.069.0072-.1393-.0095-.2071-.0168-.0677-.0467-.1314-.0881-.1876-.0414-.0561-.0935-.1035-.1533-.1395-.0597-.036-.126-.0599-.195-.0703-1.8423-.3634-3.4674-1.4378-4.5234-2.9906.9891-1.6845 2.7818-3.3152 4.8233-1.817.4073.2393.9763 1.1796 1.5232.623.0469-.0516.0832-.112.1068-.1776.0235-.0656.0339-.1353.0306-.205-.0034-.0696-.0204-.1379-.0502-.201-.0297-.0631-.0716-.1197-.1233-.1666-1.5074-1.6509-3.9859-2.1107-5.6827-.5093-.4622.4421-.878.9303-1.2409 1.457-.0822-.1565-.1619-.3151-.2355-.4782-1.4475-2.9829-3.5347-5.4059-6.20381-3.712-2.552 1.8637-4.61222 6.5595-4.9994 7.482-1.28313.7168-1.59265 2.6554-1.50672 2.8011h-.48965c-.13941.0023-.27235.0592-.37014.1586-.0978.0994-.1526.2333-.1526.3727.00001.1394.05482.2733.15262.3726.0978.0994.23074.1564.37015.1586 2.18515.001 27.40875-.0007 28.68745 0 .1394-.0022.2724-.0592.3702-.1586.0978-.0993.1526-.2332.1526-.3726s-.0548-.2733-.1526-.3727c-.0978-.0994-.2308-.1563-.3702-.1586Zm-27.17353 0c.12905-.9999.78625-2.5543 2.69017-2.1042.10954.0221.22325.0093.32513-.0366.10189-.0459.18684-.1225.24292-.2192.00752-.0129.77198-1.3151 1.8075-1.3639.6555-.0368 1.32161.4431 2.00701 1.407.0697.0981.1707.1697.2863.2029.1157.0333.2393.0263.3505-.0198.0685-.029 1.6921-.6775 2.8521 1.2073.2918.3727.6513.6871 1.0597.9265H4.17017Zm23.76433 3.1154H6.06555c-.13947.0022-.2725.0591-.37036.1585s-.15271.2333-.15271.3728.05486.2734.15273.3727c.09787.0994.2309.1564.37037.1585H27.9345c.1395-.0022.2725-.0591.3703-.1585.0979-.0994.1528-.2333.1528-.3728-.0001-.1394-.0549-.2733-.1528-.3727-.0978-.0994-.2309-.1563-.3703-.1585Zm-3.409 3.1154H9.47459c-.13953.002-.27265.0589-.37059.1583-.09793.0994-.15283.2334-.15283.3729.00001.1396.05491.2735.15285.3729.09794.0994.23106.1563.37059.1584H24.5255c.1395-.0021.2726-.059.3705-.1584.098-.0994.1529-.2333.1529-.3729 0-.1395-.0549-.2735-.1529-.3729-.0979-.0994-.231-.1563-.3705-.1583Zm-.0001-17.7616c3.2793-.1042 3.278-4.85839 0-4.96231-3.2791.10434-3.2788 4.85871 0 4.96231Zm0-3.89981c.3736.00416.7304.15546.993.42106.2627.2656.41.62408.41.99762s-.1473.73201-.41.9976c-.2627.26563-.6195.41693-.993.42103-.3735-.0042-.7303-.1555-.993-.42106-.2626-.2656-.4099-.62407-.4099-.99761 0-.37355.1473-.73201.41-.99761.2626-.26559.6194-.41688.9929-.42103Zm-.0001-1.80537c.1375-.00196.2686-.05793.3651-.15582.0965-.09789.1506-.22982.1506-.36728 0-.13745-.0541-.26939-.1506-.36727-.0965-.09789-.2276-.15386-.3651-.15582-.1374.00196-.2686.05793-.3651.15582-.0965.09788-.1506.22982-.1506.36727 0 .13746.0541.26939.1506.36728.0965.09789.2277.15386.3651.15582Zm-2.2797.94433c.095-.09874.1474-.23079.1461-.36779-.0013-.13699-.0563-.26801-.1532-.36488-.0969-.09688-.2279-.15189-.3649-.15321-.137-.00133-.269.05114-.3678.14612-.095.09873-.1474.23079-.1461.36778.0013.137.0563.26801.1532.36489.0969.09687.2279.15189.3649.15321.137.00133.2691-.05114.3678-.14612Z"/>
      <path fill="#616161" d="M20.7781 9.27141c.1375-.00196.2686-.05793.3651-.15582.0965-.09789.1506-.22982.1506-.36728 0-.13745-.0541-.26939-.1506-.36727-.0965-.09789-.2276-.15386-.3651-.15582-.1374.00196-.2685.05793-.365.15582-.0966.09788-.1506.22982-.1506.36727 0 .13746.054.26939.1506.36728.0965.09789.2276.15386.365.15582Zm1.4675 2.49649c.095-.0988.1474-.2308.1461-.3678-.0013-.137-.0563-.268-.1532-.3649-.0969-.0969-.2279-.1519-.3649-.1532-.137-.0013-.269.0511-.3678.1461-.095.0987-.1474.2308-.1461.3678.0013.137.0563.268.1532.3649.0969.0969.2279.1519.3649.1532.137.0013.2691-.0512.3678-.1461Zm1.7567.7276c.0021.1373.0581.2684.156.3647.0978.0964.2297.1505.367.1505.1374 0 .2693-.0541.3671-.1505.0979-.0963.1539-.2274.156-.3647-.0021-.1373-.0581-.2684-.156-.3647-.0978-.0964-.2297-.1505-.3671-.1505-.1373 0-.2692.0541-.367.1505-.0979.0963-.1539.2274-.156.3647Zm2.8029-1.4673c-.095.0987-.1474.2307-.1461.3677.0014.137.0564.268.1533.3649.0968.0968.2278.1518.3648.1532.137.0013.269-.0511.3678-.1461.0949-.0987.1473-.2308.146-.3677-.0013-.137-.0563-.268-.1532-.3649-.0969-.0968-.2279-.1519-.3648-.1532-.137-.0013-.2691.0511-.3678.1461Zm1.4673-1.75679c.1375-.00196.2686-.05793.3651-.15582.0965-.09789.1506-.22982.1506-.36728 0-.13745-.0541-.26939-.1506-.36727-.0965-.09789-.2276-.15386-.3651-.15582-.1374.00196-.2686.05793-.3651.15582-.0965.09788-.1506.22982-.1506.36727 0 .13746.0541.26939.1506.36728.0965.09789.2277.15386.3651.15582Zm-.7276-2.80286c.095-.09874.1475-.23079.1461-.36779-.0013-.13699-.0563-.26801-.1532-.36488-.0969-.09688-.2279-.15189-.3649-.15321-.137-.00133-.269.05114-.3678.14612-.0949.09873-.1474.23079-.1461.36778.0013.137.0564.26801.1532.36489.0969.09687.2279.15189.3649.15321.137.00133.2691-.05114.3678-.14612Z"/>
    </symbol>
    <symbol id="swimming-pool 1" width="34" height="34" fill="none" viewBox="0 0 34 34">
      <g clip-path="url(#swimming-pool-1__a)">
        <path fill="#616161" d="M33.7804 21.7181c-.2273-.1542-.5373-.0947-.6924.1322-.0418.0611-1.0451 1.4974-2.8877 1.4974-1.8425 0-2.8458-1.4363-2.8866-1.4958-.1835-.2908-.6452-.2904-.8285.0004-.01.015-1.0248 1.4955-2.8838 1.4955-1.5583 0-2.5161-1.027-2.7993-1.3801v-7.7328h12.6988c.2757 0 .4991-.2234.4991-.4991 0-.2756-.2234-.499-.4991-.499h-4.013V9.59971c0-3.29959-2.6526-6.00963-5.913-6.04117-1.604-.01614-3.1167.59892-4.2588 1.73001-.553.54766-.9845 1.18369-1.2838 1.87558-.9224-2.10063-2.9969-3.58228-5.4026-3.60559-.0198-.0002-.0396-.00027-.0594-.00027-1.5821 0-3.07144.61313-4.19949 1.73028-1.14232 1.13137-1.77152 2.63766-1.77152 4.24137v3.70688H.536803c-.275652 0-.499043.2234-.499043.4991 0 .2756.223391.499.499043.499H6.59929v1.9707c0 .2757.2234.499.49905.499s.49904-.2233.49904-.499V9.52992c0-1.33536.52408-2.58978 1.47581-3.53228.95141-.94217 2.21001-1.45695 3.54701-1.44108 2.7152.02623 4.9244 2.28862 4.9244 5.04315v3.63709h-1.2614V9.52992c0-2.01211-1.6364-3.67718-3.6477-3.71165-.0213-.00033-.0422-.00053-.0634-.00053-.9632 0-1.8758.37673-2.57586 1.06489-.7229.71062-1.13747 1.69629-1.13747 2.70427v13.3936c-.66526-.3341-1.09165-.8058-1.26146-1.0185v-3.7604c0-.2756-.22339-.499-.49904-.499-.27565 0-.49904.2234-.49904.499v3.7654c-.28422.3544-1.24193 1.3807-2.79956 1.3807-1.84257 0-2.845836-1.4363-2.886609-1.4958-.153797-.2287-.463848-.2894-.692551-.1356-.22870309.1537-.2894648.4637-.135668.6925.053125.0791 1.329718 1.937 3.714768 1.937 1.6306 0 2.74304-.8683 3.30065-1.443.55762.5747 1.67012 1.443 3.30064 1.443 1.6302 0 2.7414-.8678 3.2986-1.4427.5577.5747 1.6701 1.4427 3.3003 1.4427 1.6306 0 2.743-.8683 3.3006-1.443.5576.5747 1.6701 1.443 3.3007 1.443 1.6302 0 2.7414-.8678 3.2985-1.4427.5578.5747 1.6701 1.4427 3.3003 1.4427 2.3852 0 3.6617-1.8579 3.7148-1.937.1537-.2281.0932-.5364-.1343-.6907ZM9.85685 17.7027h7.68775v1.3972H9.85685v-1.3972Zm7.68775-.9981H9.85685v-2.4697h7.68775v2.4697ZM10.696 7.59444c.523-.51411 1.2055-.79043 1.9224-.77821 1.4705.02523 2.6668 1.24259 2.6668 2.71376v3.70691H9.85692V9.58696c-.00007-.74215.30578-1.46837.83908-1.99252Zm3.4174 14.25746c-.1833-.2892-.6427-.2894-.8274-.0012-.0417.0611-1.0427 1.497-2.8849 1.497-.1906 0-.3717-.016-.54425-.0437v-3.2061h7.68775v3.2061c-.1726.0276-.3538.0437-.5446.0437-1.8425 0-2.8459-1.4363-2.8866-1.4958Zm4.4292 1.1284V9.52992c0-1.33536.5241-2.58978 1.4758-3.53228.9514-.94217 2.2101-1.45695 3.5469-1.44108 2.7153.02623 4.9245 2.28862 4.9245 5.04315v3.63709h-1.2614v-1.1093c0-.2757-.2234-.4991-.499-.4991-.2757 0-.4991.2234-.4991.4991v1.1093H20.802V9.58683c0-.74209.3059-1.46831.8391-1.99252.523-.51412 1.2043-.79043 1.9224-.77821 1.4705.02523 2.6668 1.24259 2.6668 2.71375v.60155c0 .2756.2234.499.4991.499.2756 0 .499-.2234.499-.499v-.60155c0-2.01211-1.6364-3.67718-3.6477-3.71164-.0212-.00033-.0422-.00053-.0634-.00053-.9632 0-1.8757.37672-2.5758 1.06489-.7229.71061-1.1375 1.69628-1.1375 2.70426V21.9613c-.1703.2136-.5967.6851-1.2614 1.019Zm-4.8409 6.4634c-1.8426 0-2.8458-1.4363-2.8866-1.4958-.1832-.2891-.6423-.2894-.82716-.0016-.04177.0611-1.0451 1.4974-2.88761 1.4974-1.8425 0-2.84584-1.4363-2.88661-1.4958-.1538-.2287-.46385-.2894-.69255-.1356-.2287.1537-.28947.4638-.13567.6925.05313.079 1.32965 1.937 3.71477 1.937 1.6306 0 2.74304-.8684 3.30063-1.443.5576.5746 1.6701 1.443 3.3007 1.443.2757 0 .4991-.2234.4991-.4991 0-.2756-.2233-.499-.499-.499Zm16.7775-1.63c-.2276-.1539-.5374-.094-.6924.1329-.0417.0611-1.0427 1.497-2.8849 1.497-1.8426 0-2.8458-1.4363-2.8866-1.4958-.1834-.2906-.6448-.2905-.8282 0-.0101.015-1.0273 1.4958-2.8867 1.4958-1.8425 0-2.8458-1.4363-2.8866-1.4958-.1833-.2892-.6427-.2894-.8274-.0012-.004.0058-.4067.5884-1.1495 1.022-.238.1389-.3184.4445-.1794.6825s.4444.3183.6826.1795c.4584-.2676.8129-.5787 1.0593-.8324.5575.5747 1.67 1.4435 3.301 1.4435 1.6307 0 2.7431-.8683 3.3007-1.443.5576.5747 1.6701 1.443 3.3007 1.443 2.3854 0 3.6595-1.8583 3.7126-1.9374.1533-.2284.0924-.5366-.1352-.6906Z"/>
      </g>
      <defs>
        <clipPath id="swimming-pool-1__a">
          <path fill="#fff" d="M0 0h34v34H0z"/>
        </clipPath>
      </defs>
    </symbol>
    <symbol id="tent 1" width="34" height="34" fill="none" viewBox="0 0 34 34">
      <path fill="#616161" d="M32.2734 25.6063c-.239-.0532-.5047.1062-.5578.3718l-.1062.5844c-1.5407-1.6734-5.95-6.7469-8.3938-12.6703-.0797-.1594-.2125-.2656-.425-.2922h-8.7125c-.0797-.1062-.1594-.2125-.2391-.3188v-1.2749c.425.425.9297.7968 1.461 1.0625.239.1062.5047.0265.6375-.2125.1062-.2391.0265-.5313-.2125-.6375-.7703-.3985-1.4078-.9829-1.886-1.6735V9.48281c.3188.29219.6641.53129 1.036.71719.239.1063.5047 0 .6109-.2125.1063-.23906.0266-.50469-.2125-.61094-.5844-.29219-1.089-.74375-1.4344-1.30156V6.93281c.186.15938.3985.26563.611.37188.239.10625.5047.02656.6375-.2125.1062-.23906.0265-.50469-.2125-.6375-.6906-.37188-.9563-.85-1.0891-1.00938-.1859-.26562-.5844-.26562-.7703 0-.0797.07969-.3719.6375-1.0891 1.00938-.239.10625-.3187.39844-.2125.6375.1063.2125.3719.31875.611.2125.2125-.10625.425-.23906.6109-.37188V8.075c-.3719.55781-.85.98281-1.4344 1.30156-.239.10625-.3453.39844-.2125.61094.1329.2125.3985.3453.611.2125.3719-.1859.7172-.425 1.0359-.71719v1.06249c-.4781.7172-1.1156 1.3016-1.8859 1.6735-.2391.1062-.3188.3984-.2125.6109.1062.2125.3984.3187.6109.2125.5313-.2656 1.036-.6375 1.461-1.0625v1.275c-.0797.1062-.1594.2125-.2391.3187h-1.4609c-.2125 0-.3719.1329-.425.2922-.4782 1.1156-.98285 2.2047-1.56723 3.2672-.53125-.425-.98281-.9297-1.35468-1.4875v-1.275c.425.425.92968.7969 1.46093 1.0625.23907.1063.50469.0266.6375-.2125.10628-.2391.02657-.5312-.2125-.6375-.77031-.3984-1.40781-.9828-1.88593-1.6734v-1.0625c.31875.2922.66406.5312 1.03593.7172.23907.1062.50469.0265.6375-.2125.10625-.2391.02657-.5313-.2125-.6375-.58437-.2922-1.08906-.7438-1.43437-1.275V9.29688c.18594.15937.39844.26562.61094.37187.23906.10625.50468 0 .61093-.2125.10625-.23906.02657-.50469-.2125-.61094-.69062-.37187-.95625-.85-1.08906-1.00937-.18594-.26563-.58437-.26563-.77031 0-.07969.07969-.37188.6375-1.08906 1.00937-.23907.13281-.31875.39844-.18594.6375.10625.2125.37187.29219.61094.2125.2125-.10625.425-.23906.61093-.37187v1.14216c-.37187.5578-.85.9828-1.43437 1.275-.23906.1063-.31875.3985-.2125.611.10625.2125.39844.3187.61094.2125.37187-.186.71718-.425 1.03593-.7172v1.0625c-.47812.7172-1.11562 1.3015-1.88593 1.6734-.23907.1063-.31875.3984-.2125.611.10625.2124.39843.3187.61093.2124.53125-.2656 1.03594-.6374 1.46094-1.0624v1.3281c-.58437.8765-1.38125 1.5937-2.31094 2.0719-.23906.1062-.34531.3718-.2125.6109.10625.2391.37188.3453.61094.2125h.02656c.71719-.3453 1.35469-.85 1.9125-1.4344v3.6922c-1.43437 2.0453-2.94843 3.9578-4.59531 5.7375l-.13281-.6109c-.05313-.2391-.29219-.425-.55781-.3719-.26563.0531-.425.2922-.37188.5578l.58438 2.7891c.05312.239.29218.425.55781.3718.23906-.0531.425-.2922.37187-.5578l-.2125-1.0625c1.54063-1.6469 2.975-3.3734 4.27657-5.1797v.7703l-2.23125 5.3922c-.13282.3188.10625.6375.425.6375H28.8734c.3188 0 .5578-.3453.425-.6375l-3.0015-7.2781c1.514 2.2313 3.214 4.3297 5.0468 6.2688l-.2125 1.0625c-.0531.239.1063.5047.3719.5578.2391.0531.5047-.1063.5578-.3719l.5844-2.7891c.0531-.2125-.1063-.4515-.3719-.5046Zm-17.9297 2.7625-.1593-.7172c1.8328-1.9657 3.5328-4.0641 5.0468-6.2688l-2.8953 6.986h-1.9922Zm8.8985-4.9938 1.8062 5.0203h-1.8062V23.375Zm.7437-.6641 3.1344 3.3469-1.275 1.7797-1.8594-5.1266Zm-.7437-2.1781v-4.1172l3.0547 7.411-3.0547-3.2938ZM7.86249 17.1859c.26562.2922.58437.5578.90312.7969-.29219.5047-.58437 1.0094-.90312 1.4875v-2.2844Zm3.66561-2.6297h10.5453c-2.4703 5.6047-6.614 10.386-8.1015 12.0063l-.1329-.6109c-.0531-.2391-.2921-.425-.5578-.3719-.239.0531-.425.2922-.3718.5578l.4781 2.2313H5.81717l5.71093-13.8126Zm10.7844 1.8594v11.9532h-4.9406l4.9406-11.9532Zm4.3031 11.9532.9828-1.3813.5844 1.3813h-1.5672ZM23.8 5.55155c.2125-.15938.239-.45156.1062-.6375-.0797-.10625-.2125-.18594-.3453-.18594-1.9125-.13281-3.5594 1.32813-3.6922 3.24063-.1328 1.9125 1.3282 3.55936 3.2407 3.69216 1.2484.0797 2.4703-.5312 3.1343-1.5937.1328-.21252.0797-.50471-.1328-.63753-.1062-.07968-.2656-.07968-.3719-.05312-1.1421.34531-2.364-.26563-2.7093-1.40781-.2922-.92969.0265-1.88594.7703-2.41719Zm.85 4.80785c-1.1953.7171-2.7625.3453-3.4797-.85004-.7969-1.32812-.2391-3.08125 1.1953-3.66562-.7969 1.51406-.2391 3.37343 1.275 4.19686.2922.1328.6375.2656 1.0094.3188Z"/>
    </symbol>
    <symbol id="palm-tree 1" width="34" height="34" fill="none" viewBox="0 0 34 34">
      <g clip-path="url(#palm-tree-1__a)">
        <path fill="#616161" d="M22.9694 8.69804c-.396 0-.8225.07305-1.1622.19206-.7186-1.65851-1.9689-2.7909-3.7216-3.36762-2.412-.79362-4.2348-.4518-5.3995.02889 1.7511-1.86365 3.9662-1.81079 5.3081-1.54215.3376.06747.6729-.06283.8758-.3401.2035-.27813.226-.63868.059-.94079-.506-.91522-1.415-2.093967-2.8716-2.511765-1.1484-.329204-2.4167-.115224-3.7698.636426-1.643.912829-2.47802 2.382259-2.41472 4.249369.00252.07398.00664.1469.01175.21916-.54657-.42324-1.27491-.82006-2.23802-1.06983-.26651-.06914-.53813.09085-.6072.3571-.06907.26631.09078.53813.3571.6072 1.21122.31406 1.96871.89092 2.42463 1.39273-1.70187-.21538-3.44426.38047-5.19567 1.7811-1.60332 1.28215-2.85871 2.98088-3.55218 4.03328-.258142-2.1198.10679-3.83531 1.08657-5.10265.7642-.98847 1.64416-1.32824 1.6506-1.33069.16537-.06037.28663-.20362.31884-.37676.03221-.17313-.02935-.35045-.16198-.46628l-.06348-.05545c.50134-.06708.98827-.10281 1.44957-.10639.27514-.00213.49643-.22687.49424-.50194-.00213-.27515-.22627-.49863-.50195-.49424-.55354.00425-1.13863.0508-1.73886.1382-.36208.05273-.65123.30344-.75464.65443-.05764.19591-.04981.39694.01641.57804-.4018.24573-.94777.65748-1.45556 1.29909C.564376 7.73055-.346663 9.68352.132566 12.899c.054059.3631.321367.647.680788.7233.062295.0133.124523.0197.185954.0197.294732 0 .570412-.1482.734252-.4057.60787-.9561 1.87282-2.7559 3.51405-4.0684 1.35441-1.08304 2.68411-1.6174 3.97058-1.5994-.67156.35929-1.49872.88541-2.33585 1.62616-1.75925 1.55684-3.892 4.39454-4.06175 9.07224-.01176.3244.15587.6265.43739.7885.13555.078.2859.1169.43599.1169.16165 0 .32296-.0451.46522-.1348.67574-.4259 1.91505-1.3735 3.10834-3.1535.14219.168.34163.2754.5659.3012.277.0315.54524-.0668.73598-.2702.20461-.2184.49204-.5481.80704-.9772-.31367 4.694-.31679 11.9969 1.71825 18.6432.0656.2144.2629.3525.4761.3525.0483 0 .0974-.0071.1459-.022.2631-.0805.411-.3591.3305-.6221-.2482-.8104-.4651-1.6314-.6546-2.4563h.5379c.2751 0 .498-.223.498-.4981 0-.2752-.2229-.4981-.498-.4981h-.7528c-.3567-1.7605-.5939-3.5283-.743-5.2434h1.0057c.2751 0 .4981-.223.4981-.4981 0-.2752-.223-.4981-.4981-.4981h-1.0831c-.0462-.6757-.0796-1.3412-.1018-1.9926h.6564c.2751 0 .4981-.2229.4981-.4981 0-.2751-.223-.498-.4981-.498h-.6823c-.0536-3.0046.1169-5.7319.2981-7.6124.1267-.2727.247-.56.3564-.8621.1765.4893.3814.9414.5987 1.3536.0557 1.4662.1514 2.8658.2795 4.1991h-.5142c-.2752 0-.4981.2229-.4981.4981 0 .2751.2229.498.4981.498h.6174c.3119 2.815.7665 5.3188 1.2869 7.5124h-1.222c-.2752 0-.4981.2229-.4981.4981 0 .2751.2229.498.4981.498h1.468c.6759 2.6318 1.436 4.7761 2.1272 6.4354.0796.1914.2648.3067.46.3067.0638 0 .1287-.0123.1913-.0384.254-.1058.374-.3974.2682-.6513-1.514-3.6346-3.3653-9.647-3.8821-18.0837.2389.3074.4607.5603.6431.7549.1907.2034.4589.302.7359.2703.2243-.0257.4237-.1331.5659-.3011.4341.6483.9081 1.2361 1.4149 1.757-.2471 1.0929-.2357 2.1498-.1851 2.8287.0259.3466.2703.634.6083.7152.0626.0151.1255.0223.1877.0223.2736 0 .5323-.1412.6794-.3833.7006-1.1535 2.4263-3.4998 5.3101-4.4533-.1798.1374-.3625.2864-.5457.4486-1.4152 1.2522-3.1306 3.5339-3.267 7.293-.0107.2958.1422.5715.399.7193.1236.0711.2608.1066.3978.1066.1475 0 .2947-.0411.4245-.123.5319-.3354 1.4966-1.0709 2.4355-2.4382.1187.1.2658.165.423.183.2487.0287.5-.0636.6715-.2466.0935-.0998.2006-.2199.3153-.3571-.0599.898-.1398 1.7848-.2395 2.6507-.0315.2732.1646.5203.4379.5518.0193.0022.0385.0033.0576.0033.2496 0 .465-.1872.4942-.4412.1634-1.4198.275-2.8939.3322-4.3827.1333-.2545.2606-.5276.3763-.8186.0564.1417.1154.2791.1766.4121.1257 1.2864.2552 3.1475.2477 5.3049h-.1532c-.2751 0-.4981.2229-.4981.4981 0 .2751.223.4981.4981.4981h.1399c-.0079.3393-.0193.6844-.035 1.0345h-.4411c-.2751 0-.4981.2229-.4981.498 0 .2752.223.4981.4981.4981h.3857c-.1089 1.6393-.3136 3.3611-.6614 5.0726-.0548.2695.1193.5325.3889.5873.0335.0068.0668.0101.0997.0101.2319 0 .4396-.163.4876-.3991.881-4.3361.8675-8.7254.6864-11.7407.1723.2177.3268.3923.4462.5198.1714.183.4226.2753.6715.2466.1572-.018.3043-.083.423-.183.9389 1.3673 1.9036 2.1028 2.4355 2.4381.1298.0819.277.1231.4245.1231.137-.0001.2742-.0355.3978-.1066.2568-.1478.4097-.4235.399-.7193-.1364-3.7591-1.8519-6.0408-3.267-7.293-.5243-.464-1.0442-.8233-1.5042-1.0964.8694.0919 1.7641.5025 2.6746 1.2306 1.2947 1.0355 2.294 2.4577 2.7745 3.2134.1494.2348.4006.3699.6694.3699.056 0 .1128-.0059.1695-.0179.328-.0698.572-.329.6214-.6604.3868-2.5951-.3521-4.1759-1.04-5.0449-.4227-.534-.8797-.8733-1.2106-1.0724.0111-.1182-.0008-.24-.0373-.36-.1073-.3528-.4011-.601-.7667-.6477-1.808-.2309-3.1023.0441-4.0143.4769.1684-1.1482-.1917-2.2144-1.0631-3.1189-.8738-.90743-1.8132-1.3763-2.7919-1.39356Zm-.493 3.19146c.7459.4025 1.4617 1.0766 1.8953 2.1973-.0848-.0507-.1742-.1007-.2679-.1493-.4153-.2152-.9603-.423-1.6313-.5289.0323-.5206.0331-1.0284.0039-1.5191Zm.4755-2.19548c.7044.01248 1.4084.37868 2.0922 1.08858 1.184 1.2291.8602 2.5632.4218 3.423-.8234-2.7807-3.0181-3.5766-4.329-3.8012.4666-.3757 1.0941-.72094 1.815-.71038Zm-5.1775-3.22523c1.4851.48872 2.5396 1.45349 3.1393 2.86753-.306.2001-.5704.42338-.7872.63304-.2263.21894-.3029.53934-.1996.83624.103.2962.361.4995.6733.5306.2532.0252.5405.071.8434.1504.0623.5866.0745 1.2066.0351 1.8501-.0769.0007-.1551.0028-.2344.0064-1.3547-2.1978-4.2396-5.6949-9.1347-6.35437.9831-.66778 2.8632-1.44161 5.6648-.51994Zm-5.0029-4.74487c.7908-.43938 1.531-.66 2.2106-.66.2771 0 .5443.03672.8006.11024 1.0177.29195 1.7125 1.10343 2.1434 1.81032-1.6014-.26246-4.8285-.27773-6.9198 3.14461-.2867-1.22324-.3519-3.22908 1.7652-4.40517ZM7.95503 15.1112l-.24718-.4271c-.08867-.1534-.2521-.2479-.42916-.2487h-.00192c-.17633 0-.33957.0933-.42916.2452-1.10211 1.8707-2.29998 2.891-3.02108 3.3836.17294-3.3459 1.41159-6.0684 3.68361-8.09491 1.07235-.95639 2.14145-1.53013 2.81166-1.83217-.0478.68643-.021 1.338.0609 1.95178-.373 2.4716-1.74217 4.2609-2.42767 5.0223Zm6.97277-.4305c-.0898-.1526-.2544-.2467-.4311-.2453-.177.0008-.3405.0954-.4291.2486l-.2473.4273c-.9528-1.0551-2.7846-3.5675-2.4951-7.03209.7801.33691 2.2467 1.10151 3.601 2.53149.1892.1998.5045.2081.7042.0191.1998-.1891.2083-.5044.0191-.70414-.5651-.59678-1.1463-1.08603-1.6975-1.4847 3.0792 1.04764 5.0784 3.33944 6.1978 5.03824-.1953.0393-.396.0872-.6024.1453-.503.1412-.9411.3349-1.3235.5679-.2985-.865-.6871-1.6845-1.1609-2.4412-.1461-.2332-.4535-.3036-.6866-.1577-.2331.146-.3037.4534-.1577.6865.4925.7864.8849 1.6481 1.1702 2.5622-.5089.5004-.87 1.0888-1.1231 1.7027-.4844-.5526-.933-1.1769-1.338-1.8642Zm1.7753 5.0958c-.0282-1.8365.4338-4.4403 3.1137-5.1929.6421-.1804 1.2179-.2538 1.73-.2538 1.1092 0 1.9191.3447 2.4556.6947-3.8266.4561-6.1948 3.1283-7.2993 4.752Zm6.2131 1.6549-.1262-.218c-.0887-.1533-.252-.2479-.4292-.2486h-.0019c-.1763 0-.3395.0932-.4291.2452-.785 1.3323-1.6298 2.1153-2.2027 2.5386.1762-2.535 1.1435-4.6042 2.8786-6.1549.8304-.7421 1.6592-1.1925 2.1881-1.4337.159 2.537-1.124 4.4051-1.8776 5.2714Zm7.8224 2.3172c-.5728-.4233-1.4177-1.2064-2.2026-2.5387-.09-.1525-.252-.2449-.4311-.2452-.1771.0008-.3405.0954-.4292.2487l-.1259.2176c-.56-.6469-1.5331-1.9986-1.8126-3.8269.0577-.4395.0796-.9032.0562-1.389.52.2475 1.2716.6749 2.0346 1.3501 1.7552 1.5532 2.7333 3.632 2.9106 6.1834Zm2.2337-4.5741c-1.1615-1.7053-3.4882-4.474-6.3455-4.474-.0898 0-.18.0027-.2709.0083.6615-.6116 1.9257-1.2669 4.2249-1.0031-.0664.1047-.0923.2322-.0689.3576.0322.1731.1535.3164.3189.3768.026.0094 2.4784.9521 2.1415 4.7344Z"/>
        <path fill="#616161" d="M24.2449 29.52h-.5018c.1843-.8562.3472-1.7307.4879-2.6206.0429-.2718-.1425-.5268-.4142-.5697-.272-.0429-.5268.1425-.5698.4142-.3644 2.3062-.8808 4.5061-1.5347 6.5386-.0843.2618.0597.5424.3216.6267.0508.0163.1021.024.1527.024.2105 0 .4061-.1345.4741-.3456.1186-.3688.2326-.743.3423-1.122h1.0424c.2751 0 .4981-.223.4981-.4981s-.223-.4981-.4981-.4981h-.7676c.0827-.3147.1624-.6326.2389-.9533h.7283c.2751 0 .4981-.2229.4981-.4981 0-.2751-.2231-.498-.4982-.498Z"/>
      </g>
      <defs>
        <clipPath id="palm-tree-1__a">
          <path fill="#fff" d="M0 0h34v34H0z"/>
        </clipPath>
      </defs>
    </symbol>
    <symbol id="farm 1" width="34" height="34" fill="none" viewBox="0 0 34 34">
      <g clip-path="url(#farm-1__a)">
        <path fill="#616161" d="m7.32284 31.2991-.42593-.9732c4.24109-1.8565 8.65469-3.2908 13.17699-4.2822.2142-.0469.43-.0881.6448-.133V21.25h-.5312c-.1051 0-.2078-.0312-.2951-.0895-.0874-.0584-.1555-.1414-.1957-.2384-.0402-.0971-.0507-.2039-.0302-.307.0205-.103.0711-.1977.1454-.272l4.25-4.25c.0493-.0493.1079-.0884.1723-.1151.0645-.0268.1336-.0405.2033-.0405.0698 0 .1389.0137.2033.0405.0645.0267.123.0658.1723.1151l4.25 4.25c.0743.0743.1249.169.1454.272.0205.1031.01.2099-.0302.307-.0402.097-.1083.18-.1957.2384-.0873.0583-.19.0895-.2951.0895h-.5313v3.5159c1.7627-.1752 3.5294-.2846 5.3001-.3284l.0249 1.0625c-4.4338.105-8.8473.6345-13.1801 1.5813-4.454.9768-8.801 2.3895-12.97826 4.2178Zm16.58336-5.9784c.3539-.0571.7077-.1147 1.0625-.1664V23.375h-1.0625v1.9457Zm-2.125.3722c.3533-.0681.708-.1298 1.0625-.1926v-2.6566c0-.0697.0138-.1388.0405-.2033.0266-.0644.0658-.123.1151-.1724.0493-.0493.1079-.0884.1724-.1151.0644-.0267.1335-.0404.2033-.0404H25.5c.0698 0 .1389.0137.2033.0404.0645.0267.1231.0658.1724.1151.0493.0494.0885.108.1151.1724.0267.0645.0405.1336.0404.2033v2.1682c.3539-.046.7079-.0907 1.0625-.1314V21.25h-5.3125v4.4429Zm5.6238-5.5054L24.4375 17.22 21.47 20.1875h5.935ZM11.2582 32.3736l-.3663-.9972c2.9966-1.0989 6.0643-1.9931 9.182-2.6765 4.3993-.9615 8.8805-1.4993 13.3824-1.6061l.0249 1.0625c-4.4338.105-8.8473.6345-13.1801 1.5812-3.0704.6733-6.0917 1.554-9.0429 2.6361Zm4.8253 1.1433-.292-1.022c1.4103-.4026 2.8513-.7658 4.2824-1.0791 4.3993-.9615 8.8805-1.4994 13.3824-1.6062l.0249 1.0625c-4.4338.105-8.8473.6345-13.1801 1.5813-1.4096.3087-2.8287.6666-4.2176 1.0635ZM4.78132 7.88618V4.78126h-.53125c-.10852.00002-.21445-.03321-.30352-.09521-.08907-.062-.15701-.1498-.19468-.25158-.03766-.10178-.04324-.21265-.01599-.3177.02725-.10505.08602-.19923.16841-.26986L7.62304.659407c.09616-.082838.21887-.128401.34578-.128401.12692 0 .24962.045563.34578.128401l3.7188 3.187503c.0823.07063.1411.16481.1684.26986.0272.10505.0216.21592-.016.3177-.0377.10178-.1056.18958-.1947.25158-.0891.062-.195.09523-.3035.09521h-.5313v4.12622c1.827.3522 3.641.75299 5.442 1.20242 1.7028.4276 3.2525.8574 4.6518 1.2736V9.51088c-.4795-.07825-.9111-.33617-1.2072-.72132-.296-.38515-.4343-.86861-.3866-1.35205 0-.82904.5787-4.88656 2.125-4.88656s2.125 4.05752 2.125 4.88656c.0477.48344-.0905.96689-.3866 1.35204-.296.38514-.7277.64306-1.2071.72131v2.19474c1.4211.4396 2.664.8582 3.7187 1.2353v-1.8363c-.4794-.0782-.9111-.3362-1.2071-.7213-.2961-.38515-.4343-.8686-.3866-1.35204 0-.82904.5787-4.88656 2.125-4.88656s2.125 4.05752 2.125 4.88656c.0477.48344-.0906.96689-.3866 1.35204-.2961.3851-.7277.6431-1.2072.7213v2.2256c1.2038.4509 2.0933.8201 2.6394 1.0577 1.1655.5068 2.3235 1.0469 3.4417 1.6056l-.4747.9505c-1.1016-.5505-2.2425-1.0822-3.3908-1.5818-4.2048-1.7483-8.5418-3.1601-12.97-4.222C11.1348 9.83463 5.83338 8.95101.486698 8.49794l.089253-1.05835c1.402539.11845 2.804329.26731 4.205369.44659ZM27.6251 9.03126c0-1.20101-.634-3.42822-1.0625-3.79761-.4286.36939-1.0625 2.5966-1.0625 3.79761 0 .73462.3276 1.06254 1.0625 1.06254s1.0625-.32792 1.0625-1.06254Zm-4.7813-1.59375c0-1.20101-.6339-3.42822-1.0625-3.79761-.4285.36939-1.0625 2.5966-1.0625 3.79761 0 .73462.3276 1.0625 1.0625 1.0625s1.0625-.32788 1.0625-1.0625Zm-15.40623.8259c.35428.05467.70878.10768 1.0625.16611V6.90626h-1.0625v1.35715Zm-1.59375-.23297c.17704.02443.35431.04675.53125.07211V6.37501c-.00001-.06977.01371-.13886.04041-.20332.02669-.06446.06582-.12303.11515-.17237.04934-.04933.10791-.08846.17237-.11515.06446-.0267.13355-.04042.20332-.04041h2.125c.06977-.00001.13887.01371.20333.04041.06446.02669.12303.06582.17236.11515.04934.04934.08847.10791.11516.17237.02669.06446.04042.13355.0404.20332v2.23966c.17714.03119.35431.06193.53123.09406V4.78126H5.84382v3.24918Zm4.40768-4.31168L7.96882 1.76237 5.68611 3.71876h4.56539Zm6.3464 9.43394c1.0521.2635 2.1302.5535 3.2046.8612l-.2926 1.021c-1.063-.304-2.1297-.5909-3.1706-.8519-5.2046-1.3055-10.50606-2.1892-15.852737-2.6422l.089248-1.0584c5.403809.4577 10.761889 1.3507 16.022089 2.6703Zm.0001 2.8009.5338.1354-.2635 1.0293-.5289-.1344C11.1348 15.6784 5.83336 14.7947.486685 14.3417l.089248-1.0584C5.97975 13.741 11.3378 14.634 16.598 15.9536Zm-1.602 2.6542-.2418 1.0345c-4.695-1.0963-9.46334-1.8509-14.267473-2.2578l.089249-1.0583c4.855514.4109 9.674824 1.1734 14.420024 2.2816Z"/>
      </g>
      <defs>
        <clipPath id="farm-1__a">
          <path fill="#fff" d="M34 0H0v34h34z"/>
        </clipPath>
      </defs>
    </symbol>
    <symbol id="living-room 1" width="34" height="34" fill="none" viewBox="0 0 34 34">
      <path fill="#616161" d="M15.6028 29.2188h-.9244c-.511-.0015-1.0007-.2051-1.362-.5664-.3614-.3614-.565-.8511-.5664-1.3621v-5.7056c.0014-.511.205-1.0007.5664-1.3621.3613-.3613.851-.5649 1.362-.5664h.9244c.1558.0011.311.0208.4622.0585.419.1015.7916.3412 1.0576.6805.2661.3393.41.7583.4086 1.1895v5.7056c-.0014.511-.205 1.0007-.5663 1.3621-.3614.3613-.8511.5649-1.3621.5664Zm-.9244-8.5c-.1137 0-.2263.0223-.3313.0659-.1051.0435-.2006.1073-.281.1877-.0804.0804-.1442.1758-.1877.2809-.0435.1051-.0659.2177-.0659.3314v5.7056c0 .2297.0912.4499.2536.6123.1624.1624.3827.2536.6123.2536h.9244c.2297 0 .4499-.0912.6123-.2536.1624-.1624.2537-.3826.2537-.6123v-5.7056c-.0004-.1934-.0654-.3811-.1848-.5332-.1194-.1521-.2862-.2599-.474-.3062-.0689-.0075-.1383-.0075-.2072 0l-.9244-.0265Zm15.7994 8.5h-.9244c-.511-.0015-1.0007-.2051-1.362-.5664-.3614-.3614-.565-.8511-.5664-1.3621v-5.7056c-.0014-.4312.1426-.8502.4086-1.1895.266-.3393.6386-.579 1.0577-.6805.1512-.0377.3063-.0574.4621-.0585h.9244c.511.0015 1.0007.2051 1.3621.5664.3613.3614.565.8511.5664 1.3621v5.7056c-.0014.511-.2051 1.0007-.5664 1.3621-.3614.3613-.8511.5649-1.3621.5664Zm-.9244-8.5c-.0688-.0075-.1383-.0075-.2071 0-.1923.0472-.3625.159-.4824.3165-.1199.1576-.1821.3515-.1764.5494v5.7056c0 .2297.0912.4499.2536.6123.1624.1624.3827.2536.6123.2536h.9244c.2297 0 .4499-.0912.6123-.2536.1624-.1624.2537-.3826.2537-.6123v-5.7056c0-.1137-.0224-.2263-.066-.3314-.0435-.1051-.1073-.2005-.1877-.2809-.0804-.0804-.1758-.1442-.2809-.1877-.1051-.0436-.2177-.0659-.3314-.0659h-.9244Zm-17.8659 5.8437H1.59375v-6.375H11.6875v6.375ZM2.65625 25.5H10.625v-4.25H2.65625v4.25Z"/>
      <path fill="#616161" d="M10.625 25.5h1.0625v3.7188H10.625V25.5Zm-9.03125 0h1.0625v3.7188h-1.0625V25.5Zm25.50005 3.7188h-9.0313c-.4227 0-.8281-.168-1.127-.4668-.2988-.2989-.4667-.7043-.4667-1.127v-3.1875h12.2187v3.1875c0 .4227-.1679.8281-.4668 1.127-.2989.2988-.7043.4668-1.1269.4668ZM17.5312 25.5v2.125c0 .1409.056.276.1556.3757.0997.0996.2348.1555.3757.1555h9.0313c.1408 0 .276-.0559.3756-.1555.0996-.0997.1556-.2348.1556-.3757V25.5H17.5312Z"/>
      <path fill="#616161" d="M28.6875 25.5H16.4688v-1.5938c0-.7044.2798-1.3801.7779-1.8782.4982-.4981 1.1738-.778 1.8783-.778h6.9062c.7045 0 1.3802.2799 1.8783.778.4981.4981.778 1.1738.778 1.8782V25.5Zm-11.1563-1.0625H27.625v-.5313c0-.4226-.1679-.828-.4668-1.1269-.2989-.2989-.7043-.4668-1.127-.4668H19.125c-.4227 0-.8281.1679-1.127.4668-.2988.2989-.4668.7043-.4668 1.1269v.5313Z"/>
      <path fill="#616161" d="M28.6875 23.9062H27.625c0-.4226-.1679-.828-.4668-1.1269-.2989-.2989-.7043-.4668-1.127-.4668H19.125c-.4227 0-.8281.1679-1.127.4668-.2988.2989-.4668.7043-.4668 1.1269h-1.0624v-2.3215c-.0004-.1934-.0654-.3811-.1848-.5332-.1194-.1521-.2862-.2599-.474-.3062l-.4038-.0956v-4.1809c0-.9863.3918-1.9322 1.0892-2.6296S18.1387 12.75 19.125 12.75h6.9062c.9863 0 1.9322.3918 2.6296 1.0892s1.0892 1.6433 1.0892 2.6296v4.1809l-.4037.0956c-.1878.0463-.3547.1541-.4741.3062-.1194.1521-.1844.3398-.1847.5332v2.3215ZM19.125 21.25h6.9062c.5748 0 1.134.1864 1.5938.5312v-.1965c-.0015-.3576.0973-.7084.2851-1.0126.1878-.3042.4571-.5498.7774-.7087v-3.3946c0-.7045-.2799-1.3802-.778-1.8783-.4981-.4981-1.1738-.778-1.8783-.778H19.125c-.7045 0-1.3801.2799-1.8783.778-.4981.4981-.7779 1.1738-.7779 1.8783v3.3946c.3202.1589.5896.4045.7774.7087.1878.3042.2865.655.285 1.0126v.1965c.4598-.3448 1.0191-.5312 1.5938-.5312ZM5.3125 22.8438h2.65625v1.0624H5.3125v-1.0624ZM8.36721 21.25H4.91408l-1.37062-4.7812h6.19437L8.36721 21.25Zm-2.65625-1.0625h1.85937l.75438-2.6563H4.95658l.75438 2.6563Z"/>
      <path fill="#616161" d="M6.64062 17.5313c-.13564-.001-.27087-.0152-.40375-.0425-.99574-.1696-1.9001-.684-2.55472-1.4532-.65462-.7693-1.01779-1.7443-1.0259-2.7543v-.5312h.53125c.98852-.0052 1.94745.337 2.70938.9668l.19656.1541v.2497c-.00329.6467.1873 1.2795.54718 1.8169.3661-.5336.56408-1.1645.56844-1.8116v-.2497l.19656-.1541c.75558-.627 1.70625-.9708 2.68818-.9721h.5312v.5312c.0038 1.0279-.3623 2.0228-1.03138 2.8031-.6691.7803-1.59656 1.2939-2.61299 1.4469-.11306.0113-.22695.0113-.34001 0Zm1.62032-3.1609c-.03903.636-.2206 1.2551-.53125 1.8115.46899-.2148.87885-.5401 1.19438-.9482.31554-.4081.52733-.8866.61718-1.3946-.46167.0804-.89928.2638-1.28031.5366v-.0053Zm-4.51031-.5313c.0961.5056.31027.9813.62508 1.3885.31481.4071.72134.7341 1.18648.9543-.30916-.557-.49062-1.1758-.53125-1.8115-.38199-.269-.81953-.4488-1.28031-.526v-.0053Z"/>
      <path fill="#616161" d="m6.64062 17.4834-.37719-.3719c-.09031-.0956-.18063-.1913-.26563-.2922-.68173-.8232-1.03224-1.871-.98313-2.9387.04912-1.0677.49433-2.0788 1.24876-2.836l.37719-.3719.37718.3719c.39965.3973.7163.87.93154 1.3908s.32477 1.0791.32221 1.6426v.0266c-.003.9857-.34856 1.9397-.9775 2.6988-.09562.1168-.18593.2125-.27625.3081l-.37718.3719Zm0-5.2382c-.37005.5396-.56809 1.1786-.56809 1.8328 0 .6543.19804 1.2933.56809 1.8329.36609-.5336.56407-1.1645.56843-1.8116.00768-.6621-.19099-1.3101-.56843-1.8541ZM12.75 10.625h1.0625v12.75H12.75v-12.75Z"/>
      <path fill="#616161" d="M17.5843 11.6875H8.97803l.63219-6.90625h7.34188l.6322 6.90625Zm-7.4375-1.0625h6.2687l-.4303-4.78125h-5.4081l-.4303 4.78125Z"/>
    </symbol>
    <symbol id="mansion 1" width="34" height="34" fill="none" viewBox="0 0 34 34">
      <g clip-path="url(#mansion-1__a)">
        <path fill="#616161" d="M32.9375 9.03125c.1409 0 .276-.05597.3757-.1556.0996-.09963.1556-.23475.1556-.37565V6.375c0-.1409-.056-.27602-.1556-.37565-.0997-.09963-.2348-.1556-.3757-.1556h-.9031L24.2011.6205c-.0874-.058044-.1899-.089084-.2949-.08925H10.0938c-.10496.000166-.2075.031206-.29489.08925L1.96563 5.84375H1.0625c-.140896 0-.276022.05597-.37565.1556-.099629.09963-.1556.23475-.1556.37565V8.5c0 .1409.055971.27602.1556.37565.099628.09963.234754.1556.37565.1556h.53125V21.5427c-.32219.1855-.58995.4524-.77644.774-.186486.3216-.285137.6865-.28606 1.0583 0 .4227.167912.8281.466799 1.127.298881.2988.704261.4668 1.126951.4668h4.25c.42269 0 .82807-.168 1.12695-.4668.29889-.2989.4668-.7043.4668-1.127-.00057-.1794-.02414-.3579-.07013-.5312H8.5v1.5937c0 .1409.05597.276.1556.3757.09963.0996.23475.1556.37565.1556h2.12495c.1409 0 .2761-.056.3757-.1556.0996-.0997.1556-.2348.1556-.3757v-1.5937h1.8716l-1.8063 4.5209C4.42956 28.1642.53125 30.6101.53125 32.9375c0 .1409.055971.276.1556.3757.099628.0996.234754.1556.37565.1556h6.375c.1409 0 .27602-.056.37565-.1556.09963-.0997.1556-.2348.1556-.3757 0-1.1092 3.43555-2.6563 9.03125-2.6563s9.0312 1.5471 9.0312 2.6563c0 .1409.056.276.1556.3757.0997.0996.2348.1556.3757.1556h6.375c.1409 0 .276-.056.3757-.1556.0996-.0997.1556-.2348.1556-.3757 0-2.3274-3.8984-4.7733-11.2195-5.5728l-1.8084-4.5209h1.8716v1.5937c0 .1409.056.276.1556.3757.0996.0996.2348.1556.3757.1556h2.125c.1408 0 .276-.056.3756-.1556.0996-.0997.1556-.2348.1556-.3757v-1.5937h.6014c-.046.1733-.0696.3518-.0702.5312 0 .4227.168.8281.4668 1.127.2989.2988.7043.4668 1.127.4668h4.25c.4227 0 .8281-.168 1.1269-.4668.2989-.2989.4669-.7043.4669-1.127-.001-.3718-.0996-.7367-.2861-1.0583-.1865-.3216-.4543-.5885-.7765-.774V9.03125h.5313Zm-.5313-1.0625h-8.7125l-1.4487-1.0625h10.1612v1.0625ZM9.5625 11.1562v-1.0624h14.875v1.0624H9.5625ZM17 4.3775l6.3458 4.65375h-2.4565l-3.5806-2.55744c-.0901-.0643-.198-.09886-.3087-.09886-.1107 0-.2186.03456-.3087.09886l-3.5806 2.55744h-2.4565L17 4.3775Zm2.0607 4.65375h-4.1214L17 7.55916l2.0607 1.47209Zm-8.8076-7.4375h13.4938l6.375 4.25h-9.3256L17.314 3.29003c-.0911-.06673-.2011-.1027-.314-.1027s-.2229.03597-.314.1027l-3.4823 2.55372H3.87813l6.37497-4.25Zm-8.65935 5.3125H11.755l-1.4488 1.0625H1.59375v-1.0625ZM6.375 23.9062h-4.25c-.1409 0-.27602-.0559-.37565-.1555-.09963-.0997-.1556-.2348-.1556-.3757-.00003-.2791.10972-.5469.30554-.7457.19583-.1988.462-.3126.74102-.3168.01381 0 .07013.0085.08341.009.08813.0067.1765-.0093.25667-.0465.08018-.0372.14947-.0944.20127-.166.05276-.0706.08713-.1531.10002-.2403.01289-.0872.00389-.1762-.02618-.259-.05423-.1342-.07693-.2791-.06634-.4234.0106-.1443.05419-.2843.12743-.4091.07206-.1393.1728-.2618.29558-.3594.12279-.0976.26484-.1681.41683-.2069.25754-.0566.52697-.0117.75225.1254.08114.0472.17334.072.26722.072.09388 0 .18608-.0248.26722-.072.22909-.1396.504-.1831.765-.1212.19935.0486.38095.1524.5239.2996.14294.1471.24143.3317.28413.5324.03129.1612.02428.3276-.02047.4857-.04475.158-.126.3034-.23719.4243-.0878.0975-.13639.2241-.13639.3554s.04859.2579.13639.3554c.17655.1932.27468.4454.27519.7071 0 .1409-.05597.276-.1556.3757-.09963.0996-.23475.1555-.37565.1555Zm1.51619-2.125c.08231-.303.0961-.6206.04037-.9296-.08028-.4037-.27457-.7758-.55987-1.0724-.28529-.2966-.64961-.5052-1.04982-.6011-.42549-.1009-.87208-.0637-1.27499.1063-.3931-.1647-.82746-.2038-1.24366-.1121-.44832.1049-.85067.352-1.14697.7044V9.03125H8.857l-.13972.10253c-.06736.04936-.12214.11389-.1599.18838-.03775.07449-.05741.15683-.05738.24034v12.2187h-.60881Zm1.67131 2.125V12.2188h1.0625v11.6874H9.5625Zm10.625-2.125H19.125v-4.25c0-.5635-.2239-1.104-.6224-1.5026-.3985-.3985-.939-.6224-1.5026-.6224s-1.1041.2239-1.5026.6224c-.3985.3986-.6224.9391-.6224 1.5026v4.25h-1.0625v-4.25c0-.8453.3358-1.6561.9336-2.2539.5978-.5977 1.4085-.9335 2.2539-.9335.8454 0 1.6561.3358 2.2539.9335.5978.5978.9336 1.4086.9336 2.2539v4.25Zm-2.125 0h-2.125v-4.25c0-.2817.1119-.552.3112-.7513.1993-.1992.4695-.3111.7513-.3111s.552.1119.7513.3111c.1993.1993.3112.4696.3112.7513v4.25Zm14.2306 10.625h-5.287c-.7007-2.0718-5.4846-3.1874-10.0061-3.1874s-9.30538 1.1156-10.00609 3.1874h-5.287c.88825-2.1069 6.92059-4.25 15.29309-4.25 8.3725 0 14.4048 2.1431 15.2931 4.25Zm-11.2333-5.1531c-1.2633-.1025-2.6148-.1593-4.0598-.1593-1.445 0-2.7965.0568-4.0598.1593l1.7632-4.4093h4.5932l1.7632 4.4093Zm.1902-5.4719v-4.25c0-1.1271-.4478-2.2081-1.2448-3.0052-.797-.797-1.878-1.2448-3.0052-1.2448s-2.2082.4478-3.0052 1.2448c-.797.7971-1.2448 1.8781-1.2448 3.0052v4.25h-1.0625v-9.5624h10.625v9.5624H21.25Zm2.125 2.125V12.2188h1.0625v11.6874H23.375Zm8.5 0h-4.25c-.1409 0-.276-.0559-.3757-.1555-.0996-.0997-.1555-.2348-.1555-.3757.0009-.2619.0996-.5141.2767-.7071.0878-.0975.1364-.2241.1364-.3554s-.0486-.2579-.1364-.3554c-.1112-.1209-.1924-.2663-.2372-.4243-.0447-.1581-.0517-.3245-.0204-.4857.0427-.2007.1412-.3853.2841-.5324.143-.1472.3246-.251.5239-.2996.0771-.0182.1561-.0275.2353-.0276.1873.001.3708.0524.5313.1488.0811.0472.1733.072.2672.072.0939 0 .1861-.0248.2672-.072.2246-.1369.4934-.1816.7502-.1249.1519.0388.294.1093.4168.2069.1228.0976.2235.2201.2956.3594.0732.1248.1168.2648.1274.4091.0106.1444-.0121.2892-.0663.4234-.0301.0828-.0391.1718-.0262.259.0129.0872.0472.1698.1.2404.0518.0715.1211.1287.2013.1658.0802.0372.1685.0533.2566.0467.0133 0 .0532-.0075.068-.0091.2818 0 .5521.112.7513.3112.1993.1993.3112.4695.3112.7513 0 .0699-.0139.139-.0407.2035-.0268.0645-.0661.1231-.1156.1724-.0495.0493-.1082.0884-.1728.1149-.0646.0266-.1338.0402-.2037.0399Zm-.5312-4.0295c-.2965-.352-.6988-.5987-1.147-.7034-.4161-.0925-.8506-.0537-1.2437.1111-.4028-.1703-.8495-.2075-1.275-.1063-.4002.0959-.7645.3045-1.0498.6011-.2853.2966-.4796.6687-.5599 1.0724-.0557.309-.0419.6266.0404.9296H25.5V9.5625c0-.08351-.0196-.16585-.0574-.24034-.0377-.07449-.0925-.13902-.1599-.18838l-.1397-.10253h6.2008V19.8767Z"/>
        <path fill="#616161" d="M5.3125 10.0938c-.42269 0-.82807.1679-1.12695.4667-.29889.2989-.4668.7043-.4668 1.127v3.1875c0 .1409.05597.276.1556.3757.09963.0996.23475.1555.37565.1555h2.125c.1409 0 .27602-.0559.37565-.1555.09963-.0997.1556-.2348.1556-.3757v-3.1875c0-.4227-.16791-.8281-.4668-1.127-.29888-.2988-.70426-.4667-1.12695-.4667Zm.53125 4.25h-1.0625v-2.6563c0-.1409.05597-.276.1556-.3757.09963-.0996.23475-.1556.37565-.1556s.27602.056.37565.1556c.09963.0997.1556.2348.1556.3757v2.6563ZM27.625 15.4062h2.125c.1409 0 .276-.0559.3757-.1555.0996-.0997.1555-.2348.1555-.3757v-3.1875c0-.4227-.1679-.8281-.4667-1.127-.2989-.2988-.7043-.4667-1.127-.4667-.4227 0-.8281.1679-1.127.4667-.2988.2989-.4667.7043-.4667 1.127v3.1875c0 .1409.0559.276.1555.3757.0997.0996.2348.1555.3757.1555Zm.5312-3.7187c0-.1409.056-.276.1556-.3757.0997-.0996.2348-.1556.3757-.1556.1409 0 .276.056.3757.1556.0996.0997.1556.2348.1556.3757v2.6563h-1.0626v-2.6563Z"/>
      </g>
      <defs>
        <clipPath id="mansion-1__a">
          <path fill="#fff" d="M0 0h34v34H0z"/>
        </clipPath>
      </defs>
    </symbol>
    <symbol id="villa 1" width="34" height="34" fill="none" viewBox="0 0 34 34">
      <path fill="#616161" d="M30.0334 15.8667H28.9v-4.5333c0-.272-.1926-.5043-.4533-.5553l-5.2133-1.0427v-1.02l1.3543.41367c.0567.017.1133.02267.1643.02267.2437 0 .4704-.15867.544-.40234.0907-.30033-.0793-.61766-.374-.70833l-2.0003-.612c-.0283-.017-.0567-.034-.085-.03967l-2.8333-.85L9.80336 3.42274c-.30034-.09067-.61767.07933-.70834.374-.09066.30033.07934.61766.374.70833l1.29768.40233v4.828l-5.21334 1.0427c-.26067.051-.45334.2833-.45334.5553v4.5333H3.96669c-.31167 0-.56667.255-.56667.5667v13.6c0 .3117.255.5667.56667.5667H30.0334c.3116 0 .5666-.255.5666-.5667v-13.6c0-.3117-.255-.5667-.5666-.5667Zm-2.2667-4.0686v4.0686h-4.5333v-4.9753l4.5333.9067ZM22.1 8.36974v7.49696H11.9V5.29274l7.769 2.329 2.431.748ZM6.23336 11.7981l4.53334-.9067v4.9753H6.23336v-4.0686ZM15.3 29.4667v-5.6666h3.4v5.6666h-3.4Zm14.1667 0h-9.6333v-5.6666h1.1333c.3117 0 .5667-.255.5667-.5667s-.255-.5667-.5667-.5667h-7.9333c-.3117 0-.5667.255-.5667.5667s.255.5667.5667.5667h1.1333v5.6666H4.53336V17.0001H29.4667v12.4666Z"/>
      <path fill="#616161" d="M26.6333 19.2666h-3.4c-.3117 0-.5667.255-.5667.5667v3.4c0 .3116.255.5666.5667.5666h3.4c.3117 0 .5667-.255.5667-.5666v-3.4c0-.3117-.255-.5667-.5667-.5667Zm-.5667 3.4H23.8v-2.2667h2.2666v2.2667Zm-15.2999-3.4H7.36672c-.31167 0-.56667.255-.56667.5667v3.4c0 .3116.255.5666.56667.5666h3.39998c.3117 0 .5667-.255.5667-.5666v-3.4c0-.3117-.255-.5667-.5667-.5667Zm-.5667 3.4H7.93338v-2.2667H10.2v2.2667Zm3.9666-8.4998h5.6667c.3117 0 .5667-.255.5667-.5667v-3.4c0-.31168-.255-.56668-.5667-.56668h-5.6667c-.3116 0-.5666.255-.5666.56668v3.4c0 .3117.255.5667.5666.5667Zm5.1-1.1334h-1.7v-2.2666h1.7v2.2666Zm-4.5333-2.2666h1.7v2.2666h-1.7v-2.2666Z"/>
    </symbol>
    <symbol id="key-chain 1" width="34" height="34" fill="none" viewBox="0 0 34 34">
      <g clip-path="url(#key-chain-1__a)">
        <path fill="#616161" fill-rule="evenodd" d="m19.0227 20.8487-7.2916 9.778c-.1878.2504-.1371.6055.1133.7933.2503.1878.6055.1371.7933-.1133l7.2934-9.7809c.1214-.162.1473-.3764.0678-.5626-.0796-.1862-.2524-.3157-.4534-.34-.201-.0242-.3996.0607-.521.2226l-.0018.0029Z" clip-rule="evenodd"/>
        <path fill="#616161" d="m1.23685 23.538 3.02477 1.0103c.10153.037.2087.0562.31674.0567.17558-.0007.34776-.0485.49863-.1383l10.34701-6.199c.1311.3727.2896.7353.4742 1.0845l-1.8132 2.4309c-.1517.2058-.2166.463-.1807.7162l.1496 1.0495-1.1248.3332c-.4185.1215-.7043.5072-.6987.9429.0109.237.0403.4729.0878.7054l.0442.2834-1.1333.3348c-.4599.1398-.7491.594-.6811 1.0699l.123.8675-1.0891.3242c-.88616.2594-1.41786 1.1631-1.21433 2.0637l.62333 2.763c.09377.4419.4821.7593.93384.7632.0255 0 .0516 0 .07766-.0034l3.1789-.2176c.2889-.0124.5567-.1552.7281-.3881l7.4423-9.9787c2.8129.5678 5.7129-.4304 7.5804-2.6091 1.8675-2.1788 2.4104-5.1973 1.4191-7.8903 2.4011-1.6425 3.5517-4.58753 2.9002-7.42278C32.6 2.65477 30.2791.507469 27.4019.0778358 24.5246-.351798 21.6777 1.02383 20.2263 3.54505c-2.2502-.02756-4.4056.90502-5.926 2.56405-1.5205 1.65904-2.262 3.88736-2.0388 6.1266l-2.6134 1.5628c-.21335.1341-.36661.3455-.42784.5899l-.25897 1.0256-1.16619-.1201c-.43448-.0487-.84784.1991-1.00974.6052-.08028.2277-.14283.4613-.18699.6987l-.06461.2714-1.16559-.1179c-.48322-.0569-.9339.2531-1.05336.7248l-.21362.8499-1.12874-.1133c-.37505-.0421-.75348.0408-1.0766.2357-.44544.2603-.75203.7054-.83636 1.2143L.586361 22.45c-.092634.4756.18779.9445.650489 1.088ZM28.7623 19.1c-1.5237 2.6001-4.5854 3.8765-7.5047 3.1285-.2222-.0566-.4566.0265-.5938.2103l-7.6163 10.2143-2.98.204-.5961-2.6282c-.03957-.1775-.00053-.3634.10711-.5099.08075-.1065.19357-.1842.32186-.2216l1.22513-.3644c.4637-.1346.7562-.5918.6839-1.0692l-.123-.8676 1.1334-.3349c.4644-.1349.7569-.5934.6833-1.0715l-.0674-.4375c-.0261-.1655-.051-.3179-.0646-.4205l1.1435-.3382c.4619-.1362.7523-.5926.68-1.0687l-.1598-1.122 1.9906-2.6695c.1369-.1833.1501-.431.0334-.6279-1.7313-2.9131-1.0535-6.6563 1.5896-8.7773 2.643-2.12093 6.4442-1.97205 8.9132.349.5456.5097 1.002 1.107 1.3503 1.7674-.6522.3121-1.3565.5011-2.0773.5576-.1762-1.0592-1.0736-1.8481-2.1467-1.887-1.0731-.0389-2.0252.6828-2.2778 1.7265-.2525 1.0436.2645 2.1208 1.2367 2.5767.9723.4559 2.131.1645 2.7719-.697.1283-.1769.2297-.3719.3009-.5786.9133-.0448 1.8091-.2676 2.6371-.6556.6259 1.8687.409 3.9169-.5944 5.6128Zm-4.8731-6.611c.1571-.1295.3465-.214.5479-.2442.055-.0079.1105-.0119.166-.0119.4786.0014.9047.3032 1.0647.7542-.6153-.0707-1.2155-.2389-1.7781-.4981h-.0005Zm1.5644 1.6161c-.2851.3333-.7378.4708-1.1602.3523-.4224-.1185-.7375-.4713-.8078-.9043.6256.2795 1.2889.4654 1.9686.5519l-.0006.0001Zm.9039-12.97058c2.5696-.00372 4.8504 1.64509 5.6525 4.08637.802 2.44127-.0564 5.12151-2.1274 6.64251-.4026-.7518-.9257-1.4325-1.5487-2.01502-.17-.15698-.3445-.29922-.5225-.43973-.1101-.42213-.2557-.83423-.4352-1.23186-.9302-2.06111-2.7029-3.6218-4.8652-4.28325-.3345-.1006-.6752-.17916-1.02-.23514 1.1115-1.58699 2.9291-2.52966 4.8665-2.52388ZM2.18205 19.8514c.02935-.1808.13832-.3389.29689-.4306.11302-.069.24583-.0983.37737-.0833l1.27436.1303c.47917.0548.92348-.2575 1.03411-.7269l.21422-.85 1.17807.1212c.48116.0453.92321-.2678 1.04035-.7366l.09974-.4187c.03964-.166.07477-.3208.1014-.4233l1.18657.1219c.47864.0522.92188-.2583 1.03637-.7259l.2799-1.105 2.8553-1.7067c.1961-.1171.3026-.3406.2703-.5666-.485-3.30226 1.5006-6.46773 4.6847-7.46857 3.1842-1.00084 6.6237.45945 8.1152 3.44537-1.2583-.5831-2.6488-.82142-4.0295-.69074-2.2326.20014-4.2763 1.33545-5.6259 3.12534-1.3495 1.7897-1.8789 4.067-1.4572 6.2686L4.56137 23.4536l-2.83041-.9452.45109-2.657Z"/>
        <path fill="#616161" fill-rule="evenodd" d="M13.7615 16.6205c.2642-.1627.3486-.5074.1893-.7736-.1593-.2662-.503-.3548-.7712-.1988l-9.06243 5.4324c-.17643.1027-.28401.2923-.28168.4964.00232.2041.11434.3912.2931.4897.17876.0986.3967.0933.57055-.0136l9.06236-5.4325Z" clip-rule="evenodd"/>
      </g>
      <defs>
        <clipPath id="key-chain-1__a">
          <path fill="#fff" d="M0 0h34v34H0z"/>
        </clipPath>
      </defs>
    </symbol>
    <symbol id="castle-tower 1" width="34" height="34" fill="none" viewBox="0 0 34 34">
      <path fill="#616161" d="M27.625 29.75h-1.5938l-1.0306-18.0625H25.5c.3461-.0012.6824-.115.9581-.3243.2757-.2093.4758-.5026.57-.8356.0942-.3331.0774-.68773-.0478-1.0104s-.352-.59581-.6462-.77814l1.7318-2.60312c.0581-.08644.0895-.18805.0903-.29219V.53125c0-.140896-.0559-.276022-.1555-.37565C27.901.0559708 27.7659 0 27.625 0h-2.6562c-.1409 0-.2761.0559708-.3757.1556-.0996.099628-.1556.234754-.1556.37565V2.125h-2.125V.53125c0-.140896-.056-.276022-.1556-.37565C22.0573.0559708 21.9221 0 21.7812 0h-3.1874c-.1409 0-.2761.0559708-.3757.1556-.0996.099628-.1556.234754-.1556.37565V2.125h-2.125V.53125c0-.140896-.056-.276022-.1556-.37565C15.6823.0559708 15.5471 0 15.4062 0h-3.1874c-.1409 0-.2761.0559708-.3757.1556-.0996.099628-.1556.234754-.1556.37565V2.125h-2.125V.53125c0-.140896-.05597-.276022-.1556-.37565C9.30727.0559708 9.17215 0 9.03125 0H6.375c-.1409 0-.27602.0559708-.37565.1556-.09963.099628-.1556.234754-.1556.37565v5.3125c-.00076.1036.02878.20516.085.29219l1.73187 2.60312c-.29458.18257-.52162.45618-.64672.77938-.12511.3232-.14145.67836-.04656 1.01166.09489.3334.29585.6267.57242.8355.27657.2089.61367.3219.96024.3219h.49938L7.99531 29.75H6.375c-.70448 0-1.38011.2799-1.87825.778-.49815.4981-.778 1.1738-.778 1.8782v1.0626c0 .1408.05597.276.1556.3756.09963.0996.23475.1556.37565.1556h25.5c.1409 0 .276-.056.3757-.1556.0996-.0996.1555-.2348.1555-.3756v-1.0626c0-.7044-.2798-1.3801-.7779-1.8782-.4982-.4981-1.1738-.778-1.8783-.778ZM8.5 1.0625v1.59375c0 .1409.05597.27602.1556.37565s.23475.1556.37565.1556h3.18755c.1408 0 .276-.05597.3756-.1556.0996-.09963.1556-.23475.1556-.37565V1.0625h2.125v1.59375c0 .1409.056.27602.1556.37565s.2348.1556.3756.1556h3.1876c.1408 0 .276-.05597.3756-.1556.0996-.09963.1556-.23475.1556-.37565V1.0625h2.125v1.59375c0 .1409.056.27602.1556.37565s.2348.1556.3756.1556h3.1876c.1408 0 .276-.05597.3756-.1556.0996-.09963.1556-.23475.1556-.37565V1.0625h1.5938v4.25H6.90625v-4.25H8.5ZM26.6316 6.375 25.2131 8.5H8.78688L7.36844 6.375H26.6316ZM7.96875 10.0938c0-.14095.05597-.27607.1556-.3757s.23475-.1556.37565-.1556h17c.1409 0 .276.05597.3757.1556.0996.09963.1555.23475.1555.3757 0 .1408-.0559.276-.1555.3756-.0997.0996-.2348.1556-.3757.1556h-17c-.1409 0-.27602-.056-.37565-.1556s-.1556-.2348-.1556-.3756Zm1.85937 5.8437h3.98438c.1409 0 .276-.056.3757-.1556.0996-.0996.1556-.2348.1556-.3757 0-.1408-.056-.276-.1556-.3756-.0997-.0996-.2348-.1556-.3757-.1556H9.88656l.20724-3.1875h13.8656l.4728 8.5h-4.2447c-.1409 0-.276.056-.3757.1556-.0996.0996-.1556.2348-.1556.3757 0 .1408.056.276.1556.3756.0997.0996.2348.1556.3757.1556h4.25l.3294 5.8438h-2.9857c-.1408 0-.276.0559-.3756.1555-.0996.0997-.1556.2348-.1556.3757 0 .1409.056.276.1556.3757.0996.0996.2348.1555.3756.1555h3.0707l.085 1.5938h-4.7494v-2.125c0-.8454-.3358-1.6561-.9336-2.2539-.5978-.5978-1.4085-.9336-2.2539-.9336-.8454 0-1.6561.3358-2.2539.9336-.5978.5978-.9336 1.4085-.9336 2.2539v2.125H9.06312l.765-13.8125ZM19.125 29.75h-4.25v-2.125c0-.5636.2239-1.1041.6224-1.5026.3985-.3985.939-.6224 1.5026-.6224s1.1041.2239 1.5026.6224c.3985.3985.6224.939.6224 1.5026v2.125Zm10.0938 3.1875H4.78125v-.5313c0-.4226.16791-.828.4668-1.1269.29888-.2989.70426-.4668 1.12695-.4668h21.25c.4227 0 .8281.1679 1.127.4668.2988.2989.4668.7043.4668 1.1269v.5313Z"/>
      <path fill="#616161" d="M11.1562 22.3125h3.1876c.1408 0 .276-.056.3756-.1556.0996-.0996.1556-.2348.1556-.3757v-1.5937c0-.5636-.2239-1.1041-.6224-1.5026-.3985-.3985-.939-.6224-1.5026-.6224s-1.1041.2239-1.5026.6224c-.3985.3985-.6224.939-.6224 1.5026v1.5937c0 .1409.056.2761.1556.3757.0996.0996.2348.1556.3756.1556Zm.5313-2.125c0-.2818.1119-.552.3112-.7513.1993-.1993.4695-.3112.7513-.3112s.552.1119.7513.3112c.1993.1993.3112.4695.3112.7513V21.25h-2.125v-1.0625ZM19.6562 17h3.1876c.1408 0 .276-.056.3756-.1556.0996-.0996.1556-.2348.1556-.3756V14.875c0-.5636-.2239-1.1041-.6224-1.5026-.3985-.3985-.939-.6224-1.5026-.6224s-1.1041.2239-1.5026.6224c-.3985.3985-.6224.939-.6224 1.5026v1.5938c0 .1408.056.276.1556.3756.0996.0996.2348.1556.3756.1556Zm.5313-2.125c0-.2818.1119-.552.3112-.7513.1993-.1993.4695-.3112.7513-.3112s.552.1119.7513.3112c.1993.1993.3112.4695.3112.7513v1.0625h-2.125V14.875Zm-1.5937 5.3125h-1.0626c-.1408 0-.276.056-.3756.1556-.0996.0996-.1556.2348-.1556.3757 0 .1408.056.276.1556.3756.0996.0996.2348.1556.3756.1556h1.0626c.1408 0 .276-.056.3756-.1556.0996-.0996.1556-.2348.1556-.3756 0-.1409-.056-.2761-.1556-.3757-.0996-.0996-.2348-.1556-.3756-.1556Zm-4.7813 3.7187h4.25c.1409 0 .276-.0559.3757-.1555.0996-.0997.1556-.2348.1556-.3757 0-.1409-.056-.276-.1556-.3757-.0997-.0996-.2348-.1555-.3757-.1555h-4.25c-.1409 0-.276.0559-.3757.1555-.0996.0997-.1556.2348-.1556.3757 0 .1409.056.276.1556.3757.0997.0996.2348.1555.3757.1555Zm5.3125-.5312c0 .1409.056.276.1556.3757.0996.0996.2348.1555.3756.1555h1.0626c.1408 0 .276-.0559.3756-.1555.0996-.0997.1556-.2348.1556-.3757 0-.1409-.056-.276-.1556-.3757-.0996-.0996-.2348-.1555-.3756-.1555h-1.0626c-.1408 0-.276.0559-.3756.1555-.0996.0997-.1556.2348-.1556.3757Zm1.0625-5.3125h-4.25c-.1409 0-.276.056-.3757.1556-.0996.0996-.1556.2348-.1556.3757 0 .1408.056.276.1556.3756.0997.0996.2348.1556.3757.1556h4.25c.1409 0 .276-.056.3757-.1556.0996-.0996.1556-.2348.1556-.3756 0-.1409-.056-.2761-.1556-.3757-.0997-.0996-.2348-.1556-.3757-.1556Zm2.6563 0h-1.0626c-.1408 0-.276.056-.3756.1556-.0996.0996-.1556.2348-.1556.3757 0 .1408.056.276.1556.3756.0996.0996.2348.1556.3756.1556h1.0626c.1408 0 .276-.056.3756-.1556.0996-.0996.1556-.2348.1556-.3756 0-.1409-.056-.2761-.1556-.3757-.0996-.0996-.2348-.1556-.3756-.1556Zm-7.4376-2.125h1.0626c.1408 0 .276-.056.3756-.1556.0996-.0996.1556-.2348.1556-.3757 0-.1408-.056-.276-.1556-.3756-.0996-.0996-.2348-.1556-.3756-.1556h-1.0626c-.1408 0-.276.056-.3756.1556-.0996.0996-.1556.2348-.1556.3756 0 .1409.056.2761.1556.3757.0996.0996.2348.1556.3756.1556Zm-3.1874 11.1563h-1.0626c-.1408 0-.276.0559-.3756.1555-.0996.0997-.1556.2348-.1556.3757 0 .1409.056.276.1556.3757.0996.0996.2348.1555.3756.1555h1.0626c.1408 0 .276-.0559.3756-.1555.0996-.0997.1556-.2348.1556-.3757 0-.1409-.056-.276-.1556-.3757-.0996-.0996-.2348-.1555-.3756-.1555ZM13.8125 12.75H12.75c-.1409 0-.276.056-.3757.1556-.0996.0996-.1555.2348-.1555.3756 0 .1409.0559.2761.1555.3757.0997.0996.2348.1556.3757.1556h1.0625c.1409 0 .276-.056.3757-.1556.0996-.0996.1556-.2348.1556-.3757 0-.1408-.056-.276-.1556-.3756-.0997-.0996-.2348-.1556-.3757-.1556Z"/>
    </symbol>
    <symbol id="farm 1" width="34" height="34" fill="none" viewBox="0 0 34 34">
      <g clip-path="url(#farm-1__a)">
        <path fill="#616161" d="m7.32284 31.2991-.42593-.9732c4.24109-1.8565 8.65469-3.2908 13.17699-4.2822.2142-.0469.43-.0881.6448-.133V21.25h-.5312c-.1051 0-.2078-.0312-.2951-.0895-.0874-.0584-.1555-.1414-.1957-.2384-.0402-.0971-.0507-.2039-.0302-.307.0205-.103.0711-.1977.1454-.272l4.25-4.25c.0493-.0493.1079-.0884.1723-.1151.0645-.0268.1336-.0405.2033-.0405.0698 0 .1389.0137.2033.0405.0645.0267.123.0658.1723.1151l4.25 4.25c.0743.0743.1249.169.1454.272.0205.1031.01.2099-.0302.307-.0402.097-.1083.18-.1957.2384-.0873.0583-.19.0895-.2951.0895h-.5313v3.5159c1.7627-.1752 3.5294-.2846 5.3001-.3284l.0249 1.0625c-4.4338.105-8.8473.6345-13.1801 1.5813-4.454.9768-8.801 2.3895-12.97826 4.2178Zm16.58336-5.9784c.3539-.0571.7077-.1147 1.0625-.1664V23.375h-1.0625v1.9457Zm-2.125.3722c.3533-.0681.708-.1298 1.0625-.1926v-2.6566c0-.0697.0138-.1388.0405-.2033.0266-.0644.0658-.123.1151-.1724.0493-.0493.1079-.0884.1724-.1151.0644-.0267.1335-.0404.2033-.0404H25.5c.0698 0 .1389.0137.2033.0404.0645.0267.1231.0658.1724.1151.0493.0494.0885.108.1151.1724.0267.0645.0405.1336.0404.2033v2.1682c.3539-.046.7079-.0907 1.0625-.1314V21.25h-5.3125v4.4429Zm5.6238-5.5054L24.4375 17.22 21.47 20.1875h5.935ZM11.2582 32.3736l-.3663-.9972c2.9966-1.0989 6.0643-1.9931 9.182-2.6765 4.3993-.9615 8.8805-1.4993 13.3824-1.6061l.0249 1.0625c-4.4338.105-8.8473.6345-13.1801 1.5812-3.0704.6733-6.0917 1.554-9.0429 2.6361Zm4.8253 1.1433-.292-1.022c1.4103-.4026 2.8513-.7658 4.2824-1.0791 4.3993-.9615 8.8805-1.4994 13.3824-1.6062l.0249 1.0625c-4.4338.105-8.8473.6345-13.1801 1.5813-1.4096.3087-2.8287.6666-4.2176 1.0635ZM4.78132 7.88618V4.78126h-.53125c-.10852.00002-.21445-.03321-.30352-.09521-.08907-.062-.15701-.1498-.19468-.25158-.03766-.10178-.04324-.21265-.01599-.3177.02725-.10505.08602-.19923.16841-.26986L7.62304.659407c.09616-.082838.21887-.128401.34578-.128401.12692 0 .24962.045563.34578.128401l3.7188 3.187503c.0823.07063.1411.16481.1684.26986.0272.10505.0216.21592-.016.3177-.0377.10178-.1056.18958-.1947.25158-.0891.062-.195.09523-.3035.09521h-.5313v4.12622c1.827.3522 3.641.75299 5.442 1.20242 1.7028.4276 3.2525.8574 4.6518 1.2736V9.51088c-.4795-.07825-.9111-.33617-1.2072-.72132-.296-.38515-.4343-.86861-.3866-1.35205 0-.82904.5787-4.88656 2.125-4.88656s2.125 4.05752 2.125 4.88656c.0477.48344-.0905.96689-.3866 1.35204-.296.38514-.7277.64306-1.2071.72131v2.19474c1.4211.4396 2.664.8582 3.7187 1.2353v-1.8363c-.4794-.0782-.9111-.3362-1.2071-.7213-.2961-.38515-.4343-.8686-.3866-1.35204 0-.82904.5787-4.88656 2.125-4.88656s2.125 4.05752 2.125 4.88656c.0477.48344-.0906.96689-.3866 1.35204-.2961.3851-.7277.6431-1.2072.7213v2.2256c1.2038.4509 2.0933.8201 2.6394 1.0577 1.1655.5068 2.3235 1.0469 3.4417 1.6056l-.4747.9505c-1.1016-.5505-2.2425-1.0822-3.3908-1.5818-4.2048-1.7483-8.5418-3.1601-12.97-4.222C11.1348 9.83463 5.83338 8.95101.486698 8.49794l.089253-1.05835c1.402539.11845 2.804329.26731 4.205369.44659ZM27.6251 9.03126c0-1.20101-.634-3.42822-1.0625-3.79761-.4286.36939-1.0625 2.5966-1.0625 3.79761 0 .73462.3276 1.06254 1.0625 1.06254s1.0625-.32792 1.0625-1.06254Zm-4.7813-1.59375c0-1.20101-.6339-3.42822-1.0625-3.79761-.4285.36939-1.0625 2.5966-1.0625 3.79761 0 .73462.3276 1.0625 1.0625 1.0625s1.0625-.32788 1.0625-1.0625Zm-15.40623.8259c.35428.05467.70878.10768 1.0625.16611V6.90626h-1.0625v1.35715Zm-1.59375-.23297c.17704.02443.35431.04675.53125.07211V6.37501c-.00001-.06977.01371-.13886.04041-.20332.02669-.06446.06582-.12303.11515-.17237.04934-.04933.10791-.08846.17237-.11515.06446-.0267.13355-.04042.20332-.04041h2.125c.06977-.00001.13887.01371.20333.04041.06446.02669.12303.06582.17236.11515.04934.04934.08847.10791.11516.17237.02669.06446.04042.13355.0404.20332v2.23966c.17714.03119.35431.06193.53123.09406V4.78126H5.84382v3.24918Zm4.40768-4.31168L7.96882 1.76237 5.68611 3.71876h4.56539Zm6.3464 9.43394c1.0521.2635 2.1302.5535 3.2046.8612l-.2926 1.021c-1.063-.304-2.1297-.5909-3.1706-.8519-5.2046-1.3055-10.50606-2.1892-15.852737-2.6422l.089248-1.0584c5.403809.4577 10.761889 1.3507 16.022089 2.6703Zm.0001 2.8009.5338.1354-.2635 1.0293-.5289-.1344C11.1348 15.6784 5.83336 14.7947.486685 14.3417l.089248-1.0584C5.97975 13.741 11.3378 14.634 16.598 15.9536Zm-1.602 2.6542-.2418 1.0345c-4.695-1.0963-9.46334-1.8509-14.267473-2.2578l.089249-1.0583c4.855514.4109 9.674824 1.1734 14.420024 2.2816Z"/>
      </g>
      <defs>
        <clipPath id="farm-1__a">
          <path fill="#fff" d="M34 0H0v34h34z"/>
        </clipPath>
      </defs>
    </symbol>
    <symbol id="cabin 1" width="34" height="34" fill="none" viewBox="0 0 34 34">
      <g clip-path="url(#cabin-1__a)">
        <path fill="#616161" d="M33.9869 16.2586c-.064-.6023-.3587-1.1429-.8488-1.5379l-3.1047-2.2978V6.79998h-4.5333v2.26833l-8.4664-6.26497L.885089 14.1671c-.479958.3689-.7876534.9032-.8658521 1.5033-.0781987.6007.0821651 1.1951.4510591 1.6751.762724.9905 2.187294 1.1763 3.155714.4318l.34113-.2363v1.3582c-.66752.3196-1.13332.9962-1.13332 1.7844 0 .7883.4658 1.4649 1.13332 1.7845v2.0977c-.66752.3196-1.13332.9962-1.13332 1.7844s.4658 1.4648 1.13332 1.7844v2.0978c-.66752.3196-1.13332.9962-1.13332 1.7844 0 1.0936.88966 1.9833 1.9833 1.9833H29.1834c1.0936 0 1.9833-.8897 1.9833-1.9833 0-.9962-.7412-1.8156-1.7-1.9544v-1.7578c.9588-.1388 1.7-.9582 1.7-1.9544 0-.9962-.7412-1.8156-1.7-1.9544v-1.7577c.9588-.1389 1.7-.9583 1.7-1.9545 0-.9961-.7412-1.8155-1.7-1.9544v-1.0806l.854.6228c.4159.332.914.493 1.4098.493.6619 0 1.3186-.2879 1.7663-.8415.3802-.4709.5547-1.0619.4901-1.6643Zm-7.3535-8.32474h2.2667v3.65044l-2.2667-1.67734v-1.9731ZM13.0337 28.3335v1.7H5.10045v-1.7h7.93325Zm-7.93325-3.9666v-1.7h7.93325v1.7H5.10045Zm-.28333 1.1333h8.21658v1.7H4.81712c-.46862 0-.84998-.3814-.84998-.85 0-.4686.38136-.85.84998-.85Zm8.21658 7.3666H4.81712c-.46862 0-.84998-.3814-.84998-.85 0-.4686.38136-.85.84998-.85h8.21658v1.7Zm6.7998 0H14.167V22.6669h5.6665v10.1999Zm1.1334-8.4999v-1.7h7.3665v1.7h-7.3665Zm0 5.6666v-1.7h7.3665v1.7h-7.3665Zm9.0665 1.9833c0 .4686-.3814.85-.85.85h-8.2165v-1.7h8.2165c.4686 0 .85.3814.85.85Zm0-5.6666c0 .4686-.3814.85-.85.85h-8.2165v-1.7h8.2165c.4686 0 .85.3814.85.85Zm0-5.6666c0 .4687-.3814.85-.85.85H4.81712c-.46862 0-.84998-.3813-.84998-.85 0-.4686.38136-.8499.84998-.8499H29.1834c.4686 0 .85.3813.85.8499Zm-10.7665-1.9833h-1.7v-1.6999h1.7v1.6999Zm0-2.8332h-1.7v-1.7h1.7v1.7Zm-2.8333 0h-1.7v-1.7h1.7v1.7Zm-1.7 1.1333h1.7v1.6999h-1.7v-1.6999Zm7.9332 0h5.6666v1.6999h-7.9332v-5.6665h-6.7999v5.6665H5.10045v-1.6999h6.23325c.3133 0 .5666-.2533.5666-.5667 0-.3133-.2533-.5666-.5666-.5666H6.3811l2.45192-1.7h3.06728v-1.1333h-1.4325l2.452-1.7h7.8929l1.3577.9905.9724.7095h-1.0421v1.1333h2.5953l2.3301 1.7h-4.3587c-.3134 0-.5667.2533-.5667.5666 0 .3134.2528.5667.5661.5667Zm-8.1128-6.7999 2.4128-1.67278 2.2927 1.67278H14.554Zm18.0605 7.0107c-.3921.485-1.1078.5627-1.594.1694l-1.5867-1.1577-.485-.3558h-.0023l-2.3295-1.7h.0011l-5.4365-3.9666-4.1989-3.06393-4.4182 3.06393-5.72101 3.9666h.00113l-2.48706 1.7243-.00339.0006-.2006.1411-1.19565.829c-.49639.3808-1.20925.2879-1.58947-.2068-.18473-.2403-.26463-.5378-.22553-.8381.0391-.3003.19323-.5672.41309-.7378L17.0173 4.20129l8.4828 6.27681 1.245.9214 5.7005 4.2182c.2352.1899.3831.4607.4143.7616.0323.3003-.055.5961-.2454.8319Z"/>
        <path fill="#616161" d="M15.3003 28.3335c.313 0 .5667-.2537.5667-.5666 0-.313-.2537-.5667-.5667-.5667s-.5667.2537-.5667.5667c0 .3129.2537.5666.5667.5666ZM26.6334 6.2339c.1474 0 .2947-.06233.4024-.16433.102-.10767.1643-.255.1643-.40233 0-.14733-.0623-.29523-.1643-.40233-.2097-.20966-.595-.20966-.8047 0-.1026.1071-.1643.255-.1643.40233 0 .14733.0617.29466.1643.40233.1071.10143.255.16433.4023.16433ZM28.9 6.23381c.3134 0 .5667-.2533.5667-.56666V3.40052c0-.31336-.2533-.56666-.5667-.56666-.3133 0-.5666.2533-.5666.56666v2.26663c0 .31279.2533.56666.5666.56666Zm0-3.96657c.3134 0 .5667-.2533.5667-.56666V.567268c0-.313362-.2533-.56665765-.5667-.56665765-.3133 0-.5666.25329565-.5666.56665765V1.70058c0 .3128.2533.56666.5666.56666Zm-2.2666 2.2666c.3134 0 .5667-.2533.5667-.56666V2.83387c0-.31336-.2533-.56666-.5667-.56666-.3133 0-.5666.2533-.5666.56666v1.13331c0 .3128.2533.56666.5666.56666Zm0-2.83326c.3134 0 .5667-.25329.5667-.56666V.567268c0-.313362-.2533-.56665765-.5667-.56665765-.3133 0-.5666.25329565-.5666.56665765v.566652c0 .3128.2533.56666.5666.56666Z"/>
      </g>
      <defs>
        <clipPath id="cabin-1__a">
          <path fill="#fff" d="M0 0h34v34H0z"/>
        </clipPath>
      </defs>
    </symbol>
    <symbol id="treehouse (1) 1" width="34" height="34" fill="none" viewBox="0 0 34 34">
      <g clip-path="url(#treehouse-1-1__a)">
        <path fill="#616161" d="M1.74198 17.701c.19848.1083.40729.1966.62334.2635-.26544.9784.01314 2.0241.7302 2.7408.71705.7167 1.76287.9948 2.7412.7289.39768 1.2787 1.5162 2.1995 2.8475 2.3443.19086.5431.51763 1.0282.94916 1.4093V28.9c0 1.6173-.32016 3.3241-1.17186 3.8193-.10314-1.1412-.48564-3.3388-1.91364-4.2908-.26038-.1737-.61227-.1034-.78596.157-.1737.2604-.10342.6123.15696.786.62399.5298 1.04281 1.2614 1.18377 2.0677-.55762-.4915-1.26117-.7863-2.0026-.8392-.3091.0003-.56021.2496-.5627.5587-.00228.3106.24428.566.55477.5746.74104.1005 1.40381.5129 1.82126 1.1333H3.96672c-.31297 0-.56667.2538-.56667.5667 0 .313.2537.5667.56667.5667H33.4334c.3129 0 .5666-.2537.5666-.5667 0-.3129-.2537-.5667-.5666-.5667H32.3V8.49998c.9389 0 1.7-.76111 1.7-1.7v-.22383c.0009-.33541-.0977-.66354-.2833-.94293l-2.873-4.30667c-.315-.474681-.8469-.759986-1.4167-.759899H15.3c-.1891.000034-.3657.09441-.4709.2516l-.1751.262929c-.9411-.666357-2.1946-.687279-3.1574-.0527-.72-.740752-1.73821-1.1132467-2.76625-1.0119975C7.7023.117732 6.77634.681701 6.21468 1.54868c-.18526.28789-.32534.60244-.41536.93274-1.74209-.59505-3.66437.09063-4.63659 1.65387-.972226 1.56325-.737241 3.59059.56679 4.88999-.38732.49776-.59714 1.11072-.59614 1.74142.00163.4215.09848.8372.28334 1.216-.944751.676-1.4774777 1.7887-1.41162045 2.9485C.0709568 16.091.726788 17.1363 1.74198 17.701Zm8.16284 15.1656c.56098-.8692.86188-2.2162.86188-3.9666v-3.0294c.733.2614 1.5337.2614 2.2667 0V28.9c0 1.7504.3009 3.0974.8619 3.9666H9.90482ZM31.1667 22.1h-6.8v-1.1333h6.8V22.1Zm-7.9333 8.5h-3.4v-1.7h3.4v1.7Zm0-2.8334h-3.4v-1.6999h3.4v1.6999Zm0-2.8333h-3.4v-1.7h3.4v1.7Zm-3.4 6.8h3.4v1.1333h-3.4v-1.1333Zm3.4-9.6333h-3.4v-6.2333c0-.9389.7611-1.7 1.7-1.7s1.7.7611 1.7 1.7V22.1Zm-4.5334 0h-4.5333v-.4607c.3103-.1795.5906-.4065.8307-.6726H18.7V22.1Zm-2.1907 10.7666c.0615-.4865.3335-.9216.744-1.1899.2801-.1399.3938-.4804.2539-.7605-.1399-.2801-.4804-.3938-.7605-.2539-.7556.4432-1.2625 1.2122-1.3719 2.0814-.8794-.4704-1.2081-2.2004-1.2081-3.8437v-5.6667H18.7v9.6333h-2.1907Zm7.8574 0v-9.6333H28.9v9.6333h-4.5333Zm5.6667 0v-9.6333h1.1333v9.6333h-1.1333Zm1.1333-13.0333h-6.8v-3.9666c0-1.5649-1.2685-2.8334-2.8333-2.8334S18.7 14.3018 18.7 15.8667v3.9666h-3.0367c.1321-.3634.2009-.7467.2034-1.1333-.0004-.1478-.0102-.2955-.0295-.442.9316-.5237 1.5616-1.4561 1.6999-2.5158.1382-1.0597-.2316-2.1225-.9978-2.8675.3012-.4576.4614-.9936.4607-1.5414-.009-1.1524-.7109-2.18616-1.7787-2.61968.0141-.07027.0221-.14224.0328-.21364h15.9126V19.8333ZM29.427 1.69998c.1895-.00002.3664.0946.4715.25217l2.873 4.3095c.0618.09328.0949.20262.0952.3145v.22383c0 .31297-.2537.56667-.5667.56667H15.2587c-.1605-1.08006-.7573-2.04693-1.6507-2.67467l1.9946-2.992H29.427ZM5.60325 16.7359c-.0791-.1278-.20576-.219-.35211-.2535-.14635-.0344-.30038-.0093-.42819.0699-.74793.519-1.7221.5802-2.52903.1587-.71636-.4005-1.16026-1.157-1.16054-1.9777-.00325-.7376.35709-1.4294.96334-1.8496.33349.2973.72865.5172 1.15713.6438.30013.0887.61536-.0827.70408-.3828.08873-.3002-.08265-.6154-.38278-.7041-.76116-.203-1.29528-.8863-1.30843-1.6739-.00268-.77895.5286-1.45828 1.2852-1.64338.19678-.04808.35296-.1975.40971-.39195.05675-.19446.00545-.40443-.13458-.55081-.14003-.14637-.34752-.20692-.5443-.15884-.23938.06156-.46956.15454-.68453.27653-1.01082-.9434-1.19155-2.47926-.42735-3.63153.76421-1.15228 2.24939-1.58328 3.51171-1.0191.03306.42984.14043.85069.31734 1.24383.09094.20471.29393.33663.51793.3366.07927-.00037.1576-.01716.23007-.0493.13731-.06121.24468-.17448.29845-.31488.05378-.14039.04956-.2964-.01172-.43369-.34885-.72646-.2994-1.58131.1309-2.2627.37454-.57825.99213-.95436 1.67778-1.02175.68565-.0674 1.36467.18126 1.84457.67552-.1827.27416-.3156.5784-.3927.89873-.0708.30411.1178.60821.4216.68.0429.01012.0869.01525.1309.0153.2627-.00037.4907-.18121.5508-.4369.1812-.7546.8589-1.28454 1.6349-1.2784.3564.0008.7033.11447.9911.3247l-1.4388 2.15844c-.2831-.09891-.5767-.16507-.8749-.1972-.2016-.01934-.3981.07032-.5156.23519-.1175.16487-.1382.37991-.0541.56412.084.1842.2599.30959.4614.32892.334.03017.6594.12181.96.2703.9787.47229 1.6017 1.46213 1.6042 2.54887-.0013.74781-.3053 1.46325-.8426 1.98333-.212.22105-.2101.57055.0044.78915.2145.2186.5639.2273.7889.0195.2849-.2792.5264-.5995.7163-.95032.6229.26862 1.0282.88002 1.033 1.55832-.0004.3161-.0904.6255-.2595.8925-.247-.1199-.508-.2086-.7769-.264-.2-.0409-.4064.0289-.5406.1827-.1341.1538-.1752.3678-.1075.5603.0676.1925.2336.3338.4344.3699 1.143.2319 1.9243 1.2921 1.8073 2.4525-.1171 1.1604-1.0943 2.0433-2.2606 2.0423-.3129 0-.5667.2537-.5667.5667 0 .3129.2538.5666.5667.5666.1889-.0016.3773-.0188.5633-.0515 0 .0164.0034.0322.0034.0487-.0021.9-.5333 1.7147-1.3561 2.0796-.4796.2037-1.0136.241-1.5169.106-.195-.0547-.4045-.0012-.5493.1404-.1449.1416-.2031.3497-.1528.5459.0503.1963.2015.3507.3966.4051.2981.0826.606.124.9152.123.19-.0014.3795-.0184.5667-.051v2.5738c-.7861.4449-1.7595.3899-2.4905-.1405-.73453-.5429-1.06317-1.4791-.82905-2.3619.07824-.3033-.10417-.6125-.40743-.6908-.30326-.0782-.61253.1042-.69077.4074-.06114.2481-.09459.5022-.09974.7577-1.17478-.2891-1.90991-1.4563-1.66316-2.6407.03887-.1987-.03122-.403-.18387-.5361-.15265-.133-.36466-.1744-.55618-.1088-.19152.0657-.33345.2286-.37232.4273-.03339.1799-.05234.3622-.05666.5452-.18576.0745-.38354.1147-.58367.1184-.93889 0-1.7-.7611-1.7-1.7.0034-.1991.04295-.3959.11673-.5808.67568-.0325 1.33128-.2403 1.9023-.603.12795-.079.21925-.2056.25379-.352.03454-.1463.0095-.3004-.06962-.4283Z"/>
        <path fill="#616161" d="M9.06667 17.5666c.31296 0 .56666-.2537.56666-.5667 0-.3129.25371-.5666.56667-.5666.313 0 .5667-.2537.5667-.5667s-.2537-.5667-.5667-.5667c-.93888 0-1.7.7611-1.7 1.7 0 .313.25371.5667.56667.5667Zm-2.2666-6.7999c.31296 0 .56666-.2537.56666-.5667 0-.31296.25371-.56667.56667-.56667s.56667-.2537.56667-.56666c0-.31296-.25371-.56667-.56667-.56667-.93889 0-1.7.76112-1.7 1.7 0 .313.2537.5667.56667.5667Zm4.53333 1.1332c.313 0 .5667.2537.5667.5667s.2537.5667.5666.5667c.313 0 .5667-.2537.5667-.5667 0-.9389-.7611-1.7-1.7-1.7-.313 0-.5667.2537-.5667.5667 0 .3129.2537.5666.5667.5666Zm15.2999 2.2667H28.9c.6259 0 1.1333-.5074 1.1333-1.1333v-2.2667c0-.6259-.5074-1.1333-1.1333-1.1333h-2.2667c-.6259 0-1.1333.5074-1.1333 1.1333v2.2667c0 .6259.5074 1.1333 1.1333 1.1333Zm0-3.4H28.9v2.2667h-2.2667v-2.2667ZM16.4334 6.23331h13.6c.3129 0 .5666-.25371.5666-.56667s-.2537-.56666-.5666-.56666h-13.6c-.313 0-.5667.2537-.5667.56666 0 .31296.2537.56667.5667.56667ZM1.7 34c.31296 0 .56667-.2537.56667-.5666 0-.313-.25371-.5667-.56667-.5667H.566667C.253705 32.8667 0 33.1204 0 33.4334 0 33.7463.253705 34 .566667 34H1.7Z"/>
      </g>
      <defs>
        <clipPath id="treehouse-1-1__a">
          <path fill="#fff" d="M0 0h34v34H0z"/>
        </clipPath>
      </defs>
    </symbol>
  </defs>
</svg>
