<svg xmlns="http://www.w3.org/2000/svg" style="display: none"><defs><symbol id="barn_1" width="34" height="34" viewBox="0 0 34 34">
<g clip-path="url(#clip0_89_907)">
<path d="M27.49 0C23.89 0 20.97 2.92 20.97 6.51V9.41C20.97 9.41 16.33 6.96 16.25 6.91C15.62 6.56 15.44 6.56 14.81 6.91C14.73 6.96 5.77 11.69 5.77 11.69C5.01 12.09 4.9 12.2 4.58 12.74C4.53 12.83 0.22 19.66 0.22 19.66C0.01 19.99 -0.05 20.39 0.05 20.77C0.16 21.17 0.44 21.52 0.82 21.72C1.06 21.85 1.32 21.91 1.58 21.91C1.99 21.91 2.39 21.75 2.69 21.46V25.78C2.69 26.06 2.91 26.28 3.19 26.28C3.46 26.28 3.69 26.06 3.69 25.78V19.97C3.69 19.97 6.95 14.8 6.98 14.75C7.14 14.5 7.21 14.4 7.28 14.33C7.37 14.25 7.53 14.16 7.86 13.99L15.36 10.03C15.42 10 15.46 9.97 15.5 9.95C15.51 9.95 15.52 9.94 15.53 9.94C15.54 9.94 15.55 9.95 15.56 9.95C15.6 9.97 15.64 10 15.7 10.03C15.7 10.03 23.55 14.17 23.64 14.23C23.7 14.27 23.74 14.3 23.78 14.33C23.85 14.4 23.92 14.5 24.07 14.75C24.11 14.8 27.37 19.97 27.37 19.97V30.64H21.73V23.71H22.57C23.08 23.71 23.49 23.3 23.49 22.79V21.37C23.49 20.86 23.08 20.45 22.57 20.45H16.92C16.64 20.45 16.42 20.67 16.42 20.95C16.42 21.22 16.64 21.44 16.92 21.44H22.5V22.72H8.56V21.44H14.62C14.9 21.44 15.12 21.22 15.12 20.95C15.12 20.67 14.9 20.45 14.62 20.45H8.49C7.98 20.45 7.57 20.86 7.57 21.37V22.79C7.57 23.3 7.98 23.71 8.49 23.71H9.33V30.64H3.69V28.08C3.69 27.81 3.46 27.58 3.19 27.58C2.91 27.58 2.69 27.81 2.69 28.08V33.16C2.69 33.63 3.07 34 3.53 34H33.14C33.61 34 34 33.61 34 33.14V6.51C34 2.92 31.08 0 27.49 0ZM9.33 33H3.69V31.64H9.33L9.33 33ZM19.94 23.71L15.53 27.69L11.12 23.71H19.94ZM10.32 24.34L14.79 28.36L10.32 32.38V24.34ZM11.12 33L15.53 29.03L19.94 33H11.12ZM20.74 32.38L16.27 28.36L20.74 24.34V32.38ZM27.37 33H21.73V31.64H27.37V33ZM30.92 19.8C30.9 19.75 30.87 19.71 30.84 19.66L27.39 14.2H33V19.8H30.92ZM21.97 6.51C21.97 3.47 24.44 1 27.49 1C30.53 1 33 3.47 33 6.51V6.6H21.97V6.51ZM21.97 7.6H33V13.2H26.77C26.77 13.2 26.53 12.83 26.48 12.74C26.16 12.21 26.05 12.09 25.29 11.69L21.97 9.93V7.6H21.97ZM28.29 19.56C28.29 19.56 24.95 14.27 24.92 14.22C24.6 13.71 24.49 13.56 24.04 13.31C24 13.29 16.07 9.1 16.04 9.08C15.7 8.89 15.52 8.86 15.23 8.97C15.23 8.97 15.23 8.98 15.23 8.98C15.19 8.99 7.39 13.11 7.39 13.11C6.61 13.52 6.53 13.59 6.14 14.22C6.11 14.27 2.77 19.56 2.77 19.56C2.77 19.56 2.77 19.56 2.77 19.56L2.08 20.65C1.92 20.9 1.56 20.99 1.28 20.84C1.15 20.77 1.05 20.65 1.01 20.51C0.99 20.44 0.98 20.32 1.06 20.19C1.06 20.19 5.38 13.34 5.43 13.25C5.66 12.87 5.66 12.87 6.23 12.57C6.23 12.57 15.47 7.68 15.53 7.66C15.58 7.68 24.83 12.57 24.83 12.57C24.83 12.57 24.83 12.57 24.83 12.57C25.4 12.87 25.4 12.87 25.63 13.25C25.68 13.34 25.75 13.45 25.83 13.58L30 20.19C30.08 20.31 30.07 20.43 30.05 20.51C30.01 20.65 29.91 20.77 29.78 20.84C29.5 20.99 29.14 20.9 28.98 20.65L28.29 19.56C28.29 19.56 28.29 19.56 28.29 19.56ZM33 33H28.37V27.4H33V33ZM28.37 26.4V21.46C28.85 21.93 29.61 22.05 30.24 21.72C30.62 21.52 30.89 21.19 31 20.8H33V26.4H28.37V26.4Z" fill="#616161"/>
<path d="M18.94 15.8C18.94 13.91 17.41 12.38 15.53 12.38C13.65 12.38 12.12 13.91 12.12 15.8C12.12 17.68 13.65 19.21 15.53 19.21C17.41 19.21 18.94 17.68 18.94 15.8ZM13.11 15.8C13.11 14.46 14.2 13.38 15.53 13.38C16.86 13.38 17.95 14.46 17.95 15.8C17.95 17.13 16.86 18.21 15.53 18.21C14.2 18.21 13.11 17.13 13.11 15.8Z" fill="#616161"/>
</g>
<defs>
<clipPath id="clip0_89_907">
<rect width="34" height="34" fill="white"/>
</clipPath>
</defs>

</symbol><symbol id="cottage_1" width="34" height="34" viewBox="0 0 34 34">
<path d="M26.25 22.39H7.79C7.57 22.39 7.39 22.21 7.39 21.99V10.04C7.39 9.82 7.57 9.64 7.79 9.64H26.25C26.47 9.64 26.65 9.82 26.65 10.04V21.99C26.65 22.21 26.47 22.39 26.25 22.39ZM8.19 21.59H25.85V10.43H8.19V21.59Z" fill="#616161"/>
<path d="M27.64 10.43H22.43C22.31 10.43 22.2 10.38 22.12 10.29L18.2 5.38C18.11 5.26 18.09 5.09 18.15 4.95C18.22 4.82 18.36 4.73 18.51 4.73H23.18C23.29 4.73 23.4 4.78 23.48 4.86L27.94 9.77C28.04 9.89 28.07 10.05 28.01 10.2C27.94 10.34 27.8 10.43 27.64 10.43ZM22.62 9.64H26.74L23.01 5.52H19.34L22.62 9.64ZM11.6 10.43H6.39C6.23 10.43 6.09 10.34 6.03 10.2C5.96 10.05 5.99 9.89 6.1 9.77L10.56 4.86C10.63 4.78 10.74 4.73 10.85 4.73H15.52C15.67 4.73 15.81 4.82 15.88 4.95C15.95 5.09 15.93 5.26 15.83 5.38L11.92 10.29C11.84 10.38 11.73 10.43 11.6 10.43ZM7.29 9.64H11.41L14.7 5.52H11.03L7.29 9.64Z" fill="#616161"/>
<path d="M22.43 10.43H11.6C11.45 10.43 11.31 10.35 11.25 10.21C11.18 10.07 11.2 9.91 11.29 9.79L16.71 3C16.78 2.91 16.9 2.85 17.02 2.85C17.14 2.85 17.25 2.91 17.33 3L22.74 9.79C22.84 9.91 22.86 10.07 22.79 10.21C22.72 10.35 22.58 10.43 22.43 10.43ZM12.43 9.64H21.6L17.02 3.89L12.43 9.64Z" fill="#616161"/>
<path d="M17.02 9.03C16.09 9.03 15.34 8.28 15.34 7.35C15.34 6.42 16.09 5.67 17.02 5.67C17.94 5.67 18.7 6.42 18.7 7.35C18.7 8.28 17.94 9.03 17.02 9.03ZM17.02 6.47C16.53 6.47 16.13 6.86 16.13 7.35C16.13 7.84 16.53 8.23 17.02 8.23C17.51 8.23 17.9 7.84 17.9 7.35C17.9 6.86 17.51 6.47 17.02 6.47Z" fill="#616161"/>
<path d="M27.67 24.03H6.37C6.15 24.03 5.97 23.85 5.97 23.63V21.99C5.97 21.77 6.15 21.59 6.37 21.59H27.67C27.89 21.59 28.07 21.77 28.07 21.99V23.63C28.07 23.85 27.89 24.03 27.67 24.03ZM6.76 23.23H27.27V22.39H6.76V23.23Z" fill="#616161"/>
<path d="M19.03 22.39H15.01C14.79 22.39 14.61 22.21 14.61 21.99V16.59C14.61 15.82 15.24 15.19 16.01 15.19H18.02C18.8 15.19 19.43 15.82 19.43 16.59V21.99C19.42 22.21 19.25 22.39 19.03 22.39ZM15.41 21.59H18.63V16.59C18.63 16.26 18.36 15.99 18.02 15.99H16.01C15.68 15.99 15.41 16.26 15.41 16.59V21.59H15.41Z" fill="#616161"/>
<path d="M13.29 19.14H9.14C8.92 19.14 8.74 18.96 8.74 18.74V15.38C8.74 15.16 8.92 14.98 9.14 14.98H13.29C13.51 14.98 13.69 15.16 13.69 15.38V18.74C13.69 18.96 13.51 19.14 13.29 19.14ZM9.53 18.35H12.89V15.78H9.53V18.35Z" fill="#616161"/>
<path d="M11.21 19.14C10.99 19.14 10.82 18.96 10.82 18.74V15.38C10.82 15.16 10.99 14.98 11.21 14.98C11.43 14.98 11.61 15.16 11.61 15.38V18.74C11.61 18.96 11.43 19.14 11.21 19.14Z" fill="#616161"/>
<path d="M24.85 19.26H20.7C20.48 19.26 20.3 19.08 20.3 18.86V15.5C20.3 15.28 20.48 15.1 20.7 15.1H24.85C25.07 15.1 25.25 15.28 25.25 15.5V18.86C25.25 19.08 25.07 19.26 24.85 19.26ZM21.1 18.46H24.46V15.9H21.1V18.46Z" fill="#616161"/>
<path d="M22.78 19.26C22.56 19.26 22.38 19.08 22.38 18.86V15.5C22.38 15.28 22.56 15.1 22.78 15.1C23 15.1 23.18 15.28 23.18 15.5V18.86C23.18 19.08 23 19.26 22.78 19.26Z" fill="#616161"/>
<path d="M13.29 17.67H9.14C8.92 17.67 8.74 17.49 8.74 17.27C8.74 17.05 8.92 16.87 9.14 16.87H13.29C13.51 16.87 13.69 17.05 13.69 17.27C13.69 17.49 13.51 17.67 13.29 17.67Z" fill="#616161"/>
<path d="M24.85 17.79H20.7C20.48 17.79 20.3 17.61 20.3 17.39C20.3 17.17 20.48 16.99 20.7 16.99H24.85C25.07 16.99 25.25 17.17 25.25 17.39C25.25 17.61 25.07 17.79 24.85 17.79Z" fill="#616161"/>
<path d="M30.63 24.03H3.4C3.18 24.03 3 23.85 3 23.63C3 23.41 3.18 23.23 3.4 23.23H30.63C30.85 23.23 31.03 23.41 31.03 23.63C31.03 23.85 30.85 24.03 30.63 24.03Z" fill="#616161"/>
<path d="M13.83 26.99C12.54 26.99 11.4 26.75 10.27 26.52C8.19 26.09 6.24 25.68 3.52 26.74C3.32 26.82 3.09 26.72 3.01 26.51C2.93 26.31 3.03 26.08 3.23 26C6.17 24.85 8.33 25.3 10.43 25.74C12.43 26.16 14.31 26.55 16.89 25.68C19.68 24.75 21.76 25.18 23.77 25.6C25.84 26.03 27.8 26.44 30.51 25.38C30.72 25.3 30.95 25.4 31.03 25.6C31.11 25.81 31.01 26.04 30.8 26.12C27.87 27.27 25.7 26.82 23.61 26.38C21.61 25.96 19.73 25.57 17.14 26.44C15.92 26.85 14.83 26.99 13.83 26.99Z" fill="#616161"/>
<path d="M13.83 29.12C12.54 29.12 11.4 28.88 10.27 28.65C8.19 28.21 6.24 27.81 3.52 28.87C3.32 28.95 3.09 28.85 3.01 28.64C2.93 28.44 3.03 28.21 3.23 28.13C6.17 26.98 8.33 27.43 10.43 27.87C12.43 28.28 14.31 28.67 16.89 27.81C19.68 26.88 21.76 27.31 23.77 27.73C25.84 28.16 27.8 28.57 30.51 27.51C30.72 27.43 30.95 27.53 31.03 27.73C31.11 27.94 31.01 28.17 30.8 28.25C27.87 29.39 25.7 28.94 23.61 28.51C21.61 28.09 19.73 27.7 17.14 28.56C15.92 28.97 14.83 29.12 13.83 29.12Z" fill="#616161"/>
<path d="M13.83 31.25C12.54 31.25 11.4 31.01 10.27 30.77C8.19 30.34 6.24 29.93 3.52 31C3.32 31.08 3.09 30.97 3.01 30.77C2.93 30.56 3.03 30.33 3.23 30.25C6.17 29.11 8.33 29.56 10.43 29.99C12.43 30.41 14.31 30.8 16.89 29.94C19.68 29 21.76 29.44 23.77 29.85C25.84 30.29 27.8 30.69 30.51 29.63C30.72 29.55 30.95 29.65 31.03 29.86C31.11 30.06 31.01 30.29 30.8 30.37C27.87 31.52 25.7 31.07 23.61 30.63C21.61 30.22 19.73 29.83 17.14 30.69C15.92 31.1 14.83 31.25 13.83 31.25Z" fill="#616161"/>
<path d="M30.03 22.44C28.75 22.44 27.71 21.4 27.71 20.13C27.71 19.51 27.96 18.92 28.39 18.49C28.31 18.29 28.27 18.08 28.27 17.87C28.27 16.91 29.05 16.14 30 16.14C30.95 16.14 31.73 16.91 31.73 17.87C31.73 18.07 31.69 18.26 31.62 18.45C32.08 18.88 32.34 19.49 32.34 20.13C32.34 21.4 31.3 22.44 30.03 22.44ZM30 16.93C29.49 16.93 29.07 17.35 29.07 17.87C29.07 18.04 29.12 18.22 29.22 18.37C29.33 18.55 29.29 18.78 29.12 18.91C28.73 19.2 28.51 19.64 28.51 20.13C28.51 20.96 29.19 21.65 30.03 21.65C30.87 21.65 31.55 20.96 31.55 20.13C31.55 19.63 31.31 19.17 30.9 18.88C30.73 18.76 30.68 18.53 30.79 18.35C30.88 18.21 30.93 18.04 30.93 17.87C30.93 17.35 30.51 16.93 30 16.93Z" fill="#616161"/>
<path d="M30.03 24.03C29.81 24.03 29.63 23.85 29.63 23.63V19.29C29.63 19.07 29.81 18.89 30.03 18.89C30.25 18.89 30.42 19.07 30.42 19.29V23.63C30.42 23.85 30.25 24.03 30.03 24.03Z" fill="#616161"/>
<path d="M30.03 20.52C29.92 20.52 29.82 20.48 29.74 20.4C29.59 20.24 29.59 19.99 29.75 19.83L30.49 19.14C30.65 18.99 30.9 18.99 31.05 19.15C31.2 19.31 31.19 19.56 31.03 19.71L30.3 20.41C30.22 20.48 30.13 20.52 30.03 20.52Z" fill="#616161"/>
<path d="M30.03 21.36C29.93 21.36 29.83 21.32 29.75 21.25L29.02 20.55C28.86 20.4 28.85 20.15 29 19.99C29.16 19.83 29.41 19.82 29.57 19.98L30.3 20.67C30.46 20.82 30.47 21.08 30.31 21.24C30.24 21.32 30.13 21.36 30.03 21.36Z" fill="#616161"/>
<path d="M4.01 22.44C2.73 22.44 1.69 21.4 1.69 20.13C1.69 19.51 1.94 18.92 2.37 18.49C2.3 18.29 2.26 18.08 2.26 17.87C2.26 16.91 3.03 16.14 3.98 16.14C4.93 16.14 5.71 16.91 5.71 17.87C5.71 18.07 5.67 18.26 5.61 18.45C6.06 18.88 6.33 19.49 6.33 20.13C6.33 21.4 5.29 22.44 4.01 22.44ZM3.98 16.93C3.47 16.93 3.05 17.35 3.05 17.87C3.05 18.04 3.1 18.22 3.2 18.37C3.31 18.55 3.27 18.78 3.1 18.91C2.71 19.2 2.49 19.64 2.49 20.13C2.49 20.96 3.17 21.65 4.01 21.65C4.85 21.65 5.53 20.96 5.53 20.13C5.53 19.63 5.29 19.17 4.89 18.88C4.72 18.76 4.67 18.53 4.78 18.35C4.87 18.21 4.91 18.04 4.91 17.87C4.91 17.35 4.5 16.93 3.98 16.93Z" fill="#616161"/>
<path d="M4.01 24.03C3.79 24.03 3.61 23.85 3.61 23.63V19.29C3.61 19.07 3.79 18.89 4.01 18.89C4.23 18.89 4.41 19.07 4.41 19.29V23.63C4.41 23.85 4.23 24.03 4.01 24.03Z" fill="#616161"/>
<path d="M4.01 20.52C3.9 20.52 3.8 20.48 3.72 20.4C3.57 20.24 3.58 19.99 3.74 19.83L4.47 19.14C4.63 18.99 4.88 18.99 5.03 19.15C5.18 19.31 5.18 19.56 5.02 19.71L4.28 20.41C4.21 20.48 4.11 20.52 4.01 20.52Z" fill="#616161"/>
<path d="M4.01 21.36C3.91 21.36 3.81 21.32 3.73 21.25L3 20.55C2.84 20.4 2.84 20.15 2.99 19.99C3.14 19.83 3.39 19.82 3.55 19.98L4.28 20.67C4.44 20.82 4.45 21.08 4.3 21.24C4.22 21.32 4.11 21.36 4.01 21.36Z" fill="#616161"/>

</symbol><symbol id="home_1" width="34" height="34" viewBox="0 0 34 34">
<path d="M31.34 27.69C31.34 27.67 31.34 27.65 31.34 27.63C31.34 27.06 31.12 26.52 30.72 26.12C30.32 25.72 29.78 25.5 29.22 25.5V15.67L31.13 14.24C31.2 14.19 31.25 14.12 31.29 14.05C31.33 13.97 31.34 13.89 31.34 13.81C31.34 13.73 31.32 13.64 31.29 13.57C31.25 13.5 31.19 13.43 31.13 13.38L26.56 10.05V4.25C26.7 4.25 26.84 4.19 26.94 4.09C27.04 3.99 27.09 3.86 27.09 3.72V1.59C27.09 1.45 27.04 1.32 26.94 1.22C26.84 1.12 26.7 1.06 26.56 1.06H21.25C21.11 1.06 20.97 1.12 20.87 1.22C20.77 1.32 20.72 1.45 20.72 1.59V3.72C20.72 3.86 20.77 3.99 20.87 4.09C20.97 4.19 21.11 4.25 21.25 4.25V6.17L17.31 3.29C17.22 3.22 17.11 3.19 17 3.19C16.89 3.19 16.78 3.22 16.69 3.29L2.87 13.38C2.81 13.43 2.75 13.5 2.71 13.57C2.68 13.64 2.66 13.73 2.66 13.81C2.66 13.89 2.67 13.97 2.71 14.05C2.75 14.12 2.8 14.19 2.87 14.24L4.78 15.67V25.5C4.22 25.5 3.68 25.72 3.28 26.12C2.88 26.52 2.66 27.06 2.66 27.63C2.66 27.65 2.66 27.67 2.66 27.69C2.16 27.82 1.72 28.13 1.43 28.56C1.14 28.98 1.01 29.5 1.08 30.02C1.14 30.53 1.39 31 1.78 31.34C2.17 31.69 2.67 31.88 3.19 31.88H30.81C31.33 31.88 31.83 31.69 32.22 31.34C32.61 31 32.86 30.53 32.92 30.02C32.99 29.5 32.86 28.98 32.57 28.56C32.28 28.13 31.84 27.82 31.34 27.69ZM21.78 2.13H26.03V3.19H21.78V2.13ZM22.31 6.91V4.25H25.5V9.27L22.26 6.91H22.31ZM17 4.38L29.92 13.82L28.68 14.75L17.31 6.48C17.22 6.41 17.11 6.37 17 6.37C16.89 6.37 16.78 6.41 16.69 6.48L5.32 14.75L4.08 13.82L17 4.38ZM2.12 29.75C2.13 29.47 2.24 29.2 2.43 29C2.63 28.81 2.89 28.69 3.17 28.69H3.17C3.2 28.69 3.23 28.69 3.25 28.7C3.34 28.7 3.43 28.69 3.51 28.65C3.59 28.61 3.66 28.56 3.71 28.48C3.77 28.41 3.8 28.33 3.81 28.24C3.83 28.16 3.82 28.07 3.79 27.98C3.74 27.87 3.72 27.75 3.72 27.63C3.72 27.34 3.83 27.07 4.03 26.87C4.23 26.67 4.5 26.56 4.78 26.56V30.81H3.19C2.91 30.81 2.64 30.7 2.44 30.5C2.24 30.3 2.13 30.03 2.12 29.75ZM24.97 30.81H18.59V19.13H24.97V30.81ZM26.03 30.81V18.59C26.03 18.45 25.98 18.32 25.88 18.22C25.78 18.12 25.64 18.06 25.5 18.06H18.06C17.92 18.06 17.79 18.12 17.69 18.22C17.59 18.32 17.53 18.45 17.53 18.59V30.81H5.84V15.68L17 7.56L28.16 15.68V30.81H26.03ZM30.81 30.81H29.22V26.56C29.5 26.56 29.77 26.67 29.97 26.87C30.17 27.07 30.28 27.34 30.28 27.63C30.28 27.75 30.26 27.87 30.21 27.98C30.18 28.07 30.17 28.16 30.19 28.24C30.2 28.33 30.23 28.41 30.29 28.48C30.34 28.56 30.41 28.61 30.49 28.65C30.57 28.69 30.66 28.7 30.75 28.7C30.77 28.69 30.8 28.69 30.83 28.69H30.83C31.11 28.69 31.38 28.8 31.58 29C31.78 29.21 31.89 29.48 31.88 29.76C31.88 30.04 31.77 30.31 31.57 30.51C31.37 30.7 31.09 30.81 30.81 30.81V30.81Z" fill="#616161"/>
<path d="M14.88 18.06H8.5C8.36 18.06 8.22 18.12 8.12 18.22C8.02 18.32 7.97 18.45 7.97 18.59V26.03C7.97 26.17 8.02 26.31 8.12 26.41C8.22 26.51 8.36 26.56 8.5 26.56H14.88C15.02 26.56 15.15 26.51 15.25 26.41C15.35 26.31 15.41 26.17 15.41 26.03V18.59C15.41 18.45 15.35 18.32 15.25 18.22C15.15 18.12 15.02 18.06 14.88 18.06ZM14.34 21.78H12.22V19.13H14.34V21.78ZM11.16 19.13V21.78H9.03V19.13H11.16ZM9.03 22.84H11.16V25.5H9.03V22.84ZM12.22 25.5V22.84H14.34V25.5H12.22Z" fill="#616161"/>
<path d="M20.68 24.64C20.79 24.37 20.66 24.06 20.39 23.95C20.12 23.83 19.81 23.96 19.7 24.23C19.58 24.51 19.71 24.82 19.98 24.93C20.26 25.04 20.57 24.91 20.68 24.64Z" fill="#616161"/>

</symbol><symbol id="vacations_1" width="34" height="34" viewBox="0 0 34 34">
<g clip-path="url(#clip0_89_910)">
<path d="M33.5 21.22H13.29L12.25 14.91C13.05 14.98 13.73 15.59 13.86 16.41C13.98 17.09 14.95 16.84 14.85 16.25C14.45 13.83 18.03 13.41 18.4 15.67C18.5 16.26 19.5 16.18 19.39 15.5C19.02 13.28 22.4 12.62 22.92 14.79C22.96 15.59 24.07 15.38 23.9 14.6C23.34 11.49 21.63 8.77 19.06 6.93C16.47 5.07 13.31 4.32 10.16 4.82C10.16 4.82 10.16 4.82 10.16 4.82L10.14 4.83C10.14 4.83 10.14 4.83 10.14 4.83C10.13 4.83 10.12 4.83 10.11 4.83C10.11 4.83 10.1 4.83 10.1 4.83C10.1 4.83 10.1 4.83 10.09 4.83C10.09 4.83 10.09 4.83 10.09 4.83C10.09 4.83 10.09 4.83 10.09 4.83C3.54 5.91 -0.91 12.11 0.17 18.66C0.27 19.3 1.34 19.15 1.23 18.49C1.07 17.52 1.74 16.58 2.71 16.42C3.66 16.26 4.63 16.97 4.78 17.91C4.89 18.53 5.88 18.42 5.77 17.74C5.41 15.55 8.7 14.82 9.29 16.98C9.48 17.69 10.39 17.76 10.3 16.91C10.21 16.2 10.66 15.41 11.28 15.09L12.28 21.22H0.5C0.23 21.22 0.01 21.44 0.01 21.71C0.01 21.99 0.23 22.21 0.5 22.21H12.45L12.96 25.35C11.96 24.66 10.91 24.03 9.76 23.64C8.11 23.08 6.22 23.07 4.45 23.63C2.68 24.19 1.13 25.27 0.1 26.68C-0.07 26.9 -0.02 27.21 0.2 27.38C0.43 27.54 0.74 27.49 0.9 27.27C1.81 26.03 3.18 25.07 4.75 24.58C6.32 24.08 7.98 24.09 9.44 24.58C10.99 25.11 12.4 26.15 13.76 27.15C15.68 28.57 17.67 30.04 20.13 30.16C20.24 30.16 20.35 30.16 20.45 30.16C21.82 30.16 23.11 29.75 24.22 29.36C24.48 29.27 24.61 28.98 24.52 28.72C24.43 28.47 24.14 28.33 23.88 28.42C22.77 28.81 21.48 29.23 20.18 29.16C18.02 29.06 16.24 27.74 14.35 26.35C14.27 26.29 14.18 26.22 14.09 26.16C14.1 26.13 14.09 26.1 14.09 26.06L13.46 22.21H33.5C33.78 22.21 34 21.99 34 21.71C34 21.44 33.78 21.22 33.5 21.22ZM13.46 14.27C12.33 13.63 10.88 13.86 10.01 14.83C9.74 12.67 9.62 10.66 9.67 9.02C9.74 6.59 10.16 5.87 10.31 5.81C10.31 5.81 10.31 5.81 10.31 5.81C10.47 5.82 11.1 6.37 11.95 8.65C12.52 10.19 13.05 12.14 13.49 14.28C13.48 14.28 13.47 14.27 13.46 14.27ZM14.48 14.17C14.02 11.87 13.44 9.78 12.82 8.16C12.46 7.18 12.08 6.41 11.72 5.86C12.86 6.12 14.01 6.87 15.05 8.07C16.27 9.46 17.24 11.33 17.86 13.45C17.34 13.19 16.74 13.1 16.17 13.2C15.48 13.31 14.89 13.67 14.48 14.17ZM22.32 12.66C21.14 12.13 19.7 12.49 18.92 13.54C17.98 10.06 16.17 7.29 14.07 5.85C15.64 6.14 17.14 6.78 18.48 7.74C20.24 9 21.55 10.7 22.32 12.66ZM3.01 15.4C2.29 15.4 1.51 15.73 1.01 16.23C1.18 12.39 3.36 8.92 6.65 7.08C6.11 7.79 5.65 8.67 5.3 9.67C5.08 10.28 6.02 10.61 6.23 10C6.86 8.23 7.83 6.94 8.99 6.27C8.82 6.9 8.72 7.75 8.68 8.83C8.61 10.57 8.74 12.75 9.04 15.08C7.91 14.37 6.41 14.56 5.5 15.54C5.45 14.44 5.5 13.35 5.66 12.31C5.76 11.68 4.78 11.53 4.68 12.16C4.5 13.35 4.44 14.58 4.52 15.84C4.08 15.56 3.55 15.4 3.01 15.4Z" fill="#616161"/>
<path d="M28.48 8.28C30 8.28 31.24 7.04 31.24 5.52C31.24 4 30 2.76 28.48 2.76C26.96 2.76 25.72 4 25.72 5.52C25.72 7.04 26.96 8.28 28.48 8.28ZM28.48 3.76C29.45 3.76 30.24 4.55 30.24 5.52C30.24 6.49 29.45 7.28 28.48 7.28C27.51 7.28 26.72 6.49 26.72 5.52C26.72 4.55 27.51 3.76 28.48 3.76Z" fill="#616161"/>
<path d="M28.48 2.18C28.76 2.18 28.98 1.96 28.98 1.68V0.5C28.98 0.23 28.76 0 28.48 0C28.21 0 27.98 0.23 27.98 0.5V1.68C27.98 1.96 28.21 2.18 28.48 2.18Z" fill="#616161"/>
<path d="M27.98 9.36V10.54C27.98 10.82 28.21 11.04 28.48 11.04C28.76 11.04 28.98 10.82 28.98 10.54V9.36C28.98 9.09 28.76 8.87 28.48 8.87C28.21 8.87 27.98 9.09 27.98 9.36Z" fill="#616161"/>
<path d="M31.2 3.3C31.33 3.3 31.45 3.25 31.55 3.16L32.38 2.32C32.58 2.13 32.58 1.81 32.38 1.62C32.19 1.43 31.87 1.43 31.68 1.62L30.85 2.45C30.65 2.65 30.65 2.96 30.85 3.16C30.94 3.25 31.07 3.3 31.2 3.3Z" fill="#616161"/>
<path d="M25.41 7.89L24.58 8.72C24.38 8.91 24.38 9.23 24.58 9.42C24.68 9.52 24.8 9.57 24.93 9.57C25.06 9.57 25.19 9.52 25.28 9.42L26.12 8.59C26.31 8.4 26.31 8.08 26.12 7.89C25.92 7.69 25.61 7.69 25.41 7.89Z" fill="#616161"/>
<path d="M31.83 5.52C31.83 5.8 32.05 6.02 32.32 6.02H33.5C33.78 6.02 34 5.8 34 5.52C34 5.25 33.78 5.02 33.5 5.02H32.32C32.05 5.02 31.83 5.25 31.83 5.52Z" fill="#616161"/>
<path d="M23.46 6.02H24.64C24.91 6.02 25.14 5.8 25.14 5.52C25.14 5.25 24.91 5.02 24.64 5.02H23.46C23.19 5.02 22.96 5.25 22.96 5.52C22.96 5.8 23.19 6.02 23.46 6.02Z" fill="#616161"/>
<path d="M30.85 7.89C30.65 8.08 30.65 8.4 30.85 8.59L31.68 9.42C31.78 9.52 31.9 9.57 32.03 9.57C32.16 9.57 32.29 9.52 32.38 9.42C32.58 9.23 32.58 8.91 32.38 8.72L31.55 7.89C31.36 7.69 31.04 7.69 30.85 7.89Z" fill="#616161"/>
<path d="M25.41 3.16C25.51 3.25 25.64 3.3 25.76 3.3C25.89 3.3 26.02 3.25 26.12 3.16C26.31 2.96 26.31 2.65 26.12 2.45L25.28 1.62C25.09 1.43 24.77 1.43 24.58 1.62C24.38 1.81 24.38 2.13 24.58 2.32L25.41 3.16Z" fill="#616161"/>
<path d="M2.28 28.26C1.64 28.26 1.64 29.26 2.28 29.26C2.92 29.26 2.92 28.26 2.28 28.26Z" fill="#616161"/>
<path d="M9.16 31.04C8.52 31.04 8.51 32.04 9.16 32.04C9.8 32.04 9.8 31.04 9.16 31.04Z" fill="#616161"/>
<path d="M10.89 27.28C10.25 27.28 10.25 28.27 10.89 28.27C11.53 28.27 11.53 27.28 10.89 27.28Z" fill="#616161"/>
<path d="M24.09 33C23.45 33 23.44 34 24.09 34C24.73 34 24.73 33 24.09 33Z" fill="#616161"/>
<path d="M29.99 30.23C29.35 30.23 29.35 31.23 29.99 31.23C30.63 31.23 30.63 30.23 29.99 30.23Z" fill="#616161"/>
<path d="M19.32 25.65C19.04 25.65 18.82 25.87 18.82 26.14C18.82 26.42 19.04 26.64 19.32 26.64H23.15C23.42 26.64 23.65 26.42 23.65 26.14C23.65 25.87 23.42 25.65 23.15 25.65H19.32Z" fill="#616161"/>
<path d="M31.24 24.11C31.24 23.83 31.02 23.61 30.74 23.61H22.18C21.9 23.61 21.68 23.83 21.68 24.11C21.68 24.38 21.9 24.61 22.18 24.61H30.74C31.02 24.61 31.24 24.38 31.24 24.11Z" fill="#616161"/>
<path d="M33.81 28.78C31.91 27.19 29.68 26.73 27 27.39C26.73 27.45 26.57 27.72 26.63 27.99C26.7 28.26 26.97 28.42 27.24 28.35C29.59 27.78 31.53 28.17 33.17 29.54C33.26 29.62 33.38 29.66 33.49 29.66C33.63 29.66 33.77 29.6 33.87 29.48C34.05 29.27 34.02 28.96 33.81 28.78Z" fill="#616161"/>
</g>
<defs>
<clipPath id="clip0_89_910">
<rect width="34" height="34" fill="white"/>
</clipPath>
</defs>

</symbol><symbol id="apartment_1" width="34" height="34" viewBox="0 0 34 34">
<path d="M14.34 7.97H16.47C16.61 7.97 16.74 7.91 16.84 7.81C16.94 7.71 17 7.58 17 7.44V4.25C17 4.11 16.94 3.97 16.84 3.87C16.74 3.77 16.61 3.72 16.47 3.72H14.34C14.2 3.72 14.07 3.77 13.97 3.87C13.87 3.97 13.81 4.11 13.81 4.25V7.44C13.81 7.58 13.87 7.71 13.97 7.81C14.07 7.91 14.2 7.97 14.34 7.97ZM14.88 4.78H15.94V6.91H14.88V4.78Z" fill="#616161"/>
<path d="M18.59 7.97H20.72C20.86 7.97 20.99 7.91 21.09 7.81C21.19 7.71 21.25 7.58 21.25 7.44V4.25C21.25 4.11 21.19 3.97 21.09 3.87C20.99 3.77 20.86 3.72 20.72 3.72H18.59C18.45 3.72 18.32 3.77 18.22 3.87C18.12 3.97 18.06 4.11 18.06 4.25V7.44C18.06 7.58 18.12 7.71 18.22 7.81C18.32 7.91 18.45 7.97 18.59 7.97ZM19.13 4.78H20.19V6.91H19.13V4.78Z" fill="#616161"/>
<path d="M22.84 7.97H24.97C25.11 7.97 25.24 7.91 25.34 7.81C25.44 7.71 25.5 7.58 25.5 7.44V4.25C25.5 4.11 25.44 3.97 25.34 3.87C25.24 3.77 25.11 3.72 24.97 3.72H22.84C22.7 3.72 22.57 3.77 22.47 3.87C22.37 3.97 22.31 4.11 22.31 4.25V7.44C22.31 7.58 22.37 7.71 22.47 7.81C22.57 7.91 22.7 7.97 22.84 7.97ZM23.38 4.78H24.44V6.91H23.38V4.78Z" fill="#616161"/>
<path d="M14.34 13.28H16.47C16.61 13.28 16.74 13.23 16.84 13.13C16.94 13.03 17 12.89 17 12.75V9.56C17 9.42 16.94 9.29 16.84 9.19C16.74 9.09 16.61 9.03 16.47 9.03H14.34C14.2 9.03 14.07 9.09 13.97 9.19C13.87 9.29 13.81 9.42 13.81 9.56V12.75C13.81 12.89 13.87 13.03 13.97 13.13C14.07 13.23 14.2 13.28 14.34 13.28ZM14.88 10.09H15.94V12.22H14.88V10.09Z" fill="#616161"/>
<path d="M18.59 13.28H20.72C20.86 13.28 20.99 13.23 21.09 13.13C21.19 13.03 21.25 12.89 21.25 12.75V9.56C21.25 9.42 21.19 9.29 21.09 9.19C20.99 9.09 20.86 9.03 20.72 9.03H18.59C18.45 9.03 18.32 9.09 18.22 9.19C18.12 9.29 18.06 9.42 18.06 9.56V12.75C18.06 12.89 18.12 13.03 18.22 13.13C18.32 13.23 18.45 13.28 18.59 13.28ZM19.13 10.09H20.19V12.22H19.13V10.09Z" fill="#616161"/>
<path d="M22.84 13.28H24.97C25.11 13.28 25.24 13.23 25.34 13.13C25.44 13.03 25.5 12.89 25.5 12.75V9.56C25.5 9.42 25.44 9.29 25.34 9.19C25.24 9.09 25.11 9.03 24.97 9.03H22.84C22.7 9.03 22.57 9.09 22.47 9.19C22.37 9.29 22.31 9.42 22.31 9.56V12.75C22.31 12.89 22.37 13.03 22.47 13.13C22.57 13.23 22.7 13.28 22.84 13.28ZM23.38 10.09H24.44V12.22H23.38V10.09Z" fill="#616161"/>
<path d="M10.09 7.97H12.22C12.36 7.97 12.49 7.91 12.59 7.81C12.69 7.71 12.75 7.58 12.75 7.44V4.25C12.75 4.11 12.69 3.97 12.59 3.87C12.49 3.77 12.36 3.72 12.22 3.72H10.09C9.95 3.72 9.82 3.77 9.72 3.87C9.62 3.97 9.56 4.11 9.56 4.25V7.44C9.56 7.58 9.62 7.71 9.72 7.81C9.82 7.91 9.95 7.97 10.09 7.97ZM10.63 4.78H11.69V6.91H10.63V4.78Z" fill="#616161"/>
<path d="M10.09 13.28H12.22C12.36 13.28 12.49 13.23 12.59 13.13C12.69 13.03 12.75 12.89 12.75 12.75V9.56C12.75 9.42 12.69 9.29 12.59 9.19C12.49 9.09 12.36 9.03 12.22 9.03H10.09C9.95 9.03 9.82 9.09 9.72 9.19C9.62 9.29 9.56 9.42 9.56 9.56V12.75C9.56 12.89 9.62 13.03 9.72 13.13C9.82 13.23 9.95 13.28 10.09 13.28ZM10.63 10.09H11.69V12.22H10.63V10.09Z" fill="#616161"/>
<path d="M14.34 18.59H16.47C16.61 18.59 16.74 18.54 16.84 18.44C16.94 18.34 17 18.2 17 18.06V14.88C17 14.73 16.94 14.6 16.84 14.5C16.74 14.4 16.61 14.34 16.47 14.34H14.34C14.2 14.34 14.07 14.4 13.97 14.5C13.87 14.6 13.81 14.73 13.81 14.88V18.06C13.81 18.2 13.87 18.34 13.97 18.44C14.07 18.54 14.2 18.59 14.34 18.59ZM14.88 15.41H15.94V17.53H14.88V15.41Z" fill="#616161"/>
<path d="M10.09 18.59H12.22C12.36 18.59 12.49 18.54 12.59 18.44C12.69 18.34 12.75 18.2 12.75 18.06V14.88C12.75 14.73 12.69 14.6 12.59 14.5C12.49 14.4 12.36 14.34 12.22 14.34H10.09C9.95 14.34 9.82 14.4 9.72 14.5C9.62 14.6 9.56 14.73 9.56 14.88V18.06C9.56 18.2 9.62 18.34 9.72 18.44C9.82 18.54 9.95 18.59 10.09 18.59ZM10.63 15.41H11.69V17.53H10.63V15.41Z" fill="#616161"/>
<path d="M18.59 18.59H20.72C20.86 18.59 20.99 18.54 21.09 18.44C21.19 18.34 21.25 18.2 21.25 18.06V14.88C21.25 14.73 21.19 14.6 21.09 14.5C20.99 14.4 20.86 14.34 20.72 14.34H18.59C18.45 14.34 18.32 14.4 18.22 14.5C18.12 14.6 18.06 14.73 18.06 14.88V18.06C18.06 18.2 18.12 18.34 18.22 18.44C18.32 18.54 18.45 18.59 18.59 18.59ZM19.13 15.41H20.19V17.53H19.13V15.41Z" fill="#616161"/>
<path d="M22.84 18.59H24.97C25.11 18.59 25.24 18.54 25.34 18.44C25.44 18.34 25.5 18.2 25.5 18.06V14.88C25.5 14.73 25.44 14.6 25.34 14.5C25.24 14.4 25.11 14.34 24.97 14.34H22.84C22.7 14.34 22.57 14.4 22.47 14.5C22.37 14.6 22.31 14.73 22.31 14.88V18.06C22.31 18.2 22.37 18.34 22.47 18.44C22.57 18.54 22.7 18.59 22.84 18.59ZM23.38 15.41H24.44V17.53H23.38V15.41Z" fill="#616161"/>
<path d="M14.34 23.91H16.47C16.61 23.91 16.74 23.85 16.84 23.75C16.94 23.65 17 23.52 17 23.38V20.19C17 20.05 16.94 19.91 16.84 19.81C16.74 19.71 16.61 19.66 16.47 19.66H14.34C14.2 19.66 14.07 19.71 13.97 19.81C13.87 19.91 13.81 20.05 13.81 20.19V23.38C13.81 23.52 13.87 23.65 13.97 23.75C14.07 23.85 14.2 23.91 14.34 23.91ZM14.88 20.72H15.94V22.84H14.88V20.72Z" fill="#616161"/>
<path d="M10.09 23.91H12.22C12.36 23.91 12.49 23.85 12.59 23.75C12.69 23.65 12.75 23.52 12.75 23.38V20.19C12.75 20.05 12.69 19.91 12.59 19.81C12.49 19.71 12.36 19.66 12.22 19.66H10.09C9.95 19.66 9.82 19.71 9.72 19.81C9.62 19.91 9.56 20.05 9.56 20.19V23.38C9.56 23.52 9.62 23.65 9.72 23.75C9.82 23.85 9.95 23.91 10.09 23.91ZM10.63 20.72H11.69V22.84H10.63V20.72Z" fill="#616161"/>
<path d="M18.59 23.91H20.72C20.86 23.91 20.99 23.85 21.09 23.75C21.19 23.65 21.25 23.52 21.25 23.38V20.19C21.25 20.05 21.19 19.91 21.09 19.81C20.99 19.71 20.86 19.66 20.72 19.66H18.59C18.45 19.66 18.32 19.71 18.22 19.81C18.12 19.91 18.06 20.05 18.06 20.19V23.38C18.06 23.52 18.12 23.65 18.22 23.75C18.32 23.85 18.45 23.91 18.59 23.91ZM19.13 20.72H20.19V22.84H19.13V20.72Z" fill="#616161"/>
<path d="M22.84 23.91H24.97C25.11 23.91 25.24 23.85 25.34 23.75C25.44 23.65 25.5 23.52 25.5 23.38V20.19C25.5 20.05 25.44 19.91 25.34 19.81C25.24 19.71 25.11 19.66 24.97 19.66H22.84C22.7 19.66 22.57 19.71 22.47 19.81C22.37 19.91 22.31 20.05 22.31 20.19V23.38C22.31 23.52 22.37 23.65 22.47 23.75C22.57 23.85 22.7 23.91 22.84 23.91ZM23.38 20.72H24.44V22.84H23.38V20.72Z" fill="#616161"/>
<path d="M32.41 20.72H27.63V2.13C27.63 1.98 27.57 1.85 27.47 1.75C27.37 1.65 27.23 1.59 27.09 1.59H7.97C7.83 1.59 7.69 1.65 7.59 1.75C7.49 1.85 7.44 1.98 7.44 2.13V21.19C6.99 20.9 6.47 20.74 5.94 20.72C5.41 20.7 4.89 20.83 4.42 21.08C3.96 21.34 3.57 21.71 3.3 22.17C3.03 22.63 2.88 23.15 2.88 23.68C2.88 23.97 2.93 24.27 3.02 24.55C2.36 24.78 1.81 25.24 1.46 25.84C1.11 26.45 0.99 27.15 1.11 27.84C1.23 28.52 1.59 29.14 2.12 29.59C2.65 30.04 3.33 30.28 4.02 30.28C4.47 30.28 4.91 30.17 5.31 29.97V31.88C5.31 32.02 5.37 32.15 5.47 32.25C5.57 32.35 5.7 32.41 5.84 32.41C5.98 32.41 6.12 32.35 6.22 32.25C6.32 32.15 6.38 32.02 6.38 31.88V29.97C6.71 30.13 7.07 30.23 7.44 30.26V31.88C7.44 32.02 7.49 32.15 7.59 32.25C7.69 32.35 7.83 32.41 7.97 32.41H31.34C31.48 32.41 31.62 32.35 31.72 32.25C31.82 32.15 31.88 32.02 31.88 31.88V23.91H32.41C32.55 23.91 32.68 23.85 32.78 23.75C32.88 23.65 32.94 23.52 32.94 23.38V21.25C32.94 21.11 32.88 20.97 32.78 20.87C32.68 20.77 32.55 20.72 32.41 20.72ZM5.84 27.09C5.7 27.09 5.57 27.15 5.47 27.25C5.37 27.35 5.31 27.48 5.31 27.63V28.69C4.97 29.03 4.51 29.22 4.02 29.22C3.54 29.22 3.07 29.04 2.72 28.7C2.36 28.37 2.15 27.91 2.13 27.43C2.1 26.94 2.26 26.47 2.58 26.1C2.9 25.73 3.34 25.5 3.83 25.45C3.91 25.44 4 25.41 4.07 25.35C4.14 25.3 4.2 25.24 4.24 25.16C4.28 25.08 4.3 24.99 4.3 24.9C4.3 24.81 4.27 24.72 4.22 24.65C4.05 24.35 3.95 24.02 3.95 23.68C3.95 23.18 4.15 22.69 4.5 22.34C4.86 21.98 5.34 21.78 5.85 21.78C6.35 21.78 6.83 21.98 7.19 22.34C7.54 22.69 7.74 23.18 7.74 23.68C7.74 24.02 7.65 24.35 7.47 24.65C7.42 24.72 7.4 24.81 7.39 24.9C7.39 24.99 7.41 25.08 7.45 25.16C7.49 25.24 7.55 25.3 7.62 25.35C7.69 25.41 7.78 25.44 7.87 25.45C8.35 25.5 8.8 25.73 9.11 26.1C9.43 26.47 9.59 26.94 9.57 27.43C9.54 27.91 9.33 28.37 8.98 28.7C8.62 29.04 8.15 29.22 7.67 29.22C7.18 29.22 6.72 29.03 6.38 28.69V27.63C6.38 27.48 6.32 27.35 6.22 27.25C6.12 27.15 5.98 27.09 5.84 27.09ZM20.19 31.34H14.88V26.03H20.19V31.34ZM26.56 31.34H21.25V25.5C21.25 25.36 21.19 25.22 21.09 25.12C20.99 25.02 20.86 24.97 20.72 24.97H14.34C14.2 24.97 14.07 25.02 13.97 25.12C13.87 25.22 13.81 25.36 13.81 25.5V31.34H8.5V30.16C9.1 29.98 9.63 29.63 10.01 29.13C10.39 28.64 10.6 28.04 10.62 27.41C10.64 26.79 10.46 26.18 10.11 25.66C9.76 25.15 9.25 24.76 8.67 24.55C8.76 24.27 8.8 23.97 8.8 23.68C8.8 23.23 8.7 22.78 8.5 22.38V2.66H26.56V31.34ZM30.81 31.34H27.63V23.91H30.81V31.34ZM31.88 22.84H27.63V21.78H31.88V22.84Z" fill="#616161"/>

</symbol><symbol id="island_1_1" width="34" height="34" viewBox="0 0 34 34">
<path d="M31.34 22.76H28.09C27.18 20.78 25.99 18.95 24.57 17.3C24.47 17.2 24.34 17.14 24.2 17.13C24.06 17.12 23.93 17.17 23.82 17.26C23.72 17.35 23.65 17.48 23.64 17.62C23.63 17.76 23.68 17.9 23.77 18C25.02 19.45 26.07 21.05 26.91 22.76H18.77C16.41 22.3 15.63 21.26 15.62 21.26C15.28 20.6 14.72 20.07 14.04 19.76C13.37 19.44 12.61 19.36 11.88 19.52C11.03 18.45 10.13 17.93 9.18 17.98C7.97 18.04 7.09 19.03 6.72 19.56C6.48 19.53 6.24 19.52 6.01 19.53C6.76 17.91 8.42 14.69 10.28 13.34C12.14 12.1 13.79 14.37 14.89 16.63C15.6 18.25 16.77 19.62 18.25 20.6C18.9 21.02 21.48 22.39 21.67 21.26C21.68 21.19 21.68 21.12 21.66 21.05C21.65 20.98 21.62 20.92 21.58 20.86C21.53 20.81 21.48 20.76 21.42 20.72C21.36 20.69 21.3 20.66 21.23 20.65C19.39 20.29 17.76 19.22 16.7 17.66C17.69 15.98 19.49 14.35 21.53 15.85C21.94 16.09 22.5 17.03 23.05 16.47C23.1 16.42 23.13 16.36 23.16 16.29C23.18 16.23 23.19 16.16 23.19 16.09C23.18 16.02 23.17 15.95 23.14 15.89C23.11 15.82 23.07 15.77 23.01 15.72C21.51 14.07 19.03 13.61 17.33 15.21C16.87 15.65 16.45 16.14 16.09 16.67C16.01 16.51 15.93 16.35 15.86 16.19C14.41 13.21 12.32 10.78 9.65 12.48C7.1 14.34 5.04 19.04 4.65 19.96C3.37 20.68 3.06 22.61 3.15 22.76H2.66C2.52 22.76 2.38 22.82 2.29 22.92C2.19 23.02 2.13 23.15 2.13 23.29C2.13 23.43 2.19 23.56 2.29 23.66C2.38 23.76 2.52 23.82 2.66 23.82C4.84 23.82 30.07 23.82 31.34 23.82C31.48 23.82 31.62 23.76 31.71 23.66C31.81 23.56 31.87 23.43 31.87 23.29C31.87 23.15 31.81 23.02 31.71 22.92C31.62 22.82 31.48 22.76 31.34 22.76ZM4.17 22.76C4.3 21.76 4.96 20.21 6.86 20.66C6.97 20.68 7.08 20.67 7.19 20.62C7.29 20.57 7.37 20.5 7.43 20.4C7.44 20.39 8.2 19.09 9.24 19.04C9.89 19 10.56 19.48 11.24 20.44C11.31 20.54 11.41 20.61 11.53 20.65C11.64 20.68 11.77 20.67 11.88 20.63C11.95 20.6 13.57 19.95 14.73 21.83C15.02 22.21 15.38 22.52 15.79 22.76H4.17Z" fill="#616161"/>
<path d="M27.93 25.88H6.07C5.93 25.88 5.79 25.93 5.7 26.03C5.6 26.13 5.54 26.27 5.54 26.41C5.54 26.55 5.6 26.68 5.7 26.78C5.79 26.88 5.93 26.94 6.07 26.94H27.93C28.07 26.94 28.21 26.88 28.3 26.78C28.4 26.68 28.46 26.55 28.46 26.41C28.46 26.27 28.4 26.13 28.3 26.03C28.21 25.93 28.07 25.88 27.93 25.88Z" fill="#616161"/>
<path d="M24.53 28.99H9.47C9.34 28.99 9.2 29.05 9.1 29.15C9.01 29.25 8.95 29.38 8.95 29.52C8.95 29.66 9.01 29.8 9.1 29.9C9.2 29.99 9.34 30.05 9.47 30.05H24.53C24.66 30.05 24.8 29.99 24.9 29.9C24.99 29.8 25.05 29.66 25.05 29.52C25.05 29.38 24.99 29.25 24.9 29.15C24.8 29.05 24.66 28.99 24.53 28.99Z" fill="#616161"/>
<path d="M24.53 11.23C27.8 11.13 27.8 6.37 24.53 6.27C21.25 6.37 21.25 11.13 24.53 11.23ZM24.53 7.33C24.9 7.33 25.26 7.49 25.52 7.75C25.78 8.02 25.93 8.37 25.93 8.75C25.93 9.12 25.78 9.48 25.52 9.75C25.26 10.01 24.9 10.16 24.53 10.17C24.15 10.16 23.8 10.01 23.53 9.75C23.27 9.48 23.12 9.12 23.12 8.75C23.12 8.37 23.27 8.02 23.53 7.75C23.8 7.49 24.15 7.33 24.53 7.33Z" fill="#616161"/>
<path d="M24.53 5.52C24.66 5.52 24.79 5.47 24.89 5.37C24.99 5.27 25.04 5.14 25.04 5C25.04 4.86 24.99 4.73 24.89 4.63C24.79 4.54 24.66 4.48 24.53 4.48C24.39 4.48 24.26 4.54 24.16 4.63C24.06 4.73 24.01 4.86 24.01 5C24.01 5.14 24.06 5.27 24.16 5.37C24.26 5.47 24.39 5.52 24.53 5.52Z" fill="#616161"/>
<path d="M22.25 6.47C22.34 6.37 22.39 6.24 22.39 6.1C22.39 5.96 22.34 5.83 22.24 5.74C22.14 5.64 22.01 5.58 21.87 5.58C21.74 5.58 21.6 5.63 21.51 5.73C21.41 5.83 21.36 5.96 21.36 6.1C21.36 6.23 21.42 6.36 21.51 6.46C21.61 6.56 21.74 6.61 21.88 6.61C22.01 6.62 22.15 6.56 22.25 6.47Z" fill="#616161"/>
<path d="M20.78 9.27C20.92 9.27 21.05 9.21 21.14 9.12C21.24 9.02 21.29 8.89 21.29 8.75C21.29 8.61 21.24 8.48 21.14 8.38C21.05 8.28 20.92 8.23 20.78 8.23C20.64 8.23 20.51 8.28 20.41 8.38C20.32 8.48 20.26 8.61 20.26 8.75C20.26 8.89 20.32 9.02 20.41 9.12C20.51 9.21 20.64 9.27 20.78 9.27Z" fill="#616161"/>
<path d="M22.25 11.77C22.34 11.67 22.39 11.54 22.39 11.4C22.39 11.26 22.34 11.13 22.24 11.04C22.14 10.94 22.01 10.88 21.87 10.88C21.74 10.88 21.6 10.93 21.51 11.03C21.41 11.13 21.36 11.26 21.36 11.4C21.36 11.53 21.42 11.66 21.51 11.76C21.61 11.86 21.74 11.91 21.88 11.91C22.01 11.92 22.15 11.86 22.25 11.77Z" fill="#616161"/>
<path d="M24 12.5C24 12.63 24.06 12.76 24.16 12.86C24.26 12.96 24.39 13.01 24.53 13.01C24.66 13.01 24.79 12.96 24.89 12.86C24.99 12.76 25.05 12.63 25.05 12.5C25.05 12.36 24.99 12.23 24.89 12.13C24.79 12.03 24.66 11.98 24.53 11.98C24.39 11.98 24.26 12.03 24.16 12.13C24.06 12.23 24 12.36 24 12.5Z" fill="#616161"/>
<path d="M26.81 11.03C26.71 11.13 26.66 11.26 26.66 11.4C26.66 11.53 26.72 11.66 26.81 11.76C26.91 11.86 27.04 11.91 27.18 11.91C27.31 11.92 27.45 11.86 27.55 11.77C27.64 11.67 27.69 11.54 27.69 11.4C27.69 11.26 27.63 11.13 27.54 11.04C27.44 10.94 27.31 10.88 27.17 10.88C27.04 10.88 26.9 10.93 26.81 11.03Z" fill="#616161"/>
<path d="M28.27 9.27C28.41 9.27 28.54 9.21 28.64 9.12C28.73 9.02 28.79 8.89 28.79 8.75C28.79 8.61 28.73 8.48 28.64 8.38C28.54 8.28 28.41 8.23 28.27 8.23C28.14 8.23 28 8.28 27.91 8.38C27.81 8.48 27.76 8.61 27.76 8.75C27.76 8.89 27.81 9.02 27.91 9.12C28 9.21 28.14 9.27 28.27 9.27Z" fill="#616161"/>
<path d="M27.54 6.47C27.64 6.37 27.69 6.24 27.69 6.1C27.69 5.96 27.63 5.83 27.54 5.74C27.44 5.64 27.31 5.58 27.17 5.58C27.04 5.58 26.9 5.63 26.81 5.73C26.71 5.83 26.66 5.96 26.66 6.1C26.66 6.23 26.72 6.36 26.81 6.46C26.91 6.56 27.04 6.61 27.18 6.61C27.31 6.62 27.45 6.56 27.54 6.47Z" fill="#616161"/>

</symbol><symbol id="swimming_pool_1" width="34" height="34" viewBox="0 0 34 34">
<g clip-path="url(#clip0_89_913)">
<path d="M33.78 21.72C33.55 21.56 33.24 21.62 33.09 21.85C33.05 21.91 32.04 23.35 30.2 23.35C28.36 23.35 27.35 21.91 27.31 21.85C27.13 21.56 26.67 21.56 26.49 21.85C26.48 21.87 25.46 23.35 23.6 23.35C22.04 23.35 21.09 22.32 20.8 21.97V14.23H33.5C33.78 14.23 34 14.01 34 13.74C34 13.46 33.78 13.24 33.5 13.24H29.49V9.6C29.49 6.3 26.84 3.59 23.57 3.56C21.97 3.54 20.46 4.16 19.32 5.29C18.76 5.84 18.33 6.47 18.03 7.16C17.11 5.06 15.04 3.58 12.63 3.56C12.61 3.56 12.59 3.56 12.57 3.56C10.99 3.56 9.5 4.17 8.37 5.29C7.23 6.42 6.6 7.93 6.6 9.53V13.24H0.54C0.26 13.24 0.04 13.46 0.04 13.74C0.04 14.01 0.26 14.23 0.54 14.23H6.6V16.21C6.6 16.48 6.82 16.7 7.1 16.7C7.37 16.7 7.6 16.48 7.6 16.21V9.53C7.6 8.19 8.12 6.94 9.07 6C10.02 5.06 11.28 4.54 12.62 4.56C15.34 4.58 17.54 6.85 17.54 9.6V13.24H16.28V9.53C16.28 7.52 14.65 5.85 12.64 5.82C12.61 5.82 12.59 5.82 12.57 5.82C11.61 5.82 10.7 6.19 10 6.88C9.27 7.59 8.86 8.58 8.86 9.59V22.98C8.19 22.65 7.77 22.17 7.6 21.96V18.2C7.6 17.93 7.37 17.7 7.1 17.7C6.82 17.7 6.6 17.93 6.6 18.2V21.97C6.32 22.32 5.36 23.35 3.8 23.35C1.96 23.35 0.95 21.91 0.91 21.85C0.76 21.62 0.45 21.56 0.22 21.72C-0.01 21.87 -0.07 22.18 0.08 22.41C0.14 22.49 1.41 24.35 3.8 24.35C5.43 24.35 6.54 23.48 7.1 22.9C7.66 23.48 8.77 24.35 10.4 24.35C12.03 24.35 13.14 23.48 13.7 22.9C14.26 23.48 15.37 24.35 17 24.35C18.63 24.35 19.74 23.48 20.3 22.9C20.86 23.48 21.97 24.35 23.6 24.35C25.23 24.35 26.34 23.48 26.9 22.9C27.46 23.48 28.57 24.35 30.2 24.35C32.59 24.35 33.86 22.49 33.91 22.41C34.07 22.18 34.01 21.87 33.78 21.72ZM9.86 17.7H17.54V19.1H9.86V17.7ZM17.54 16.7H9.86V14.23H17.54V16.7ZM10.7 7.59C11.22 7.08 11.9 6.8 12.62 6.82C14.09 6.84 15.29 8.06 15.29 9.53V13.24H9.86V9.59C9.86 8.84 10.16 8.12 10.7 7.59ZM14.11 21.85C13.93 21.56 13.47 21.56 13.29 21.85C13.24 21.91 12.24 23.35 10.4 23.35C10.21 23.35 10.03 23.33 9.86 23.3V20.1H17.54V23.3C17.37 23.33 17.19 23.35 17 23.35C15.16 23.35 14.15 21.91 14.11 21.85ZM18.54 22.98V9.53C18.54 8.19 19.07 6.94 20.02 6C20.97 5.06 22.23 4.54 23.57 4.56C26.28 4.58 28.49 6.85 28.49 9.6V13.24H27.23V12.13C27.23 11.85 27 11.63 26.73 11.63C26.45 11.63 26.23 11.85 26.23 12.13V13.24H20.8V9.59C20.8 8.84 21.11 8.12 21.64 7.59C22.16 7.08 22.85 6.8 23.56 6.82C25.03 6.84 26.23 8.06 26.23 9.53V10.13C26.23 10.41 26.45 10.63 26.73 10.63C27 10.63 27.23 10.41 27.23 10.13V9.53C27.23 7.52 25.59 5.85 23.58 5.82C23.56 5.82 23.54 5.82 23.52 5.82C22.55 5.82 21.64 6.19 20.94 6.88C20.22 7.59 19.8 8.58 19.8 9.59V21.96C19.63 22.17 19.21 22.65 18.54 22.98Z" fill="#616161"/>
<path d="M13.7 29.44C11.86 29.44 10.86 28.01 10.82 27.95C10.63 27.66 10.17 27.66 9.99 27.95C9.95 28.01 8.94 29.44 7.1 29.44C5.26 29.44 4.25 28.01 4.21 27.95C4.06 27.72 3.75 27.66 3.52 27.81C3.29 27.97 3.23 28.28 3.39 28.5C3.44 28.58 4.72 30.44 7.1 30.44C8.73 30.44 9.84 29.57 10.4 29C10.96 29.57 12.07 30.44 13.7 30.44C13.98 30.44 14.2 30.22 14.2 29.94C14.2 29.67 13.98 29.44 13.7 29.44Z" fill="#616161"/>
<path d="M30.48 27.81C30.25 27.66 29.94 27.72 29.79 27.95C29.75 28.01 28.74 29.44 26.9 29.44C25.06 29.44 24.06 28.01 24.02 27.95C23.83 27.66 23.37 27.66 23.19 27.95C23.18 27.96 22.16 29.44 20.3 29.44C18.46 29.44 17.45 28.01 17.41 27.95C17.23 27.66 16.77 27.66 16.59 27.95C16.58 27.95 16.18 28.54 15.44 28.97C15.2 29.11 15.12 29.41 15.26 29.65C15.4 29.89 15.7 29.97 15.94 29.83C16.4 29.56 16.75 29.25 17 29C17.56 29.57 18.67 30.44 20.3 30.44C21.93 30.44 23.04 29.57 23.6 29C24.16 29.57 25.27 30.44 26.9 30.44C29.29 30.44 30.56 28.58 30.61 28.5C30.77 28.28 30.71 27.97 30.48 27.81Z" fill="#616161"/>
</g>
<defs>
<clipPath id="clip0_89_913">
<rect width="34" height="34" fill="white"/>
</clipPath>
</defs>

</symbol><symbol id="tent_1" width="34" height="34" viewBox="0 0 34 34">
<path d="M32.27 25.61C32.03 25.55 31.77 25.71 31.72 25.98L31.61 26.56C30.07 24.89 25.66 19.82 23.22 13.89C23.14 13.73 23 13.63 22.79 13.6H14.08C14 13.49 13.92 13.39 13.84 13.28V12.01C14.26 12.43 14.77 12.8 15.3 13.07C15.54 13.18 15.8 13.1 15.94 12.86C16.04 12.62 15.96 12.32 15.72 12.22C14.95 11.82 14.32 11.24 13.84 10.55V9.48C14.16 9.78 14.5 10.01 14.88 10.2C15.11 10.31 15.38 10.2 15.49 9.99C15.59 9.75 15.51 9.48 15.27 9.38C14.69 9.08 14.18 8.63 13.84 8.07V6.93C14.03 7.09 14.24 7.2 14.45 7.3C14.69 7.41 14.95 7.33 15.09 7.09C15.19 6.85 15.11 6.59 14.88 6.45C14.18 6.08 13.92 5.6 13.79 5.45C13.6 5.18 13.2 5.18 13.02 5.45C12.94 5.53 12.64 6.08 11.93 6.45C11.69 6.56 11.61 6.85 11.71 7.09C11.82 7.3 12.09 7.41 12.32 7.3C12.54 7.2 12.75 7.07 12.94 6.93V8.07C12.56 8.63 12.09 9.06 11.5 9.38C11.26 9.48 11.16 9.78 11.29 9.99C11.42 10.2 11.69 10.33 11.9 10.2C12.27 10.01 12.62 9.78 12.94 9.48V10.55C12.46 11.26 11.82 11.85 11.05 12.22C10.81 12.32 10.73 12.62 10.84 12.83C10.94 13.04 11.24 13.15 11.45 13.04C11.98 12.78 12.48 12.4 12.91 11.98V13.25C12.83 13.36 12.75 13.47 12.67 13.57H11.21C11 13.57 10.84 13.71 10.78 13.87C10.31 14.98 9.8 16.07 9.22 17.13C8.69 16.71 8.23 16.2 7.86 15.65V14.37C8.29 14.8 8.79 15.17 9.32 15.43C9.56 15.54 9.83 15.46 9.96 15.22C10.07 14.98 9.99 14.69 9.75 14.58C8.98 14.18 8.34 13.6 7.86 12.91V11.85C8.18 12.14 8.53 12.38 8.9 12.56C9.14 12.67 9.4 12.59 9.54 12.35C9.64 12.11 9.56 11.82 9.32 11.71C8.74 11.42 8.23 10.97 7.89 10.44V9.3C8.07 9.46 8.29 9.56 8.5 9.67C8.74 9.78 9 9.67 9.11 9.46C9.22 9.22 9.14 8.95 8.9 8.85C8.21 8.47 7.94 8 7.81 7.84C7.62 7.57 7.22 7.57 7.04 7.84C6.96 7.92 6.67 8.47 5.95 8.85C5.71 8.98 5.63 9.24 5.76 9.48C5.87 9.7 6.14 9.78 6.37 9.7C6.59 9.59 6.8 9.46 6.99 9.32V10.47C6.61 11.02 6.14 11.45 5.55 11.74C5.31 11.85 5.23 12.14 5.34 12.35C5.45 12.56 5.74 12.67 5.95 12.56C6.32 12.38 6.67 12.14 6.99 11.85V12.91C6.51 13.63 5.87 14.21 5.1 14.58C4.86 14.69 4.78 14.98 4.89 15.19C4.99 15.41 5.29 15.51 5.5 15.41C6.03 15.14 6.53 14.77 6.96 14.34V15.67C6.37 16.55 5.58 17.27 4.65 17.74C4.41 17.85 4.3 18.12 4.44 18.35C4.54 18.59 4.81 18.7 5.05 18.57H5.07C5.79 18.22 6.43 17.72 6.99 17.13V20.82C5.55 22.87 4.04 24.78 2.39 26.56L2.26 25.95C2.2 25.71 1.97 25.53 1.7 25.58C1.43 25.63 1.27 25.87 1.33 26.14L1.91 28.93C1.97 29.17 2.2 29.35 2.47 29.3C2.71 29.25 2.9 29.01 2.84 28.74L2.63 27.68C4.17 26.03 5.6 24.3 6.91 22.5V23.27L4.67 28.66C4.54 28.98 4.78 29.3 5.1 29.3H28.87C29.19 29.3 29.43 28.95 29.3 28.66L26.3 21.38C27.81 23.61 29.51 25.71 31.34 27.65L31.13 28.71C31.08 28.95 31.24 29.22 31.5 29.27C31.74 29.32 32.01 29.17 32.06 28.9L32.65 26.11C32.7 25.9 32.54 25.66 32.27 25.61ZM14.34 28.37L14.18 27.65C16.02 25.69 17.72 23.59 19.23 21.38L16.34 28.37H14.34ZM23.24 23.38L25.05 28.4H23.24V23.38ZM23.99 22.71L27.12 26.06L25.85 27.84L23.99 22.71ZM23.24 20.53V16.42L26.3 23.83L23.24 20.53ZM7.86 17.19C8.13 17.48 8.45 17.74 8.77 17.98C8.47 18.49 8.18 18.99 7.86 19.47V17.19ZM11.53 14.56H22.07C19.6 20.16 15.46 24.94 13.97 26.56L13.84 25.95C13.79 25.71 13.55 25.53 13.28 25.58C13.04 25.63 12.86 25.87 12.91 26.14L13.39 28.37H5.82L11.53 14.56ZM22.31 16.42V20.72V28.37H17.37L22.31 16.42ZM26.62 28.37L27.6 26.99L28.18 28.37H26.62Z" fill="#616161"/>
<path d="M23.8 5.55C24.01 5.39 24.04 5.1 23.91 4.91C23.83 4.81 23.69 4.73 23.56 4.73C21.65 4.6 20 6.06 19.87 7.97C19.74 9.88 21.2 11.53 23.11 11.66C24.36 11.74 25.58 11.13 26.24 10.07C26.38 9.85 26.32 9.56 26.11 9.43C26 9.35 25.85 9.35 25.74 9.38C24.6 9.72 23.38 9.11 23.03 7.97C22.74 7.04 23.06 6.08 23.8 5.55ZM24.65 10.36C23.45 11.08 21.89 10.7 21.17 9.51C20.37 8.18 20.93 6.43 22.37 5.84C21.57 7.36 22.13 9.22 23.64 10.04C23.93 10.17 24.28 10.31 24.65 10.36Z" fill="#616161"/>

</symbol><symbol id="palm_tree_1" width="34" height="34" viewBox="0 0 34 34">
<g clip-path="url(#clip0_89_915)">
<path d="M22.97 8.7C22.57 8.7 22.15 8.77 21.81 8.89C21.09 7.23 19.84 6.1 18.09 5.52C15.67 4.73 13.85 5.07 12.69 5.55C14.44 3.69 16.65 3.74 17.99 4.01C18.33 4.08 18.67 3.95 18.87 3.67C19.07 3.39 19.1 3.03 18.93 2.73C18.42 1.81 17.51 0.63 16.06 0.22C14.91 -0.11 13.64 0.1 12.29 0.85C10.64 1.77 9.81 3.24 9.87 5.1C9.88 5.18 9.88 5.25 9.88 5.32C9.34 4.9 8.61 4.5 7.65 4.25C7.38 4.18 7.11 4.34 7.04 4.61C6.97 4.88 7.13 5.15 7.4 5.22C8.61 5.53 9.37 6.11 9.82 6.61C8.12 6.39 6.38 6.99 4.63 8.39C3.02 9.67 1.77 11.37 1.07 12.42C0.82 10.3 1.18 8.59 2.16 7.32C2.92 6.33 3.8 5.99 3.81 5.99C3.98 5.93 4.1 5.79 4.13 5.61C4.16 5.44 4.1 5.26 3.97 5.15L3.9 5.09C4.41 5.02 4.89 4.99 5.35 4.98C5.63 4.98 5.85 4.76 5.85 4.48C5.85 4.21 5.62 3.98 5.35 3.99C4.79 3.99 4.21 4.04 3.61 4.13C3.24 4.18 2.96 4.43 2.85 4.78C2.79 4.98 2.8 5.18 2.87 5.36C2.47 5.61 1.92 6.02 1.41 6.66C0.56 7.73 -0.35 9.68 0.13 12.9C0.19 13.26 0.45 13.55 0.81 13.62C0.88 13.64 0.94 13.64 1 13.64C1.29 13.64 1.57 13.49 1.73 13.24C2.34 12.28 3.61 10.48 5.25 9.17C6.6 8.08 7.93 7.55 9.22 7.57C8.55 7.93 7.72 8.45 6.88 9.19C5.12 10.75 2.99 13.59 2.82 18.27C2.81 18.59 2.98 18.89 3.26 19.06C3.39 19.13 3.54 19.17 3.69 19.17C3.86 19.17 4.02 19.13 4.16 19.04C4.83 18.61 6.07 17.66 7.27 15.88C7.41 16.05 7.61 16.16 7.83 16.19C8.11 16.22 8.38 16.12 8.57 15.91C8.77 15.7 9.06 15.37 9.38 14.94C9.06 19.63 9.06 26.93 11.09 33.58C11.16 33.8 11.36 33.93 11.57 33.93C11.62 33.93 11.67 33.93 11.72 33.91C11.98 33.83 12.13 33.55 12.05 33.29C11.8 32.48 11.58 31.66 11.39 30.83H11.93C12.21 30.83 12.43 30.61 12.43 30.34C12.43 30.06 12.21 29.84 11.93 29.84H11.18C10.82 28.08 10.58 26.31 10.43 24.59H11.44C11.72 24.59 11.94 24.37 11.94 24.1C11.94 23.82 11.72 23.6 11.44 23.6H10.36C10.31 22.92 10.28 22.26 10.26 21.6H10.91C11.19 21.6 11.41 21.38 11.41 21.11C11.41 20.83 11.19 20.61 10.91 20.61H10.23C10.18 17.6 10.35 14.88 10.53 13C10.65 12.72 10.77 12.44 10.88 12.13C11.06 12.62 11.27 13.08 11.48 13.49C11.54 14.95 11.63 16.35 11.76 17.69H11.25C10.97 17.69 10.75 17.91 10.75 18.18C10.75 18.46 10.97 18.68 11.25 18.68H11.87C12.18 21.5 12.63 24 13.15 26.2H11.93C11.66 26.2 11.43 26.42 11.43 26.69C11.43 26.97 11.66 27.19 11.93 27.19H13.4C14.07 29.82 14.83 31.97 15.53 33.63C15.61 33.82 15.79 33.93 15.99 33.93C16.05 33.93 16.11 33.92 16.18 33.9C16.43 33.79 16.55 33.5 16.45 33.24C14.93 29.61 13.08 23.6 12.56 15.16C12.8 15.47 13.02 15.72 13.21 15.91C13.4 16.12 13.66 16.22 13.94 16.19C14.17 16.16 14.37 16.05 14.51 15.88C14.94 16.53 15.42 17.12 15.92 17.64C15.68 18.73 15.69 19.79 15.74 20.47C15.76 20.82 16.01 21.1 16.35 21.19C16.41 21.2 16.47 21.21 16.53 21.21C16.81 21.21 17.07 21.07 17.21 20.82C17.91 19.67 19.64 17.32 22.52 16.37C22.34 16.51 22.16 16.66 21.98 16.82C20.56 18.07 18.85 20.35 18.71 24.11C18.7 24.41 18.85 24.68 19.11 24.83C19.23 24.9 19.37 24.94 19.51 24.94C19.65 24.94 19.8 24.9 19.93 24.82C20.46 24.48 21.43 23.74 22.37 22.38C22.49 22.48 22.63 22.54 22.79 22.56C23.04 22.59 23.29 22.5 23.46 22.31C23.56 22.21 23.66 22.09 23.78 21.96C23.72 22.85 23.64 23.74 23.54 24.61C23.51 24.88 23.7 25.13 23.98 25.16C23.99 25.16 24.01 25.16 24.03 25.16C24.28 25.16 24.5 24.98 24.53 24.72C24.69 23.3 24.8 21.83 24.86 20.34C24.99 20.08 25.12 19.81 25.24 19.52C25.29 19.66 25.35 19.8 25.41 19.93C25.54 21.22 25.67 23.08 25.66 25.24H25.51C25.23 25.24 25.01 25.46 25.01 25.73C25.01 26.01 25.23 26.23 25.51 26.23H25.65C25.64 26.57 25.63 26.92 25.61 27.27H25.17C24.9 27.27 24.67 27.49 24.67 27.77C24.67 28.04 24.9 28.26 25.17 28.26H25.56C25.45 29.9 25.24 31.62 24.89 33.34C24.84 33.61 25.01 33.87 25.28 33.92C25.32 33.93 25.35 33.93 25.38 33.93C25.62 33.93 25.82 33.77 25.87 33.53C26.75 29.2 26.74 24.81 26.56 21.79C26.73 22.01 26.88 22.19 27 22.31C27.18 22.5 27.43 22.59 27.68 22.56C27.83 22.54 27.98 22.48 28.1 22.38C29.04 23.74 30 24.48 30.53 24.82C30.66 24.9 30.81 24.94 30.96 24.94C31.1 24.94 31.23 24.9 31.36 24.83C31.61 24.68 31.77 24.41 31.76 24.11C31.62 20.35 29.9 18.07 28.49 16.82C27.96 16.36 27.44 16 26.98 15.72C27.85 15.81 28.75 16.23 29.66 16.95C30.95 17.99 31.95 19.41 32.43 20.17C32.58 20.4 32.83 20.54 33.1 20.54C33.16 20.54 33.22 20.53 33.27 20.52C33.6 20.45 33.84 20.19 33.89 19.86C34.28 17.26 33.54 15.68 32.85 14.81C32.43 14.28 31.97 13.94 31.64 13.74C31.65 13.62 31.64 13.5 31.61 13.38C31.5 13.03 31.2 12.78 30.84 12.73C29.03 12.5 27.74 12.78 26.82 13.21C26.99 12.06 26.63 11 25.76 10.09C24.89 9.18 23.95 8.72 22.97 8.7ZM22.48 11.89C23.22 12.29 23.94 12.97 24.37 14.09C24.29 14.04 24.2 13.99 24.1 13.94C23.69 13.72 23.14 13.51 22.47 13.41C22.5 12.89 22.51 12.38 22.48 11.89ZM22.95 9.69C23.66 9.71 24.36 10.07 25.04 10.78C26.23 12.01 25.9 13.35 25.47 14.21C24.64 11.42 22.45 10.63 21.14 10.4C21.6 10.03 22.23 9.68 22.95 9.69ZM17.77 6.47C19.26 6.96 20.31 7.92 20.91 9.34C20.61 9.54 20.34 9.76 20.13 9.97C19.9 10.19 19.82 10.51 19.93 10.81C20.03 11.1 20.29 11.31 20.6 11.34C20.85 11.36 21.14 11.41 21.44 11.49C21.51 12.07 21.52 12.69 21.48 13.34C21.4 13.34 21.32 13.34 21.24 13.34C19.89 11.15 17 7.65 12.11 6.99C13.09 6.32 14.97 5.55 17.77 6.47ZM12.77 1.72C13.56 1.28 14.3 1.06 14.98 1.06C15.26 1.06 15.53 1.1 15.78 1.17C16.8 1.47 17.5 2.28 17.93 2.98C16.32 2.72 13.1 2.71 11.01 6.13C10.72 4.91 10.65 2.9 12.77 1.72ZM7.96 15.11L7.71 14.68C7.62 14.53 7.46 14.44 7.28 14.44C7.28 14.44 7.28 14.44 7.28 14.44C7.1 14.44 6.94 14.53 6.85 14.68C5.75 16.55 4.55 17.57 3.83 18.06C4 14.72 5.24 12 7.51 9.97C8.58 9.01 9.65 8.44 10.32 8.14C10.27 8.82 10.3 9.48 10.38 10.09C10.01 12.56 8.64 14.35 7.96 15.11ZM14.93 14.68C14.84 14.53 14.67 14.43 14.5 14.44C14.32 14.44 14.16 14.53 14.07 14.68L13.82 15.11C12.87 14.06 11.04 11.54 11.33 8.08C12.11 8.42 13.57 9.18 14.93 10.61C15.12 10.81 15.43 10.82 15.63 10.63C15.83 10.44 15.84 10.13 15.65 9.93C15.08 9.33 14.5 8.84 13.95 8.44C17.03 9.49 19.03 11.78 20.15 13.48C19.95 13.52 19.75 13.57 19.55 13.62C19.04 13.77 18.61 13.96 18.22 14.19C17.93 13.33 17.54 12.51 17.06 11.75C16.92 11.52 16.61 11.45 16.38 11.59C16.14 11.74 16.07 12.05 16.22 12.28C16.71 13.07 17.1 13.93 17.39 14.84C16.88 15.34 16.52 15.93 16.27 16.54C15.78 15.99 15.33 15.37 14.93 14.68ZM16.7 19.78C16.67 17.94 17.14 15.34 19.82 14.58C20.46 14.4 21.03 14.33 21.55 14.33C22.66 14.33 23.47 14.67 24 15.02C20.18 15.48 17.81 18.15 16.7 19.78ZM22.92 21.43L22.79 21.21C22.7 21.06 22.54 20.97 22.36 20.96C22.36 20.96 22.36 20.96 22.36 20.96C22.18 20.96 22.02 21.06 21.93 21.21C21.14 22.54 20.3 23.33 19.73 23.75C19.9 21.21 20.87 19.14 22.61 17.59C23.44 16.85 24.26 16.4 24.79 16.16C24.95 18.7 23.67 20.57 22.92 21.43ZM30.74 23.75C30.17 23.33 29.32 22.54 28.54 21.21C28.45 21.06 28.28 20.96 28.1 20.96C27.93 20.97 27.76 21.06 27.68 21.21L27.55 21.43C26.99 20.78 26.02 19.43 25.74 17.6C25.79 17.16 25.82 16.7 25.79 16.22C26.31 16.46 27.07 16.89 27.83 17.57C29.58 19.12 30.56 21.2 30.74 23.75ZM32.97 19.17C31.81 17.47 29.48 14.7 26.63 14.7C26.54 14.7 26.45 14.7 26.36 14.71C27.02 14.1 28.28 13.44 30.58 13.71C30.51 13.81 30.49 13.94 30.51 14.06C30.54 14.24 30.67 14.38 30.83 14.44C30.86 14.45 33.31 15.39 32.97 19.17Z" fill="#616161"/>
<path d="M24.24 29.52H23.74C23.93 28.66 24.09 27.79 24.23 26.9C24.27 26.63 24.09 26.37 23.82 26.33C23.54 26.29 23.29 26.47 23.25 26.74C22.88 29.05 22.37 31.25 21.71 33.28C21.63 33.54 21.77 33.82 22.03 33.91C22.08 33.93 22.14 33.93 22.19 33.93C22.4 33.93 22.59 33.8 22.66 33.59C22.78 33.22 22.89 32.84 23 32.47H24.05C24.32 32.47 24.54 32.24 24.54 31.97C24.54 31.69 24.32 31.47 24.05 31.47H23.28C23.36 31.15 23.44 30.84 23.52 30.52H24.25C24.52 30.52 24.74 30.29 24.74 30.02C24.74 29.74 24.52 29.52 24.24 29.52Z" fill="#616161"/>
</g>
<defs>
<clipPath id="clip0_89_915">
<rect width="34" height="34" fill="white"/>
</clipPath>
</defs>

</symbol><symbol id="farm_1" width="34" height="34" viewBox="0 0 34 34">
<g clip-path="url(#clip0_89_916)">
<path d="M7.32 31.3L6.9 30.33C11.14 28.47 15.55 27.04 20.07 26.04C20.29 26 20.5 25.96 20.72 25.91V21.25H20.19C20.08 21.25 19.98 21.22 19.89 21.16C19.8 21.1 19.74 21.02 19.7 20.92C19.66 20.82 19.65 20.72 19.67 20.62C19.69 20.51 19.74 20.42 19.81 20.34L24.06 16.09C24.11 16.04 24.17 16 24.23 15.98C24.3 15.95 24.37 15.94 24.44 15.94C24.51 15.94 24.58 15.95 24.64 15.98C24.71 16 24.76 16.04 24.81 16.09L29.06 20.34C29.14 20.42 29.19 20.51 29.21 20.62C29.23 20.72 29.22 20.82 29.18 20.92C29.14 21.02 29.07 21.1 28.98 21.16C28.9 21.22 28.79 21.25 28.69 21.25H28.16V24.77C29.92 24.59 31.69 24.48 33.46 24.44L33.48 25.5C29.05 25.61 24.63 26.13 20.3 27.08C15.85 28.06 11.5 29.47 7.32 31.3ZM23.91 25.32C24.26 25.26 24.61 25.21 24.97 25.15V23.38H23.91V25.32ZM21.78 25.69C22.13 25.62 22.49 25.56 22.84 25.5V22.84C22.84 22.77 22.86 22.7 22.88 22.64C22.91 22.58 22.95 22.52 23 22.47C23.05 22.42 23.11 22.38 23.17 22.35C23.24 22.33 23.31 22.31 23.38 22.31H25.5C25.57 22.31 25.64 22.33 25.7 22.35C25.77 22.38 25.83 22.42 25.88 22.47C25.93 22.52 25.96 22.58 25.99 22.64C26.02 22.7 26.03 22.77 26.03 22.84V25.01C26.39 24.97 26.74 24.92 27.09 24.88V21.25H21.78V25.69ZM27.41 20.19L24.44 17.22L21.47 20.19H27.41Z" fill="#616161"/>
<path d="M11.26 32.37L10.89 31.38C13.89 30.28 16.96 29.38 20.07 28.7C24.47 27.74 28.95 27.2 33.46 27.09L33.48 28.16C29.05 28.26 24.63 28.79 20.3 29.74C17.23 30.41 14.21 31.29 11.26 32.37Z" fill="#616161"/>
<path d="M16.08 33.52L15.79 32.49C17.2 32.09 18.64 31.73 20.07 31.42C24.47 30.45 28.95 29.92 33.46 29.81L33.48 30.87C29.05 30.98 24.63 31.51 20.3 32.45C18.89 32.76 17.47 33.12 16.08 33.52Z" fill="#616161"/>
<path d="M4.78 7.89V4.78H4.25C4.14 4.78 4.04 4.75 3.95 4.69C3.86 4.62 3.79 4.54 3.75 4.43C3.71 4.33 3.71 4.22 3.74 4.12C3.76 4.01 3.82 3.92 3.9 3.85L7.62 0.66C7.72 0.58 7.84 0.53 7.97 0.53C8.1 0.53 8.22 0.58 8.31 0.66L12.03 3.85C12.12 3.92 12.17 4.01 12.2 4.12C12.23 4.22 12.22 4.33 12.19 4.43C12.15 4.54 12.08 4.62 11.99 4.69C11.9 4.75 11.8 4.78 11.69 4.78H11.16V8.91C12.98 9.26 14.8 9.66 16.6 10.11C18.3 10.54 19.85 10.97 21.25 11.38V9.51C20.77 9.43 20.34 9.17 20.04 8.79C19.75 8.4 19.61 7.92 19.66 7.44C19.66 6.61 20.23 2.55 21.78 2.55C23.33 2.55 23.91 6.61 23.91 7.44C23.95 7.92 23.82 8.4 23.52 8.79C23.22 9.17 22.79 9.43 22.31 9.51V11.71C23.73 12.15 24.98 12.56 26.03 12.94V11.1C25.55 11.03 25.12 10.77 24.82 10.38C24.53 10 24.39 9.51 24.44 9.03C24.44 8.2 25.02 4.14 26.56 4.14C28.11 4.14 28.69 8.2 28.69 9.03C28.74 9.51 28.6 10 28.3 10.38C28 10.77 27.57 11.03 27.09 11.1V13.33C28.3 13.78 29.19 14.15 29.73 14.39C30.9 14.89 32.06 15.43 33.17 15.99L32.7 16.94C31.6 16.39 30.46 15.86 29.31 15.36C25.1 13.61 20.77 12.2 16.34 11.14C11.13 9.83 5.83 8.95 0.49 8.5L0.58 7.44C1.98 7.56 3.38 7.71 4.78 7.89ZM27.63 9.03C27.63 7.83 26.99 5.6 26.56 5.23C26.13 5.6 25.5 7.83 25.5 9.03C25.5 9.77 25.83 10.09 26.56 10.09C27.3 10.09 27.63 9.77 27.63 9.03ZM22.84 7.44C22.84 6.24 22.21 4.01 21.78 3.64C21.35 4.01 20.72 6.24 20.72 7.44C20.72 8.17 21.05 8.5 21.78 8.5C22.52 8.5 22.84 8.17 22.84 7.44ZM7.44 8.26C7.79 8.32 8.15 8.37 8.5 8.43V6.91H7.44V8.26ZM5.84 8.03C6.02 8.05 6.2 8.08 6.38 8.1V6.38C6.38 6.31 6.39 6.24 6.42 6.17C6.44 6.11 6.48 6.05 6.53 6C6.58 5.95 6.64 5.91 6.7 5.88C6.77 5.86 6.84 5.84 6.91 5.84H9.03C9.1 5.84 9.17 5.86 9.23 5.88C9.3 5.91 9.36 5.95 9.41 6C9.46 6.05 9.5 6.11 9.52 6.17C9.55 6.24 9.56 6.31 9.56 6.38V8.61C9.74 8.65 9.92 8.68 10.09 8.71V4.78H5.84V8.03ZM10.25 3.72L7.97 1.76L5.69 3.72H10.25Z" fill="#616161"/>
<path d="M16.6 13.15C17.65 13.42 18.73 13.71 19.8 14.01L19.51 15.03C18.45 14.73 17.38 14.44 16.34 14.18C11.13 12.88 5.83 11.99 0.49 11.54L0.58 10.48C5.98 10.94 11.34 11.83 16.6 13.15Z" fill="#616161"/>
<path d="M16.6 15.95L17.13 16.09L16.87 17.12L16.34 16.98C11.13 15.68 5.83 14.79 0.49 14.34L0.58 13.28C5.98 13.74 11.34 14.63 16.6 15.95Z" fill="#616161"/>
<path d="M15 18.61L14.75 19.64C10.06 18.55 5.29 17.79 0.49 17.38L0.58 16.33C5.43 16.74 10.25 17.5 15 18.61Z" fill="#616161"/>
</g>
<defs>
<clipPath id="clip0_89_916">
<rect width="34" height="34" fill="white" transform="matrix(-1 0 0 1 34 0)"/>
</clipPath>
</defs>

</symbol><symbol id="living_room_1" width="34" height="34" viewBox="0 0 34 34">
<path d="M15.6 29.22H14.68C14.17 29.22 13.68 29.01 13.32 28.65C12.96 28.29 12.75 27.8 12.75 27.29V21.58C12.75 21.07 12.96 20.58 13.32 20.22C13.68 19.86 14.17 19.66 14.68 19.66H15.6C15.76 19.66 15.91 19.68 16.07 19.71C16.48 19.82 16.86 20.06 17.12 20.4C17.39 20.73 17.53 21.15 17.53 21.58V27.29C17.53 27.8 17.33 28.29 16.96 28.65C16.6 29.01 16.11 29.22 15.6 29.22ZM14.68 20.72C14.56 20.72 14.45 20.74 14.35 20.78C14.24 20.83 14.15 20.89 14.07 20.97C13.99 21.05 13.92 21.15 13.88 21.25C13.83 21.36 13.81 21.47 13.81 21.58V27.29C13.81 27.52 13.9 27.74 14.07 27.9C14.23 28.07 14.45 28.16 14.68 28.16H15.6C15.83 28.16 16.05 28.07 16.22 27.9C16.38 27.74 16.47 27.52 16.47 27.29V21.58C16.47 21.39 16.4 21.2 16.28 21.05C16.16 20.9 16 20.79 15.81 20.75C15.74 20.74 15.67 20.74 15.6 20.75L14.68 20.72Z" fill="#616161"/>
<path d="M30.48 29.22H29.55C29.04 29.22 28.55 29.01 28.19 28.65C27.83 28.29 27.63 27.8 27.63 27.29V21.58C27.62 21.15 27.77 20.73 28.03 20.4C28.3 20.06 28.67 19.82 29.09 19.71C29.24 19.68 29.4 19.66 29.55 19.66H30.48C30.99 19.66 31.48 19.86 31.84 20.22C32.2 20.58 32.4 21.07 32.41 21.58V27.29C32.4 27.8 32.2 28.29 31.84 28.65C31.48 29.01 30.99 29.22 30.48 29.22ZM29.55 20.72C29.48 20.71 29.42 20.71 29.35 20.72C29.15 20.77 28.98 20.88 28.86 21.04C28.74 21.19 28.68 21.39 28.69 21.58V27.29C28.69 27.52 28.78 27.74 28.94 27.9C29.1 28.07 29.32 28.16 29.55 28.16H30.48C30.71 28.16 30.93 28.07 31.09 27.9C31.25 27.74 31.34 27.52 31.34 27.29V21.58C31.34 21.47 31.32 21.36 31.28 21.25C31.23 21.15 31.17 21.05 31.09 20.97C31.01 20.89 30.91 20.83 30.81 20.78C30.7 20.74 30.59 20.72 30.48 20.72H29.55Z" fill="#616161"/>
<path d="M11.69 26.56H1.59V20.19H11.69V26.56ZM2.66 25.5H10.63V21.25H2.66V25.5Z" fill="#616161"/>
<path d="M10.63 25.5H11.69V29.22H10.63V25.5Z" fill="#616161"/>
<path d="M1.59 25.5H2.66V29.22H1.59V25.5Z" fill="#616161"/>
<path d="M27.09 29.22H18.06C17.64 29.22 17.23 29.05 16.94 28.75C16.64 28.45 16.47 28.05 16.47 27.63V24.44H28.69V27.63C28.69 28.05 28.52 28.45 28.22 28.75C27.92 29.05 27.52 29.22 27.09 29.22ZM17.53 25.5V27.63C17.53 27.77 17.59 27.9 17.69 28C17.79 28.1 17.92 28.16 18.06 28.16H27.09C27.23 28.16 27.37 28.1 27.47 28C27.57 27.9 27.63 27.77 27.63 27.63V25.5H17.53Z" fill="#616161"/>
<path d="M28.69 25.5H16.47V23.91C16.47 23.2 16.75 22.53 17.25 22.03C17.74 21.53 18.42 21.25 19.13 21.25H26.03C26.74 21.25 27.41 21.53 27.91 22.03C28.41 22.53 28.69 23.2 28.69 23.91V25.5ZM17.53 24.44H27.63V23.91C27.63 23.48 27.46 23.08 27.16 22.78C26.86 22.48 26.45 22.31 26.03 22.31H19.13C18.7 22.31 18.3 22.48 18 22.78C17.7 23.08 17.53 23.48 17.53 23.91V24.44Z" fill="#616161"/>
<path d="M28.69 23.91H27.63C27.63 23.48 27.46 23.08 27.16 22.78C26.86 22.48 26.45 22.31 26.03 22.31H19.13C18.7 22.31 18.3 22.48 18 22.78C17.7 23.08 17.53 23.48 17.53 23.91H16.47V21.58C16.47 21.39 16.4 21.2 16.28 21.05C16.16 20.9 16 20.79 15.81 20.75L15.41 20.65V16.47C15.41 15.48 15.8 14.54 16.5 13.84C17.19 13.14 18.14 12.75 19.13 12.75H26.03C27.02 12.75 27.96 13.14 28.66 13.84C29.36 14.54 29.75 15.48 29.75 16.47V20.65L29.35 20.75C29.16 20.79 28.99 20.9 28.87 21.05C28.75 21.2 28.69 21.39 28.69 21.58V23.91ZM19.13 21.25H26.03C26.61 21.25 27.17 21.44 27.63 21.78V21.58C27.62 21.23 27.72 20.88 27.91 20.57C28.1 20.27 28.37 20.02 28.69 19.86V16.47C28.69 15.76 28.41 15.09 27.91 14.59C27.41 14.09 26.74 13.81 26.03 13.81H19.13C18.42 13.81 17.74 14.09 17.25 14.59C16.75 15.09 16.47 15.76 16.47 16.47V19.86C16.79 20.02 17.06 20.27 17.25 20.57C17.43 20.88 17.53 21.23 17.53 21.58V21.78C17.99 21.44 18.55 21.25 19.13 21.25Z" fill="#616161"/>
<path d="M5.31 22.84H7.97V23.91H5.31V22.84Z" fill="#616161"/>
<path d="M8.37 21.25H4.91L3.54 16.47H9.74L8.37 21.25ZM5.71 20.19H7.57L8.32 17.53H4.96L5.71 20.19Z" fill="#616161"/>
<path d="M6.64 17.53C6.5 17.53 6.37 17.52 6.24 17.49C5.24 17.32 4.34 16.8 3.68 16.04C3.03 15.27 2.66 14.29 2.66 13.28V12.75H3.19C4.18 12.74 5.13 13.09 5.9 13.72L6.09 13.87V14.12C6.09 14.77 6.28 15.4 6.64 15.94C7.01 15.4 7.2 14.77 7.21 14.13V13.88L7.41 13.72C8.16 13.1 9.11 12.75 10.09 12.75H10.63V13.28C10.63 14.31 10.26 15.3 9.59 16.08C8.92 16.86 8 17.38 6.98 17.53C6.87 17.54 6.75 17.54 6.64 17.53ZM8.26 14.37C8.22 15.01 8.04 15.63 7.73 16.18C8.2 15.97 8.61 15.64 8.92 15.23C9.24 14.83 9.45 14.35 9.54 13.84C9.08 13.92 8.64 14.1 8.26 14.38V14.37ZM3.75 13.84C3.85 14.34 4.06 14.82 4.38 15.23C4.69 15.63 5.1 15.96 5.56 16.18C5.25 15.62 5.07 15.01 5.03 14.37C4.65 14.1 4.21 13.92 3.75 13.84V13.84Z" fill="#616161"/>
<path d="M6.64 17.48L6.26 17.11C6.17 17.02 6.08 16.92 6 16.82C5.32 16 4.97 14.95 5.01 13.88C5.06 12.81 5.51 11.8 6.26 11.04L6.64 10.67L7.02 11.04C7.42 11.44 7.73 11.91 7.95 12.44C8.16 12.96 8.27 13.51 8.27 14.08V14.1C8.27 15.09 7.92 16.04 7.29 16.8C7.2 16.92 7.11 17.02 7.02 17.11L6.64 17.48ZM6.64 12.25C6.27 12.78 6.07 13.42 6.07 14.08C6.07 14.73 6.27 15.37 6.64 15.91C7.01 15.38 7.2 14.75 7.21 14.1C7.22 13.44 7.02 12.79 6.64 12.25Z" fill="#616161"/>
<path d="M12.75 10.63H13.81V23.38H12.75V10.63Z" fill="#616161"/>
<path d="M17.58 11.69H8.98L9.61 4.78H16.95L17.58 11.69ZM10.15 10.63H16.42L15.99 5.84H10.58L10.15 10.63Z" fill="#616161"/>

</symbol><symbol id="mansion_1" width="34" height="34" viewBox="0 0 34 34">
<g clip-path="url(#clip0_89_918)">
<path d="M32.94 9.03C33.08 9.03 33.21 8.98 33.31 8.88C33.41 8.78 33.47 8.64 33.47 8.5V6.38C33.47 6.23 33.41 6.1 33.31 6C33.21 5.9 33.08 5.84 32.94 5.84H32.03L24.2 0.62C24.11 0.56 24.01 0.53 23.91 0.53H10.09C9.99 0.53 9.89 0.56 9.8 0.62L1.97 5.84H1.06C0.92 5.84 0.79 5.9 0.69 6C0.59 6.1 0.53 6.23 0.53 6.38V8.5C0.53 8.64 0.59 8.78 0.69 8.88C0.79 8.98 0.92 9.03 1.06 9.03H1.59V21.54C1.27 21.73 1 22 0.82 22.32C0.63 22.64 0.53 23 0.53 23.38C0.53 23.8 0.7 24.2 1 24.5C1.3 24.8 1.7 24.97 2.13 24.97H6.38C6.8 24.97 7.2 24.8 7.5 24.5C7.8 24.2 7.97 23.8 7.97 23.38C7.97 23.2 7.94 23.02 7.9 22.84H8.5V24.44C8.5 24.58 8.56 24.71 8.66 24.81C8.76 24.91 8.89 24.97 9.03 24.97H11.16C11.3 24.97 11.43 24.91 11.53 24.81C11.63 24.71 11.69 24.58 11.69 24.44V22.84H13.56L11.75 27.36C4.43 28.16 0.53 30.61 0.53 32.94C0.53 33.08 0.59 33.21 0.69 33.31C0.79 33.41 0.92 33.47 1.06 33.47H7.44C7.58 33.47 7.71 33.41 7.81 33.31C7.91 33.21 7.97 33.08 7.97 32.94C7.97 31.83 11.4 30.28 17 30.28C22.6 30.28 26.03 31.83 26.03 32.94C26.03 33.08 26.09 33.21 26.19 33.31C26.29 33.41 26.42 33.47 26.56 33.47H32.94C33.08 33.47 33.21 33.41 33.31 33.31C33.41 33.21 33.47 33.08 33.47 32.94C33.47 30.61 29.57 28.16 22.25 27.36L20.44 22.84H22.31V24.44C22.31 24.58 22.37 24.71 22.47 24.81C22.57 24.91 22.7 24.97 22.84 24.97H24.97C25.11 24.97 25.24 24.91 25.34 24.81C25.44 24.71 25.5 24.58 25.5 24.44V22.84H26.1C26.06 23.02 26.03 23.2 26.03 23.38C26.03 23.8 26.2 24.2 26.5 24.5C26.8 24.8 27.2 24.97 27.63 24.97H31.88C32.3 24.97 32.7 24.8 33 24.5C33.3 24.2 33.47 23.8 33.47 23.38C33.47 23 33.37 22.64 33.18 22.32C33 22 32.73 21.73 32.41 21.54V9.03H32.94ZM32.41 7.97H23.69L22.25 6.91H32.41V7.97ZM9.56 11.16V10.09H24.44V11.16H9.56ZM17 4.38L23.35 9.03H20.89L17.31 6.47C17.22 6.41 17.11 6.37 17 6.37C16.89 6.37 16.78 6.41 16.69 6.47L13.11 9.03H10.65L17 4.38ZM19.06 9.03H14.94L17 7.56L19.06 9.03ZM10.25 1.59H23.75L30.12 5.84H20.8L17.31 3.29C17.22 3.22 17.11 3.19 17 3.19C16.89 3.19 16.78 3.22 16.69 3.29L13.2 5.84H3.88L10.25 1.59ZM1.59 6.91H11.76L10.31 7.97H1.59V6.91ZM6.38 23.91H2.13C1.98 23.91 1.85 23.85 1.75 23.75C1.65 23.65 1.59 23.52 1.59 23.38C1.59 23.1 1.7 22.83 1.9 22.63C2.1 22.43 2.36 22.32 2.64 22.31C2.65 22.31 2.71 22.32 2.72 22.32C2.81 22.33 2.9 22.31 2.98 22.27C3.06 22.24 3.13 22.18 3.18 22.11C3.23 22.04 3.27 21.96 3.28 21.87C3.29 21.78 3.29 21.69 3.26 21.61C3.2 21.48 3.18 21.33 3.19 21.19C3.2 21.04 3.24 20.9 3.32 20.78C3.39 20.64 3.49 20.52 3.61 20.42C3.73 20.32 3.88 20.25 4.03 20.21C4.29 20.15 4.56 20.2 4.78 20.34C4.86 20.38 4.95 20.41 5.05 20.41C5.14 20.41 5.23 20.38 5.32 20.34C5.54 20.2 5.82 20.15 6.08 20.22C6.28 20.26 6.46 20.37 6.6 20.51C6.75 20.66 6.85 20.85 6.89 21.05C6.92 21.21 6.91 21.37 6.87 21.53C6.82 21.69 6.74 21.84 6.63 21.96C6.54 22.05 6.49 22.18 6.49 22.31C6.49 22.44 6.54 22.57 6.63 22.67C6.81 22.86 6.91 23.11 6.91 23.38C6.91 23.52 6.85 23.65 6.75 23.75C6.65 23.85 6.52 23.91 6.38 23.91ZM7.89 21.78C7.97 21.48 7.99 21.16 7.93 20.85C7.85 20.45 7.66 20.08 7.37 19.78C7.09 19.48 6.72 19.27 6.32 19.18C5.9 19.08 5.45 19.11 5.05 19.28C4.65 19.12 4.22 19.08 3.8 19.17C3.35 19.28 2.95 19.52 2.66 19.88V9.03H8.86L8.72 9.13C8.65 9.18 8.6 9.25 8.56 9.32C8.52 9.4 8.5 9.48 8.5 9.56V21.78H7.89ZM9.56 23.91V12.22H10.63V23.91H9.56ZM20.19 21.78H19.13V17.53C19.13 16.97 18.9 16.43 18.5 16.03C18.1 15.63 17.56 15.41 17 15.41C16.44 15.41 15.9 15.63 15.5 16.03C15.1 16.43 14.88 16.97 14.88 17.53V21.78H13.81V17.53C13.81 16.69 14.15 15.88 14.75 15.28C15.34 14.68 16.15 14.34 17 14.34C17.85 14.34 18.66 14.68 19.25 15.28C19.85 15.88 20.19 16.69 20.19 17.53V21.78ZM18.06 21.78H15.94V17.53C15.94 17.25 16.05 16.98 16.25 16.78C16.45 16.58 16.72 16.47 17 16.47C17.28 16.47 17.55 16.58 17.75 16.78C17.95 16.98 18.06 17.25 18.06 17.53V21.78ZM32.29 32.41H27.01C26.31 30.33 21.52 29.22 17 29.22C12.48 29.22 7.69 30.33 6.99 32.41H1.71C2.6 30.3 8.63 28.16 17 28.16C25.37 28.16 31.4 30.3 32.29 32.41ZM21.06 27.25C19.8 27.15 18.45 27.09 17 27.09C15.55 27.09 14.2 27.15 12.94 27.25L14.7 22.84H19.3L21.06 27.25ZM21.25 21.78V17.53C21.25 16.4 20.8 15.32 20.01 14.53C19.21 13.73 18.13 13.28 17 13.28C15.87 13.28 14.79 13.73 13.99 14.53C13.2 15.32 12.75 16.4 12.75 17.53V21.78H11.69V12.22H22.31V21.78H21.25ZM23.38 23.91V12.22H24.44V23.91H23.38ZM31.88 23.91H27.63C27.48 23.91 27.35 23.85 27.25 23.75C27.15 23.65 27.09 23.52 27.09 23.38C27.09 23.11 27.19 22.86 27.37 22.67C27.46 22.57 27.51 22.44 27.51 22.31C27.51 22.18 27.46 22.05 27.37 21.96C27.26 21.84 27.18 21.69 27.13 21.53C27.09 21.37 27.08 21.21 27.11 21.05C27.16 20.85 27.25 20.66 27.4 20.51C27.54 20.37 27.72 20.26 27.92 20.22C28 20.2 28.08 20.19 28.16 20.19C28.34 20.19 28.53 20.24 28.69 20.34C28.77 20.38 28.86 20.41 28.95 20.41C29.05 20.41 29.14 20.38 29.22 20.34C29.45 20.2 29.72 20.15 29.97 20.21C30.12 20.25 30.27 20.32 30.39 20.42C30.51 20.52 30.61 20.64 30.68 20.78C30.76 20.9 30.8 21.04 30.81 21.19C30.82 21.33 30.8 21.48 30.75 21.61C30.72 21.69 30.71 21.78 30.72 21.87C30.73 21.96 30.77 22.04 30.82 22.11C30.87 22.18 30.94 22.24 31.02 22.28C31.1 22.31 31.19 22.33 31.28 22.32C31.29 22.32 31.33 22.31 31.35 22.31C31.63 22.31 31.9 22.43 32.1 22.62C32.3 22.82 32.41 23.09 32.41 23.38C32.41 23.45 32.39 23.51 32.37 23.58C32.34 23.64 32.3 23.7 32.25 23.75C32.2 23.8 32.14 23.84 32.08 23.87C32.01 23.89 31.94 23.91 31.88 23.91ZM31.34 19.88C31.05 19.52 30.64 19.28 30.2 19.17C29.78 19.08 29.35 19.12 28.95 19.28C28.55 19.11 28.1 19.08 27.68 19.18C27.28 19.27 26.91 19.48 26.63 19.78C26.34 20.08 26.15 20.45 26.07 20.85C26.01 21.16 26.03 21.48 26.11 21.78H25.5V9.56C25.5 9.48 25.48 9.4 25.44 9.32C25.4 9.25 25.35 9.18 25.28 9.13L25.14 9.03H31.34V19.88Z" fill="#616161"/>
<path d="M5.31 10.09C4.89 10.09 4.48 10.26 4.19 10.56C3.89 10.86 3.72 11.26 3.72 11.69V14.88C3.72 15.02 3.77 15.15 3.87 15.25C3.97 15.35 4.11 15.41 4.25 15.41H6.38C6.52 15.41 6.65 15.35 6.75 15.25C6.85 15.15 6.91 15.02 6.91 14.88V11.69C6.91 11.26 6.74 10.86 6.44 10.56C6.14 10.26 5.74 10.09 5.31 10.09ZM5.84 14.34H4.78V11.69C4.78 11.55 4.84 11.41 4.94 11.31C5.04 11.21 5.17 11.16 5.31 11.16C5.45 11.16 5.59 11.21 5.69 11.31C5.79 11.41 5.84 11.55 5.84 11.69V14.34Z" fill="#616161"/>
<path d="M27.63 15.41H29.75C29.89 15.41 30.03 15.35 30.13 15.25C30.23 15.15 30.28 15.02 30.28 14.88V11.69C30.28 11.26 30.11 10.86 29.81 10.56C29.52 10.26 29.11 10.09 28.69 10.09C28.26 10.09 27.86 10.26 27.56 10.56C27.26 10.86 27.09 11.26 27.09 11.69V14.88C27.09 15.02 27.15 15.15 27.25 15.25C27.35 15.35 27.48 15.41 27.63 15.41ZM28.16 11.69C28.16 11.55 28.21 11.41 28.31 11.31C28.41 11.21 28.55 11.16 28.69 11.16C28.83 11.16 28.96 11.21 29.06 11.31C29.16 11.41 29.22 11.55 29.22 11.69V14.34H28.16V11.69Z" fill="#616161"/>
</g>
<defs>
<clipPath id="clip0_89_918">
<rect width="34" height="34" fill="white"/>
</clipPath>
</defs>

</symbol><symbol id="villa_1" width="34" height="34" viewBox="0 0 34 34">
<path d="M30.03 15.87H28.9V11.33C28.9 11.06 28.71 10.83 28.45 10.78L23.23 9.74V8.72L24.59 9.13C24.64 9.15 24.7 9.15 24.75 9.15C25 9.15 25.22 8.99 25.3 8.75C25.39 8.45 25.22 8.13 24.92 8.04L22.92 7.43C22.89 7.41 22.86 7.4 22.84 7.39L20 6.54L9.8 3.42C9.5 3.33 9.19 3.5 9.1 3.8C9 4.1 9.17 4.41 9.47 4.51L10.77 4.91V9.74L5.55 10.78C5.29 10.83 5.1 11.06 5.1 11.33V15.87H3.97C3.66 15.87 3.4 16.12 3.4 16.43V30.03C3.4 30.35 3.66 30.6 3.97 30.6H14.73H19.27H30.03C30.34 30.6 30.6 30.35 30.6 30.03V16.43C30.6 16.12 30.34 15.87 30.03 15.87ZM27.77 11.8V15.87H23.23V10.89L27.77 11.8ZM22.1 8.37V10.2V15.87H11.9V10.2V5.29L19.67 7.62L22.1 8.37ZM6.23 11.8L10.77 10.89V15.87H6.23V11.8ZM15.3 29.47V23.8H18.7V29.47H15.3ZM29.47 29.47H19.83V23.8H20.97C21.28 23.8 21.53 23.55 21.53 23.23C21.53 22.92 21.28 22.67 20.97 22.67H19.27H14.73H13.03C12.72 22.67 12.47 22.92 12.47 23.23C12.47 23.55 12.72 23.8 13.03 23.8H14.17V29.47H4.53V17H5.67H11.33H22.67H28.33H29.47V29.47Z" fill="#616161"/>
<path d="M26.63 19.27H23.23C22.92 19.27 22.67 19.52 22.67 19.83V23.23C22.67 23.54 22.92 23.8 23.23 23.8H26.63C26.95 23.8 27.2 23.54 27.2 23.23V19.83C27.2 19.52 26.95 19.27 26.63 19.27ZM26.07 22.67H23.8V20.4H26.07V22.67Z" fill="#616161"/>
<path d="M10.77 19.27H7.37C7.06 19.27 6.8 19.52 6.8 19.83V23.23C6.8 23.54 7.06 23.8 7.37 23.8H10.77C11.08 23.8 11.33 23.54 11.33 23.23V19.83C11.33 19.52 11.08 19.27 10.77 19.27ZM10.2 22.67H7.93V20.4H10.2V22.67Z" fill="#616161"/>
<path d="M14.17 14.17H19.83C20.14 14.17 20.4 13.91 20.4 13.6V10.2C20.4 9.89 20.14 9.63 19.83 9.63H14.17C13.86 9.63 13.6 9.89 13.6 10.2V13.6C13.6 13.91 13.86 14.17 14.17 14.17ZM19.27 13.03H17.57V10.77H19.27V13.03ZM14.73 10.77H16.43V13.03H14.73V10.77Z" fill="#616161"/>

</symbol><symbol id="key_chain_1" width="34" height="34" viewBox="0 0 34 34">
<g clip-path="url(#clip0_89_920)">
<path fill-rule="evenodd" clip-rule="evenodd" d="M19.02 20.85L11.73 30.63C11.54 30.88 11.59 31.23 11.84 31.42C12.09 31.61 12.45 31.56 12.64 31.31L19.93 21.53C20.05 21.36 20.08 21.15 20 20.96C19.92 20.78 19.75 20.65 19.55 20.62C19.34 20.6 19.15 20.68 19.02 20.85L19.02 20.85Z" fill="#616161"/>
<path d="M1.24 23.54L4.26 24.55C4.36 24.59 4.47 24.6 4.58 24.61C4.75 24.6 4.93 24.56 5.08 24.47L15.42 18.27C15.56 18.64 15.71 19 15.9 19.35L14.09 21.78C13.93 21.99 13.87 22.25 13.9 22.5L14.05 23.55L12.93 23.88C12.51 24 12.22 24.39 12.23 24.82C12.24 25.06 12.27 25.3 12.32 25.53L12.36 25.81L11.23 26.15C10.77 26.29 10.48 26.74 10.55 27.22L10.67 28.09L9.58 28.41C8.7 28.67 8.16 29.57 8.37 30.47L8.99 33.24C9.08 33.68 9.47 34 9.92 34C9.95 34 9.98 34 10 34L13.18 33.78C13.47 33.77 13.74 33.62 13.91 33.39L21.35 23.41C24.16 23.98 27.06 22.98 28.93 20.8C30.8 18.62 31.34 15.61 30.35 12.91C32.75 11.27 33.9 8.33 33.25 5.49C32.6 2.65 30.28 0.51 27.4 0.08C24.52 -0.35 21.68 1.02 20.23 3.55C17.98 3.52 15.82 4.45 14.3 6.11C12.78 7.77 12.04 10 12.26 12.24L9.65 13.8C9.43 13.93 9.28 14.14 9.22 14.39L8.96 15.41L7.8 15.29C7.36 15.25 6.95 15.49 6.79 15.9C6.71 16.13 6.64 16.36 6.6 16.6L6.53 16.87L5.37 16.75C4.88 16.69 4.43 17 4.31 17.48L4.1 18.33L2.97 18.21C2.6 18.17 2.22 18.25 1.9 18.45C1.45 18.71 1.14 19.15 1.06 19.66L0.59 22.45C0.49 22.93 0.77 23.39 1.24 23.54ZM28.76 19.1C27.24 21.7 24.18 22.98 21.26 22.23C21.04 22.17 20.8 22.25 20.66 22.44L13.05 32.65L10.07 32.86L9.47 30.23C9.43 30.05 9.47 29.87 9.58 29.72C9.66 29.61 9.77 29.53 9.9 29.5L11.13 29.13C11.59 29 11.88 28.54 11.81 28.06L11.69 27.2L12.82 26.86C13.28 26.73 13.58 26.27 13.5 25.79L13.44 25.35C13.41 25.19 13.38 25.03 13.37 24.93L14.51 24.59C14.98 24.46 15.27 24 15.19 23.52L15.03 22.4L17.03 19.73C17.16 19.55 17.18 19.3 17.06 19.11C15.33 16.19 16.01 12.45 18.65 10.33C21.29 8.21 25.09 8.36 27.56 10.68C28.11 11.19 28.56 11.78 28.91 12.44C28.26 12.76 27.56 12.95 26.83 13C26.66 11.94 25.76 11.15 24.69 11.12C23.61 11.08 22.66 11.8 22.41 12.84C22.16 13.89 22.67 14.96 23.65 15.42C24.62 15.87 25.78 15.58 26.42 14.72C26.55 14.54 26.65 14.35 26.72 14.14C27.63 14.1 28.53 13.88 29.36 13.49C29.98 15.36 29.77 17.4 28.76 19.1ZM23.89 12.49C24.05 12.36 24.24 12.28 24.44 12.24C24.49 12.24 24.55 12.23 24.6 12.23C25.08 12.23 25.51 12.54 25.67 12.99C25.05 12.92 24.45 12.75 23.89 12.49H23.89ZM25.45 14.11C25.17 14.44 24.72 14.58 24.29 14.46C23.87 14.34 23.56 13.99 23.49 13.55C24.11 13.83 24.77 14.02 25.45 14.11L25.45 14.11ZM26.36 1.13C28.93 1.13 31.21 2.78 32.01 5.22C32.81 7.66 31.95 10.34 29.88 11.86C29.48 11.11 28.96 10.43 28.33 9.85C28.16 9.69 27.99 9.55 27.81 9.41C27.7 8.99 27.56 8.57 27.38 8.18C26.45 6.12 24.67 4.55 22.51 3.89C22.18 3.79 21.84 3.71 21.49 3.66C22.6 2.07 24.42 1.13 26.36 1.13ZM2.18 19.85C2.21 19.67 2.32 19.51 2.48 19.42C2.59 19.35 2.72 19.32 2.86 19.34L4.13 19.47C4.61 19.52 5.05 19.21 5.16 18.74L5.38 17.89L6.56 18.01C7.04 18.06 7.48 17.74 7.6 17.28L7.7 16.86C7.74 16.69 7.77 16.54 7.8 16.43L8.99 16.56C9.46 16.61 9.91 16.3 10.02 15.83L10.3 14.72L13.16 13.02C13.35 12.9 13.46 12.68 13.43 12.45C12.94 9.15 14.93 5.98 18.11 4.98C21.3 3.98 24.74 5.44 26.23 8.43C24.97 7.84 23.58 7.61 22.2 7.74C19.96 7.94 17.92 9.07 16.57 10.86C15.22 12.65 14.69 14.93 15.11 17.13L4.56 23.45L1.73 22.51L2.18 19.85Z" fill="#616161"/>
<path fill-rule="evenodd" clip-rule="evenodd" d="M13.76 16.62C14.03 16.46 14.11 16.11 13.95 15.85C13.79 15.58 13.45 15.49 13.18 15.65L4.12 21.08C3.94 21.18 3.83 21.37 3.84 21.58C3.84 21.78 3.95 21.97 4.13 22.07C4.31 22.17 4.53 22.16 4.7 22.05L13.76 16.62Z" fill="#616161"/>
</g>
<defs>
<clipPath id="clip0_89_920">
<rect width="34" height="34" fill="white"/>
</clipPath>
</defs>

</symbol><symbol id="castle_tower_1" width="34" height="34" viewBox="0 0 34 34">
<path d="M27.63 29.75H26.03L25 11.69H25.5C25.85 11.69 26.18 11.57 26.46 11.36C26.73 11.15 26.93 10.86 27.03 10.53C27.12 10.19 27.11 9.84 26.98 9.52C26.86 9.19 26.63 8.92 26.33 8.74L28.07 6.14C28.12 6.05 28.16 5.95 28.16 5.84V0.53C28.16 0.39 28.1 0.26 28 0.16C27.9 0.06 27.77 0 27.63 0L24.97 0C24.83 0 24.69 0.06 24.59 0.16C24.49 0.26 24.44 0.39 24.44 0.53V2.13H22.31V0.53C22.31 0.39 22.26 0.26 22.16 0.16C22.06 0.06 21.92 0 21.78 0L18.59 0C18.45 0 18.32 0.06 18.22 0.16C18.12 0.26 18.06 0.39 18.06 0.53V2.13H15.94V0.53C15.94 0.39 15.88 0.26 15.78 0.16C15.68 0.06 15.55 0 15.41 0L12.22 0C12.08 0 11.94 0.06 11.84 0.16C11.74 0.26 11.69 0.39 11.69 0.53V2.13H9.56V0.53C9.56 0.39 9.51 0.26 9.41 0.16C9.31 0.06 9.17 0 9.03 0L6.38 0C6.23 0 6.1 0.06 6 0.16C5.9 0.26 5.84 0.39 5.84 0.53V5.84C5.84 5.95 5.87 6.05 5.93 6.14L7.66 8.74C7.37 8.92 7.14 9.2 7.01 9.52C6.89 9.84 6.87 10.2 6.97 10.53C7.06 10.86 7.26 11.16 7.54 11.37C7.82 11.57 8.15 11.69 8.5 11.69H9L8 29.75H6.38C5.67 29.75 4.99 30.03 4.5 30.53C4 31.03 3.72 31.7 3.72 32.41V33.47C3.72 33.61 3.77 33.74 3.87 33.84C3.97 33.94 4.11 34 4.25 34H29.75C29.89 34 30.03 33.94 30.13 33.84C30.23 33.74 30.28 33.61 30.28 33.47V32.41C30.28 31.7 30 31.03 29.5 30.53C29.01 30.03 28.33 29.75 27.63 29.75ZM8.5 1.06V2.66C8.5 2.8 8.56 2.93 8.66 3.03C8.76 3.13 8.89 3.19 9.03 3.19H12.22C12.36 3.19 12.49 3.13 12.59 3.03C12.69 2.93 12.75 2.8 12.75 2.66V1.06H14.88V2.66C14.88 2.8 14.93 2.93 15.03 3.03C15.13 3.13 15.27 3.19 15.41 3.19H18.59C18.73 3.19 18.87 3.13 18.97 3.03C19.07 2.93 19.13 2.8 19.13 2.66V1.06H21.25V2.66C21.25 2.8 21.31 2.93 21.41 3.03C21.51 3.13 21.64 3.19 21.78 3.19H24.97C25.11 3.19 25.24 3.13 25.34 3.03C25.44 2.93 25.5 2.8 25.5 2.66V1.06H27.09V5.31H6.91V1.06H8.5ZM26.63 6.38L25.21 8.5H8.79L7.37 6.38H26.63ZM7.97 10.09C7.97 9.95 8.02 9.82 8.12 9.72C8.22 9.62 8.36 9.56 8.5 9.56H25.5C25.64 9.56 25.78 9.62 25.88 9.72C25.98 9.82 26.03 9.95 26.03 10.09C26.03 10.23 25.98 10.37 25.88 10.47C25.78 10.57 25.64 10.63 25.5 10.63H8.5C8.36 10.63 8.22 10.57 8.12 10.47C8.02 10.37 7.97 10.23 7.97 10.09ZM9.83 15.94H13.81C13.95 15.94 14.09 15.88 14.19 15.78C14.29 15.68 14.34 15.55 14.34 15.41C14.34 15.27 14.29 15.13 14.19 15.03C14.09 14.93 13.95 14.88 13.81 14.88H9.89L10.09 11.69H23.96L24.43 20.19H20.19C20.05 20.19 19.91 20.24 19.81 20.34C19.71 20.44 19.66 20.58 19.66 20.72C19.66 20.86 19.71 20.99 19.81 21.09C19.91 21.19 20.05 21.25 20.19 21.25H24.44L24.77 27.09H21.78C21.64 27.09 21.51 27.15 21.41 27.25C21.31 27.35 21.25 27.48 21.25 27.63C21.25 27.77 21.31 27.9 21.41 28C21.51 28.1 21.64 28.16 21.78 28.16H24.85L24.94 29.75H20.19V27.63C20.19 26.78 19.85 25.97 19.25 25.37C18.66 24.77 17.85 24.44 17 24.44C16.15 24.44 15.34 24.77 14.75 25.37C14.15 25.97 13.81 26.78 13.81 27.63V29.75H9.06L9.83 15.94ZM19.13 29.75H14.88V27.63C14.88 27.06 15.1 26.52 15.5 26.12C15.9 25.72 16.44 25.5 17 25.5C17.56 25.5 18.1 25.72 18.5 26.12C18.9 26.52 19.13 27.06 19.13 27.63V29.75ZM29.22 32.94H4.78V32.41C4.78 31.98 4.95 31.58 5.25 31.28C5.55 30.98 5.95 30.81 6.38 30.81H27.63C28.05 30.81 28.45 30.98 28.75 31.28C29.05 31.58 29.22 31.98 29.22 32.41V32.94Z" fill="#616161"/>
<path d="M11.16 22.31H14.34C14.48 22.31 14.62 22.26 14.72 22.16C14.82 22.06 14.88 21.92 14.88 21.78V20.19C14.88 19.62 14.65 19.08 14.25 18.68C13.85 18.29 13.31 18.06 12.75 18.06C12.19 18.06 11.65 18.29 11.25 18.68C10.85 19.08 10.63 19.62 10.63 20.19V21.78C10.63 21.92 10.68 22.06 10.78 22.16C10.88 22.26 11.02 22.31 11.16 22.31ZM11.69 20.19C11.69 19.91 11.8 19.64 12 19.44C12.2 19.24 12.47 19.13 12.75 19.13C13.03 19.13 13.3 19.24 13.5 19.44C13.7 19.64 13.81 19.91 13.81 20.19V21.25H11.69V20.19Z" fill="#616161"/>
<path d="M19.66 17H22.84C22.98 17 23.12 16.94 23.22 16.84C23.32 16.74 23.38 16.61 23.38 16.47V14.88C23.38 14.31 23.15 13.77 22.75 13.37C22.35 12.97 21.81 12.75 21.25 12.75C20.69 12.75 20.15 12.97 19.75 13.37C19.35 13.77 19.13 14.31 19.13 14.88V16.47C19.13 16.61 19.18 16.74 19.28 16.84C19.38 16.94 19.52 17 19.66 17ZM20.19 14.88C20.19 14.59 20.3 14.32 20.5 14.12C20.7 13.92 20.97 13.81 21.25 13.81C21.53 13.81 21.8 13.92 22 14.12C22.2 14.32 22.31 14.59 22.31 14.88V15.94H20.19V14.88Z" fill="#616161"/>
<path d="M18.59 20.19H17.53C17.39 20.19 17.26 20.24 17.16 20.34C17.06 20.44 17 20.58 17 20.72C17 20.86 17.06 20.99 17.16 21.09C17.26 21.19 17.39 21.25 17.53 21.25H18.59C18.73 21.25 18.87 21.19 18.97 21.09C19.07 20.99 19.13 20.86 19.13 20.72C19.13 20.58 19.07 20.44 18.97 20.34C18.87 20.24 18.73 20.19 18.59 20.19Z" fill="#616161"/>
<path d="M13.81 23.91H18.06C18.2 23.91 18.34 23.85 18.44 23.75C18.54 23.65 18.59 23.52 18.59 23.38C18.59 23.23 18.54 23.1 18.44 23C18.34 22.9 18.2 22.84 18.06 22.84H13.81C13.67 22.84 13.54 22.9 13.44 23C13.34 23.1 13.28 23.23 13.28 23.38C13.28 23.52 13.34 23.65 13.44 23.75C13.54 23.85 13.67 23.91 13.81 23.91Z" fill="#616161"/>
<path d="M19.13 23.38C19.13 23.52 19.18 23.65 19.28 23.75C19.38 23.85 19.52 23.91 19.66 23.91H20.72C20.86 23.91 20.99 23.85 21.09 23.75C21.19 23.65 21.25 23.52 21.25 23.38C21.25 23.23 21.19 23.1 21.09 23C20.99 22.9 20.86 22.84 20.72 22.84H19.66C19.52 22.84 19.38 22.9 19.28 23C19.18 23.1 19.13 23.23 19.13 23.38Z" fill="#616161"/>
<path d="M20.19 18.06H15.94C15.8 18.06 15.66 18.12 15.56 18.22C15.46 18.32 15.41 18.45 15.41 18.59C15.41 18.73 15.46 18.87 15.56 18.97C15.66 19.07 15.8 19.13 15.94 19.13H20.19C20.33 19.13 20.46 19.07 20.56 18.97C20.66 18.87 20.72 18.73 20.72 18.59C20.72 18.45 20.66 18.32 20.56 18.22C20.46 18.12 20.33 18.06 20.19 18.06Z" fill="#616161"/>
<path d="M22.84 18.06H21.78C21.64 18.06 21.51 18.12 21.41 18.22C21.31 18.32 21.25 18.45 21.25 18.59C21.25 18.73 21.31 18.87 21.41 18.97C21.51 19.07 21.64 19.13 21.78 19.13H22.84C22.98 19.13 23.12 19.07 23.22 18.97C23.32 18.87 23.38 18.73 23.38 18.59C23.38 18.45 23.32 18.32 23.22 18.22C23.12 18.12 22.98 18.06 22.84 18.06Z" fill="#616161"/>
<path d="M15.41 15.94H16.47C16.61 15.94 16.74 15.88 16.84 15.78C16.94 15.68 17 15.55 17 15.41C17 15.27 16.94 15.13 16.84 15.03C16.74 14.93 16.61 14.88 16.47 14.88H15.41C15.27 14.88 15.13 14.93 15.03 15.03C14.93 15.13 14.88 15.27 14.88 15.41C14.88 15.55 14.93 15.68 15.03 15.78C15.13 15.88 15.27 15.94 15.41 15.94Z" fill="#616161"/>
<path d="M12.22 27.09H11.16C11.02 27.09 10.88 27.15 10.78 27.25C10.68 27.35 10.63 27.48 10.63 27.63C10.63 27.77 10.68 27.9 10.78 28C10.88 28.1 11.02 28.16 11.16 28.16H12.22C12.36 28.16 12.49 28.1 12.59 28C12.69 27.9 12.75 27.77 12.75 27.63C12.75 27.48 12.69 27.35 12.59 27.25C12.49 27.15 12.36 27.09 12.22 27.09Z" fill="#616161"/>
<path d="M13.81 12.75H12.75C12.61 12.75 12.47 12.81 12.37 12.91C12.27 13.01 12.22 13.14 12.22 13.28C12.22 13.42 12.27 13.56 12.37 13.66C12.47 13.76 12.61 13.81 12.75 13.81H13.81C13.95 13.81 14.09 13.76 14.19 13.66C14.29 13.56 14.34 13.42 14.34 13.28C14.34 13.14 14.29 13.01 14.19 12.91C14.09 12.81 13.95 12.75 13.81 12.75Z" fill="#616161"/>

</symbol><symbol id="farm_1" width="34" height="34" viewBox="0 0 34 34">
<g clip-path="url(#clip0_89_922)">
<path d="M7.32 31.3L6.9 30.33C11.14 28.47 15.55 27.04 20.07 26.04C20.29 26 20.5 25.96 20.72 25.91V21.25H20.19C20.08 21.25 19.98 21.22 19.89 21.16C19.8 21.1 19.74 21.02 19.7 20.92C19.66 20.82 19.65 20.72 19.67 20.62C19.69 20.51 19.74 20.42 19.81 20.34L24.06 16.09C24.11 16.04 24.17 16 24.23 15.98C24.3 15.95 24.37 15.94 24.44 15.94C24.51 15.94 24.58 15.95 24.64 15.98C24.71 16 24.76 16.04 24.81 16.09L29.06 20.34C29.14 20.42 29.19 20.51 29.21 20.62C29.23 20.72 29.22 20.82 29.18 20.92C29.14 21.02 29.07 21.1 28.98 21.16C28.9 21.22 28.79 21.25 28.69 21.25H28.16V24.77C29.92 24.59 31.69 24.48 33.46 24.44L33.48 25.5C29.05 25.61 24.63 26.13 20.3 27.08C15.85 28.06 11.5 29.47 7.32 31.3ZM23.91 25.32C24.26 25.26 24.61 25.21 24.97 25.15V23.38H23.91V25.32ZM21.78 25.69C22.13 25.62 22.49 25.56 22.84 25.5V22.84C22.84 22.77 22.86 22.7 22.88 22.64C22.91 22.58 22.95 22.52 23 22.47C23.05 22.42 23.11 22.38 23.17 22.35C23.24 22.33 23.31 22.31 23.38 22.31H25.5C25.57 22.31 25.64 22.33 25.7 22.35C25.77 22.38 25.83 22.42 25.88 22.47C25.93 22.52 25.96 22.58 25.99 22.64C26.02 22.7 26.03 22.77 26.03 22.84V25.01C26.39 24.97 26.74 24.92 27.09 24.88V21.25H21.78V25.69ZM27.41 20.19L24.44 17.22L21.47 20.19H27.41Z" fill="#616161"/>
<path d="M11.26 32.37L10.89 31.38C13.89 30.28 16.96 29.38 20.07 28.7C24.47 27.74 28.95 27.2 33.46 27.09L33.48 28.16C29.05 28.26 24.63 28.79 20.3 29.74C17.23 30.41 14.21 31.29 11.26 32.37Z" fill="#616161"/>
<path d="M16.08 33.52L15.79 32.49C17.2 32.09 18.64 31.73 20.07 31.42C24.47 30.45 28.95 29.92 33.46 29.81L33.48 30.87C29.05 30.98 24.63 31.51 20.3 32.45C18.89 32.76 17.47 33.12 16.08 33.52Z" fill="#616161"/>
<path d="M4.78 7.89V4.78H4.25C4.14 4.78 4.04 4.75 3.95 4.69C3.86 4.62 3.79 4.54 3.75 4.43C3.71 4.33 3.71 4.22 3.74 4.12C3.76 4.01 3.82 3.92 3.9 3.85L7.62 0.66C7.72 0.58 7.84 0.53 7.97 0.53C8.1 0.53 8.22 0.58 8.31 0.66L12.03 3.85C12.12 3.92 12.17 4.01 12.2 4.12C12.23 4.22 12.22 4.33 12.19 4.43C12.15 4.54 12.08 4.62 11.99 4.69C11.9 4.75 11.8 4.78 11.69 4.78H11.16V8.91C12.98 9.26 14.8 9.66 16.6 10.11C18.3 10.54 19.85 10.97 21.25 11.38V9.51C20.77 9.43 20.34 9.17 20.04 8.79C19.75 8.4 19.61 7.92 19.66 7.44C19.66 6.61 20.23 2.55 21.78 2.55C23.33 2.55 23.91 6.61 23.91 7.44C23.95 7.92 23.82 8.4 23.52 8.79C23.22 9.17 22.79 9.43 22.31 9.51V11.71C23.73 12.15 24.98 12.56 26.03 12.94V11.1C25.55 11.03 25.12 10.77 24.82 10.38C24.53 10 24.39 9.51 24.44 9.03C24.44 8.2 25.02 4.14 26.56 4.14C28.11 4.14 28.69 8.2 28.69 9.03C28.74 9.51 28.6 10 28.3 10.38C28 10.77 27.57 11.03 27.09 11.1V13.33C28.3 13.78 29.19 14.15 29.73 14.39C30.9 14.89 32.06 15.43 33.17 15.99L32.7 16.94C31.6 16.39 30.46 15.86 29.31 15.36C25.1 13.61 20.77 12.2 16.34 11.14C11.13 9.83 5.83 8.95 0.49 8.5L0.58 7.44C1.98 7.56 3.38 7.71 4.78 7.89ZM27.63 9.03C27.63 7.83 26.99 5.6 26.56 5.23C26.13 5.6 25.5 7.83 25.5 9.03C25.5 9.77 25.83 10.09 26.56 10.09C27.3 10.09 27.63 9.77 27.63 9.03ZM22.84 7.44C22.84 6.24 22.21 4.01 21.78 3.64C21.35 4.01 20.72 6.24 20.72 7.44C20.72 8.17 21.05 8.5 21.78 8.5C22.52 8.5 22.84 8.17 22.84 7.44ZM7.44 8.26C7.79 8.32 8.15 8.37 8.5 8.43V6.91H7.44V8.26ZM5.84 8.03C6.02 8.05 6.2 8.08 6.38 8.1V6.38C6.38 6.31 6.39 6.24 6.42 6.17C6.44 6.11 6.48 6.05 6.53 6C6.58 5.95 6.64 5.91 6.7 5.88C6.77 5.86 6.84 5.84 6.91 5.84H9.03C9.1 5.84 9.17 5.86 9.23 5.88C9.3 5.91 9.36 5.95 9.41 6C9.46 6.05 9.5 6.11 9.52 6.17C9.55 6.24 9.56 6.31 9.56 6.38V8.61C9.74 8.65 9.92 8.68 10.09 8.71V4.78H5.84V8.03ZM10.25 3.72L7.97 1.76L5.69 3.72H10.25Z" fill="#616161"/>
<path d="M16.6 13.15C17.65 13.42 18.73 13.71 19.8 14.01L19.51 15.03C18.45 14.73 17.38 14.44 16.34 14.18C11.13 12.88 5.83 11.99 0.49 11.54L0.58 10.48C5.98 10.94 11.34 11.83 16.6 13.15Z" fill="#616161"/>
<path d="M16.6 15.95L17.13 16.09L16.87 17.12L16.34 16.98C11.13 15.68 5.83 14.79 0.49 14.34L0.58 13.28C5.98 13.74 11.34 14.63 16.6 15.95Z" fill="#616161"/>
<path d="M15 18.61L14.75 19.64C10.06 18.55 5.29 17.79 0.49 17.38L0.58 16.33C5.43 16.74 10.25 17.5 15 18.61Z" fill="#616161"/>
</g>
<defs>
<clipPath id="clip0_89_922">
<rect width="34" height="34" fill="white" transform="matrix(-1 0 0 1 34 0)"/>
</clipPath>
</defs>

</symbol><symbol id="cabin_1" width="34" height="34" viewBox="0 0 34 34">
<g clip-path="url(#clip0_89_923)">
<path d="M33.99 16.26C33.92 15.66 33.63 15.12 33.14 14.72L30.03 12.42V6.8H25.5V9.07L17.03 2.8L0.89 14.17C0.41 14.54 0.1 15.07 0.02 15.67C-0.06 16.27 0.1 16.87 0.47 17.35C1.23 18.34 2.66 18.52 3.63 17.78L3.97 17.54V18.9C3.3 19.22 2.83 19.9 2.83 20.68C2.83 21.47 3.3 22.15 3.97 22.47V24.57C3.3 24.89 2.83 25.56 2.83 26.35C2.83 27.14 3.3 27.82 3.97 28.13V30.23C3.3 30.55 2.83 31.23 2.83 32.02C2.83 33.11 3.72 34 4.82 34H13.03H14.17H19.83H20.97H29.18C30.28 34 31.17 33.11 31.17 32.02C31.17 31.02 30.43 30.2 29.47 30.06V28.3C30.43 28.17 31.17 27.35 31.17 26.35C31.17 25.35 30.43 24.53 29.47 24.4V22.64C30.43 22.5 31.17 21.68 31.17 20.68C31.17 19.69 30.43 18.87 29.47 18.73V17.65L30.32 18.27C30.74 18.6 31.23 18.76 31.73 18.76C32.39 18.76 33.05 18.48 33.5 17.92C33.88 17.45 34.05 16.86 33.99 16.26ZM26.63 7.93H28.9V11.58L26.63 9.91V7.93ZM13.03 28.33V30.03H5.1V28.33H13.03ZM5.1 24.37V22.67H13.03V24.37H5.1ZM4.82 25.5H13.03V27.2H4.82C4.35 27.2 3.97 26.82 3.97 26.35C3.97 25.88 4.35 25.5 4.82 25.5ZM13.03 32.87H4.82C4.35 32.87 3.97 32.49 3.97 32.02C3.97 31.55 4.35 31.17 4.82 31.17H13.03V32.87ZM19.83 32.87H14.17V30.6V30.03V28.33V27.77V24.93V24.37V22.67H19.83V24.37V24.93V27.77V28.33V30.03V30.6V32.87ZM20.97 24.37V22.67H28.33V24.37H20.97ZM20.97 30.03V28.33H28.33V30.03H20.97ZM30.03 32.02C30.03 32.49 29.65 32.87 29.18 32.87H20.97V31.17H29.18C29.65 31.17 30.03 31.55 30.03 32.02ZM30.03 26.35C30.03 26.82 29.65 27.2 29.18 27.2H20.97V25.5H29.18C29.65 25.5 30.03 25.88 30.03 26.35ZM30.03 20.68C30.03 21.15 29.65 21.53 29.18 21.53H20.97H13.03H4.82C4.35 21.53 3.97 21.15 3.97 20.68C3.97 20.21 4.35 19.83 4.82 19.83H13.6H20.4H29.18C29.65 19.83 30.03 20.21 30.03 20.68ZM19.27 18.7H17.57V17H19.27V18.7ZM19.27 15.87H17.57V14.17H19.27V15.87ZM16.43 15.87H14.73V14.17H16.43V15.87ZM14.73 17H16.43V18.7H14.73V17ZM22.67 17H28.33V18.7H20.4V13.03H13.6V18.7H5.1V17H11.33C11.65 17 11.9 16.75 11.9 16.43C11.9 16.12 11.65 15.87 11.33 15.87H6.38L8.83 14.17H11.9V13.03H10.47L12.92 11.33H20.81L22.17 12.32L23.14 13.03H22.1V14.17H24.7L27.03 15.87H22.67C22.35 15.87 22.1 16.12 22.1 16.43C22.1 16.75 22.35 17 22.67 17ZM14.55 10.2L16.97 8.53L19.26 10.2H14.55ZM32.61 17.21C32.22 17.7 31.51 17.77 31.02 17.38L29.43 16.22L28.95 15.87H28.95L26.62 14.17H26.62L21.18 10.2L16.98 7.14L12.56 10.2L6.84 14.17H6.84L4.36 15.89L4.35 15.89L4.15 16.03L2.96 16.86C2.46 17.24 1.75 17.15 1.37 16.66C1.18 16.41 1.1 16.12 1.14 15.82C1.18 15.52 1.34 15.25 1.56 15.08L17.02 4.2L25.5 10.48L26.75 11.4L32.45 15.62C32.68 15.81 32.83 16.08 32.86 16.38C32.89 16.68 32.8 16.98 32.61 17.21Z" fill="#616161"/>
<path d="M15.3 28.33C15.61 28.33 15.87 28.08 15.87 27.77C15.87 27.45 15.61 27.2 15.3 27.2C14.99 27.2 14.73 27.45 14.73 27.77C14.73 28.08 14.99 28.33 15.3 28.33Z" fill="#616161"/>
<path d="M26.63 6.23C26.78 6.23 26.93 6.17 27.04 6.07C27.14 5.96 27.2 5.81 27.2 5.67C27.2 5.52 27.14 5.37 27.04 5.26C26.83 5.06 26.44 5.06 26.23 5.26C26.13 5.37 26.07 5.52 26.07 5.67C26.07 5.81 26.13 5.96 26.23 6.07C26.34 6.17 26.49 6.23 26.63 6.23Z" fill="#616161"/>
<path d="M28.9 6.23C29.21 6.23 29.47 5.98 29.47 5.67V3.4C29.47 3.09 29.21 2.83 28.9 2.83C28.59 2.83 28.33 3.09 28.33 3.4V5.67C28.33 5.98 28.59 6.23 28.9 6.23Z" fill="#616161"/>
<path d="M28.9 2.27C29.21 2.27 29.47 2.01 29.47 1.7V0.57C29.47 0.25 29.21 0 28.9 0C28.59 0 28.33 0.25 28.33 0.57V1.7C28.33 2.01 28.59 2.27 28.9 2.27Z" fill="#616161"/>
<path d="M26.63 4.53C26.95 4.53 27.2 4.28 27.2 3.97V2.83C27.2 2.52 26.95 2.27 26.63 2.27C26.32 2.27 26.07 2.52 26.07 2.83V3.97C26.07 4.28 26.32 4.53 26.63 4.53Z" fill="#616161"/>
<path d="M26.63 1.7C26.95 1.7 27.2 1.45 27.2 1.13V0.57C27.2 0.25 26.95 0 26.63 0C26.32 0 26.07 0.25 26.07 0.57V1.13C26.07 1.45 26.32 1.7 26.63 1.7Z" fill="#616161"/>
</g>
<defs>
<clipPath id="clip0_89_923">
<rect width="34" height="34" fill="white"/>
</clipPath>
</defs>

</symbol><symbol id="treehouse_1_1" width="34" height="34" viewBox="0 0 34 34">
<g clip-path="url(#clip0_89_924)">
<path d="M1.74 17.7C1.94 17.81 2.15 17.9 2.37 17.96C2.1 18.94 2.38 19.99 3.1 20.71C3.81 21.42 4.86 21.7 5.84 21.43C6.23 22.71 7.35 23.63 8.68 23.78C8.88 24.32 9.2 24.81 9.63 25.19V28.9C9.63 30.52 9.31 32.22 8.46 32.72C8.36 31.58 7.98 29.38 6.55 28.43C6.29 28.25 5.94 28.33 5.76 28.59C5.59 28.85 5.66 29.2 5.92 29.37C6.54 29.9 6.96 30.63 7.1 31.44C6.55 30.95 5.84 30.65 5.1 30.6C4.79 30.6 4.54 30.85 4.54 31.16C4.54 31.47 4.78 31.72 5.09 31.73C5.83 31.83 6.5 32.25 6.91 32.87H3.97C3.65 32.87 3.4 33.12 3.4 33.43C3.4 33.75 3.65 34 3.97 34H33.43C33.75 34 34 33.75 34 33.43C34 33.12 33.75 32.87 33.43 32.87H32.3V8.5C33.24 8.5 34 7.74 34 6.8V6.58C34 6.24 33.9 5.91 33.72 5.63L30.84 1.33C30.53 0.85 30 0.57 29.43 0.57H15.3C15.11 0.57 14.93 0.66 14.83 0.82L14.65 1.08C13.71 0.41 12.46 0.39 11.5 1.03C10.78 0.29 9.76 -0.08 8.73 0.02C7.7 0.12 6.78 0.68 6.21 1.55C6.03 1.84 5.89 2.15 5.8 2.48C4.06 1.89 2.13 2.57 1.16 4.14C0.19 5.7 0.43 7.73 1.73 9.03C1.34 9.52 1.13 10.14 1.13 10.77C1.14 11.19 1.23 11.6 1.42 11.98C0.47 12.66 -0.06 13.77 0.01 14.93C0.07 16.09 0.73 17.14 1.74 17.7ZM9.9 32.87C10.47 32 10.77 30.65 10.77 28.9V25.87C11.5 26.13 12.3 26.13 13.03 25.87V28.9C13.03 30.65 13.33 32 13.9 32.87H9.9ZM31.17 22.1H24.37V20.97H31.17V22.1ZM23.23 30.6H19.83V28.9H23.23V30.6ZM23.23 27.77H19.83V26.07H23.23V27.77ZM23.23 24.93H19.83V23.23H23.23V24.93ZM19.83 31.73H23.23V32.87H19.83V31.73ZM23.23 22.1H19.83V15.87C19.83 14.93 20.59 14.17 21.53 14.17C22.47 14.17 23.23 14.93 23.23 15.87V22.1ZM18.7 22.1H14.17V21.64C14.48 21.46 14.76 21.23 15 20.97H18.7V22.1ZM16.51 32.87C16.57 32.38 16.84 31.95 17.25 31.68C17.53 31.54 17.65 31.2 17.51 30.92C17.37 30.64 17.03 30.52 16.75 30.66C15.99 31.11 15.48 31.87 15.37 32.74C14.5 32.27 14.17 30.54 14.17 28.9V23.23H18.7V32.87H16.51ZM24.37 32.87V23.23H28.9V32.87H24.37ZM30.03 32.87V23.23H31.17V32.87H30.03ZM31.17 19.83H24.37V15.87C24.37 14.3 23.1 13.03 21.53 13.03C19.97 13.03 18.7 14.3 18.7 15.87V19.83H15.66C15.8 19.47 15.86 19.09 15.87 18.7C15.87 18.55 15.86 18.4 15.84 18.26C16.77 17.73 17.4 16.8 17.54 15.74C17.68 14.68 17.31 13.62 16.54 12.87C16.84 12.42 17 11.88 17 11.33C16.99 10.18 16.29 9.15 15.22 8.71C15.24 8.64 15.24 8.57 15.25 8.5H31.17V19.83ZM29.43 1.7C29.62 1.7 29.79 1.79 29.9 1.95L32.77 6.26C32.83 6.35 32.87 6.46 32.87 6.58V6.8C32.87 7.11 32.61 7.37 32.3 7.37H15.26C15.1 6.29 14.5 5.32 13.61 4.69L15.6 1.7H29.43ZM5.6 16.74C5.52 16.61 5.4 16.52 5.25 16.48C5.1 16.45 4.95 16.47 4.82 16.55C4.08 17.07 3.1 17.13 2.29 16.71C1.58 16.31 1.13 15.55 1.13 14.73C1.13 14 1.49 13.3 2.1 12.88C2.43 13.18 2.83 13.4 3.25 13.53C3.55 13.62 3.87 13.44 3.96 13.14C4.05 12.84 3.88 12.53 3.58 12.44C2.81 12.24 2.28 11.55 2.27 10.77C2.26 9.99 2.8 9.31 3.55 9.12C3.75 9.08 3.9 8.93 3.96 8.73C4.02 8.54 3.97 8.33 3.83 8.18C3.69 8.03 3.48 7.97 3.28 8.02C3.04 8.08 2.81 8.18 2.6 8.3C1.59 7.35 1.41 5.82 2.17 4.67C2.94 3.51 4.42 3.08 5.68 3.65C5.72 4.08 5.82 4.5 6 4.89C6.09 5.1 6.29 5.23 6.52 5.23C6.6 5.23 6.68 5.21 6.75 5.18C6.89 5.12 6.99 5 7.05 4.86C7.1 4.72 7.1 4.57 7.03 4.43C6.69 3.7 6.74 2.85 7.17 2.17C7.54 1.59 8.16 1.21 8.84 1.15C9.53 1.08 10.21 1.33 10.69 1.82C10.51 2.1 10.37 2.4 10.3 2.72C10.22 3.02 10.41 3.33 10.72 3.4C10.76 3.41 10.8 3.42 10.85 3.42C11.11 3.41 11.34 3.23 11.4 2.98C11.58 2.22 12.26 1.69 13.03 1.7C13.39 1.7 13.74 1.81 14.02 2.02L12.59 4.18C12.3 4.08 12.01 4.02 11.71 3.99C11.51 3.97 11.31 4.06 11.2 4.22C11.08 4.39 11.06 4.6 11.14 4.79C11.23 4.97 11.4 5.09 11.6 5.11C11.94 5.14 12.26 5.24 12.56 5.38C13.54 5.86 14.16 6.85 14.17 7.93C14.17 8.68 13.86 9.4 13.32 9.92C13.11 10.14 13.11 10.49 13.33 10.71C13.54 10.92 13.89 10.93 14.12 10.73C14.4 10.45 14.64 10.13 14.83 9.77C15.46 10.04 15.86 10.65 15.87 11.33C15.87 11.65 15.78 11.96 15.61 12.23C15.36 12.11 15.1 12.02 14.83 11.96C14.63 11.92 14.42 11.99 14.29 12.14C14.16 12.3 14.11 12.51 14.18 12.7C14.25 12.9 14.42 13.04 14.62 13.07C15.76 13.31 16.54 14.37 16.42 15.53C16.31 16.69 15.33 17.57 14.16 17.57C13.85 17.57 13.6 17.82 13.6 18.14C13.6 18.45 13.85 18.7 14.16 18.7C14.35 18.7 14.54 18.68 14.73 18.65C14.73 18.67 14.73 18.68 14.73 18.7C14.73 19.6 14.2 20.41 13.37 20.78C12.89 20.98 12.36 21.02 11.86 20.89C11.66 20.83 11.45 20.88 11.31 21.03C11.16 21.17 11.1 21.38 11.15 21.57C11.21 21.77 11.36 21.92 11.55 21.98C11.85 22.06 12.16 22.1 12.47 22.1C12.66 22.1 12.85 22.08 13.03 22.05V24.62C12.25 25.07 11.27 25.01 10.54 24.48C9.81 23.94 9.48 23 9.71 22.12C9.79 21.82 9.61 21.51 9.31 21.43C9 21.35 8.69 21.53 8.62 21.84C8.55 22.09 8.52 22.34 8.52 22.59C7.34 22.31 6.61 21.14 6.85 19.95C6.89 19.76 6.82 19.55 6.67 19.42C6.52 19.28 6.3 19.24 6.11 19.31C5.92 19.37 5.78 19.54 5.74 19.74C5.71 19.92 5.69 20.1 5.68 20.28C5.5 20.36 5.3 20.4 5.1 20.4C4.16 20.4 3.4 19.64 3.4 18.7C3.4 18.5 3.44 18.3 3.52 18.12C4.19 18.09 4.85 17.88 5.42 17.52C5.55 17.44 5.64 17.31 5.67 17.16C5.71 17.02 5.68 16.86 5.6 16.74Z" fill="#616161"/>
<path d="M9.07 17.57C9.38 17.57 9.63 17.31 9.63 17C9.63 16.69 9.89 16.43 10.2 16.43C10.51 16.43 10.77 16.18 10.77 15.87C10.77 15.55 10.51 15.3 10.2 15.3C9.26 15.3 8.5 16.06 8.5 17C8.5 17.31 8.75 17.57 9.07 17.57Z" fill="#616161"/>
<path d="M6.8 10.77C7.11 10.77 7.37 10.51 7.37 10.2C7.37 9.89 7.62 9.63 7.93 9.63C8.25 9.63 8.5 9.38 8.5 9.07C8.5 8.75 8.25 8.5 7.93 8.5C6.99 8.5 6.23 9.26 6.23 10.2C6.23 10.51 6.49 10.77 6.8 10.77Z" fill="#616161"/>
<path d="M11.33 11.9C11.65 11.9 11.9 12.15 11.9 12.47C11.9 12.78 12.15 13.03 12.47 13.03C12.78 13.03 13.03 12.78 13.03 12.47C13.03 11.53 12.27 10.77 11.33 10.77C11.02 10.77 10.77 11.02 10.77 11.33C10.77 11.65 11.02 11.9 11.33 11.9Z" fill="#616161"/>
<path d="M26.63 14.17H28.9C29.53 14.17 30.03 13.66 30.03 13.03V10.77C30.03 10.14 29.53 9.63 28.9 9.63H26.63C26.01 9.63 25.5 10.14 25.5 10.77V13.03C25.5 13.66 26.01 14.17 26.63 14.17ZM26.63 10.77H28.9V13.03H26.63V10.77Z" fill="#616161"/>
<path d="M16.43 6.23H30.03C30.35 6.23 30.6 5.98 30.6 5.67C30.6 5.35 30.35 5.1 30.03 5.1H16.43C16.12 5.1 15.87 5.35 15.87 5.67C15.87 5.98 16.12 6.23 16.43 6.23Z" fill="#616161"/>
<path d="M1.7 34C2.01 34 2.27 33.75 2.27 33.43C2.27 33.12 2.01 32.87 1.7 32.87H0.57C0.25 32.87 0 33.12 0 33.43C0 33.75 0.25 34 0.57 34H1.7Z" fill="#616161"/>
</g>
<defs>
<clipPath id="clip0_89_924">
<rect width="34" height="34" fill="white"/>
</clipPath>
</defs>

</symbol></defs></svg>